G75*
%MOIN*%
%OFA0B0*%
%FSLAX25Y25*%
%IPPOS*%
%LPD*%
%AMOC8*
5,1,8,0,0,1.08239X$1,22.5*
%
%ADD10R,0.04724X0.04724*%
%ADD11R,0.06425X0.06425*%
%ADD12C,0.06425*%
%ADD13R,0.06437X0.06437*%
%ADD14C,0.06437*%
%ADD15C,0.03200*%
%ADD16C,0.01200*%
%ADD17C,0.03200*%
%ADD18C,0.04500*%
%ADD19C,0.01600*%
%ADD20C,0.02400*%
%ADD21C,0.01400*%
D10*
X0097114Y0241500D03*
X0105382Y0241500D03*
X0132646Y0241500D03*
X0140913Y0241500D03*
X0168177Y0241500D03*
X0176445Y0241500D03*
X0203705Y0241500D03*
X0211972Y0241500D03*
D11*
X0129543Y0076500D03*
D12*
X0139543Y0076500D03*
X0149543Y0076500D03*
X0159543Y0076500D03*
X0169543Y0076500D03*
X0179543Y0076500D03*
D13*
X0200961Y0206500D03*
D14*
X0200961Y0196500D03*
X0200961Y0186500D03*
X0200961Y0176500D03*
X0200961Y0166500D03*
X0200961Y0156500D03*
X0200961Y0146500D03*
X0200961Y0136500D03*
X0200961Y0126500D03*
X0200961Y0116500D03*
D15*
X0196106Y0111812D03*
X0192981Y0117437D03*
X0183918Y0124625D03*
X0177356Y0124625D03*
X0167043Y0117750D03*
X0162981Y0120875D03*
X0162356Y0113375D03*
X0158293Y0112437D03*
X0153293Y0104937D03*
X0163606Y0104625D03*
X0172981Y0104625D03*
X0177981Y0096500D03*
X0184543Y0091812D03*
X0181106Y0089625D03*
X0183918Y0086812D03*
X0190481Y0085250D03*
X0199543Y0090875D03*
X0192668Y0091812D03*
X0199543Y0101500D03*
X0209543Y0096500D03*
X0209231Y0083688D03*
X0219543Y0076500D03*
X0239543Y0096500D03*
X0187356Y0104000D03*
X0183606Y0107125D03*
X0161731Y0096500D03*
X0172981Y0085250D03*
X0143606Y0088687D03*
X0143606Y0092750D03*
X0143606Y0096812D03*
X0137043Y0106500D03*
X0129543Y0120875D03*
X0132981Y0123062D03*
X0117981Y0127437D03*
X0123293Y0137125D03*
X0136418Y0146188D03*
X0136731Y0150188D03*
X0152043Y0148125D03*
X0165981Y0144625D03*
X0151543Y0160125D03*
X0130168Y0172750D03*
X0110793Y0192125D03*
X0104856Y0192125D03*
X0098981Y0189937D03*
X0099543Y0181500D03*
X0075168Y0183375D03*
X0067043Y0185250D03*
X0080541Y0211085D03*
X0094543Y0220750D03*
X0109543Y0236500D03*
X0124543Y0241500D03*
X0144543Y0236500D03*
X0139418Y0220875D03*
X0127543Y0211500D03*
X0139419Y0207750D03*
X0152543Y0207750D03*
X0177981Y0202125D03*
X0191165Y0204835D03*
X0191165Y0208272D03*
X0193606Y0188687D03*
X0193606Y0181500D03*
X0193918Y0168375D03*
X0193918Y0161188D03*
X0193606Y0154000D03*
X0192981Y0146188D03*
X0164856Y0184937D03*
X0117356Y0202125D03*
X0069543Y0226500D03*
X0066106Y0220250D03*
X0089543Y0246500D03*
X0169231Y0230250D03*
X0180481Y0236500D03*
X0216418Y0236500D03*
X0219543Y0246500D03*
X0239543Y0226500D03*
X0102043Y0144000D03*
X0089543Y0144000D03*
X0081731Y0148375D03*
X0082043Y0156500D03*
X0066731Y0137750D03*
X0094543Y0130562D03*
X0119543Y0111500D03*
X0109543Y0106500D03*
X0069543Y0096500D03*
X0089543Y0076500D03*
D16*
X0085277Y0078226D02*
X0085277Y0064675D01*
X0223809Y0064675D01*
X0223809Y0078226D01*
X0223766Y0078276D01*
X0223809Y0078880D01*
X0223809Y0079486D01*
X0223856Y0079532D01*
X0223896Y0080087D01*
X0223825Y0080196D01*
X0223942Y0080732D01*
X0223981Y0081279D01*
X0224079Y0081364D01*
X0224211Y0081970D01*
X0224157Y0082089D01*
X0224349Y0082602D01*
X0224465Y0083138D01*
X0224575Y0083208D01*
X0224792Y0083789D01*
X0224755Y0083914D01*
X0225018Y0084396D01*
X0225209Y0084909D01*
X0225328Y0084963D01*
X0225625Y0085508D01*
X0225606Y0085637D01*
X0225935Y0086076D01*
X0226198Y0086557D01*
X0226323Y0086593D01*
X0226694Y0087090D01*
X0226694Y0087220D01*
X0227082Y0087608D01*
X0227411Y0088047D01*
X0227539Y0088065D01*
X0227978Y0088504D01*
X0227997Y0088633D01*
X0228435Y0088961D01*
X0228823Y0089349D01*
X0228953Y0089349D01*
X0229450Y0089721D01*
X0229486Y0089846D01*
X0229968Y0090108D01*
X0230407Y0090437D01*
X0230536Y0090418D01*
X0231080Y0090716D01*
X0231134Y0090834D01*
X0231648Y0091026D01*
X0232129Y0091288D01*
X0232254Y0091252D01*
X0232835Y0091468D01*
X0232905Y0091578D01*
X0233441Y0091695D01*
X0233955Y0091886D01*
X0234073Y0091832D01*
X0234679Y0091964D01*
X0234764Y0092062D01*
X0235311Y0092101D01*
X0235847Y0092218D01*
X0235957Y0092148D01*
X0236511Y0092187D01*
X0236558Y0092234D01*
X0237163Y0092234D01*
X0237767Y0092277D01*
X0237817Y0092234D01*
X0251369Y0092234D01*
X0251369Y0230766D01*
X0237817Y0230766D01*
X0237767Y0230723D01*
X0237163Y0230766D01*
X0236558Y0230766D01*
X0236511Y0230813D01*
X0235957Y0230852D01*
X0235847Y0230782D01*
X0235311Y0230899D01*
X0234764Y0230938D01*
X0234679Y0231036D01*
X0234073Y0231168D01*
X0233955Y0231114D01*
X0233441Y0231305D01*
X0232905Y0231422D01*
X0232835Y0231532D01*
X0232254Y0231748D01*
X0232129Y0231712D01*
X0231648Y0231974D01*
X0231134Y0232166D01*
X0231080Y0232284D01*
X0230536Y0232582D01*
X0230407Y0232563D01*
X0229968Y0232892D01*
X0229486Y0233154D01*
X0229450Y0233279D01*
X0228953Y0233651D01*
X0228823Y0233651D01*
X0228435Y0234039D01*
X0227997Y0234367D01*
X0227978Y0234496D01*
X0227539Y0234935D01*
X0227411Y0234953D01*
X0227082Y0235392D01*
X0226694Y0235780D01*
X0226694Y0235910D01*
X0226323Y0236406D01*
X0226198Y0236443D01*
X0225935Y0236924D01*
X0225606Y0237363D01*
X0225625Y0237492D01*
X0225328Y0238037D01*
X0225209Y0238091D01*
X0225018Y0238604D01*
X0224755Y0239086D01*
X0224792Y0239211D01*
X0224575Y0239792D01*
X0224465Y0239862D01*
X0224349Y0240398D01*
X0224157Y0240911D01*
X0224211Y0241030D01*
X0224079Y0241636D01*
X0223981Y0241721D01*
X0223942Y0242268D01*
X0223825Y0242804D01*
X0223896Y0242913D01*
X0223856Y0243468D01*
X0223809Y0243514D01*
X0223809Y0244120D01*
X0223766Y0244724D01*
X0223809Y0244774D01*
X0223809Y0258325D01*
X0085277Y0258325D01*
X0085277Y0244774D01*
X0085320Y0244724D01*
X0085277Y0244120D01*
X0085277Y0243514D01*
X0085230Y0243468D01*
X0085191Y0242913D01*
X0085261Y0242804D01*
X0085145Y0242268D01*
X0085106Y0241721D01*
X0085007Y0241636D01*
X0084875Y0241030D01*
X0084929Y0240911D01*
X0084738Y0240398D01*
X0084621Y0239862D01*
X0084512Y0239792D01*
X0084295Y0239211D01*
X0084332Y0239086D01*
X0084069Y0238604D01*
X0083877Y0238091D01*
X0083759Y0238037D01*
X0083462Y0237492D01*
X0083480Y0237363D01*
X0083152Y0236924D01*
X0082889Y0236443D01*
X0082764Y0236406D01*
X0082392Y0235910D01*
X0082392Y0235780D01*
X0082005Y0235392D01*
X0081676Y0234953D01*
X0081547Y0234935D01*
X0081109Y0234496D01*
X0081090Y0234367D01*
X0080651Y0234039D01*
X0080263Y0233651D01*
X0080133Y0233651D01*
X0079637Y0233279D01*
X0079600Y0233154D01*
X0079119Y0232892D01*
X0078680Y0232563D01*
X0078551Y0232582D01*
X0078007Y0232284D01*
X0077953Y0232166D01*
X0077439Y0231974D01*
X0076958Y0231712D01*
X0076833Y0231748D01*
X0076252Y0231532D01*
X0076181Y0231422D01*
X0075646Y0231305D01*
X0075132Y0231114D01*
X0075013Y0231168D01*
X0074407Y0231036D01*
X0074322Y0230938D01*
X0073775Y0230899D01*
X0073240Y0230782D01*
X0073130Y0230852D01*
X0072576Y0230813D01*
X0072529Y0230766D01*
X0071923Y0230766D01*
X0071319Y0230723D01*
X0071269Y0230766D01*
X0057718Y0230766D01*
X0057718Y0092234D01*
X0071269Y0092234D01*
X0071319Y0092277D01*
X0071923Y0092234D01*
X0072529Y0092234D01*
X0072576Y0092187D01*
X0073130Y0092148D01*
X0073240Y0092218D01*
X0073775Y0092101D01*
X0074322Y0092062D01*
X0074407Y0091964D01*
X0075013Y0091832D01*
X0075132Y0091886D01*
X0075646Y0091695D01*
X0076181Y0091578D01*
X0076252Y0091468D01*
X0076833Y0091252D01*
X0076958Y0091288D01*
X0077439Y0091026D01*
X0077953Y0090834D01*
X0078007Y0090716D01*
X0078551Y0090418D01*
X0078680Y0090437D01*
X0079119Y0090108D01*
X0079600Y0089846D01*
X0079637Y0089721D01*
X0080133Y0089349D01*
X0080263Y0089349D01*
X0080651Y0088961D01*
X0081090Y0088633D01*
X0081109Y0088504D01*
X0081547Y0088065D01*
X0081676Y0088047D01*
X0082005Y0087608D01*
X0082392Y0087220D01*
X0082392Y0087090D01*
X0082764Y0086593D01*
X0082889Y0086557D01*
X0083152Y0086076D01*
X0083480Y0085637D01*
X0083462Y0085508D01*
X0083759Y0084963D01*
X0083877Y0084909D01*
X0084069Y0084396D01*
X0084332Y0083914D01*
X0084295Y0083789D01*
X0084512Y0083208D01*
X0084621Y0083138D01*
X0084738Y0082602D01*
X0084929Y0082089D01*
X0084875Y0081970D01*
X0085007Y0081364D01*
X0085106Y0081279D01*
X0085145Y0080732D01*
X0085261Y0080196D01*
X0085191Y0080087D01*
X0085230Y0079532D01*
X0085277Y0079486D01*
X0085277Y0078880D01*
X0085320Y0078276D01*
X0085277Y0078226D01*
X0085320Y0078279D02*
X0124731Y0078279D01*
X0124731Y0077081D02*
X0085277Y0077081D01*
X0085277Y0075882D02*
X0124731Y0075882D01*
X0124731Y0074684D02*
X0085277Y0074684D01*
X0085277Y0073485D02*
X0124731Y0073485D01*
X0124731Y0072625D02*
X0125668Y0071687D01*
X0133419Y0071687D01*
X0134356Y0072625D01*
X0134356Y0080375D01*
X0133419Y0081313D01*
X0125668Y0081313D01*
X0124731Y0080375D01*
X0124731Y0072625D01*
X0125069Y0072287D02*
X0085277Y0072287D01*
X0085277Y0071088D02*
X0223809Y0071088D01*
X0223809Y0069890D02*
X0085277Y0069890D01*
X0085277Y0068691D02*
X0223809Y0068691D01*
X0223809Y0067493D02*
X0085277Y0067493D01*
X0085277Y0066294D02*
X0223809Y0066294D01*
X0223809Y0065096D02*
X0085277Y0065096D01*
X0085277Y0079478D02*
X0124731Y0079478D01*
X0125032Y0080676D02*
X0085157Y0080676D01*
X0084896Y0081875D02*
X0134643Y0081875D01*
X0134643Y0083073D02*
X0084635Y0083073D01*
X0084137Y0084272D02*
X0134643Y0084272D01*
X0134643Y0085470D02*
X0083482Y0085470D01*
X0082708Y0086669D02*
X0134643Y0086669D01*
X0134643Y0087867D02*
X0081810Y0087867D01*
X0080547Y0089066D02*
X0134643Y0089066D01*
X0134643Y0090264D02*
X0078911Y0090264D01*
X0076267Y0091463D02*
X0134643Y0091463D01*
X0134643Y0092661D02*
X0057718Y0092661D01*
X0057718Y0093860D02*
X0134643Y0093860D01*
X0134643Y0095058D02*
X0057718Y0095058D01*
X0057718Y0096257D02*
X0134643Y0096257D01*
X0134643Y0097455D02*
X0057718Y0097455D01*
X0057718Y0098654D02*
X0134643Y0098654D01*
X0134643Y0099852D02*
X0057718Y0099852D01*
X0057718Y0101051D02*
X0134643Y0101051D01*
X0134643Y0102249D02*
X0057718Y0102249D01*
X0057718Y0103448D02*
X0078550Y0103448D01*
X0078907Y0103300D02*
X0134643Y0103300D01*
X0134643Y0078523D01*
X0134908Y0077884D01*
X0134731Y0077457D01*
X0134731Y0075543D01*
X0135463Y0073774D01*
X0136817Y0072420D01*
X0138586Y0071687D01*
X0140501Y0071687D01*
X0142269Y0072420D01*
X0143623Y0073774D01*
X0144356Y0075543D01*
X0144356Y0077457D01*
X0143623Y0079226D01*
X0142269Y0080580D01*
X0140501Y0081313D01*
X0139443Y0081313D01*
X0139443Y0104375D01*
X0139756Y0104687D01*
X0140243Y0105863D01*
X0140243Y0107137D01*
X0139756Y0108313D01*
X0138856Y0109213D01*
X0137680Y0109700D01*
X0080869Y0109700D01*
X0065243Y0125325D01*
X0065243Y0192675D01*
X0069945Y0197376D01*
X0070340Y0197212D01*
X0071872Y0197212D01*
X0073287Y0197799D01*
X0074370Y0198882D01*
X0074956Y0200297D01*
X0074956Y0201828D01*
X0074370Y0203243D01*
X0073287Y0204326D01*
X0071872Y0204912D01*
X0070340Y0204912D01*
X0068925Y0204326D01*
X0068861Y0204262D01*
X0068469Y0204262D01*
X0067293Y0203775D01*
X0059330Y0195813D01*
X0058843Y0194637D01*
X0058843Y0123363D01*
X0059330Y0122187D01*
X0060231Y0121287D01*
X0077731Y0103787D01*
X0078907Y0103300D01*
X0076871Y0104646D02*
X0057718Y0104646D01*
X0057718Y0105845D02*
X0075673Y0105845D01*
X0074474Y0107043D02*
X0057718Y0107043D01*
X0057718Y0108242D02*
X0073276Y0108242D01*
X0072077Y0109440D02*
X0057718Y0109440D01*
X0057718Y0110639D02*
X0070879Y0110639D01*
X0069680Y0111837D02*
X0057718Y0111837D01*
X0057718Y0113036D02*
X0068482Y0113036D01*
X0067283Y0114234D02*
X0057718Y0114234D01*
X0057718Y0115433D02*
X0066085Y0115433D01*
X0064886Y0116632D02*
X0057718Y0116632D01*
X0057718Y0117830D02*
X0063688Y0117830D01*
X0062489Y0119029D02*
X0057718Y0119029D01*
X0057718Y0120227D02*
X0061291Y0120227D01*
X0060092Y0121426D02*
X0057718Y0121426D01*
X0057718Y0122624D02*
X0059150Y0122624D01*
X0058843Y0123823D02*
X0057718Y0123823D01*
X0057718Y0125021D02*
X0058843Y0125021D01*
X0058843Y0126220D02*
X0057718Y0126220D01*
X0057718Y0127418D02*
X0058843Y0127418D01*
X0058843Y0128617D02*
X0057718Y0128617D01*
X0057718Y0129815D02*
X0058843Y0129815D01*
X0058843Y0131014D02*
X0057718Y0131014D01*
X0057718Y0132212D02*
X0058843Y0132212D01*
X0058843Y0133411D02*
X0057718Y0133411D01*
X0057718Y0134609D02*
X0058843Y0134609D01*
X0058843Y0135808D02*
X0057718Y0135808D01*
X0057718Y0137006D02*
X0058843Y0137006D01*
X0058843Y0138205D02*
X0057718Y0138205D01*
X0057718Y0139403D02*
X0058843Y0139403D01*
X0058843Y0140602D02*
X0057718Y0140602D01*
X0057718Y0141800D02*
X0058843Y0141800D01*
X0058843Y0142999D02*
X0057718Y0142999D01*
X0057718Y0144197D02*
X0058843Y0144197D01*
X0058843Y0145396D02*
X0057718Y0145396D01*
X0057718Y0146594D02*
X0058843Y0146594D01*
X0058843Y0147793D02*
X0057718Y0147793D01*
X0057718Y0148991D02*
X0058843Y0148991D01*
X0058843Y0150190D02*
X0057718Y0150190D01*
X0057718Y0151388D02*
X0058843Y0151388D01*
X0058843Y0152587D02*
X0057718Y0152587D01*
X0057718Y0153785D02*
X0058843Y0153785D01*
X0058843Y0154984D02*
X0057718Y0154984D01*
X0057718Y0156182D02*
X0058843Y0156182D01*
X0058843Y0157381D02*
X0057718Y0157381D01*
X0057718Y0158579D02*
X0058843Y0158579D01*
X0058843Y0159778D02*
X0057718Y0159778D01*
X0057718Y0160976D02*
X0058843Y0160976D01*
X0058843Y0162175D02*
X0057718Y0162175D01*
X0057718Y0163373D02*
X0058843Y0163373D01*
X0058843Y0164572D02*
X0057718Y0164572D01*
X0057718Y0165770D02*
X0058843Y0165770D01*
X0058843Y0166969D02*
X0057718Y0166969D01*
X0057718Y0168168D02*
X0058843Y0168168D01*
X0058843Y0169366D02*
X0057718Y0169366D01*
X0057718Y0170565D02*
X0058843Y0170565D01*
X0058843Y0171763D02*
X0057718Y0171763D01*
X0057718Y0172962D02*
X0058843Y0172962D01*
X0058843Y0174160D02*
X0057718Y0174160D01*
X0057718Y0175359D02*
X0058843Y0175359D01*
X0058843Y0176557D02*
X0057718Y0176557D01*
X0057718Y0177756D02*
X0058843Y0177756D01*
X0058843Y0178954D02*
X0057718Y0178954D01*
X0057718Y0180153D02*
X0058843Y0180153D01*
X0058843Y0181351D02*
X0057718Y0181351D01*
X0057718Y0182550D02*
X0058843Y0182550D01*
X0058843Y0183748D02*
X0057718Y0183748D01*
X0057718Y0184947D02*
X0058843Y0184947D01*
X0058843Y0186145D02*
X0057718Y0186145D01*
X0057718Y0187344D02*
X0058843Y0187344D01*
X0058843Y0188542D02*
X0057718Y0188542D01*
X0057718Y0189741D02*
X0058843Y0189741D01*
X0058843Y0190939D02*
X0057718Y0190939D01*
X0057718Y0192138D02*
X0058843Y0192138D01*
X0058843Y0193336D02*
X0057718Y0193336D01*
X0057718Y0194535D02*
X0058843Y0194535D01*
X0059298Y0195733D02*
X0057718Y0195733D01*
X0057718Y0196932D02*
X0060450Y0196932D01*
X0061648Y0198130D02*
X0057718Y0198130D01*
X0057718Y0199329D02*
X0062847Y0199329D01*
X0064045Y0200527D02*
X0057718Y0200527D01*
X0057718Y0201726D02*
X0065244Y0201726D01*
X0066442Y0202924D02*
X0057718Y0202924D01*
X0057718Y0204123D02*
X0068132Y0204123D01*
X0073490Y0204123D02*
X0091743Y0204123D01*
X0091743Y0205321D02*
X0057718Y0205321D01*
X0057718Y0206520D02*
X0091743Y0206520D01*
X0091743Y0207718D02*
X0057718Y0207718D01*
X0057718Y0208917D02*
X0091743Y0208917D01*
X0091743Y0210115D02*
X0057718Y0210115D01*
X0057718Y0211314D02*
X0091743Y0211314D01*
X0091743Y0212512D02*
X0057718Y0212512D01*
X0057718Y0213711D02*
X0091743Y0213711D01*
X0091743Y0214909D02*
X0057718Y0214909D01*
X0057718Y0216108D02*
X0091743Y0216108D01*
X0091743Y0217306D02*
X0057718Y0217306D01*
X0057718Y0218505D02*
X0091743Y0218505D01*
X0091743Y0219148D02*
X0091743Y0184300D01*
X0078986Y0184300D01*
X0077957Y0183874D01*
X0067957Y0173874D01*
X0067170Y0173086D01*
X0066743Y0172057D01*
X0066743Y0140943D01*
X0067170Y0139914D01*
X0092170Y0114914D01*
X0092957Y0114126D01*
X0093986Y0113700D01*
X0149634Y0113700D01*
X0150493Y0112840D01*
X0150493Y0106540D01*
X0150093Y0105574D01*
X0150093Y0104301D01*
X0150580Y0103125D01*
X0151481Y0102225D01*
X0152657Y0101737D01*
X0153930Y0101737D01*
X0155106Y0102225D01*
X0155519Y0102637D01*
X0157371Y0102637D01*
X0158718Y0103985D01*
X0158718Y0105762D01*
X0160613Y0105762D01*
X0160406Y0105262D01*
X0160406Y0104536D01*
X0154882Y0099012D01*
X0145931Y0099012D01*
X0145418Y0099525D01*
X0144242Y0100012D01*
X0142969Y0100012D01*
X0141793Y0099525D01*
X0140893Y0098625D01*
X0140406Y0097449D01*
X0140406Y0096176D01*
X0140893Y0095000D01*
X0141112Y0094781D01*
X0140893Y0094563D01*
X0140406Y0093387D01*
X0140406Y0092113D01*
X0140893Y0090937D01*
X0141112Y0090719D01*
X0140893Y0090500D01*
X0140406Y0089324D01*
X0140406Y0088051D01*
X0140893Y0086875D01*
X0141793Y0085975D01*
X0142969Y0085488D01*
X0144242Y0085488D01*
X0145418Y0085975D01*
X0145931Y0086487D01*
X0176132Y0086487D01*
X0176718Y0085901D01*
X0178007Y0084613D01*
X0181593Y0084613D01*
X0182106Y0084100D01*
X0183282Y0083613D01*
X0184555Y0083613D01*
X0185731Y0084100D01*
X0186631Y0085000D01*
X0187118Y0086176D01*
X0187118Y0087449D01*
X0186631Y0088625D01*
X0185731Y0089525D01*
X0184555Y0090012D01*
X0184306Y0090012D01*
X0184306Y0090262D01*
X0183819Y0091438D01*
X0182918Y0092338D01*
X0181742Y0092825D01*
X0181017Y0092825D01*
X0179924Y0093918D01*
X0180206Y0094200D01*
X0184841Y0094200D01*
X0189528Y0089512D01*
X0190443Y0089512D01*
X0190856Y0089100D01*
X0192032Y0088612D01*
X0193305Y0088612D01*
X0194481Y0089100D01*
X0195381Y0090000D01*
X0195868Y0091176D01*
X0195868Y0092449D01*
X0195381Y0093625D01*
X0194706Y0094300D01*
X0203281Y0094300D01*
X0203281Y0089286D01*
X0201445Y0087450D01*
X0192806Y0087450D01*
X0192293Y0087963D01*
X0191117Y0088450D01*
X0189844Y0088450D01*
X0188668Y0087963D01*
X0187768Y0087063D01*
X0187281Y0085887D01*
X0187281Y0084613D01*
X0187768Y0083437D01*
X0188668Y0082537D01*
X0189844Y0082050D01*
X0191117Y0082050D01*
X0192293Y0082537D01*
X0192806Y0083050D01*
X0203267Y0083050D01*
X0207681Y0087464D01*
X0207681Y0093837D01*
X0207731Y0093787D01*
X0208907Y0093300D01*
X0210180Y0093300D01*
X0211356Y0093787D01*
X0212256Y0094687D01*
X0212743Y0095863D01*
X0212743Y0096306D01*
X0216578Y0100141D01*
X0216943Y0101023D01*
X0216943Y0191977D01*
X0216578Y0192859D01*
X0215903Y0193535D01*
X0210903Y0198535D01*
X0210021Y0198900D01*
X0205182Y0198900D01*
X0205046Y0199229D01*
X0203690Y0200585D01*
X0201919Y0201318D01*
X0200002Y0201318D01*
X0198231Y0200585D01*
X0196876Y0199229D01*
X0196142Y0197458D01*
X0196142Y0195542D01*
X0196876Y0193771D01*
X0198231Y0192415D01*
X0200002Y0191681D01*
X0201919Y0191681D01*
X0203690Y0192415D01*
X0205046Y0193771D01*
X0205182Y0194100D01*
X0208549Y0194100D01*
X0212143Y0190506D01*
X0212143Y0102494D01*
X0211743Y0102094D01*
X0211743Y0147411D01*
X0210455Y0148700D01*
X0205767Y0153387D01*
X0204662Y0153387D01*
X0205046Y0153771D01*
X0205779Y0155542D01*
X0205779Y0157458D01*
X0205046Y0159229D01*
X0203690Y0160585D01*
X0201919Y0161318D01*
X0200002Y0161318D01*
X0198231Y0160585D01*
X0196876Y0159229D01*
X0196142Y0157458D01*
X0196142Y0156200D01*
X0195931Y0156200D01*
X0195418Y0156713D01*
X0194242Y0157200D01*
X0192969Y0157200D01*
X0191793Y0156713D01*
X0190893Y0155813D01*
X0190406Y0154637D01*
X0190406Y0153363D01*
X0190893Y0152187D01*
X0191793Y0151287D01*
X0192969Y0150800D01*
X0194242Y0150800D01*
X0195181Y0151189D01*
X0196093Y0150276D01*
X0197008Y0149362D01*
X0196876Y0149229D01*
X0196142Y0147458D01*
X0196142Y0145542D01*
X0196361Y0145012D01*
X0190781Y0139431D01*
X0190781Y0119763D01*
X0190268Y0119250D01*
X0189781Y0118074D01*
X0189781Y0116801D01*
X0190268Y0115625D01*
X0191168Y0114725D01*
X0192344Y0114237D01*
X0193617Y0114237D01*
X0193906Y0114357D01*
X0193906Y0114138D01*
X0193393Y0113625D01*
X0192906Y0112449D01*
X0192906Y0111176D01*
X0193393Y0110000D01*
X0194293Y0109100D01*
X0195469Y0108612D01*
X0196742Y0108612D01*
X0197918Y0109100D01*
X0198819Y0110000D01*
X0199306Y0111176D01*
X0199306Y0111970D01*
X0200002Y0111681D01*
X0201919Y0111681D01*
X0203690Y0112415D01*
X0205046Y0113771D01*
X0205779Y0115542D01*
X0205779Y0117458D01*
X0205046Y0119229D01*
X0203690Y0120585D01*
X0201919Y0121318D01*
X0200002Y0121318D01*
X0198306Y0120616D01*
X0198306Y0122384D01*
X0200002Y0121681D01*
X0201919Y0121681D01*
X0203690Y0122415D01*
X0205046Y0123771D01*
X0205779Y0125542D01*
X0205779Y0127458D01*
X0205046Y0129229D01*
X0203690Y0130585D01*
X0201919Y0131318D01*
X0200002Y0131318D01*
X0198306Y0130616D01*
X0198306Y0130734D01*
X0199473Y0131901D01*
X0200002Y0131681D01*
X0201919Y0131681D01*
X0203690Y0132415D01*
X0205046Y0133771D01*
X0205779Y0135542D01*
X0205779Y0137458D01*
X0205046Y0139229D01*
X0203690Y0140585D01*
X0201919Y0141318D01*
X0200002Y0141318D01*
X0198231Y0140585D01*
X0196876Y0139229D01*
X0196142Y0137458D01*
X0196142Y0135542D01*
X0196361Y0135012D01*
X0195181Y0133831D01*
X0195181Y0137609D01*
X0199473Y0141901D01*
X0200002Y0141681D01*
X0201919Y0141681D01*
X0203690Y0142415D01*
X0205046Y0143771D01*
X0205779Y0145542D01*
X0205779Y0147153D01*
X0207343Y0145589D01*
X0207343Y0102411D01*
X0204570Y0099637D01*
X0203632Y0098700D01*
X0190455Y0098700D01*
X0184940Y0104214D01*
X0185418Y0104412D01*
X0186319Y0105312D01*
X0186806Y0106488D01*
X0186806Y0107762D01*
X0186319Y0108938D01*
X0185418Y0109838D01*
X0184242Y0110325D01*
X0183517Y0110325D01*
X0178267Y0115575D01*
X0169394Y0115575D01*
X0169756Y0115937D01*
X0170243Y0117113D01*
X0170243Y0118387D01*
X0170124Y0118675D01*
X0181080Y0118675D01*
X0183830Y0121425D01*
X0184555Y0121425D01*
X0185731Y0121912D01*
X0186631Y0122812D01*
X0187118Y0123988D01*
X0187118Y0125262D01*
X0186631Y0126438D01*
X0185731Y0127338D01*
X0184555Y0127825D01*
X0183282Y0127825D01*
X0182106Y0127338D01*
X0181205Y0126438D01*
X0180718Y0125262D01*
X0180718Y0124536D01*
X0179257Y0123075D01*
X0165306Y0123075D01*
X0164793Y0123588D01*
X0163617Y0124075D01*
X0162344Y0124075D01*
X0161168Y0123588D01*
X0160268Y0122688D01*
X0159781Y0121512D01*
X0159781Y0120238D01*
X0160170Y0119300D01*
X0158906Y0118036D01*
X0156093Y0115224D01*
X0156093Y0114763D01*
X0156033Y0114703D01*
X0155667Y0115586D01*
X0154879Y0116374D01*
X0153167Y0118086D01*
X0153167Y0118086D01*
X0152379Y0118874D01*
X0151350Y0119300D01*
X0132355Y0119300D01*
X0132588Y0119862D01*
X0133617Y0119862D01*
X0134793Y0120350D01*
X0135694Y0121250D01*
X0136181Y0122426D01*
X0136181Y0123699D01*
X0135694Y0124875D01*
X0135181Y0125388D01*
X0135181Y0132787D01*
X0135965Y0132463D01*
X0137497Y0132463D01*
X0138912Y0133049D01*
X0139995Y0134132D01*
X0140581Y0135547D01*
X0140581Y0136203D01*
X0146417Y0142039D01*
X0146843Y0143068D01*
X0146843Y0161965D01*
X0150153Y0165275D01*
X0150809Y0165275D01*
X0152224Y0165861D01*
X0153307Y0166944D01*
X0153893Y0168359D01*
X0153893Y0169891D01*
X0153307Y0171306D01*
X0152224Y0172389D01*
X0150809Y0172975D01*
X0149277Y0172975D01*
X0147862Y0172389D01*
X0146779Y0171306D01*
X0146193Y0169891D01*
X0146193Y0169235D01*
X0141670Y0164711D01*
X0141243Y0163682D01*
X0141243Y0144785D01*
X0138618Y0142160D01*
X0138618Y0143862D01*
X0139131Y0144375D01*
X0139618Y0145551D01*
X0139618Y0146824D01*
X0139131Y0148000D01*
X0138231Y0148900D01*
X0137055Y0149387D01*
X0135782Y0149387D01*
X0134606Y0148900D01*
X0133705Y0148000D01*
X0133218Y0146824D01*
X0133218Y0145551D01*
X0133705Y0144375D01*
X0134218Y0143862D01*
X0134218Y0143036D01*
X0132368Y0141186D01*
X0132368Y0170425D01*
X0132881Y0170937D01*
X0133368Y0172113D01*
X0133368Y0173387D01*
X0132881Y0174563D01*
X0131981Y0175463D01*
X0130805Y0175950D01*
X0129532Y0175950D01*
X0128356Y0175463D01*
X0127455Y0174563D01*
X0126968Y0173387D01*
X0126968Y0172113D01*
X0127455Y0170937D01*
X0127968Y0170425D01*
X0127968Y0136786D01*
X0127343Y0136161D01*
X0127343Y0123200D01*
X0126830Y0122688D01*
X0126343Y0121512D01*
X0126343Y0120238D01*
X0126732Y0119300D01*
X0095703Y0119300D01*
X0072343Y0142660D01*
X0072343Y0151104D01*
X0072494Y0151042D01*
X0073522Y0151042D01*
X0074472Y0151435D01*
X0075199Y0152162D01*
X0075592Y0153112D01*
X0075592Y0154140D01*
X0075199Y0155090D01*
X0074472Y0155817D01*
X0073522Y0156210D01*
X0072494Y0156210D01*
X0072343Y0156148D01*
X0072343Y0166852D01*
X0072494Y0166790D01*
X0073522Y0166790D01*
X0074472Y0167183D01*
X0075199Y0167910D01*
X0075592Y0168860D01*
X0075592Y0169888D01*
X0075199Y0170838D01*
X0074472Y0171565D01*
X0073833Y0171830D01*
X0080703Y0178700D01*
X0097941Y0178700D01*
X0098907Y0178300D01*
X0100180Y0178300D01*
X0101356Y0178787D01*
X0102256Y0179687D01*
X0102743Y0180863D01*
X0102743Y0182137D01*
X0102256Y0183313D01*
X0101356Y0184213D01*
X0100180Y0184700D01*
X0098907Y0184700D01*
X0097941Y0184300D01*
X0097343Y0184300D01*
X0097343Y0187152D01*
X0098344Y0186737D01*
X0099617Y0186737D01*
X0100793Y0187225D01*
X0101694Y0188125D01*
X0102181Y0189301D01*
X0102181Y0190574D01*
X0102048Y0190894D01*
X0111181Y0200026D01*
X0111181Y0225026D01*
X0124455Y0238300D01*
X0125180Y0238300D01*
X0126356Y0238787D01*
X0126869Y0239300D01*
X0128683Y0239300D01*
X0128683Y0238475D01*
X0129621Y0237538D01*
X0135671Y0237538D01*
X0136608Y0238475D01*
X0136608Y0244525D01*
X0135671Y0245462D01*
X0129621Y0245462D01*
X0128683Y0244525D01*
X0128683Y0243700D01*
X0126869Y0243700D01*
X0126356Y0244213D01*
X0125180Y0244700D01*
X0123907Y0244700D01*
X0122731Y0244213D01*
X0121830Y0243313D01*
X0121343Y0242137D01*
X0121343Y0241411D01*
X0108070Y0228137D01*
X0106781Y0226849D01*
X0106781Y0201849D01*
X0098070Y0193137D01*
X0097875Y0192943D01*
X0097343Y0192723D01*
X0097343Y0219148D01*
X0097743Y0220113D01*
X0097743Y0221387D01*
X0097256Y0222563D01*
X0096356Y0223463D01*
X0095180Y0223950D01*
X0093907Y0223950D01*
X0092731Y0223463D01*
X0091830Y0222563D01*
X0091343Y0221387D01*
X0091343Y0220113D01*
X0091743Y0219148D01*
X0091513Y0219703D02*
X0057718Y0219703D01*
X0057718Y0220902D02*
X0091343Y0220902D01*
X0091639Y0222101D02*
X0057718Y0222101D01*
X0057718Y0223299D02*
X0092567Y0223299D01*
X0096520Y0223299D02*
X0106781Y0223299D01*
X0106781Y0222101D02*
X0097448Y0222101D01*
X0097743Y0220902D02*
X0106781Y0220902D01*
X0106781Y0219703D02*
X0097573Y0219703D01*
X0097343Y0218505D02*
X0106781Y0218505D01*
X0106781Y0217306D02*
X0097343Y0217306D01*
X0097343Y0216108D02*
X0106781Y0216108D01*
X0106781Y0214909D02*
X0097343Y0214909D01*
X0097343Y0213711D02*
X0106781Y0213711D01*
X0106781Y0212512D02*
X0097343Y0212512D01*
X0097343Y0211314D02*
X0106781Y0211314D01*
X0106781Y0210115D02*
X0097343Y0210115D01*
X0097343Y0208917D02*
X0106781Y0208917D01*
X0106781Y0207718D02*
X0097343Y0207718D01*
X0097343Y0206520D02*
X0106781Y0206520D01*
X0106781Y0205321D02*
X0097343Y0205321D01*
X0097343Y0204123D02*
X0106781Y0204123D01*
X0106781Y0202924D02*
X0097343Y0202924D01*
X0097343Y0201726D02*
X0106658Y0201726D01*
X0105459Y0200527D02*
X0097343Y0200527D01*
X0097343Y0199329D02*
X0104261Y0199329D01*
X0103062Y0198130D02*
X0097343Y0198130D01*
X0097343Y0196932D02*
X0101864Y0196932D01*
X0100665Y0195733D02*
X0097343Y0195733D01*
X0097343Y0194535D02*
X0099467Y0194535D01*
X0098268Y0193336D02*
X0097343Y0193336D01*
X0098981Y0190937D02*
X0098981Y0189937D01*
X0098981Y0190937D02*
X0108981Y0200937D01*
X0108981Y0225937D01*
X0124543Y0241500D01*
X0132646Y0241500D01*
X0136608Y0241277D02*
X0136951Y0241277D01*
X0136951Y0242475D02*
X0136608Y0242475D01*
X0136608Y0243674D02*
X0136951Y0243674D01*
X0136951Y0244525D02*
X0136951Y0238475D01*
X0137888Y0237538D01*
X0141510Y0237538D01*
X0141343Y0237137D01*
X0141343Y0235863D01*
X0141830Y0234687D01*
X0142731Y0233787D01*
X0143907Y0233300D01*
X0145180Y0233300D01*
X0146356Y0233787D01*
X0147256Y0234687D01*
X0147743Y0235863D01*
X0147743Y0237137D01*
X0147256Y0238313D01*
X0146743Y0238825D01*
X0146743Y0240536D01*
X0145455Y0241825D01*
X0144876Y0242404D01*
X0144876Y0244525D01*
X0143938Y0245462D01*
X0137888Y0245462D01*
X0136951Y0244525D01*
X0137298Y0244872D02*
X0136261Y0244872D01*
X0140913Y0241500D02*
X0142668Y0241500D01*
X0144543Y0239625D01*
X0144543Y0236500D01*
X0141343Y0236483D02*
X0122637Y0236483D01*
X0123836Y0237681D02*
X0129477Y0237681D01*
X0128683Y0238880D02*
X0126448Y0238880D01*
X0121209Y0241277D02*
X0111003Y0241277D01*
X0110455Y0241825D02*
X0109344Y0242935D01*
X0109344Y0244525D01*
X0108407Y0245462D01*
X0102357Y0245462D01*
X0101420Y0244525D01*
X0101420Y0238475D01*
X0102357Y0237538D01*
X0106510Y0237538D01*
X0106343Y0237137D01*
X0106343Y0235863D01*
X0106830Y0234687D01*
X0107731Y0233787D01*
X0108907Y0233300D01*
X0110180Y0233300D01*
X0111356Y0233787D01*
X0112256Y0234687D01*
X0112743Y0235863D01*
X0112743Y0237137D01*
X0112256Y0238313D01*
X0111743Y0238825D01*
X0111743Y0240536D01*
X0110455Y0241825D01*
X0109804Y0242475D02*
X0121484Y0242475D01*
X0122192Y0243674D02*
X0109344Y0243674D01*
X0108997Y0244872D02*
X0129031Y0244872D01*
X0136608Y0240078D02*
X0136951Y0240078D01*
X0136951Y0238880D02*
X0136608Y0238880D01*
X0135814Y0237681D02*
X0137745Y0237681D01*
X0141583Y0235284D02*
X0121439Y0235284D01*
X0120240Y0234086D02*
X0142432Y0234086D01*
X0146654Y0234086D02*
X0178370Y0234086D01*
X0178668Y0233787D02*
X0179844Y0233300D01*
X0181117Y0233300D01*
X0182293Y0233787D01*
X0183194Y0234687D01*
X0183681Y0235863D01*
X0183681Y0237137D01*
X0183194Y0238313D01*
X0182681Y0238825D01*
X0182681Y0239599D01*
X0181392Y0240887D01*
X0180407Y0241872D01*
X0180407Y0244525D01*
X0179470Y0245462D01*
X0173420Y0245462D01*
X0172483Y0244525D01*
X0172483Y0238475D01*
X0173420Y0237538D01*
X0177447Y0237538D01*
X0177281Y0237137D01*
X0177281Y0235863D01*
X0177768Y0234687D01*
X0178668Y0233787D01*
X0177521Y0235284D02*
X0147503Y0235284D01*
X0147743Y0236483D02*
X0177281Y0236483D01*
X0180481Y0236500D02*
X0180481Y0238687D01*
X0177668Y0241500D01*
X0176445Y0241500D01*
X0172483Y0241277D02*
X0168758Y0241277D01*
X0168758Y0240919D02*
X0168758Y0242081D01*
X0167596Y0242081D01*
X0167596Y0240919D01*
X0164215Y0240919D01*
X0164215Y0238927D01*
X0164324Y0238520D01*
X0164535Y0238155D01*
X0164833Y0237857D01*
X0165197Y0237647D01*
X0165604Y0237538D01*
X0167596Y0237538D01*
X0167596Y0240919D01*
X0168758Y0240919D01*
X0168758Y0237538D01*
X0170750Y0237538D01*
X0171157Y0237647D01*
X0171522Y0237857D01*
X0171820Y0238155D01*
X0172030Y0238520D01*
X0172139Y0238927D01*
X0172139Y0240919D01*
X0168758Y0240919D01*
X0168758Y0240078D02*
X0167596Y0240078D01*
X0167596Y0238880D02*
X0168758Y0238880D01*
X0168758Y0237681D02*
X0167596Y0237681D01*
X0165138Y0237681D02*
X0147518Y0237681D01*
X0146743Y0238880D02*
X0164228Y0238880D01*
X0164215Y0240078D02*
X0146743Y0240078D01*
X0146003Y0241277D02*
X0167596Y0241277D01*
X0167596Y0242081D02*
X0164215Y0242081D01*
X0164215Y0244073D01*
X0164324Y0244480D01*
X0164535Y0244845D01*
X0164833Y0245143D01*
X0165197Y0245353D01*
X0165604Y0245462D01*
X0167596Y0245462D01*
X0167596Y0242081D01*
X0167596Y0242475D02*
X0168758Y0242475D01*
X0168758Y0242081D02*
X0168758Y0245462D01*
X0170750Y0245462D01*
X0171157Y0245353D01*
X0171522Y0245143D01*
X0171820Y0244845D01*
X0172030Y0244480D01*
X0172139Y0244073D01*
X0172139Y0242081D01*
X0168758Y0242081D01*
X0168758Y0243674D02*
X0167596Y0243674D01*
X0167596Y0244872D02*
X0168758Y0244872D01*
X0171792Y0244872D02*
X0172830Y0244872D01*
X0172483Y0243674D02*
X0172139Y0243674D01*
X0172139Y0242475D02*
X0172483Y0242475D01*
X0172483Y0240078D02*
X0172139Y0240078D01*
X0172127Y0238880D02*
X0172483Y0238880D01*
X0173277Y0237681D02*
X0171216Y0237681D01*
X0164215Y0242475D02*
X0144876Y0242475D01*
X0144876Y0243674D02*
X0164215Y0243674D01*
X0164562Y0244872D02*
X0144528Y0244872D01*
X0120010Y0240078D02*
X0111743Y0240078D01*
X0111743Y0238880D02*
X0118812Y0238880D01*
X0117613Y0237681D02*
X0112518Y0237681D01*
X0112743Y0236483D02*
X0116415Y0236483D01*
X0115216Y0235284D02*
X0112503Y0235284D01*
X0111654Y0234086D02*
X0114018Y0234086D01*
X0112819Y0232887D02*
X0079113Y0232887D01*
X0080714Y0234086D02*
X0107432Y0234086D01*
X0106583Y0235284D02*
X0081924Y0235284D01*
X0082910Y0236483D02*
X0106343Y0236483D01*
X0109543Y0236500D02*
X0109543Y0239625D01*
X0107668Y0241500D01*
X0105382Y0241500D01*
X0101420Y0241277D02*
X0097695Y0241277D01*
X0097695Y0240919D02*
X0097695Y0242081D01*
X0096533Y0242081D01*
X0096533Y0240919D01*
X0093152Y0240919D01*
X0093152Y0238927D01*
X0093261Y0238520D01*
X0093472Y0238155D01*
X0093770Y0237857D01*
X0094134Y0237647D01*
X0094541Y0237538D01*
X0096533Y0237538D01*
X0096533Y0240919D01*
X0097695Y0240919D01*
X0097695Y0237538D01*
X0099687Y0237538D01*
X0100094Y0237647D01*
X0100459Y0237857D01*
X0100757Y0238155D01*
X0100967Y0238520D01*
X0101076Y0238927D01*
X0101076Y0240919D01*
X0097695Y0240919D01*
X0097695Y0240078D02*
X0096533Y0240078D01*
X0096533Y0238880D02*
X0097695Y0238880D01*
X0097695Y0237681D02*
X0096533Y0237681D01*
X0094075Y0237681D02*
X0083565Y0237681D01*
X0084219Y0238880D02*
X0093165Y0238880D01*
X0093152Y0240078D02*
X0084668Y0240078D01*
X0084929Y0241277D02*
X0096533Y0241277D01*
X0096533Y0242081D02*
X0093152Y0242081D01*
X0093152Y0244073D01*
X0093261Y0244480D01*
X0093472Y0244845D01*
X0093770Y0245143D01*
X0094134Y0245353D01*
X0094541Y0245462D01*
X0096533Y0245462D01*
X0096533Y0242081D01*
X0096533Y0242475D02*
X0097695Y0242475D01*
X0097695Y0242081D02*
X0097695Y0245462D01*
X0099687Y0245462D01*
X0100094Y0245353D01*
X0100459Y0245143D01*
X0100757Y0244845D01*
X0100967Y0244480D01*
X0101076Y0244073D01*
X0101076Y0242081D01*
X0097695Y0242081D01*
X0097695Y0243674D02*
X0096533Y0243674D01*
X0096533Y0244872D02*
X0097695Y0244872D01*
X0100729Y0244872D02*
X0101767Y0244872D01*
X0101420Y0243674D02*
X0101076Y0243674D01*
X0101076Y0242475D02*
X0101420Y0242475D01*
X0101420Y0240078D02*
X0101076Y0240078D01*
X0101064Y0238880D02*
X0101420Y0238880D01*
X0102214Y0237681D02*
X0100153Y0237681D01*
X0093152Y0242475D02*
X0085190Y0242475D01*
X0085277Y0243674D02*
X0093152Y0243674D01*
X0093499Y0244872D02*
X0085277Y0244872D01*
X0085277Y0246071D02*
X0223809Y0246071D01*
X0223809Y0247269D02*
X0085277Y0247269D01*
X0085277Y0248468D02*
X0223809Y0248468D01*
X0223809Y0249666D02*
X0085277Y0249666D01*
X0085277Y0250865D02*
X0223809Y0250865D01*
X0223809Y0252063D02*
X0085277Y0252063D01*
X0085277Y0253262D02*
X0223809Y0253262D01*
X0223809Y0254460D02*
X0085277Y0254460D01*
X0085277Y0255659D02*
X0223809Y0255659D01*
X0223809Y0256857D02*
X0085277Y0256857D01*
X0085277Y0258056D02*
X0223809Y0258056D01*
X0223809Y0244872D02*
X0215587Y0244872D01*
X0215935Y0244525D02*
X0214997Y0245462D01*
X0208947Y0245462D01*
X0208010Y0244525D01*
X0208010Y0238475D01*
X0208947Y0237538D01*
X0213385Y0237538D01*
X0213218Y0237137D01*
X0213218Y0235863D01*
X0213705Y0234687D01*
X0214606Y0233787D01*
X0215782Y0233300D01*
X0217055Y0233300D01*
X0218231Y0233787D01*
X0219131Y0234687D01*
X0219618Y0235863D01*
X0219618Y0237137D01*
X0219131Y0238313D01*
X0218231Y0239213D01*
X0217951Y0239329D01*
X0217330Y0239950D01*
X0215935Y0241345D01*
X0215935Y0244525D01*
X0215935Y0243674D02*
X0223809Y0243674D01*
X0223897Y0242475D02*
X0215935Y0242475D01*
X0216003Y0241277D02*
X0224158Y0241277D01*
X0224418Y0240078D02*
X0217201Y0240078D01*
X0218564Y0238880D02*
X0224867Y0238880D01*
X0225522Y0237681D02*
X0219393Y0237681D01*
X0219618Y0236483D02*
X0226176Y0236483D01*
X0227163Y0235284D02*
X0219378Y0235284D01*
X0218529Y0234086D02*
X0228373Y0234086D01*
X0229974Y0232887D02*
X0119042Y0232887D01*
X0117843Y0231689D02*
X0232414Y0231689D01*
X0216418Y0236500D02*
X0216418Y0237750D01*
X0212668Y0241500D01*
X0211972Y0241500D01*
X0208010Y0241277D02*
X0204286Y0241277D01*
X0204286Y0240919D02*
X0204286Y0242081D01*
X0207667Y0242081D01*
X0207667Y0244073D01*
X0207558Y0244480D01*
X0207347Y0244845D01*
X0207049Y0245143D01*
X0206684Y0245353D01*
X0206278Y0245462D01*
X0204286Y0245462D01*
X0204286Y0242081D01*
X0203124Y0242081D01*
X0203124Y0245462D01*
X0201132Y0245462D01*
X0200725Y0245353D01*
X0200360Y0245143D01*
X0200062Y0244845D01*
X0199852Y0244480D01*
X0199743Y0244073D01*
X0199743Y0242081D01*
X0203124Y0242081D01*
X0203124Y0240919D01*
X0204286Y0240919D01*
X0207667Y0240919D01*
X0207667Y0238927D01*
X0207558Y0238520D01*
X0207347Y0238155D01*
X0207049Y0237857D01*
X0206684Y0237647D01*
X0206278Y0237538D01*
X0204286Y0237538D01*
X0204286Y0240919D01*
X0204286Y0240078D02*
X0203124Y0240078D01*
X0203124Y0240919D02*
X0203124Y0237538D01*
X0201132Y0237538D01*
X0200725Y0237647D01*
X0200360Y0237857D01*
X0200062Y0238155D01*
X0199852Y0238520D01*
X0199743Y0238927D01*
X0199743Y0240919D01*
X0203124Y0240919D01*
X0203124Y0241277D02*
X0181003Y0241277D01*
X0180407Y0242475D02*
X0199743Y0242475D01*
X0199743Y0243674D02*
X0180407Y0243674D01*
X0180060Y0244872D02*
X0200090Y0244872D01*
X0203124Y0244872D02*
X0204286Y0244872D01*
X0204286Y0243674D02*
X0203124Y0243674D01*
X0203124Y0242475D02*
X0204286Y0242475D01*
X0207667Y0242475D02*
X0208010Y0242475D01*
X0208010Y0243674D02*
X0207667Y0243674D01*
X0207320Y0244872D02*
X0208358Y0244872D01*
X0208010Y0240078D02*
X0207667Y0240078D01*
X0207654Y0238880D02*
X0208010Y0238880D01*
X0208804Y0237681D02*
X0206744Y0237681D01*
X0204286Y0237681D02*
X0203124Y0237681D01*
X0203124Y0238880D02*
X0204286Y0238880D01*
X0200665Y0237681D02*
X0183455Y0237681D01*
X0183681Y0236483D02*
X0213218Y0236483D01*
X0213458Y0235284D02*
X0183441Y0235284D01*
X0182592Y0234086D02*
X0214307Y0234086D01*
X0199755Y0238880D02*
X0182681Y0238880D01*
X0182201Y0240078D02*
X0199743Y0240078D01*
X0191802Y0218035D02*
X0141535Y0218035D01*
X0141471Y0218099D01*
X0140056Y0218685D01*
X0138525Y0218685D01*
X0137110Y0218099D01*
X0136027Y0217015D01*
X0135441Y0215600D01*
X0135441Y0214069D01*
X0136027Y0212654D01*
X0137110Y0211571D01*
X0138525Y0210985D01*
X0140056Y0210985D01*
X0141471Y0211571D01*
X0141535Y0211635D01*
X0187965Y0211635D01*
X0187965Y0204198D01*
X0188453Y0203022D01*
X0189353Y0202122D01*
X0190529Y0201635D01*
X0191802Y0201635D01*
X0192978Y0202122D01*
X0193878Y0203022D01*
X0194365Y0204198D01*
X0194365Y0215471D01*
X0193878Y0216647D01*
X0192978Y0217547D01*
X0191802Y0218035D01*
X0193219Y0217306D02*
X0251369Y0217306D01*
X0251369Y0216108D02*
X0194102Y0216108D01*
X0194365Y0214909D02*
X0251369Y0214909D01*
X0251369Y0213711D02*
X0194365Y0213711D01*
X0194365Y0212512D02*
X0251369Y0212512D01*
X0251369Y0211314D02*
X0204407Y0211314D01*
X0204390Y0211318D02*
X0201433Y0211318D01*
X0201433Y0206973D01*
X0200488Y0206973D01*
X0200488Y0211318D01*
X0197531Y0211318D01*
X0197125Y0211209D01*
X0196760Y0210999D01*
X0196462Y0210701D01*
X0196251Y0210336D01*
X0196142Y0209929D01*
X0196142Y0206973D01*
X0200488Y0206973D01*
X0200488Y0206027D01*
X0201433Y0206027D01*
X0201433Y0201681D01*
X0204390Y0201681D01*
X0204797Y0201791D01*
X0205162Y0202001D01*
X0205459Y0202299D01*
X0205670Y0202664D01*
X0205779Y0203071D01*
X0205779Y0206027D01*
X0201434Y0206027D01*
X0201434Y0206973D01*
X0205779Y0206973D01*
X0205779Y0209929D01*
X0205670Y0210336D01*
X0205459Y0210701D01*
X0205162Y0210999D01*
X0204797Y0211209D01*
X0204390Y0211318D01*
X0205729Y0210115D02*
X0251369Y0210115D01*
X0251369Y0208917D02*
X0205779Y0208917D01*
X0205779Y0207718D02*
X0251369Y0207718D01*
X0251369Y0206520D02*
X0201434Y0206520D01*
X0200488Y0206520D02*
X0194365Y0206520D01*
X0194365Y0207718D02*
X0196142Y0207718D01*
X0196142Y0208917D02*
X0194365Y0208917D01*
X0194365Y0210115D02*
X0196192Y0210115D01*
X0197514Y0211314D02*
X0194365Y0211314D01*
X0196142Y0206027D02*
X0196142Y0203071D01*
X0196251Y0202664D01*
X0196462Y0202299D01*
X0196760Y0202001D01*
X0197125Y0201791D01*
X0197531Y0201681D01*
X0200488Y0201681D01*
X0200488Y0206027D01*
X0196142Y0206027D01*
X0196142Y0205321D02*
X0194365Y0205321D01*
X0194334Y0204123D02*
X0196142Y0204123D01*
X0196181Y0202924D02*
X0193781Y0202924D01*
X0192022Y0201726D02*
X0197366Y0201726D01*
X0198174Y0200527D02*
X0111181Y0200527D01*
X0111181Y0201726D02*
X0190309Y0201726D01*
X0188550Y0202924D02*
X0111181Y0202924D01*
X0111181Y0204123D02*
X0187997Y0204123D01*
X0187965Y0205321D02*
X0111181Y0205321D01*
X0111181Y0206520D02*
X0187965Y0206520D01*
X0187965Y0207718D02*
X0111181Y0207718D01*
X0111181Y0208917D02*
X0187965Y0208917D01*
X0187965Y0210115D02*
X0111181Y0210115D01*
X0111181Y0211314D02*
X0137730Y0211314D01*
X0136168Y0212512D02*
X0111181Y0212512D01*
X0111181Y0213711D02*
X0135589Y0213711D01*
X0135441Y0214909D02*
X0111181Y0214909D01*
X0111181Y0216108D02*
X0135651Y0216108D01*
X0136318Y0217306D02*
X0111181Y0217306D01*
X0111181Y0218505D02*
X0138091Y0218505D01*
X0140490Y0218505D02*
X0251369Y0218505D01*
X0251369Y0219703D02*
X0111181Y0219703D01*
X0111181Y0220902D02*
X0251369Y0220902D01*
X0251369Y0222101D02*
X0111181Y0222101D01*
X0111181Y0223299D02*
X0251369Y0223299D01*
X0251369Y0224498D02*
X0111181Y0224498D01*
X0111851Y0225696D02*
X0251369Y0225696D01*
X0251369Y0226895D02*
X0113049Y0226895D01*
X0114248Y0228093D02*
X0251369Y0228093D01*
X0251369Y0229292D02*
X0115446Y0229292D01*
X0116645Y0230490D02*
X0251369Y0230490D01*
X0251369Y0205321D02*
X0205779Y0205321D01*
X0205779Y0204123D02*
X0251369Y0204123D01*
X0251369Y0202924D02*
X0205740Y0202924D01*
X0204555Y0201726D02*
X0251369Y0201726D01*
X0251369Y0200527D02*
X0203748Y0200527D01*
X0204946Y0199329D02*
X0251369Y0199329D01*
X0251369Y0198130D02*
X0211307Y0198130D01*
X0212506Y0196932D02*
X0251369Y0196932D01*
X0251369Y0195733D02*
X0213704Y0195733D01*
X0214903Y0194535D02*
X0251369Y0194535D01*
X0251369Y0193336D02*
X0216101Y0193336D01*
X0216877Y0192138D02*
X0251369Y0192138D01*
X0251369Y0190939D02*
X0216943Y0190939D01*
X0216943Y0189741D02*
X0251369Y0189741D01*
X0251369Y0188542D02*
X0216943Y0188542D01*
X0216943Y0187344D02*
X0251369Y0187344D01*
X0251369Y0186145D02*
X0216943Y0186145D01*
X0216943Y0184947D02*
X0251369Y0184947D01*
X0251369Y0183748D02*
X0216943Y0183748D01*
X0216943Y0182550D02*
X0251369Y0182550D01*
X0251369Y0181351D02*
X0216943Y0181351D01*
X0216943Y0180153D02*
X0251369Y0180153D01*
X0251369Y0178954D02*
X0216943Y0178954D01*
X0216943Y0177756D02*
X0251369Y0177756D01*
X0251369Y0176557D02*
X0216943Y0176557D01*
X0216943Y0175359D02*
X0251369Y0175359D01*
X0251369Y0174160D02*
X0216943Y0174160D01*
X0216943Y0172962D02*
X0251369Y0172962D01*
X0251369Y0171763D02*
X0216943Y0171763D01*
X0216943Y0170565D02*
X0251369Y0170565D01*
X0251369Y0169366D02*
X0216943Y0169366D01*
X0216943Y0168168D02*
X0251369Y0168168D01*
X0251369Y0166969D02*
X0216943Y0166969D01*
X0216943Y0165770D02*
X0251369Y0165770D01*
X0251369Y0164572D02*
X0216943Y0164572D01*
X0216943Y0163373D02*
X0251369Y0163373D01*
X0251369Y0162175D02*
X0216943Y0162175D01*
X0216943Y0160976D02*
X0251369Y0160976D01*
X0251369Y0159778D02*
X0216943Y0159778D01*
X0216943Y0158579D02*
X0251369Y0158579D01*
X0251369Y0157381D02*
X0216943Y0157381D01*
X0216943Y0156182D02*
X0251369Y0156182D01*
X0251369Y0154984D02*
X0216943Y0154984D01*
X0216943Y0153785D02*
X0251369Y0153785D01*
X0251369Y0152587D02*
X0216943Y0152587D01*
X0216943Y0151388D02*
X0251369Y0151388D01*
X0251369Y0150190D02*
X0216943Y0150190D01*
X0216943Y0148991D02*
X0251369Y0148991D01*
X0251369Y0147793D02*
X0216943Y0147793D01*
X0216943Y0146594D02*
X0251369Y0146594D01*
X0251369Y0145396D02*
X0216943Y0145396D01*
X0216943Y0144197D02*
X0251369Y0144197D01*
X0251369Y0142999D02*
X0216943Y0142999D01*
X0216943Y0141800D02*
X0251369Y0141800D01*
X0251369Y0140602D02*
X0216943Y0140602D01*
X0216943Y0139403D02*
X0251369Y0139403D01*
X0251369Y0138205D02*
X0216943Y0138205D01*
X0216943Y0137006D02*
X0251369Y0137006D01*
X0251369Y0135808D02*
X0216943Y0135808D01*
X0216943Y0134609D02*
X0251369Y0134609D01*
X0251369Y0133411D02*
X0216943Y0133411D01*
X0216943Y0132212D02*
X0251369Y0132212D01*
X0251369Y0131014D02*
X0216943Y0131014D01*
X0216943Y0129815D02*
X0251369Y0129815D01*
X0251369Y0128617D02*
X0216943Y0128617D01*
X0216943Y0127418D02*
X0251369Y0127418D01*
X0251369Y0126220D02*
X0216943Y0126220D01*
X0216943Y0125021D02*
X0251369Y0125021D01*
X0251369Y0123823D02*
X0216943Y0123823D01*
X0216943Y0122624D02*
X0251369Y0122624D01*
X0251369Y0121426D02*
X0216943Y0121426D01*
X0216943Y0120227D02*
X0251369Y0120227D01*
X0251369Y0119029D02*
X0216943Y0119029D01*
X0216943Y0117830D02*
X0251369Y0117830D01*
X0251369Y0116632D02*
X0216943Y0116632D01*
X0216943Y0115433D02*
X0251369Y0115433D01*
X0251369Y0114234D02*
X0216943Y0114234D01*
X0216943Y0113036D02*
X0251369Y0113036D01*
X0251369Y0111837D02*
X0216943Y0111837D01*
X0216943Y0110639D02*
X0251369Y0110639D01*
X0251369Y0109440D02*
X0216943Y0109440D01*
X0216943Y0108242D02*
X0251369Y0108242D01*
X0251369Y0107043D02*
X0216943Y0107043D01*
X0216943Y0105845D02*
X0251369Y0105845D01*
X0251369Y0104646D02*
X0216943Y0104646D01*
X0216943Y0103448D02*
X0251369Y0103448D01*
X0251369Y0102249D02*
X0216943Y0102249D01*
X0216943Y0101051D02*
X0251369Y0101051D01*
X0251369Y0099852D02*
X0216290Y0099852D01*
X0215091Y0098654D02*
X0251369Y0098654D01*
X0251369Y0097455D02*
X0213893Y0097455D01*
X0212743Y0096257D02*
X0251369Y0096257D01*
X0251369Y0095058D02*
X0212410Y0095058D01*
X0211429Y0093860D02*
X0251369Y0093860D01*
X0251369Y0092661D02*
X0207681Y0092661D01*
X0207681Y0091463D02*
X0232820Y0091463D01*
X0230176Y0090264D02*
X0207681Y0090264D01*
X0207681Y0089066D02*
X0228540Y0089066D01*
X0227276Y0087867D02*
X0207681Y0087867D01*
X0206886Y0086669D02*
X0226379Y0086669D01*
X0225604Y0085470D02*
X0205687Y0085470D01*
X0204489Y0084272D02*
X0224950Y0084272D01*
X0224451Y0083073D02*
X0203290Y0083073D01*
X0202356Y0085250D02*
X0205481Y0088375D01*
X0205481Y0095875D01*
X0204856Y0096500D01*
X0189543Y0096500D01*
X0175793Y0110250D01*
X0160481Y0110250D01*
X0158293Y0112437D01*
X0158293Y0114312D01*
X0161106Y0117125D01*
X0166418Y0117125D01*
X0167043Y0117750D01*
X0170243Y0117830D02*
X0189781Y0117830D01*
X0189851Y0116632D02*
X0170044Y0116632D01*
X0177356Y0113375D02*
X0162356Y0113375D01*
X0157501Y0116632D02*
X0154622Y0116632D01*
X0154879Y0116374D02*
X0154879Y0116374D01*
X0155730Y0115433D02*
X0156303Y0115433D01*
X0158700Y0117830D02*
X0153423Y0117830D01*
X0152006Y0119029D02*
X0159898Y0119029D01*
X0159786Y0120227D02*
X0134497Y0120227D01*
X0135766Y0121426D02*
X0159781Y0121426D01*
X0160242Y0122624D02*
X0136181Y0122624D01*
X0136130Y0123823D02*
X0161735Y0123823D01*
X0164227Y0123823D02*
X0180005Y0123823D01*
X0180718Y0125021D02*
X0135548Y0125021D01*
X0135181Y0126220D02*
X0181115Y0126220D01*
X0182300Y0127418D02*
X0135181Y0127418D01*
X0135181Y0128617D02*
X0190781Y0128617D01*
X0190781Y0129815D02*
X0135181Y0129815D01*
X0135181Y0131014D02*
X0190781Y0131014D01*
X0190781Y0132212D02*
X0135181Y0132212D01*
X0139274Y0133411D02*
X0190781Y0133411D01*
X0190781Y0134609D02*
X0140192Y0134609D01*
X0140581Y0135808D02*
X0190781Y0135808D01*
X0190781Y0137006D02*
X0141384Y0137006D01*
X0142583Y0138205D02*
X0190781Y0138205D01*
X0190781Y0139403D02*
X0143781Y0139403D01*
X0144980Y0140602D02*
X0191951Y0140602D01*
X0193150Y0141800D02*
X0146178Y0141800D01*
X0146815Y0142999D02*
X0194348Y0142999D01*
X0195547Y0144197D02*
X0146843Y0144197D01*
X0146843Y0145396D02*
X0196202Y0145396D01*
X0196142Y0146594D02*
X0146843Y0146594D01*
X0146843Y0147793D02*
X0196281Y0147793D01*
X0196777Y0148991D02*
X0146843Y0148991D01*
X0146843Y0150190D02*
X0196180Y0150190D01*
X0198293Y0151188D02*
X0195481Y0154000D01*
X0193606Y0154000D01*
X0191263Y0156182D02*
X0146843Y0156182D01*
X0146843Y0154984D02*
X0190550Y0154984D01*
X0190406Y0153785D02*
X0146843Y0153785D01*
X0146843Y0152587D02*
X0190727Y0152587D01*
X0191692Y0151388D02*
X0146843Y0151388D01*
X0141243Y0151388D02*
X0132368Y0151388D01*
X0132368Y0150190D02*
X0141243Y0150190D01*
X0141243Y0148991D02*
X0138011Y0148991D01*
X0139217Y0147793D02*
X0141243Y0147793D01*
X0141243Y0146594D02*
X0139618Y0146594D01*
X0139554Y0145396D02*
X0141243Y0145396D01*
X0140656Y0144197D02*
X0138954Y0144197D01*
X0138618Y0142999D02*
X0139457Y0142999D01*
X0136418Y0142125D02*
X0132981Y0138688D01*
X0132981Y0123062D01*
X0129543Y0120875D02*
X0129543Y0135250D01*
X0130168Y0135875D01*
X0130168Y0172750D01*
X0127828Y0170565D02*
X0075312Y0170565D01*
X0075592Y0169366D02*
X0127968Y0169366D01*
X0127968Y0168168D02*
X0075305Y0168168D01*
X0073955Y0166969D02*
X0127968Y0166969D01*
X0127968Y0165770D02*
X0072343Y0165770D01*
X0072343Y0164572D02*
X0127968Y0164572D01*
X0127968Y0163373D02*
X0072343Y0163373D01*
X0072343Y0162175D02*
X0127968Y0162175D01*
X0127968Y0160976D02*
X0072343Y0160976D01*
X0072343Y0159778D02*
X0127968Y0159778D01*
X0127968Y0158579D02*
X0072343Y0158579D01*
X0072343Y0157381D02*
X0127968Y0157381D01*
X0127968Y0156182D02*
X0073589Y0156182D01*
X0072427Y0156182D02*
X0072343Y0156182D01*
X0075243Y0154984D02*
X0127968Y0154984D01*
X0127968Y0153785D02*
X0075592Y0153785D01*
X0075375Y0152587D02*
X0127968Y0152587D01*
X0127968Y0151388D02*
X0074359Y0151388D01*
X0072343Y0150190D02*
X0127968Y0150190D01*
X0127968Y0148991D02*
X0072343Y0148991D01*
X0072343Y0147793D02*
X0127968Y0147793D01*
X0127968Y0146594D02*
X0103974Y0146594D01*
X0103856Y0146713D02*
X0102680Y0147200D01*
X0101407Y0147200D01*
X0100231Y0146713D01*
X0099718Y0146200D01*
X0091869Y0146200D01*
X0091356Y0146713D01*
X0090180Y0147200D01*
X0088907Y0147200D01*
X0087731Y0146713D01*
X0086830Y0145813D01*
X0086343Y0144637D01*
X0086343Y0143363D01*
X0086830Y0142187D01*
X0087731Y0141287D01*
X0088907Y0140800D01*
X0090180Y0140800D01*
X0091356Y0141287D01*
X0091869Y0141800D01*
X0099718Y0141800D01*
X0100231Y0141287D01*
X0101407Y0140800D01*
X0102132Y0140800D01*
X0106718Y0136214D01*
X0108007Y0134925D01*
X0120968Y0134925D01*
X0121481Y0134412D01*
X0122657Y0133925D01*
X0123930Y0133925D01*
X0125106Y0134412D01*
X0126006Y0135312D01*
X0126493Y0136488D01*
X0126493Y0137762D01*
X0126006Y0138938D01*
X0125106Y0139838D01*
X0123930Y0140325D01*
X0122657Y0140325D01*
X0121481Y0139838D01*
X0120968Y0139325D01*
X0109830Y0139325D01*
X0105243Y0143911D01*
X0105243Y0144637D01*
X0104756Y0145813D01*
X0103856Y0146713D01*
X0104929Y0145396D02*
X0127968Y0145396D01*
X0127968Y0144197D02*
X0105243Y0144197D01*
X0106156Y0142999D02*
X0127968Y0142999D01*
X0127968Y0141800D02*
X0107354Y0141800D01*
X0108553Y0140602D02*
X0127968Y0140602D01*
X0127968Y0139403D02*
X0125541Y0139403D01*
X0126310Y0138205D02*
X0127968Y0138205D01*
X0127968Y0137006D02*
X0126493Y0137006D01*
X0126211Y0135808D02*
X0127343Y0135808D01*
X0127343Y0134609D02*
X0125303Y0134609D01*
X0127343Y0133411D02*
X0081592Y0133411D01*
X0080394Y0134609D02*
X0121284Y0134609D01*
X0123293Y0137125D02*
X0108918Y0137125D01*
X0102043Y0144000D01*
X0089543Y0144000D01*
X0087218Y0141800D02*
X0073203Y0141800D01*
X0072343Y0142999D02*
X0086494Y0142999D01*
X0086343Y0144197D02*
X0072343Y0144197D01*
X0072343Y0145396D02*
X0086658Y0145396D01*
X0087612Y0146594D02*
X0072343Y0146594D01*
X0066743Y0146594D02*
X0065243Y0146594D01*
X0065243Y0145396D02*
X0066743Y0145396D01*
X0066743Y0144197D02*
X0065243Y0144197D01*
X0065243Y0142999D02*
X0066743Y0142999D01*
X0066743Y0141800D02*
X0065243Y0141800D01*
X0065243Y0140602D02*
X0066885Y0140602D01*
X0067680Y0139403D02*
X0065243Y0139403D01*
X0065243Y0138205D02*
X0068879Y0138205D01*
X0070077Y0137006D02*
X0065243Y0137006D01*
X0065243Y0135808D02*
X0071276Y0135808D01*
X0072474Y0134609D02*
X0065243Y0134609D01*
X0065243Y0133411D02*
X0073673Y0133411D01*
X0074871Y0132212D02*
X0065243Y0132212D01*
X0065243Y0131014D02*
X0076070Y0131014D01*
X0077268Y0129815D02*
X0065243Y0129815D01*
X0065243Y0128617D02*
X0078467Y0128617D01*
X0079665Y0127418D02*
X0065243Y0127418D01*
X0065243Y0126220D02*
X0080864Y0126220D01*
X0082062Y0125021D02*
X0065548Y0125021D01*
X0066746Y0123823D02*
X0083261Y0123823D01*
X0084459Y0122624D02*
X0067945Y0122624D01*
X0069143Y0121426D02*
X0085658Y0121426D01*
X0086856Y0120227D02*
X0070342Y0120227D01*
X0071540Y0119029D02*
X0088055Y0119029D01*
X0089253Y0117830D02*
X0072739Y0117830D01*
X0073937Y0116632D02*
X0090452Y0116632D01*
X0091650Y0115433D02*
X0075136Y0115433D01*
X0076334Y0114234D02*
X0092849Y0114234D01*
X0094776Y0120227D02*
X0126348Y0120227D01*
X0126343Y0121426D02*
X0093578Y0121426D01*
X0092379Y0122624D02*
X0126804Y0122624D01*
X0127343Y0123823D02*
X0091180Y0123823D01*
X0089982Y0125021D02*
X0127343Y0125021D01*
X0127343Y0126220D02*
X0088783Y0126220D01*
X0087585Y0127418D02*
X0127343Y0127418D01*
X0127343Y0128617D02*
X0086386Y0128617D01*
X0085188Y0129815D02*
X0127343Y0129815D01*
X0127343Y0131014D02*
X0083989Y0131014D01*
X0082791Y0132212D02*
X0127343Y0132212D01*
X0121046Y0139403D02*
X0109751Y0139403D01*
X0107124Y0135808D02*
X0079195Y0135808D01*
X0077997Y0137006D02*
X0105926Y0137006D01*
X0104727Y0138205D02*
X0076798Y0138205D01*
X0075600Y0139403D02*
X0103529Y0139403D01*
X0102330Y0140602D02*
X0074401Y0140602D01*
X0066743Y0147793D02*
X0065243Y0147793D01*
X0065243Y0148991D02*
X0066743Y0148991D01*
X0066743Y0150190D02*
X0065243Y0150190D01*
X0065243Y0151388D02*
X0066743Y0151388D01*
X0066743Y0152587D02*
X0065243Y0152587D01*
X0065243Y0153785D02*
X0066743Y0153785D01*
X0066743Y0154984D02*
X0065243Y0154984D01*
X0065243Y0156182D02*
X0066743Y0156182D01*
X0066743Y0157381D02*
X0065243Y0157381D01*
X0065243Y0158579D02*
X0066743Y0158579D01*
X0066743Y0159778D02*
X0065243Y0159778D01*
X0065243Y0160976D02*
X0066743Y0160976D01*
X0066743Y0162175D02*
X0065243Y0162175D01*
X0065243Y0163373D02*
X0066743Y0163373D01*
X0066743Y0164572D02*
X0065243Y0164572D01*
X0065243Y0165770D02*
X0066743Y0165770D01*
X0066743Y0166969D02*
X0065243Y0166969D01*
X0065243Y0168168D02*
X0066743Y0168168D01*
X0066743Y0169366D02*
X0065243Y0169366D01*
X0065243Y0170565D02*
X0066743Y0170565D01*
X0066743Y0171763D02*
X0065243Y0171763D01*
X0065243Y0172962D02*
X0067118Y0172962D01*
X0068244Y0174160D02*
X0065243Y0174160D01*
X0065243Y0175359D02*
X0069442Y0175359D01*
X0070641Y0176557D02*
X0065243Y0176557D01*
X0065243Y0177756D02*
X0071839Y0177756D01*
X0073038Y0178954D02*
X0065243Y0178954D01*
X0065243Y0180153D02*
X0074236Y0180153D01*
X0075435Y0181351D02*
X0065243Y0181351D01*
X0065243Y0182550D02*
X0076633Y0182550D01*
X0077832Y0183748D02*
X0065243Y0183748D01*
X0065243Y0184947D02*
X0091743Y0184947D01*
X0091743Y0186145D02*
X0065243Y0186145D01*
X0065243Y0187344D02*
X0091743Y0187344D01*
X0091743Y0188542D02*
X0065243Y0188542D01*
X0065243Y0189741D02*
X0091743Y0189741D01*
X0091743Y0190939D02*
X0065243Y0190939D01*
X0065243Y0192138D02*
X0091743Y0192138D01*
X0091743Y0193336D02*
X0065905Y0193336D01*
X0067104Y0194535D02*
X0091743Y0194535D01*
X0091743Y0195733D02*
X0068302Y0195733D01*
X0069501Y0196932D02*
X0091743Y0196932D01*
X0091743Y0198130D02*
X0073618Y0198130D01*
X0074555Y0199329D02*
X0091743Y0199329D01*
X0091743Y0200527D02*
X0074956Y0200527D01*
X0074956Y0201726D02*
X0091743Y0201726D01*
X0091743Y0202924D02*
X0074502Y0202924D01*
X0097343Y0186145D02*
X0196142Y0186145D01*
X0196142Y0185542D02*
X0196142Y0187458D01*
X0196876Y0189229D01*
X0198231Y0190585D01*
X0200002Y0191318D01*
X0201919Y0191318D01*
X0203690Y0190585D01*
X0205046Y0189229D01*
X0205779Y0187458D01*
X0205779Y0185542D01*
X0205046Y0183771D01*
X0203690Y0182415D01*
X0201919Y0181681D01*
X0200002Y0181681D01*
X0198231Y0182415D01*
X0196876Y0183771D01*
X0196142Y0185542D01*
X0196389Y0184947D02*
X0097343Y0184947D01*
X0100912Y0187344D02*
X0196142Y0187344D01*
X0196591Y0188542D02*
X0101866Y0188542D01*
X0102181Y0189741D02*
X0197387Y0189741D01*
X0199087Y0190939D02*
X0102094Y0190939D01*
X0103292Y0192138D02*
X0198901Y0192138D01*
X0197310Y0193336D02*
X0104491Y0193336D01*
X0105689Y0194535D02*
X0196559Y0194535D01*
X0196142Y0195733D02*
X0106888Y0195733D01*
X0108086Y0196932D02*
X0196142Y0196932D01*
X0196420Y0198130D02*
X0109285Y0198130D01*
X0110483Y0199329D02*
X0196975Y0199329D01*
X0200488Y0201726D02*
X0201433Y0201726D01*
X0201433Y0202924D02*
X0200488Y0202924D01*
X0200488Y0204123D02*
X0201433Y0204123D01*
X0201433Y0205321D02*
X0200488Y0205321D01*
X0200488Y0207718D02*
X0201433Y0207718D01*
X0201433Y0208917D02*
X0200488Y0208917D01*
X0200488Y0210115D02*
X0201433Y0210115D01*
X0201433Y0211314D02*
X0200488Y0211314D01*
X0187965Y0211314D02*
X0140851Y0211314D01*
X0110422Y0230490D02*
X0057718Y0230490D01*
X0057718Y0229292D02*
X0109224Y0229292D01*
X0108025Y0228093D02*
X0057718Y0228093D01*
X0057718Y0226895D02*
X0106827Y0226895D01*
X0106781Y0225696D02*
X0057718Y0225696D01*
X0057718Y0224498D02*
X0106781Y0224498D01*
X0111621Y0231689D02*
X0076673Y0231689D01*
X0101821Y0183748D02*
X0196898Y0183748D01*
X0198097Y0182550D02*
X0102572Y0182550D01*
X0102743Y0181351D02*
X0212143Y0181351D01*
X0212143Y0180153D02*
X0204122Y0180153D01*
X0203690Y0180585D02*
X0201919Y0181318D01*
X0200002Y0181318D01*
X0198231Y0180585D01*
X0196876Y0179229D01*
X0196142Y0177458D01*
X0196142Y0175542D01*
X0196876Y0173771D01*
X0198231Y0172415D01*
X0200002Y0171681D01*
X0201919Y0171681D01*
X0203690Y0172415D01*
X0205046Y0173771D01*
X0205779Y0175542D01*
X0205779Y0177458D01*
X0205046Y0179229D01*
X0203690Y0180585D01*
X0203825Y0182550D02*
X0212143Y0182550D01*
X0212143Y0183748D02*
X0205023Y0183748D01*
X0205533Y0184947D02*
X0212143Y0184947D01*
X0212143Y0186145D02*
X0205779Y0186145D01*
X0205779Y0187344D02*
X0212143Y0187344D01*
X0212143Y0188542D02*
X0205330Y0188542D01*
X0204534Y0189741D02*
X0212143Y0189741D01*
X0211710Y0190939D02*
X0202835Y0190939D01*
X0203021Y0192138D02*
X0210511Y0192138D01*
X0209313Y0193336D02*
X0204611Y0193336D01*
X0197799Y0180153D02*
X0102449Y0180153D01*
X0101523Y0178954D02*
X0196762Y0178954D01*
X0196265Y0177756D02*
X0079759Y0177756D01*
X0078560Y0176557D02*
X0196142Y0176557D01*
X0196218Y0175359D02*
X0132085Y0175359D01*
X0133048Y0174160D02*
X0196714Y0174160D01*
X0197685Y0172962D02*
X0150842Y0172962D01*
X0149245Y0172962D02*
X0133368Y0172962D01*
X0133223Y0171763D02*
X0147237Y0171763D01*
X0146472Y0170565D02*
X0132508Y0170565D01*
X0132368Y0169366D02*
X0146193Y0169366D01*
X0145126Y0168168D02*
X0132368Y0168168D01*
X0132368Y0166969D02*
X0143928Y0166969D01*
X0142729Y0165770D02*
X0132368Y0165770D01*
X0132368Y0164572D02*
X0141612Y0164572D01*
X0141243Y0163373D02*
X0132368Y0163373D01*
X0132368Y0162175D02*
X0141243Y0162175D01*
X0141243Y0160976D02*
X0132368Y0160976D01*
X0132368Y0159778D02*
X0141243Y0159778D01*
X0141243Y0158579D02*
X0132368Y0158579D01*
X0132368Y0157381D02*
X0141243Y0157381D01*
X0141243Y0156182D02*
X0132368Y0156182D01*
X0132368Y0154984D02*
X0141243Y0154984D01*
X0141243Y0153785D02*
X0132368Y0153785D01*
X0132368Y0152587D02*
X0141243Y0152587D01*
X0134825Y0148991D02*
X0132368Y0148991D01*
X0132368Y0147793D02*
X0133620Y0147793D01*
X0133218Y0146594D02*
X0132368Y0146594D01*
X0132368Y0145396D02*
X0133283Y0145396D01*
X0133883Y0144197D02*
X0132368Y0144197D01*
X0132368Y0142999D02*
X0134181Y0142999D01*
X0132982Y0141800D02*
X0132368Y0141800D01*
X0136418Y0142125D02*
X0136418Y0146188D01*
X0146843Y0157381D02*
X0196142Y0157381D01*
X0196606Y0158579D02*
X0146843Y0158579D01*
X0146843Y0159778D02*
X0197424Y0159778D01*
X0199176Y0160976D02*
X0146843Y0160976D01*
X0147053Y0162175D02*
X0198811Y0162175D01*
X0198231Y0162415D02*
X0200002Y0161681D01*
X0201919Y0161681D01*
X0203690Y0162415D01*
X0205046Y0163771D01*
X0205779Y0165542D01*
X0205779Y0167458D01*
X0205046Y0169229D01*
X0203690Y0170585D01*
X0201919Y0171318D01*
X0200002Y0171318D01*
X0198231Y0170585D01*
X0196876Y0169229D01*
X0196142Y0167458D01*
X0196142Y0165542D01*
X0196876Y0163771D01*
X0198231Y0162415D01*
X0197273Y0163373D02*
X0148252Y0163373D01*
X0149450Y0164572D02*
X0196544Y0164572D01*
X0196142Y0165770D02*
X0152005Y0165770D01*
X0153317Y0166969D02*
X0196142Y0166969D01*
X0196436Y0168168D02*
X0153814Y0168168D01*
X0153893Y0169366D02*
X0197012Y0169366D01*
X0198211Y0170565D02*
X0153614Y0170565D01*
X0152850Y0171763D02*
X0199805Y0171763D01*
X0202116Y0171763D02*
X0212143Y0171763D01*
X0212143Y0170565D02*
X0203710Y0170565D01*
X0204909Y0169366D02*
X0212143Y0169366D01*
X0212143Y0168168D02*
X0205485Y0168168D01*
X0205779Y0166969D02*
X0212143Y0166969D01*
X0212143Y0165770D02*
X0205779Y0165770D01*
X0205378Y0164572D02*
X0212143Y0164572D01*
X0212143Y0163373D02*
X0204648Y0163373D01*
X0203110Y0162175D02*
X0212143Y0162175D01*
X0212143Y0160976D02*
X0202745Y0160976D01*
X0204497Y0159778D02*
X0212143Y0159778D01*
X0212143Y0158579D02*
X0205315Y0158579D01*
X0205779Y0157381D02*
X0212143Y0157381D01*
X0212143Y0156182D02*
X0205779Y0156182D01*
X0205548Y0154984D02*
X0212143Y0154984D01*
X0212143Y0153785D02*
X0205052Y0153785D01*
X0206568Y0152587D02*
X0212143Y0152587D01*
X0212143Y0151388D02*
X0207766Y0151388D01*
X0208965Y0150190D02*
X0212143Y0150190D01*
X0212143Y0148991D02*
X0210163Y0148991D01*
X0211362Y0147793D02*
X0212143Y0147793D01*
X0212143Y0146594D02*
X0211743Y0146594D01*
X0211743Y0145396D02*
X0212143Y0145396D01*
X0212143Y0144197D02*
X0211743Y0144197D01*
X0211743Y0142999D02*
X0212143Y0142999D01*
X0212143Y0141800D02*
X0211743Y0141800D01*
X0211743Y0140602D02*
X0212143Y0140602D01*
X0212143Y0139403D02*
X0211743Y0139403D01*
X0211743Y0138205D02*
X0212143Y0138205D01*
X0212143Y0137006D02*
X0211743Y0137006D01*
X0211743Y0135808D02*
X0212143Y0135808D01*
X0212143Y0134609D02*
X0211743Y0134609D01*
X0211743Y0133411D02*
X0212143Y0133411D01*
X0212143Y0132212D02*
X0211743Y0132212D01*
X0211743Y0131014D02*
X0212143Y0131014D01*
X0212143Y0129815D02*
X0211743Y0129815D01*
X0211743Y0128617D02*
X0212143Y0128617D01*
X0212143Y0127418D02*
X0211743Y0127418D01*
X0211743Y0126220D02*
X0212143Y0126220D01*
X0212143Y0125021D02*
X0211743Y0125021D01*
X0211743Y0123823D02*
X0212143Y0123823D01*
X0212143Y0122624D02*
X0211743Y0122624D01*
X0211743Y0121426D02*
X0212143Y0121426D01*
X0212143Y0120227D02*
X0211743Y0120227D01*
X0211743Y0119029D02*
X0212143Y0119029D01*
X0212143Y0117830D02*
X0211743Y0117830D01*
X0211743Y0116632D02*
X0212143Y0116632D01*
X0212143Y0115433D02*
X0211743Y0115433D01*
X0211743Y0114234D02*
X0212143Y0114234D01*
X0212143Y0113036D02*
X0211743Y0113036D01*
X0211743Y0111837D02*
X0212143Y0111837D01*
X0212143Y0110639D02*
X0211743Y0110639D01*
X0211743Y0109440D02*
X0212143Y0109440D01*
X0212143Y0108242D02*
X0211743Y0108242D01*
X0211743Y0107043D02*
X0212143Y0107043D01*
X0212143Y0105845D02*
X0211743Y0105845D01*
X0211743Y0104646D02*
X0212143Y0104646D01*
X0212143Y0103448D02*
X0211743Y0103448D01*
X0211743Y0102249D02*
X0211899Y0102249D01*
X0209543Y0101500D02*
X0205481Y0097437D01*
X0205481Y0095875D01*
X0203281Y0093860D02*
X0195146Y0093860D01*
X0195780Y0092661D02*
X0203281Y0092661D01*
X0203281Y0091463D02*
X0195868Y0091463D01*
X0195491Y0090264D02*
X0203281Y0090264D01*
X0203060Y0089066D02*
X0194399Y0089066D01*
X0192389Y0087867D02*
X0201862Y0087867D01*
X0202356Y0085250D02*
X0190481Y0085250D01*
X0188132Y0083073D02*
X0139443Y0083073D01*
X0139443Y0081875D02*
X0224191Y0081875D01*
X0223930Y0080676D02*
X0182037Y0080676D01*
X0182269Y0080580D02*
X0180501Y0081313D01*
X0178586Y0081313D01*
X0176817Y0080580D01*
X0175463Y0079226D01*
X0174731Y0077457D01*
X0174731Y0075543D01*
X0175463Y0073774D01*
X0176817Y0072420D01*
X0178586Y0071687D01*
X0180501Y0071687D01*
X0182269Y0072420D01*
X0183623Y0073774D01*
X0184356Y0075543D01*
X0184356Y0077457D01*
X0183623Y0079226D01*
X0182269Y0080580D01*
X0183372Y0079478D02*
X0223809Y0079478D01*
X0223766Y0078279D02*
X0184015Y0078279D01*
X0184356Y0077081D02*
X0223809Y0077081D01*
X0223809Y0075882D02*
X0184356Y0075882D01*
X0184000Y0074684D02*
X0223809Y0074684D01*
X0223809Y0073485D02*
X0183334Y0073485D01*
X0181947Y0072287D02*
X0223809Y0072287D01*
X0190937Y0089066D02*
X0186191Y0089066D01*
X0186945Y0087867D02*
X0188573Y0087867D01*
X0187605Y0086669D02*
X0187118Y0086669D01*
X0187281Y0085470D02*
X0186826Y0085470D01*
X0187422Y0084272D02*
X0185903Y0084272D01*
X0183918Y0086812D02*
X0178918Y0086812D01*
X0177043Y0088687D01*
X0143606Y0088687D01*
X0141099Y0086669D02*
X0139443Y0086669D01*
X0139443Y0087867D02*
X0140482Y0087867D01*
X0140406Y0089066D02*
X0139443Y0089066D01*
X0139443Y0090264D02*
X0140795Y0090264D01*
X0140675Y0091463D02*
X0139443Y0091463D01*
X0139443Y0092661D02*
X0140406Y0092661D01*
X0140602Y0093860D02*
X0139443Y0093860D01*
X0139443Y0095058D02*
X0140869Y0095058D01*
X0140406Y0096257D02*
X0139443Y0096257D01*
X0139443Y0097455D02*
X0140408Y0097455D01*
X0140922Y0098654D02*
X0139443Y0098654D01*
X0139443Y0099852D02*
X0142583Y0099852D01*
X0144629Y0099852D02*
X0155722Y0099852D01*
X0156920Y0101051D02*
X0139443Y0101051D01*
X0139443Y0102249D02*
X0151456Y0102249D01*
X0150447Y0103448D02*
X0139443Y0103448D01*
X0139715Y0104646D02*
X0150093Y0104646D01*
X0150206Y0105845D02*
X0140236Y0105845D01*
X0140243Y0107043D02*
X0150493Y0107043D01*
X0150493Y0108242D02*
X0139785Y0108242D01*
X0138306Y0109440D02*
X0150493Y0109440D01*
X0150493Y0110639D02*
X0079930Y0110639D01*
X0078731Y0111837D02*
X0150493Y0111837D01*
X0150298Y0113036D02*
X0077533Y0113036D01*
X0091474Y0146594D02*
X0100112Y0146594D01*
X0073993Y0171763D02*
X0127113Y0171763D01*
X0126968Y0172962D02*
X0074965Y0172962D01*
X0076163Y0174160D02*
X0127289Y0174160D01*
X0128251Y0175359D02*
X0077362Y0175359D01*
X0162981Y0120875D02*
X0180168Y0120875D01*
X0183918Y0124625D01*
X0186443Y0122624D02*
X0190781Y0122624D01*
X0190781Y0121426D02*
X0184556Y0121426D01*
X0182632Y0120227D02*
X0190781Y0120227D01*
X0190176Y0119029D02*
X0181433Y0119029D01*
X0178409Y0115433D02*
X0190460Y0115433D01*
X0192981Y0117437D02*
X0192981Y0138520D01*
X0200961Y0146500D01*
X0204274Y0142999D02*
X0207343Y0142999D01*
X0207343Y0144197D02*
X0205222Y0144197D01*
X0205719Y0145396D02*
X0207343Y0145396D01*
X0206338Y0146594D02*
X0205779Y0146594D01*
X0209543Y0146500D02*
X0209543Y0101500D01*
X0207181Y0102249D02*
X0186905Y0102249D01*
X0188104Y0101051D02*
X0205983Y0101051D01*
X0204784Y0099852D02*
X0189302Y0099852D01*
X0185707Y0103448D02*
X0207343Y0103448D01*
X0207343Y0104646D02*
X0185653Y0104646D01*
X0186539Y0105845D02*
X0207343Y0105845D01*
X0207343Y0107043D02*
X0186806Y0107043D01*
X0186607Y0108242D02*
X0207343Y0108242D01*
X0207343Y0109440D02*
X0198259Y0109440D01*
X0199083Y0110639D02*
X0207343Y0110639D01*
X0207343Y0111837D02*
X0202296Y0111837D01*
X0204311Y0113036D02*
X0207343Y0113036D01*
X0207343Y0114234D02*
X0205238Y0114234D01*
X0205734Y0115433D02*
X0207343Y0115433D01*
X0207343Y0116632D02*
X0205779Y0116632D01*
X0205625Y0117830D02*
X0207343Y0117830D01*
X0207343Y0119029D02*
X0205129Y0119029D01*
X0204048Y0120227D02*
X0207343Y0120227D01*
X0207343Y0121426D02*
X0198306Y0121426D01*
X0203899Y0122624D02*
X0207343Y0122624D01*
X0207343Y0123823D02*
X0205067Y0123823D01*
X0205564Y0125021D02*
X0207343Y0125021D01*
X0207343Y0126220D02*
X0205779Y0126220D01*
X0205779Y0127418D02*
X0207343Y0127418D01*
X0207343Y0128617D02*
X0205299Y0128617D01*
X0204460Y0129815D02*
X0207343Y0129815D01*
X0207343Y0131014D02*
X0202655Y0131014D01*
X0203200Y0132212D02*
X0207343Y0132212D01*
X0207343Y0133411D02*
X0204686Y0133411D01*
X0205393Y0134609D02*
X0207343Y0134609D01*
X0207343Y0135808D02*
X0205779Y0135808D01*
X0205779Y0137006D02*
X0207343Y0137006D01*
X0207343Y0138205D02*
X0205470Y0138205D01*
X0204872Y0139403D02*
X0207343Y0139403D01*
X0207343Y0140602D02*
X0203649Y0140602D01*
X0202206Y0141800D02*
X0207343Y0141800D01*
X0209543Y0146500D02*
X0204856Y0151188D01*
X0198293Y0151188D01*
X0199372Y0141800D02*
X0199715Y0141800D01*
X0198272Y0140602D02*
X0198174Y0140602D01*
X0197049Y0139403D02*
X0196975Y0139403D01*
X0196451Y0138205D02*
X0195777Y0138205D01*
X0196142Y0137006D02*
X0195181Y0137006D01*
X0195181Y0135808D02*
X0196142Y0135808D01*
X0195959Y0134609D02*
X0195181Y0134609D01*
X0196106Y0131645D02*
X0200961Y0136500D01*
X0196106Y0131645D02*
X0196106Y0111812D01*
X0199306Y0111837D02*
X0199626Y0111837D01*
X0193952Y0109440D02*
X0185816Y0109440D01*
X0183203Y0110639D02*
X0193128Y0110639D01*
X0192906Y0111837D02*
X0182005Y0111837D01*
X0180806Y0113036D02*
X0193149Y0113036D01*
X0193906Y0114234D02*
X0179608Y0114234D01*
X0177356Y0113375D02*
X0183606Y0107125D01*
X0175681Y0103985D02*
X0175681Y0098725D01*
X0175268Y0098313D01*
X0174781Y0097137D01*
X0174781Y0095863D01*
X0175159Y0094950D01*
X0157042Y0094950D01*
X0163517Y0101425D01*
X0164242Y0101425D01*
X0165418Y0101912D01*
X0166319Y0102812D01*
X0166806Y0103988D01*
X0166806Y0105262D01*
X0166598Y0105762D01*
X0173903Y0105762D01*
X0175681Y0103985D01*
X0175681Y0103448D02*
X0166582Y0103448D01*
X0166806Y0104646D02*
X0175019Y0104646D01*
X0175681Y0102249D02*
X0165756Y0102249D01*
X0163143Y0101051D02*
X0175681Y0101051D01*
X0175681Y0099852D02*
X0161944Y0099852D01*
X0160746Y0098654D02*
X0175609Y0098654D01*
X0174913Y0097455D02*
X0159547Y0097455D01*
X0158349Y0096257D02*
X0174781Y0096257D01*
X0175114Y0095058D02*
X0157150Y0095058D01*
X0155793Y0096812D02*
X0163606Y0104625D01*
X0160406Y0104646D02*
X0158718Y0104646D01*
X0158181Y0103448D02*
X0159317Y0103448D01*
X0158119Y0102249D02*
X0155131Y0102249D01*
X0155793Y0096812D02*
X0143606Y0096812D01*
X0143606Y0092750D02*
X0177981Y0092750D01*
X0181106Y0089625D01*
X0182138Y0092661D02*
X0186379Y0092661D01*
X0185181Y0093860D02*
X0179982Y0093860D01*
X0183793Y0091463D02*
X0187578Y0091463D01*
X0188776Y0090264D02*
X0184305Y0090264D01*
X0181934Y0084272D02*
X0139443Y0084272D01*
X0139443Y0085470D02*
X0177149Y0085470D01*
X0177050Y0080676D02*
X0172037Y0080676D01*
X0172269Y0080580D02*
X0170501Y0081313D01*
X0168586Y0081313D01*
X0166817Y0080580D01*
X0165463Y0079226D01*
X0164731Y0077457D01*
X0164731Y0075543D01*
X0165463Y0073774D01*
X0166817Y0072420D01*
X0168586Y0071687D01*
X0170501Y0071687D01*
X0172269Y0072420D01*
X0173623Y0073774D01*
X0174356Y0075543D01*
X0174356Y0077457D01*
X0173623Y0079226D01*
X0172269Y0080580D01*
X0173372Y0079478D02*
X0175715Y0079478D01*
X0175071Y0078279D02*
X0174015Y0078279D01*
X0174356Y0077081D02*
X0174731Y0077081D01*
X0174731Y0075882D02*
X0174356Y0075882D01*
X0174000Y0074684D02*
X0175087Y0074684D01*
X0175752Y0073485D02*
X0173334Y0073485D01*
X0171947Y0072287D02*
X0177139Y0072287D01*
X0167139Y0072287D02*
X0161947Y0072287D01*
X0162269Y0072420D02*
X0163623Y0073774D01*
X0164356Y0075543D01*
X0164356Y0077457D01*
X0163623Y0079226D01*
X0162269Y0080580D01*
X0160501Y0081313D01*
X0158586Y0081313D01*
X0156817Y0080580D01*
X0155463Y0079226D01*
X0154731Y0077457D01*
X0154731Y0075543D01*
X0155463Y0073774D01*
X0156817Y0072420D01*
X0158586Y0071687D01*
X0160501Y0071687D01*
X0162269Y0072420D01*
X0163334Y0073485D02*
X0165752Y0073485D01*
X0165087Y0074684D02*
X0164000Y0074684D01*
X0164356Y0075882D02*
X0164731Y0075882D01*
X0164731Y0077081D02*
X0164356Y0077081D01*
X0164015Y0078279D02*
X0165071Y0078279D01*
X0165715Y0079478D02*
X0163372Y0079478D01*
X0162037Y0080676D02*
X0167050Y0080676D01*
X0157050Y0080676D02*
X0151948Y0080676D01*
X0152066Y0080616D02*
X0151391Y0080960D01*
X0150670Y0081194D01*
X0149947Y0081309D01*
X0149947Y0076904D01*
X0149139Y0076904D01*
X0149139Y0076096D01*
X0144735Y0076096D01*
X0144849Y0075373D01*
X0145083Y0074653D01*
X0145427Y0073978D01*
X0145872Y0073365D01*
X0146408Y0072829D01*
X0147021Y0072384D01*
X0147696Y0072040D01*
X0148416Y0071806D01*
X0149139Y0071691D01*
X0149139Y0076096D01*
X0149947Y0076096D01*
X0149947Y0071691D01*
X0150670Y0071806D01*
X0151391Y0072040D01*
X0152066Y0072384D01*
X0152678Y0072829D01*
X0153214Y0073365D01*
X0153659Y0073978D01*
X0154003Y0074653D01*
X0154237Y0075373D01*
X0154352Y0076096D01*
X0149947Y0076096D01*
X0149947Y0076904D01*
X0154352Y0076904D01*
X0154237Y0077627D01*
X0154003Y0078347D01*
X0153659Y0079022D01*
X0153214Y0079635D01*
X0152678Y0080171D01*
X0152066Y0080616D01*
X0153329Y0079478D02*
X0155715Y0079478D01*
X0155071Y0078279D02*
X0154025Y0078279D01*
X0154324Y0077081D02*
X0154731Y0077081D01*
X0154731Y0075882D02*
X0154318Y0075882D01*
X0154013Y0074684D02*
X0155087Y0074684D01*
X0155752Y0073485D02*
X0153302Y0073485D01*
X0151875Y0072287D02*
X0157139Y0072287D01*
X0149947Y0072287D02*
X0149139Y0072287D01*
X0149139Y0073485D02*
X0149947Y0073485D01*
X0149947Y0074684D02*
X0149139Y0074684D01*
X0149139Y0075882D02*
X0149947Y0075882D01*
X0149947Y0077081D02*
X0149139Y0077081D01*
X0149139Y0076904D02*
X0149139Y0081309D01*
X0148416Y0081194D01*
X0147696Y0080960D01*
X0147021Y0080616D01*
X0146408Y0080171D01*
X0145872Y0079635D01*
X0145427Y0079022D01*
X0145083Y0078347D01*
X0144849Y0077627D01*
X0144735Y0076904D01*
X0149139Y0076904D01*
X0149139Y0078279D02*
X0149947Y0078279D01*
X0149947Y0079478D02*
X0149139Y0079478D01*
X0149139Y0080676D02*
X0149947Y0080676D01*
X0147139Y0080676D02*
X0142037Y0080676D01*
X0143372Y0079478D02*
X0145758Y0079478D01*
X0145061Y0078279D02*
X0144015Y0078279D01*
X0144356Y0077081D02*
X0144763Y0077081D01*
X0144769Y0075882D02*
X0144356Y0075882D01*
X0144000Y0074684D02*
X0145073Y0074684D01*
X0145785Y0073485D02*
X0143334Y0073485D01*
X0141947Y0072287D02*
X0147212Y0072287D01*
X0137139Y0072287D02*
X0134018Y0072287D01*
X0134356Y0073485D02*
X0135752Y0073485D01*
X0135087Y0074684D02*
X0134356Y0074684D01*
X0134356Y0075882D02*
X0134731Y0075882D01*
X0134731Y0077081D02*
X0134356Y0077081D01*
X0134356Y0078279D02*
X0134744Y0078279D01*
X0134643Y0079478D02*
X0134356Y0079478D01*
X0134643Y0080676D02*
X0134055Y0080676D01*
X0187050Y0123823D02*
X0190781Y0123823D01*
X0190781Y0125021D02*
X0187118Y0125021D01*
X0186721Y0126220D02*
X0190781Y0126220D01*
X0190781Y0127418D02*
X0185537Y0127418D01*
X0198586Y0131014D02*
X0199266Y0131014D01*
X0204237Y0172962D02*
X0212143Y0172962D01*
X0212143Y0174160D02*
X0205207Y0174160D01*
X0205703Y0175359D02*
X0212143Y0175359D01*
X0212143Y0176557D02*
X0205779Y0176557D01*
X0205656Y0177756D02*
X0212143Y0177756D01*
X0212143Y0178954D02*
X0205160Y0178954D01*
D17*
X0191165Y0204835D02*
X0191165Y0214835D01*
X0139291Y0214835D01*
X0071106Y0201062D02*
X0069106Y0201062D01*
X0062043Y0194000D01*
X0062043Y0124000D01*
X0079543Y0106500D01*
X0109543Y0106500D01*
X0137043Y0106500D01*
D18*
X0136731Y0136313D03*
X0150043Y0169125D03*
X0139291Y0214835D03*
X0071106Y0201062D03*
D19*
X0200961Y0196500D02*
X0209543Y0196500D01*
X0214543Y0191500D01*
X0214543Y0101500D01*
X0209543Y0096500D01*
X0139543Y0076500D02*
X0137043Y0079000D01*
X0137043Y0106500D01*
D20*
X0150793Y0116500D02*
X0153293Y0114000D01*
X0153293Y0104937D01*
X0150793Y0116500D02*
X0094543Y0116500D01*
X0069543Y0141500D01*
X0069543Y0171500D01*
X0079543Y0181500D01*
X0099543Y0181500D01*
X0094543Y0181500D01*
X0094543Y0220750D01*
X0150043Y0169125D02*
X0144043Y0163125D01*
X0144043Y0143625D01*
X0136731Y0136313D01*
D21*
X0153293Y0108062D02*
X0153293Y0104937D01*
X0156418Y0104937D01*
X0153293Y0108062D02*
X0174856Y0108062D01*
X0177981Y0104937D01*
X0177981Y0096500D01*
X0185793Y0096500D01*
X0190481Y0091812D01*
X0192668Y0091812D01*
M02*
