G75*
%MOIN*%
%OFA0B0*%
%FSLAX25Y25*%
%IPPOS*%
%LPD*%
%AMOC8*
5,1,8,0,0,1.08239X$1,22.5*
%
%ADD10R,0.03150X0.03150*%
%ADD11C,0.03200*%
%ADD12C,0.01200*%
%ADD13C,0.03200*%
%ADD14C,0.04500*%
%ADD15C,0.02400*%
D10*
X0098295Y0241500D03*
X0104201Y0241500D03*
X0133827Y0241500D03*
X0139732Y0241500D03*
X0169358Y0241500D03*
X0175264Y0241500D03*
X0204886Y0241500D03*
X0210791Y0241500D03*
D11*
X0216418Y0236500D03*
X0219543Y0246500D03*
X0239543Y0226500D03*
X0222356Y0203062D03*
X0212356Y0199000D03*
X0205793Y0206500D03*
X0201165Y0204835D03*
X0198353Y0207647D03*
X0177981Y0202125D03*
X0174856Y0184937D03*
X0203606Y0188687D03*
X0203918Y0181500D03*
X0203918Y0168375D03*
X0203918Y0161188D03*
X0212668Y0149313D03*
X0202981Y0146188D03*
X0212668Y0141813D03*
X0212668Y0134000D03*
X0202981Y0122437D03*
X0202981Y0118062D03*
X0204543Y0114312D03*
X0205793Y0106500D03*
X0202668Y0102437D03*
X0208606Y0098375D03*
X0208606Y0084625D03*
X0201106Y0084625D03*
X0192981Y0080250D03*
X0185793Y0094312D03*
X0188606Y0100562D03*
X0184543Y0114625D03*
X0179856Y0114625D03*
X0175168Y0114625D03*
X0170168Y0114937D03*
X0161731Y0124312D03*
X0155481Y0108375D03*
X0150481Y0106500D03*
X0142668Y0106500D03*
X0125481Y0111187D03*
X0139543Y0121500D03*
X0127981Y0127437D03*
X0133293Y0137125D03*
X0147043Y0151125D03*
X0162043Y0148125D03*
X0175981Y0144625D03*
X0161543Y0160125D03*
X0140168Y0172750D03*
X0120793Y0192125D03*
X0114856Y0192125D03*
X0108981Y0189937D03*
X0109543Y0181500D03*
X0117356Y0202125D03*
X0127543Y0211500D03*
X0139419Y0207750D03*
X0152543Y0207750D03*
X0139418Y0220875D03*
X0144543Y0236500D03*
X0124543Y0241500D03*
X0109543Y0236500D03*
X0104543Y0220750D03*
X0080541Y0211085D03*
X0066106Y0220250D03*
X0069543Y0226500D03*
X0089543Y0246500D03*
X0169543Y0231500D03*
X0180481Y0236500D03*
X0079231Y0174625D03*
X0071418Y0181500D03*
X0078293Y0156500D03*
X0078293Y0148688D03*
X0099543Y0144000D03*
X0112043Y0144000D03*
X0099543Y0125250D03*
X0104543Y0106500D03*
X0069543Y0096500D03*
X0089543Y0076500D03*
X0150481Y0082438D03*
X0166418Y0104312D03*
X0219543Y0076500D03*
X0239543Y0096500D03*
X0229231Y0098375D03*
D12*
X0085277Y0078226D02*
X0085277Y0064675D01*
X0223809Y0064675D01*
X0223809Y0078226D01*
X0223766Y0078276D01*
X0223809Y0078880D01*
X0223809Y0079486D01*
X0223856Y0079532D01*
X0223896Y0080087D01*
X0223825Y0080196D01*
X0223942Y0080732D01*
X0223981Y0081279D01*
X0224079Y0081364D01*
X0224211Y0081970D01*
X0224157Y0082089D01*
X0224349Y0082602D01*
X0224465Y0083138D01*
X0224575Y0083208D01*
X0224792Y0083789D01*
X0224755Y0083914D01*
X0225018Y0084396D01*
X0225209Y0084909D01*
X0225328Y0084963D01*
X0225625Y0085508D01*
X0225606Y0085637D01*
X0225935Y0086076D01*
X0226198Y0086557D01*
X0226323Y0086593D01*
X0226694Y0087090D01*
X0226694Y0087220D01*
X0227082Y0087608D01*
X0227411Y0088047D01*
X0227539Y0088065D01*
X0227978Y0088504D01*
X0227997Y0088633D01*
X0228435Y0088961D01*
X0228823Y0089349D01*
X0228953Y0089349D01*
X0229450Y0089721D01*
X0229486Y0089846D01*
X0229968Y0090108D01*
X0230407Y0090437D01*
X0230536Y0090418D01*
X0231080Y0090716D01*
X0231134Y0090834D01*
X0231648Y0091026D01*
X0232129Y0091288D01*
X0232254Y0091252D01*
X0232835Y0091468D01*
X0232905Y0091578D01*
X0233441Y0091695D01*
X0233955Y0091886D01*
X0234073Y0091832D01*
X0234679Y0091964D01*
X0234764Y0092062D01*
X0235311Y0092101D01*
X0235847Y0092218D01*
X0235957Y0092148D01*
X0236511Y0092187D01*
X0236558Y0092234D01*
X0237163Y0092234D01*
X0237767Y0092277D01*
X0237817Y0092234D01*
X0251369Y0092234D01*
X0251369Y0230766D01*
X0237817Y0230766D01*
X0237767Y0230723D01*
X0237163Y0230766D01*
X0236558Y0230766D01*
X0236511Y0230813D01*
X0235957Y0230852D01*
X0235847Y0230782D01*
X0235311Y0230899D01*
X0234764Y0230938D01*
X0234679Y0231036D01*
X0234073Y0231168D01*
X0233955Y0231114D01*
X0233441Y0231305D01*
X0232905Y0231422D01*
X0232835Y0231532D01*
X0232254Y0231748D01*
X0232129Y0231712D01*
X0231648Y0231974D01*
X0231134Y0232166D01*
X0231080Y0232284D01*
X0230536Y0232582D01*
X0230407Y0232563D01*
X0229968Y0232892D01*
X0229486Y0233154D01*
X0229450Y0233279D01*
X0228953Y0233651D01*
X0228823Y0233651D01*
X0228435Y0234039D01*
X0227997Y0234367D01*
X0227978Y0234496D01*
X0227539Y0234935D01*
X0227411Y0234953D01*
X0227082Y0235392D01*
X0226694Y0235780D01*
X0226694Y0235910D01*
X0226323Y0236406D01*
X0226198Y0236443D01*
X0225935Y0236924D01*
X0225606Y0237363D01*
X0225625Y0237492D01*
X0225328Y0238037D01*
X0225209Y0238091D01*
X0225018Y0238604D01*
X0224755Y0239086D01*
X0224792Y0239211D01*
X0224575Y0239792D01*
X0224465Y0239862D01*
X0224349Y0240398D01*
X0224157Y0240911D01*
X0224211Y0241030D01*
X0224079Y0241636D01*
X0223981Y0241721D01*
X0223942Y0242268D01*
X0223825Y0242804D01*
X0223896Y0242913D01*
X0223856Y0243468D01*
X0223809Y0243514D01*
X0223809Y0244120D01*
X0223766Y0244724D01*
X0223809Y0244774D01*
X0223809Y0258325D01*
X0085277Y0258325D01*
X0085277Y0244774D01*
X0085320Y0244724D01*
X0085277Y0244120D01*
X0085277Y0243514D01*
X0085230Y0243468D01*
X0085191Y0242913D01*
X0085261Y0242804D01*
X0085145Y0242268D01*
X0085106Y0241721D01*
X0085007Y0241636D01*
X0084875Y0241030D01*
X0084929Y0240911D01*
X0084738Y0240398D01*
X0084621Y0239862D01*
X0084512Y0239792D01*
X0084295Y0239211D01*
X0084332Y0239086D01*
X0084069Y0238604D01*
X0083877Y0238091D01*
X0083759Y0238037D01*
X0083462Y0237492D01*
X0083480Y0237363D01*
X0083152Y0236924D01*
X0082889Y0236443D01*
X0082764Y0236406D01*
X0082392Y0235910D01*
X0082392Y0235780D01*
X0082005Y0235392D01*
X0081676Y0234953D01*
X0081547Y0234935D01*
X0081109Y0234496D01*
X0081090Y0234367D01*
X0080651Y0234039D01*
X0080263Y0233651D01*
X0080133Y0233651D01*
X0079637Y0233279D01*
X0079600Y0233154D01*
X0079119Y0232892D01*
X0078680Y0232563D01*
X0078551Y0232582D01*
X0078007Y0232284D01*
X0077953Y0232166D01*
X0077439Y0231974D01*
X0076958Y0231712D01*
X0076833Y0231748D01*
X0076252Y0231532D01*
X0076181Y0231422D01*
X0075646Y0231305D01*
X0075132Y0231114D01*
X0075013Y0231168D01*
X0074407Y0231036D01*
X0074322Y0230938D01*
X0073775Y0230899D01*
X0073240Y0230782D01*
X0073130Y0230852D01*
X0072576Y0230813D01*
X0072529Y0230766D01*
X0071923Y0230766D01*
X0071319Y0230723D01*
X0071269Y0230766D01*
X0057718Y0230766D01*
X0057718Y0092234D01*
X0071269Y0092234D01*
X0071319Y0092277D01*
X0071923Y0092234D01*
X0072529Y0092234D01*
X0072576Y0092187D01*
X0073130Y0092148D01*
X0073240Y0092218D01*
X0073775Y0092101D01*
X0074322Y0092062D01*
X0074407Y0091964D01*
X0075013Y0091832D01*
X0075132Y0091886D01*
X0075646Y0091695D01*
X0076181Y0091578D01*
X0076252Y0091468D01*
X0076833Y0091252D01*
X0076958Y0091288D01*
X0077439Y0091026D01*
X0077953Y0090834D01*
X0078007Y0090716D01*
X0078551Y0090418D01*
X0078680Y0090437D01*
X0079119Y0090108D01*
X0079600Y0089846D01*
X0079637Y0089721D01*
X0080133Y0089349D01*
X0080263Y0089349D01*
X0080651Y0088961D01*
X0081090Y0088633D01*
X0081109Y0088504D01*
X0081547Y0088065D01*
X0081676Y0088047D01*
X0082005Y0087608D01*
X0082392Y0087220D01*
X0082392Y0087090D01*
X0082764Y0086593D01*
X0082889Y0086557D01*
X0083152Y0086076D01*
X0083480Y0085637D01*
X0083462Y0085508D01*
X0083759Y0084963D01*
X0083877Y0084909D01*
X0084069Y0084396D01*
X0084332Y0083914D01*
X0084295Y0083789D01*
X0084512Y0083208D01*
X0084621Y0083138D01*
X0084738Y0082602D01*
X0084929Y0082089D01*
X0084875Y0081970D01*
X0085007Y0081364D01*
X0085106Y0081279D01*
X0085145Y0080732D01*
X0085261Y0080196D01*
X0085191Y0080087D01*
X0085230Y0079532D01*
X0085277Y0079486D01*
X0085277Y0078880D01*
X0085320Y0078276D01*
X0085277Y0078226D01*
X0085320Y0078279D02*
X0223766Y0078279D01*
X0223809Y0077081D02*
X0085277Y0077081D01*
X0085277Y0075882D02*
X0223809Y0075882D01*
X0223809Y0074684D02*
X0085277Y0074684D01*
X0085277Y0073485D02*
X0223809Y0073485D01*
X0223809Y0072287D02*
X0085277Y0072287D01*
X0085277Y0071088D02*
X0223809Y0071088D01*
X0223809Y0069890D02*
X0085277Y0069890D01*
X0085277Y0068691D02*
X0223809Y0068691D01*
X0223809Y0067493D02*
X0085277Y0067493D01*
X0085277Y0066294D02*
X0223809Y0066294D01*
X0223809Y0065096D02*
X0085277Y0065096D01*
X0085277Y0079478D02*
X0223809Y0079478D01*
X0223930Y0080676D02*
X0085157Y0080676D01*
X0084896Y0081875D02*
X0199384Y0081875D01*
X0199293Y0081912D02*
X0200469Y0081425D01*
X0201742Y0081425D01*
X0202918Y0081912D01*
X0203819Y0082812D01*
X0204306Y0083988D01*
X0204306Y0085262D01*
X0203819Y0086438D01*
X0203306Y0086950D01*
X0203306Y0092751D01*
X0206406Y0089651D01*
X0206406Y0086950D01*
X0205893Y0086438D01*
X0205406Y0085262D01*
X0205406Y0083988D01*
X0205893Y0082812D01*
X0206793Y0081912D01*
X0207969Y0081425D01*
X0209242Y0081425D01*
X0210418Y0081912D01*
X0211319Y0082812D01*
X0211806Y0083988D01*
X0211806Y0085262D01*
X0211319Y0086438D01*
X0210806Y0086950D01*
X0210806Y0091474D01*
X0187743Y0114536D01*
X0187743Y0115262D01*
X0187256Y0116438D01*
X0186356Y0117338D01*
X0185180Y0117825D01*
X0183907Y0117825D01*
X0182731Y0117338D01*
X0182200Y0116807D01*
X0181668Y0117338D01*
X0180492Y0117825D01*
X0179219Y0117825D01*
X0178043Y0117338D01*
X0177512Y0116807D01*
X0176981Y0117338D01*
X0175805Y0117825D01*
X0174532Y0117825D01*
X0173356Y0117338D01*
X0172455Y0116438D01*
X0171968Y0115262D01*
X0171968Y0113988D01*
X0172455Y0112812D01*
X0173356Y0111912D01*
X0174532Y0111425D01*
X0175257Y0111425D01*
X0179843Y0106839D01*
X0179843Y0097151D01*
X0182593Y0094401D01*
X0182593Y0093676D01*
X0183080Y0092500D01*
X0183981Y0091600D01*
X0185157Y0091112D01*
X0186430Y0091112D01*
X0187606Y0091600D01*
X0188506Y0092500D01*
X0188993Y0093676D01*
X0188993Y0094949D01*
X0188506Y0096125D01*
X0187606Y0097025D01*
X0186430Y0097512D01*
X0185705Y0097512D01*
X0184243Y0098974D01*
X0184243Y0107126D01*
X0198906Y0092464D01*
X0198906Y0086950D01*
X0198393Y0086438D01*
X0197906Y0085262D01*
X0197906Y0083988D01*
X0198393Y0082812D01*
X0199293Y0081912D01*
X0198285Y0083073D02*
X0084635Y0083073D01*
X0084137Y0084272D02*
X0197906Y0084272D01*
X0197992Y0085470D02*
X0083482Y0085470D01*
X0082708Y0086669D02*
X0198624Y0086669D01*
X0198906Y0087867D02*
X0081810Y0087867D01*
X0080547Y0089066D02*
X0198906Y0089066D01*
X0198906Y0090264D02*
X0078911Y0090264D01*
X0076267Y0091463D02*
X0184311Y0091463D01*
X0183014Y0092661D02*
X0057718Y0092661D01*
X0057718Y0093860D02*
X0182593Y0093860D01*
X0181936Y0095058D02*
X0057718Y0095058D01*
X0057718Y0096257D02*
X0180738Y0096257D01*
X0179843Y0097455D02*
X0057718Y0097455D01*
X0057718Y0098654D02*
X0179843Y0098654D01*
X0179843Y0099852D02*
X0057718Y0099852D01*
X0057718Y0101051D02*
X0179843Y0101051D01*
X0179843Y0102249D02*
X0168881Y0102249D01*
X0169131Y0102500D02*
X0169618Y0103676D01*
X0169618Y0104949D01*
X0169131Y0106125D01*
X0168231Y0107025D01*
X0167055Y0107512D01*
X0166330Y0107512D01*
X0163267Y0110575D01*
X0157806Y0110575D01*
X0157293Y0111088D01*
X0156117Y0111575D01*
X0154844Y0111575D01*
X0153668Y0111088D01*
X0152768Y0110188D01*
X0152281Y0109012D01*
X0152281Y0107738D01*
X0152768Y0106562D01*
X0153668Y0105662D01*
X0154844Y0105175D01*
X0156117Y0105175D01*
X0157293Y0105662D01*
X0157806Y0106175D01*
X0161445Y0106175D01*
X0163218Y0104401D01*
X0163218Y0103676D01*
X0163705Y0102500D01*
X0164606Y0101600D01*
X0165782Y0101112D01*
X0167055Y0101112D01*
X0168231Y0101600D01*
X0169131Y0102500D01*
X0169524Y0103448D02*
X0179843Y0103448D01*
X0179843Y0104646D02*
X0169618Y0104646D01*
X0169247Y0105845D02*
X0179843Y0105845D01*
X0179639Y0107043D02*
X0168187Y0107043D01*
X0165600Y0108242D02*
X0178440Y0108242D01*
X0177242Y0109440D02*
X0164402Y0109440D01*
X0162356Y0108375D02*
X0166418Y0104312D01*
X0163956Y0102249D02*
X0057718Y0102249D01*
X0057718Y0103448D02*
X0078550Y0103448D01*
X0078907Y0103300D02*
X0143305Y0103300D01*
X0144481Y0103787D01*
X0145381Y0104687D01*
X0145868Y0105863D01*
X0145868Y0107137D01*
X0145381Y0108313D01*
X0144481Y0109213D01*
X0143305Y0109700D01*
X0080869Y0109700D01*
X0065243Y0125325D01*
X0065243Y0192675D01*
X0069945Y0197376D01*
X0070340Y0197212D01*
X0071872Y0197212D01*
X0073287Y0197799D01*
X0074370Y0198882D01*
X0074956Y0200297D01*
X0074956Y0201828D01*
X0074370Y0203243D01*
X0073287Y0204326D01*
X0071872Y0204912D01*
X0070340Y0204912D01*
X0068925Y0204326D01*
X0068861Y0204262D01*
X0068469Y0204262D01*
X0067293Y0203775D01*
X0059330Y0195813D01*
X0058843Y0194637D01*
X0058843Y0123363D01*
X0059330Y0122187D01*
X0060231Y0121287D01*
X0077731Y0103787D01*
X0078907Y0103300D01*
X0076871Y0104646D02*
X0057718Y0104646D01*
X0057718Y0105845D02*
X0075673Y0105845D01*
X0074474Y0107043D02*
X0057718Y0107043D01*
X0057718Y0108242D02*
X0073276Y0108242D01*
X0072077Y0109440D02*
X0057718Y0109440D01*
X0057718Y0110639D02*
X0070879Y0110639D01*
X0069680Y0111837D02*
X0057718Y0111837D01*
X0057718Y0113036D02*
X0068482Y0113036D01*
X0067283Y0114234D02*
X0057718Y0114234D01*
X0057718Y0115433D02*
X0066085Y0115433D01*
X0064886Y0116632D02*
X0057718Y0116632D01*
X0057718Y0117830D02*
X0063688Y0117830D01*
X0062489Y0119029D02*
X0057718Y0119029D01*
X0057718Y0120227D02*
X0061291Y0120227D01*
X0060092Y0121426D02*
X0057718Y0121426D01*
X0057718Y0122624D02*
X0059150Y0122624D01*
X0058843Y0123823D02*
X0057718Y0123823D01*
X0057718Y0125021D02*
X0058843Y0125021D01*
X0058843Y0126220D02*
X0057718Y0126220D01*
X0057718Y0127418D02*
X0058843Y0127418D01*
X0058843Y0128617D02*
X0057718Y0128617D01*
X0057718Y0129815D02*
X0058843Y0129815D01*
X0058843Y0131014D02*
X0057718Y0131014D01*
X0057718Y0132212D02*
X0058843Y0132212D01*
X0058843Y0133411D02*
X0057718Y0133411D01*
X0057718Y0134609D02*
X0058843Y0134609D01*
X0058843Y0135808D02*
X0057718Y0135808D01*
X0057718Y0137006D02*
X0058843Y0137006D01*
X0058843Y0138205D02*
X0057718Y0138205D01*
X0057718Y0139403D02*
X0058843Y0139403D01*
X0058843Y0140602D02*
X0057718Y0140602D01*
X0057718Y0141800D02*
X0058843Y0141800D01*
X0058843Y0142999D02*
X0057718Y0142999D01*
X0057718Y0144197D02*
X0058843Y0144197D01*
X0058843Y0145396D02*
X0057718Y0145396D01*
X0057718Y0146594D02*
X0058843Y0146594D01*
X0058843Y0147793D02*
X0057718Y0147793D01*
X0057718Y0148991D02*
X0058843Y0148991D01*
X0058843Y0150190D02*
X0057718Y0150190D01*
X0057718Y0151388D02*
X0058843Y0151388D01*
X0058843Y0152587D02*
X0057718Y0152587D01*
X0057718Y0153785D02*
X0058843Y0153785D01*
X0058843Y0154984D02*
X0057718Y0154984D01*
X0057718Y0156182D02*
X0058843Y0156182D01*
X0058843Y0157381D02*
X0057718Y0157381D01*
X0057718Y0158579D02*
X0058843Y0158579D01*
X0058843Y0159778D02*
X0057718Y0159778D01*
X0057718Y0160976D02*
X0058843Y0160976D01*
X0058843Y0162175D02*
X0057718Y0162175D01*
X0057718Y0163373D02*
X0058843Y0163373D01*
X0058843Y0164572D02*
X0057718Y0164572D01*
X0057718Y0165770D02*
X0058843Y0165770D01*
X0058843Y0166969D02*
X0057718Y0166969D01*
X0057718Y0168168D02*
X0058843Y0168168D01*
X0058843Y0169366D02*
X0057718Y0169366D01*
X0057718Y0170565D02*
X0058843Y0170565D01*
X0058843Y0171763D02*
X0057718Y0171763D01*
X0057718Y0172962D02*
X0058843Y0172962D01*
X0058843Y0174160D02*
X0057718Y0174160D01*
X0057718Y0175359D02*
X0058843Y0175359D01*
X0058843Y0176557D02*
X0057718Y0176557D01*
X0057718Y0177756D02*
X0058843Y0177756D01*
X0058843Y0178954D02*
X0057718Y0178954D01*
X0057718Y0180153D02*
X0058843Y0180153D01*
X0058843Y0181351D02*
X0057718Y0181351D01*
X0057718Y0182550D02*
X0058843Y0182550D01*
X0058843Y0183748D02*
X0057718Y0183748D01*
X0057718Y0184947D02*
X0058843Y0184947D01*
X0058843Y0186145D02*
X0057718Y0186145D01*
X0057718Y0187344D02*
X0058843Y0187344D01*
X0058843Y0188542D02*
X0057718Y0188542D01*
X0057718Y0189741D02*
X0058843Y0189741D01*
X0058843Y0190939D02*
X0057718Y0190939D01*
X0057718Y0192138D02*
X0058843Y0192138D01*
X0058843Y0193336D02*
X0057718Y0193336D01*
X0057718Y0194535D02*
X0058843Y0194535D01*
X0059298Y0195733D02*
X0057718Y0195733D01*
X0057718Y0196932D02*
X0060450Y0196932D01*
X0061648Y0198130D02*
X0057718Y0198130D01*
X0057718Y0199329D02*
X0062847Y0199329D01*
X0064045Y0200527D02*
X0057718Y0200527D01*
X0057718Y0201726D02*
X0065244Y0201726D01*
X0066442Y0202924D02*
X0057718Y0202924D01*
X0057718Y0204123D02*
X0068132Y0204123D01*
X0073490Y0204123D02*
X0101743Y0204123D01*
X0101743Y0205321D02*
X0057718Y0205321D01*
X0057718Y0206520D02*
X0101743Y0206520D01*
X0101743Y0207718D02*
X0057718Y0207718D01*
X0057718Y0208917D02*
X0101743Y0208917D01*
X0101743Y0210115D02*
X0057718Y0210115D01*
X0057718Y0211314D02*
X0101743Y0211314D01*
X0101743Y0212512D02*
X0057718Y0212512D01*
X0057718Y0213711D02*
X0101743Y0213711D01*
X0101743Y0214909D02*
X0057718Y0214909D01*
X0057718Y0216108D02*
X0101743Y0216108D01*
X0101743Y0217306D02*
X0057718Y0217306D01*
X0057718Y0218505D02*
X0101743Y0218505D01*
X0101743Y0219148D02*
X0101743Y0184300D01*
X0078986Y0184300D01*
X0077957Y0183874D01*
X0067957Y0173874D01*
X0067170Y0173086D01*
X0066743Y0172057D01*
X0066743Y0140943D01*
X0067170Y0139914D01*
X0092170Y0114914D01*
X0092957Y0114126D01*
X0093986Y0113700D01*
X0165100Y0113700D01*
X0166129Y0114126D01*
X0170703Y0118700D01*
X0189634Y0118700D01*
X0202680Y0105653D01*
X0203080Y0104687D01*
X0203981Y0103787D01*
X0205157Y0103300D01*
X0206430Y0103300D01*
X0207606Y0103787D01*
X0208506Y0104687D01*
X0208993Y0105863D01*
X0208993Y0107137D01*
X0208506Y0108313D01*
X0207606Y0109213D01*
X0206640Y0109613D01*
X0205141Y0111112D01*
X0205180Y0111112D01*
X0206356Y0111600D01*
X0207256Y0112500D01*
X0207743Y0113676D01*
X0207743Y0114401D01*
X0221743Y0128401D01*
X0221743Y0143349D01*
X0215868Y0149224D01*
X0215868Y0149949D01*
X0215381Y0151125D01*
X0214481Y0152025D01*
X0213305Y0152512D01*
X0212032Y0152512D01*
X0210856Y0152025D01*
X0209955Y0151125D01*
X0209468Y0149949D01*
X0209468Y0148676D01*
X0209955Y0147500D01*
X0210856Y0146600D01*
X0212032Y0146113D01*
X0212757Y0146113D01*
X0214248Y0144622D01*
X0213305Y0145012D01*
X0212032Y0145012D01*
X0210856Y0144525D01*
X0209955Y0143625D01*
X0209468Y0142449D01*
X0209468Y0141176D01*
X0209955Y0140000D01*
X0210856Y0139100D01*
X0212032Y0138613D01*
X0212757Y0138613D01*
X0214841Y0136529D01*
X0214841Y0136353D01*
X0214481Y0136713D01*
X0213305Y0137200D01*
X0212032Y0137200D01*
X0210856Y0136713D01*
X0209955Y0135813D01*
X0209468Y0134637D01*
X0209468Y0133911D01*
X0200781Y0125224D01*
X0200781Y0124763D01*
X0200268Y0124250D01*
X0199781Y0123074D01*
X0199781Y0121801D01*
X0200268Y0120625D01*
X0200643Y0120250D01*
X0200268Y0119875D01*
X0199781Y0118699D01*
X0199781Y0117426D01*
X0200268Y0116250D01*
X0201168Y0115350D01*
X0201459Y0115229D01*
X0201343Y0114949D01*
X0201343Y0114910D01*
X0193167Y0123086D01*
X0192379Y0123874D01*
X0191350Y0124300D01*
X0168986Y0124300D01*
X0167957Y0123874D01*
X0167170Y0123086D01*
X0163384Y0119300D01*
X0141869Y0119300D01*
X0142256Y0119687D01*
X0142743Y0120863D01*
X0142743Y0122137D01*
X0142256Y0123313D01*
X0141743Y0123825D01*
X0141743Y0134026D01*
X0143305Y0135588D01*
X0143779Y0134444D01*
X0144862Y0133361D01*
X0146277Y0132775D01*
X0147809Y0132775D01*
X0149224Y0133361D01*
X0150307Y0134444D01*
X0150893Y0135859D01*
X0150893Y0136515D01*
X0156417Y0142039D01*
X0156843Y0143068D01*
X0156843Y0161965D01*
X0160153Y0165275D01*
X0160809Y0165275D01*
X0162224Y0165861D01*
X0163307Y0166944D01*
X0163893Y0168359D01*
X0163893Y0169891D01*
X0163307Y0171306D01*
X0162224Y0172389D01*
X0160809Y0172975D01*
X0159277Y0172975D01*
X0157862Y0172389D01*
X0156779Y0171306D01*
X0156193Y0169891D01*
X0156193Y0169235D01*
X0152993Y0166035D01*
X0152993Y0167099D01*
X0146431Y0173661D01*
X0145142Y0174950D01*
X0142494Y0174950D01*
X0141981Y0175463D01*
X0140805Y0175950D01*
X0139532Y0175950D01*
X0138356Y0175463D01*
X0137455Y0174563D01*
X0136968Y0173387D01*
X0136968Y0172113D01*
X0137455Y0170937D01*
X0138356Y0170037D01*
X0139532Y0169550D01*
X0140805Y0169550D01*
X0141981Y0170037D01*
X0142494Y0170550D01*
X0143320Y0170550D01*
X0148593Y0165276D01*
X0148593Y0147099D01*
X0137343Y0135849D01*
X0137343Y0123825D01*
X0136830Y0123313D01*
X0136343Y0122137D01*
X0136343Y0120863D01*
X0136830Y0119687D01*
X0137218Y0119300D01*
X0095703Y0119300D01*
X0072343Y0142660D01*
X0072343Y0170340D01*
X0080703Y0178700D01*
X0107941Y0178700D01*
X0108907Y0178300D01*
X0110180Y0178300D01*
X0111356Y0178787D01*
X0112256Y0179687D01*
X0112743Y0180863D01*
X0112743Y0182137D01*
X0112256Y0183313D01*
X0111356Y0184213D01*
X0110180Y0184700D01*
X0108907Y0184700D01*
X0107941Y0184300D01*
X0107343Y0184300D01*
X0107343Y0187152D01*
X0108344Y0186737D01*
X0109617Y0186737D01*
X0110793Y0187225D01*
X0111694Y0188125D01*
X0112181Y0189301D01*
X0112181Y0190574D01*
X0111694Y0191750D01*
X0111181Y0192263D01*
X0111181Y0225026D01*
X0124455Y0238300D01*
X0125180Y0238300D01*
X0126356Y0238787D01*
X0126869Y0239300D01*
X0130652Y0239300D01*
X0130652Y0239262D01*
X0131589Y0238325D01*
X0136064Y0238325D01*
X0136780Y0239040D01*
X0137495Y0238325D01*
X0141843Y0238325D01*
X0141830Y0238313D01*
X0141343Y0237137D01*
X0141343Y0235863D01*
X0141830Y0234687D01*
X0142731Y0233787D01*
X0143907Y0233300D01*
X0145180Y0233300D01*
X0146356Y0233787D01*
X0147256Y0234687D01*
X0147743Y0235863D01*
X0147743Y0237137D01*
X0147256Y0238313D01*
X0146743Y0238825D01*
X0146743Y0240536D01*
X0145455Y0241825D01*
X0143580Y0243700D01*
X0142907Y0243700D01*
X0142907Y0243738D01*
X0141970Y0244675D01*
X0137495Y0244675D01*
X0136780Y0243960D01*
X0136064Y0244675D01*
X0131589Y0244675D01*
X0130652Y0243738D01*
X0130652Y0243700D01*
X0126869Y0243700D01*
X0126356Y0244213D01*
X0125180Y0244700D01*
X0123907Y0244700D01*
X0122731Y0244213D01*
X0121830Y0243313D01*
X0121343Y0242137D01*
X0121343Y0241411D01*
X0106781Y0226849D01*
X0106781Y0223038D01*
X0106356Y0223463D01*
X0105180Y0223950D01*
X0103907Y0223950D01*
X0102731Y0223463D01*
X0101830Y0222563D01*
X0101343Y0221387D01*
X0101343Y0220113D01*
X0101743Y0219148D01*
X0101513Y0219703D02*
X0057718Y0219703D01*
X0057718Y0220902D02*
X0101343Y0220902D01*
X0101639Y0222101D02*
X0057718Y0222101D01*
X0057718Y0223299D02*
X0102567Y0223299D01*
X0106520Y0223299D02*
X0106781Y0223299D01*
X0106781Y0224498D02*
X0057718Y0224498D01*
X0057718Y0225696D02*
X0106781Y0225696D01*
X0106827Y0226895D02*
X0057718Y0226895D01*
X0057718Y0228093D02*
X0108025Y0228093D01*
X0109224Y0229292D02*
X0057718Y0229292D01*
X0057718Y0230490D02*
X0110422Y0230490D01*
X0111621Y0231689D02*
X0076673Y0231689D01*
X0079113Y0232887D02*
X0112819Y0232887D01*
X0111654Y0234086D02*
X0114018Y0234086D01*
X0115216Y0235284D02*
X0112503Y0235284D01*
X0112743Y0235863D02*
X0112256Y0234687D01*
X0111356Y0233787D01*
X0110180Y0233300D01*
X0108907Y0233300D01*
X0107731Y0233787D01*
X0106830Y0234687D01*
X0106343Y0235863D01*
X0106343Y0237137D01*
X0106830Y0238313D01*
X0107287Y0238770D01*
X0107085Y0238972D01*
X0106438Y0238325D01*
X0101963Y0238325D01*
X0101222Y0239067D01*
X0101150Y0238943D01*
X0100852Y0238645D01*
X0100488Y0238434D01*
X0100081Y0238325D01*
X0098483Y0238325D01*
X0098483Y0241313D01*
X0098108Y0241313D01*
X0095120Y0241313D01*
X0095120Y0239715D01*
X0095230Y0239308D01*
X0095440Y0238943D01*
X0095738Y0238645D01*
X0096103Y0238434D01*
X0096510Y0238325D01*
X0098108Y0238325D01*
X0098108Y0241313D01*
X0098108Y0241687D01*
X0095120Y0241687D01*
X0095120Y0243285D01*
X0095230Y0243692D01*
X0095440Y0244057D01*
X0095738Y0244355D01*
X0096103Y0244566D01*
X0096510Y0244675D01*
X0098108Y0244675D01*
X0098108Y0241687D01*
X0098483Y0241687D01*
X0098483Y0244675D01*
X0100081Y0244675D01*
X0100488Y0244566D01*
X0100852Y0244355D01*
X0101150Y0244057D01*
X0101222Y0243933D01*
X0101963Y0244675D01*
X0106438Y0244675D01*
X0107376Y0243738D01*
X0107376Y0243700D01*
X0108580Y0243700D01*
X0109868Y0242411D01*
X0109868Y0242411D01*
X0110455Y0241825D01*
X0110455Y0241825D01*
X0111743Y0240536D01*
X0111743Y0238825D01*
X0112256Y0238313D01*
X0112743Y0237137D01*
X0112743Y0235863D01*
X0112743Y0236483D02*
X0116415Y0236483D01*
X0117613Y0237681D02*
X0112518Y0237681D01*
X0111743Y0238880D02*
X0118812Y0238880D01*
X0120010Y0240078D02*
X0111743Y0240078D01*
X0111003Y0241277D02*
X0121209Y0241277D01*
X0121484Y0242475D02*
X0109804Y0242475D01*
X0108606Y0243674D02*
X0122192Y0243674D01*
X0124543Y0241500D02*
X0108981Y0225937D01*
X0108981Y0189937D01*
X0111306Y0192138D02*
X0251369Y0192138D01*
X0251369Y0193336D02*
X0111181Y0193336D01*
X0111181Y0194535D02*
X0251369Y0194535D01*
X0251369Y0195733D02*
X0111181Y0195733D01*
X0111181Y0196932D02*
X0251369Y0196932D01*
X0251369Y0198130D02*
X0111181Y0198130D01*
X0111181Y0199329D02*
X0251369Y0199329D01*
X0251369Y0200527D02*
X0111181Y0200527D01*
X0111181Y0201726D02*
X0200309Y0201726D01*
X0200529Y0201635D02*
X0201802Y0201635D01*
X0202978Y0202122D01*
X0203878Y0203022D01*
X0204365Y0204198D01*
X0204365Y0205471D01*
X0203878Y0206647D01*
X0201066Y0209460D01*
X0200166Y0210360D01*
X0192978Y0217547D01*
X0191802Y0218035D01*
X0141535Y0218035D01*
X0141471Y0218099D01*
X0140056Y0218685D01*
X0138525Y0218685D01*
X0137110Y0218099D01*
X0136027Y0217015D01*
X0135441Y0215600D01*
X0135441Y0214069D01*
X0136027Y0212654D01*
X0137110Y0211571D01*
X0138525Y0210985D01*
X0140056Y0210985D01*
X0141471Y0211571D01*
X0141535Y0211635D01*
X0189840Y0211635D01*
X0195640Y0205834D01*
X0196540Y0204934D01*
X0199353Y0202122D01*
X0200529Y0201635D01*
X0202022Y0201726D02*
X0251369Y0201726D01*
X0251369Y0202924D02*
X0203781Y0202924D01*
X0204334Y0204123D02*
X0251369Y0204123D01*
X0251369Y0205321D02*
X0204365Y0205321D01*
X0203931Y0206520D02*
X0251369Y0206520D01*
X0251369Y0207718D02*
X0202807Y0207718D01*
X0201609Y0208917D02*
X0251369Y0208917D01*
X0251369Y0210115D02*
X0200410Y0210115D01*
X0199212Y0211314D02*
X0251369Y0211314D01*
X0251369Y0212512D02*
X0198013Y0212512D01*
X0196815Y0213711D02*
X0251369Y0213711D01*
X0251369Y0214909D02*
X0195616Y0214909D01*
X0194418Y0216108D02*
X0251369Y0216108D01*
X0251369Y0217306D02*
X0193219Y0217306D01*
X0190161Y0211314D02*
X0140851Y0211314D01*
X0137730Y0211314D02*
X0111181Y0211314D01*
X0111181Y0212512D02*
X0136168Y0212512D01*
X0135589Y0213711D02*
X0111181Y0213711D01*
X0111181Y0214909D02*
X0135441Y0214909D01*
X0135651Y0216108D02*
X0111181Y0216108D01*
X0111181Y0217306D02*
X0136318Y0217306D01*
X0138091Y0218505D02*
X0111181Y0218505D01*
X0111181Y0219703D02*
X0251369Y0219703D01*
X0251369Y0218505D02*
X0140490Y0218505D01*
X0142432Y0234086D02*
X0120240Y0234086D01*
X0121439Y0235284D02*
X0141583Y0235284D01*
X0141343Y0236483D02*
X0122637Y0236483D01*
X0123836Y0237681D02*
X0141569Y0237681D01*
X0144543Y0236500D02*
X0144543Y0239625D01*
X0142668Y0241500D01*
X0139732Y0241500D01*
X0136940Y0238880D02*
X0136619Y0238880D01*
X0133827Y0241500D02*
X0124543Y0241500D01*
X0126448Y0238880D02*
X0131035Y0238880D01*
X0119042Y0232887D02*
X0229974Y0232887D01*
X0228373Y0234086D02*
X0218529Y0234086D01*
X0218231Y0233787D02*
X0219131Y0234687D01*
X0219618Y0235863D01*
X0219618Y0237137D01*
X0219131Y0238313D01*
X0218231Y0239213D01*
X0217951Y0239329D01*
X0217330Y0239950D01*
X0213966Y0243313D01*
X0213966Y0243738D01*
X0213029Y0244675D01*
X0208554Y0244675D01*
X0207812Y0243933D01*
X0207741Y0244057D01*
X0207443Y0244355D01*
X0207078Y0244566D01*
X0206671Y0244675D01*
X0205073Y0244675D01*
X0205073Y0241687D01*
X0204698Y0241687D01*
X0204698Y0241313D01*
X0201711Y0241313D01*
X0201711Y0239715D01*
X0201820Y0239308D01*
X0202031Y0238943D01*
X0202329Y0238645D01*
X0202693Y0238434D01*
X0203100Y0238325D01*
X0204698Y0238325D01*
X0204698Y0241313D01*
X0205073Y0241313D01*
X0205073Y0238325D01*
X0206671Y0238325D01*
X0207078Y0238434D01*
X0207443Y0238645D01*
X0207741Y0238943D01*
X0207812Y0239067D01*
X0208554Y0238325D01*
X0212732Y0238325D01*
X0213424Y0237633D01*
X0213218Y0237137D01*
X0213218Y0235863D01*
X0213705Y0234687D01*
X0214606Y0233787D01*
X0215782Y0233300D01*
X0217055Y0233300D01*
X0218231Y0233787D01*
X0219378Y0235284D02*
X0227163Y0235284D01*
X0226176Y0236483D02*
X0219618Y0236483D01*
X0219393Y0237681D02*
X0225522Y0237681D01*
X0224867Y0238880D02*
X0218564Y0238880D01*
X0217201Y0240078D02*
X0224418Y0240078D01*
X0224158Y0241277D02*
X0216003Y0241277D01*
X0214804Y0242475D02*
X0223897Y0242475D01*
X0223809Y0243674D02*
X0213966Y0243674D01*
X0212668Y0241500D02*
X0216418Y0237750D01*
X0216418Y0236500D01*
X0213218Y0236483D02*
X0183681Y0236483D01*
X0183681Y0235863D02*
X0183681Y0237137D01*
X0183194Y0238313D01*
X0182681Y0238825D01*
X0182681Y0239599D01*
X0181392Y0240887D01*
X0178580Y0243700D01*
X0178439Y0243700D01*
X0178439Y0243738D01*
X0177501Y0244675D01*
X0173026Y0244675D01*
X0172285Y0243933D01*
X0172213Y0244057D01*
X0171915Y0244355D01*
X0171551Y0244566D01*
X0171144Y0244675D01*
X0169546Y0244675D01*
X0169546Y0241687D01*
X0169171Y0241687D01*
X0169171Y0241313D01*
X0166183Y0241313D01*
X0166183Y0239715D01*
X0166292Y0239308D01*
X0166503Y0238943D01*
X0166801Y0238645D01*
X0167166Y0238434D01*
X0167573Y0238325D01*
X0169171Y0238325D01*
X0169171Y0241313D01*
X0169546Y0241313D01*
X0169546Y0238325D01*
X0171144Y0238325D01*
X0171551Y0238434D01*
X0171915Y0238645D01*
X0172213Y0238943D01*
X0172285Y0239067D01*
X0173026Y0238325D01*
X0177501Y0238325D01*
X0177617Y0238440D01*
X0177761Y0238296D01*
X0177281Y0237137D01*
X0177281Y0235863D01*
X0177768Y0234687D01*
X0178668Y0233787D01*
X0179844Y0233300D01*
X0181117Y0233300D01*
X0182293Y0233787D01*
X0183194Y0234687D01*
X0183681Y0235863D01*
X0183441Y0235284D02*
X0213458Y0235284D01*
X0214307Y0234086D02*
X0182592Y0234086D01*
X0180481Y0236500D02*
X0180481Y0238687D01*
X0177668Y0241500D01*
X0175264Y0241500D01*
X0172472Y0238880D02*
X0172150Y0238880D01*
X0169546Y0238880D02*
X0169171Y0238880D01*
X0169171Y0240078D02*
X0169546Y0240078D01*
X0169546Y0241277D02*
X0169171Y0241277D01*
X0169171Y0241687D02*
X0166183Y0241687D01*
X0166183Y0243285D01*
X0166292Y0243692D01*
X0166503Y0244057D01*
X0166801Y0244355D01*
X0167166Y0244566D01*
X0167573Y0244675D01*
X0169171Y0244675D01*
X0169171Y0241687D01*
X0169171Y0242475D02*
X0169546Y0242475D01*
X0169546Y0243674D02*
X0169171Y0243674D01*
X0166288Y0243674D02*
X0143606Y0243674D01*
X0144804Y0242475D02*
X0166183Y0242475D01*
X0166183Y0241277D02*
X0146003Y0241277D01*
X0146743Y0240078D02*
X0166183Y0240078D01*
X0166566Y0238880D02*
X0146743Y0238880D01*
X0147518Y0237681D02*
X0177506Y0237681D01*
X0177281Y0236483D02*
X0147743Y0236483D01*
X0147503Y0235284D02*
X0177521Y0235284D01*
X0178370Y0234086D02*
X0146654Y0234086D01*
X0117843Y0231689D02*
X0232414Y0231689D01*
X0223809Y0244872D02*
X0085277Y0244872D01*
X0085277Y0243674D02*
X0095225Y0243674D01*
X0095120Y0242475D02*
X0085190Y0242475D01*
X0084929Y0241277D02*
X0095120Y0241277D01*
X0095120Y0240078D02*
X0084668Y0240078D01*
X0084219Y0238880D02*
X0095503Y0238880D01*
X0098108Y0238880D02*
X0098483Y0238880D01*
X0098483Y0240078D02*
X0098108Y0240078D01*
X0098108Y0241277D02*
X0098483Y0241277D01*
X0098483Y0242475D02*
X0098108Y0242475D01*
X0098108Y0243674D02*
X0098483Y0243674D01*
X0104201Y0241500D02*
X0107668Y0241500D01*
X0109543Y0239625D01*
X0109543Y0236500D01*
X0106343Y0236483D02*
X0082910Y0236483D01*
X0083565Y0237681D02*
X0106569Y0237681D01*
X0106993Y0238880D02*
X0107177Y0238880D01*
X0106583Y0235284D02*
X0081924Y0235284D01*
X0080714Y0234086D02*
X0107432Y0234086D01*
X0101409Y0238880D02*
X0101087Y0238880D01*
X0115446Y0229292D02*
X0251369Y0229292D01*
X0251369Y0230490D02*
X0116645Y0230490D01*
X0114248Y0228093D02*
X0251369Y0228093D01*
X0251369Y0226895D02*
X0113049Y0226895D01*
X0111851Y0225696D02*
X0251369Y0225696D01*
X0251369Y0224498D02*
X0111181Y0224498D01*
X0111181Y0223299D02*
X0251369Y0223299D01*
X0251369Y0222101D02*
X0111181Y0222101D01*
X0111181Y0220902D02*
X0251369Y0220902D01*
X0223809Y0246071D02*
X0085277Y0246071D01*
X0085277Y0247269D02*
X0223809Y0247269D01*
X0223809Y0248468D02*
X0085277Y0248468D01*
X0085277Y0249666D02*
X0223809Y0249666D01*
X0223809Y0250865D02*
X0085277Y0250865D01*
X0085277Y0252063D02*
X0223809Y0252063D01*
X0223809Y0253262D02*
X0085277Y0253262D01*
X0085277Y0254460D02*
X0223809Y0254460D01*
X0223809Y0255659D02*
X0085277Y0255659D01*
X0085277Y0256857D02*
X0223809Y0256857D01*
X0223809Y0258056D02*
X0085277Y0258056D01*
X0111181Y0210115D02*
X0191359Y0210115D01*
X0192558Y0208917D02*
X0111181Y0208917D01*
X0111181Y0207718D02*
X0193756Y0207718D01*
X0194955Y0206520D02*
X0111181Y0206520D01*
X0111181Y0205321D02*
X0196153Y0205321D01*
X0197352Y0204123D02*
X0111181Y0204123D01*
X0111181Y0202924D02*
X0198550Y0202924D01*
X0162850Y0171763D02*
X0251369Y0171763D01*
X0251369Y0170565D02*
X0163614Y0170565D01*
X0163893Y0169366D02*
X0251369Y0169366D01*
X0251369Y0168168D02*
X0163814Y0168168D01*
X0163317Y0166969D02*
X0251369Y0166969D01*
X0251369Y0165770D02*
X0162005Y0165770D01*
X0159450Y0164572D02*
X0251369Y0164572D01*
X0251369Y0163373D02*
X0158252Y0163373D01*
X0157053Y0162175D02*
X0251369Y0162175D01*
X0251369Y0160976D02*
X0156843Y0160976D01*
X0156843Y0159778D02*
X0251369Y0159778D01*
X0251369Y0158579D02*
X0156843Y0158579D01*
X0156843Y0157381D02*
X0251369Y0157381D01*
X0251369Y0156182D02*
X0156843Y0156182D01*
X0156843Y0154984D02*
X0251369Y0154984D01*
X0251369Y0153785D02*
X0156843Y0153785D01*
X0156843Y0152587D02*
X0251369Y0152587D01*
X0251369Y0151388D02*
X0215118Y0151388D01*
X0215769Y0150190D02*
X0251369Y0150190D01*
X0251369Y0148991D02*
X0216101Y0148991D01*
X0217299Y0147793D02*
X0251369Y0147793D01*
X0251369Y0146594D02*
X0218498Y0146594D01*
X0219696Y0145396D02*
X0251369Y0145396D01*
X0251369Y0144197D02*
X0220895Y0144197D01*
X0221743Y0142999D02*
X0251369Y0142999D01*
X0251369Y0141800D02*
X0221743Y0141800D01*
X0221743Y0140602D02*
X0251369Y0140602D01*
X0251369Y0139403D02*
X0221743Y0139403D01*
X0221743Y0138205D02*
X0251369Y0138205D01*
X0251369Y0137006D02*
X0221743Y0137006D01*
X0221743Y0135808D02*
X0251369Y0135808D01*
X0251369Y0134609D02*
X0221743Y0134609D01*
X0221743Y0133411D02*
X0251369Y0133411D01*
X0251369Y0132212D02*
X0221743Y0132212D01*
X0221743Y0131014D02*
X0251369Y0131014D01*
X0251369Y0129815D02*
X0221743Y0129815D01*
X0221743Y0128617D02*
X0251369Y0128617D01*
X0251369Y0127418D02*
X0220760Y0127418D01*
X0219562Y0126220D02*
X0251369Y0126220D01*
X0251369Y0125021D02*
X0218363Y0125021D01*
X0217165Y0123823D02*
X0251369Y0123823D01*
X0251369Y0122624D02*
X0215966Y0122624D01*
X0214768Y0121426D02*
X0251369Y0121426D01*
X0251369Y0120227D02*
X0213569Y0120227D01*
X0212371Y0119029D02*
X0251369Y0119029D01*
X0251369Y0117830D02*
X0211172Y0117830D01*
X0209974Y0116632D02*
X0251369Y0116632D01*
X0251369Y0115433D02*
X0208775Y0115433D01*
X0207743Y0114234D02*
X0251369Y0114234D01*
X0251369Y0113036D02*
X0207478Y0113036D01*
X0206594Y0111837D02*
X0251369Y0111837D01*
X0251369Y0110639D02*
X0205614Y0110639D01*
X0207056Y0109440D02*
X0251369Y0109440D01*
X0251369Y0108242D02*
X0208535Y0108242D01*
X0208993Y0107043D02*
X0251369Y0107043D01*
X0251369Y0105845D02*
X0208986Y0105845D01*
X0208465Y0104646D02*
X0251369Y0104646D01*
X0251369Y0103448D02*
X0206787Y0103448D01*
X0204800Y0103448D02*
X0198832Y0103448D01*
X0200030Y0102249D02*
X0251369Y0102249D01*
X0251369Y0101051D02*
X0231080Y0101051D01*
X0231043Y0101088D02*
X0229867Y0101575D01*
X0228594Y0101575D01*
X0227418Y0101088D01*
X0226905Y0100575D01*
X0210931Y0100575D01*
X0210418Y0101088D01*
X0209242Y0101575D01*
X0207969Y0101575D01*
X0206793Y0101088D01*
X0205893Y0100188D01*
X0205406Y0099012D01*
X0205406Y0097738D01*
X0205893Y0096562D01*
X0206793Y0095662D01*
X0207969Y0095175D01*
X0209242Y0095175D01*
X0210418Y0095662D01*
X0210931Y0096175D01*
X0226905Y0096175D01*
X0227418Y0095662D01*
X0228594Y0095175D01*
X0229867Y0095175D01*
X0231043Y0095662D01*
X0231944Y0096562D01*
X0232431Y0097738D01*
X0232431Y0099012D01*
X0231944Y0100188D01*
X0231043Y0101088D01*
X0232083Y0099852D02*
X0251369Y0099852D01*
X0251369Y0098654D02*
X0232431Y0098654D01*
X0232314Y0097455D02*
X0251369Y0097455D01*
X0251369Y0096257D02*
X0231638Y0096257D01*
X0229231Y0098375D02*
X0208606Y0098375D01*
X0206198Y0096257D02*
X0206023Y0096257D01*
X0205523Y0097455D02*
X0204824Y0097455D01*
X0205406Y0098654D02*
X0203626Y0098654D01*
X0202427Y0099852D02*
X0205754Y0099852D01*
X0206756Y0101051D02*
X0201229Y0101051D01*
X0203121Y0104646D02*
X0197633Y0104646D01*
X0196435Y0105845D02*
X0202489Y0105845D01*
X0201290Y0107043D02*
X0195236Y0107043D01*
X0194038Y0108242D02*
X0200092Y0108242D01*
X0198893Y0109440D02*
X0192839Y0109440D01*
X0191641Y0110639D02*
X0197695Y0110639D01*
X0196496Y0111837D02*
X0190442Y0111837D01*
X0189244Y0113036D02*
X0195298Y0113036D01*
X0194099Y0114234D02*
X0188045Y0114234D01*
X0187672Y0115433D02*
X0192900Y0115433D01*
X0191702Y0116632D02*
X0187062Y0116632D01*
X0184543Y0114625D02*
X0208606Y0090562D01*
X0208606Y0084625D01*
X0211088Y0086669D02*
X0226379Y0086669D01*
X0225604Y0085470D02*
X0211719Y0085470D01*
X0211806Y0084272D02*
X0224950Y0084272D01*
X0224451Y0083073D02*
X0211427Y0083073D01*
X0210328Y0081875D02*
X0224191Y0081875D01*
X0227276Y0087867D02*
X0210806Y0087867D01*
X0210806Y0089066D02*
X0228540Y0089066D01*
X0230176Y0090264D02*
X0210806Y0090264D01*
X0210806Y0091463D02*
X0232820Y0091463D01*
X0227381Y0101051D02*
X0210455Y0101051D01*
X0207221Y0095058D02*
X0251369Y0095058D01*
X0251369Y0093860D02*
X0208420Y0093860D01*
X0209618Y0092661D02*
X0251369Y0092661D01*
X0206406Y0089066D02*
X0203306Y0089066D01*
X0203306Y0090264D02*
X0205793Y0090264D01*
X0204594Y0091463D02*
X0203306Y0091463D01*
X0203306Y0092661D02*
X0203396Y0092661D01*
X0201106Y0093375D02*
X0179856Y0114625D01*
X0175168Y0114625D02*
X0182043Y0107750D01*
X0182043Y0098062D01*
X0185793Y0094312D01*
X0187275Y0091463D02*
X0198906Y0091463D01*
X0198708Y0092661D02*
X0188573Y0092661D01*
X0188993Y0093860D02*
X0197510Y0093860D01*
X0196311Y0095058D02*
X0188948Y0095058D01*
X0188374Y0096257D02*
X0195113Y0096257D01*
X0193914Y0097455D02*
X0186568Y0097455D01*
X0184563Y0098654D02*
X0192716Y0098654D01*
X0191517Y0099852D02*
X0184243Y0099852D01*
X0184243Y0101051D02*
X0190319Y0101051D01*
X0189120Y0102249D02*
X0184243Y0102249D01*
X0184243Y0103448D02*
X0187922Y0103448D01*
X0186723Y0104646D02*
X0184243Y0104646D01*
X0184243Y0105845D02*
X0185525Y0105845D01*
X0184326Y0107043D02*
X0184243Y0107043D01*
X0176043Y0110639D02*
X0157742Y0110639D01*
X0155481Y0108375D02*
X0162356Y0108375D01*
X0161775Y0105845D02*
X0157476Y0105845D01*
X0153485Y0105845D02*
X0145861Y0105845D01*
X0145868Y0107043D02*
X0152569Y0107043D01*
X0152281Y0108242D02*
X0145410Y0108242D01*
X0143931Y0109440D02*
X0152458Y0109440D01*
X0153219Y0110639D02*
X0079930Y0110639D01*
X0078731Y0111837D02*
X0173536Y0111837D01*
X0172363Y0113036D02*
X0077533Y0113036D01*
X0076334Y0114234D02*
X0092849Y0114234D01*
X0091650Y0115433D02*
X0075136Y0115433D01*
X0073937Y0116632D02*
X0090452Y0116632D01*
X0089253Y0117830D02*
X0072739Y0117830D01*
X0071540Y0119029D02*
X0088055Y0119029D01*
X0086856Y0120227D02*
X0070342Y0120227D01*
X0069143Y0121426D02*
X0085658Y0121426D01*
X0084459Y0122624D02*
X0067945Y0122624D01*
X0066746Y0123823D02*
X0083261Y0123823D01*
X0082062Y0125021D02*
X0065548Y0125021D01*
X0065243Y0126220D02*
X0080864Y0126220D01*
X0079665Y0127418D02*
X0065243Y0127418D01*
X0065243Y0128617D02*
X0078467Y0128617D01*
X0077268Y0129815D02*
X0065243Y0129815D01*
X0065243Y0131014D02*
X0076070Y0131014D01*
X0074871Y0132212D02*
X0065243Y0132212D01*
X0065243Y0133411D02*
X0073673Y0133411D01*
X0072474Y0134609D02*
X0065243Y0134609D01*
X0065243Y0135808D02*
X0071276Y0135808D01*
X0070077Y0137006D02*
X0065243Y0137006D01*
X0065243Y0138205D02*
X0068879Y0138205D01*
X0067680Y0139403D02*
X0065243Y0139403D01*
X0065243Y0140602D02*
X0066885Y0140602D01*
X0066743Y0141800D02*
X0065243Y0141800D01*
X0065243Y0142999D02*
X0066743Y0142999D01*
X0066743Y0144197D02*
X0065243Y0144197D01*
X0065243Y0145396D02*
X0066743Y0145396D01*
X0066743Y0146594D02*
X0065243Y0146594D01*
X0065243Y0147793D02*
X0066743Y0147793D01*
X0066743Y0148991D02*
X0065243Y0148991D01*
X0065243Y0150190D02*
X0066743Y0150190D01*
X0066743Y0151388D02*
X0065243Y0151388D01*
X0065243Y0152587D02*
X0066743Y0152587D01*
X0066743Y0153785D02*
X0065243Y0153785D01*
X0065243Y0154984D02*
X0066743Y0154984D01*
X0066743Y0156182D02*
X0065243Y0156182D01*
X0065243Y0157381D02*
X0066743Y0157381D01*
X0066743Y0158579D02*
X0065243Y0158579D01*
X0065243Y0159778D02*
X0066743Y0159778D01*
X0066743Y0160976D02*
X0065243Y0160976D01*
X0065243Y0162175D02*
X0066743Y0162175D01*
X0066743Y0163373D02*
X0065243Y0163373D01*
X0065243Y0164572D02*
X0066743Y0164572D01*
X0066743Y0165770D02*
X0065243Y0165770D01*
X0065243Y0166969D02*
X0066743Y0166969D01*
X0066743Y0168168D02*
X0065243Y0168168D01*
X0065243Y0169366D02*
X0066743Y0169366D01*
X0066743Y0170565D02*
X0065243Y0170565D01*
X0065243Y0171763D02*
X0066743Y0171763D01*
X0067118Y0172962D02*
X0065243Y0172962D01*
X0065243Y0174160D02*
X0068244Y0174160D01*
X0069442Y0175359D02*
X0065243Y0175359D01*
X0065243Y0176557D02*
X0070641Y0176557D01*
X0071839Y0177756D02*
X0065243Y0177756D01*
X0065243Y0178954D02*
X0073038Y0178954D01*
X0074236Y0180153D02*
X0065243Y0180153D01*
X0065243Y0181351D02*
X0075435Y0181351D01*
X0076633Y0182550D02*
X0065243Y0182550D01*
X0065243Y0183748D02*
X0077832Y0183748D01*
X0079759Y0177756D02*
X0251369Y0177756D01*
X0251369Y0178954D02*
X0111523Y0178954D01*
X0112449Y0180153D02*
X0251369Y0180153D01*
X0251369Y0181351D02*
X0112743Y0181351D01*
X0112572Y0182550D02*
X0251369Y0182550D01*
X0251369Y0183748D02*
X0111821Y0183748D01*
X0110912Y0187344D02*
X0251369Y0187344D01*
X0251369Y0188542D02*
X0111866Y0188542D01*
X0112181Y0189741D02*
X0251369Y0189741D01*
X0251369Y0190939D02*
X0112030Y0190939D01*
X0107343Y0186145D02*
X0251369Y0186145D01*
X0251369Y0184947D02*
X0107343Y0184947D01*
X0101743Y0184947D02*
X0065243Y0184947D01*
X0065243Y0186145D02*
X0101743Y0186145D01*
X0101743Y0187344D02*
X0065243Y0187344D01*
X0065243Y0188542D02*
X0101743Y0188542D01*
X0101743Y0189741D02*
X0065243Y0189741D01*
X0065243Y0190939D02*
X0101743Y0190939D01*
X0101743Y0192138D02*
X0065243Y0192138D01*
X0065905Y0193336D02*
X0101743Y0193336D01*
X0101743Y0194535D02*
X0067104Y0194535D01*
X0068302Y0195733D02*
X0101743Y0195733D01*
X0101743Y0196932D02*
X0069501Y0196932D01*
X0073618Y0198130D02*
X0101743Y0198130D01*
X0101743Y0199329D02*
X0074555Y0199329D01*
X0074956Y0200527D02*
X0101743Y0200527D01*
X0101743Y0201726D02*
X0074956Y0201726D01*
X0074502Y0202924D02*
X0101743Y0202924D01*
X0078560Y0176557D02*
X0251369Y0176557D01*
X0251369Y0175359D02*
X0142085Y0175359D01*
X0140168Y0172750D02*
X0144231Y0172750D01*
X0150793Y0166188D01*
X0150793Y0146188D01*
X0139543Y0134938D01*
X0139543Y0121500D01*
X0136607Y0120227D02*
X0094776Y0120227D01*
X0093578Y0121426D02*
X0136343Y0121426D01*
X0136545Y0122624D02*
X0092379Y0122624D01*
X0091180Y0123823D02*
X0137340Y0123823D01*
X0137343Y0125021D02*
X0089982Y0125021D01*
X0088783Y0126220D02*
X0137343Y0126220D01*
X0137343Y0127418D02*
X0087585Y0127418D01*
X0086386Y0128617D02*
X0137343Y0128617D01*
X0137343Y0129815D02*
X0085188Y0129815D01*
X0083989Y0131014D02*
X0137343Y0131014D01*
X0137343Y0132212D02*
X0082791Y0132212D01*
X0081592Y0133411D02*
X0137343Y0133411D01*
X0137343Y0134609D02*
X0135303Y0134609D01*
X0135106Y0134412D02*
X0136006Y0135312D01*
X0136493Y0136488D01*
X0136493Y0137762D01*
X0136006Y0138938D01*
X0135106Y0139838D01*
X0133930Y0140325D01*
X0132657Y0140325D01*
X0131481Y0139838D01*
X0130968Y0139325D01*
X0119830Y0139325D01*
X0115243Y0143911D01*
X0115243Y0144637D01*
X0114756Y0145813D01*
X0113856Y0146713D01*
X0112680Y0147200D01*
X0111407Y0147200D01*
X0110231Y0146713D01*
X0109718Y0146200D01*
X0101869Y0146200D01*
X0101356Y0146713D01*
X0100180Y0147200D01*
X0098907Y0147200D01*
X0097731Y0146713D01*
X0096830Y0145813D01*
X0096343Y0144637D01*
X0096343Y0143363D01*
X0096830Y0142187D01*
X0097731Y0141287D01*
X0098907Y0140800D01*
X0100180Y0140800D01*
X0101356Y0141287D01*
X0101869Y0141800D01*
X0109718Y0141800D01*
X0110231Y0141287D01*
X0111407Y0140800D01*
X0112132Y0140800D01*
X0116718Y0136214D01*
X0118007Y0134925D01*
X0130968Y0134925D01*
X0131481Y0134412D01*
X0132657Y0133925D01*
X0133930Y0133925D01*
X0135106Y0134412D01*
X0136211Y0135808D02*
X0137343Y0135808D01*
X0136493Y0137006D02*
X0138501Y0137006D01*
X0139699Y0138205D02*
X0136310Y0138205D01*
X0135541Y0139403D02*
X0140898Y0139403D01*
X0142096Y0140602D02*
X0118553Y0140602D01*
X0117354Y0141800D02*
X0143295Y0141800D01*
X0144493Y0142999D02*
X0116156Y0142999D01*
X0115243Y0144197D02*
X0145692Y0144197D01*
X0146890Y0145396D02*
X0114929Y0145396D01*
X0113974Y0146594D02*
X0148089Y0146594D01*
X0148593Y0147793D02*
X0072343Y0147793D01*
X0072343Y0148991D02*
X0148593Y0148991D01*
X0148593Y0150190D02*
X0072343Y0150190D01*
X0072343Y0151388D02*
X0148593Y0151388D01*
X0148593Y0152587D02*
X0072343Y0152587D01*
X0072343Y0153785D02*
X0148593Y0153785D01*
X0148593Y0154984D02*
X0072343Y0154984D01*
X0072343Y0156182D02*
X0148593Y0156182D01*
X0148593Y0157381D02*
X0072343Y0157381D01*
X0072343Y0158579D02*
X0148593Y0158579D01*
X0148593Y0159778D02*
X0072343Y0159778D01*
X0072343Y0160976D02*
X0148593Y0160976D01*
X0148593Y0162175D02*
X0072343Y0162175D01*
X0072343Y0163373D02*
X0148593Y0163373D01*
X0148593Y0164572D02*
X0072343Y0164572D01*
X0072343Y0165770D02*
X0148099Y0165770D01*
X0146901Y0166969D02*
X0072343Y0166969D01*
X0072343Y0168168D02*
X0145702Y0168168D01*
X0144504Y0169366D02*
X0072343Y0169366D01*
X0072568Y0170565D02*
X0137828Y0170565D01*
X0137113Y0171763D02*
X0073766Y0171763D01*
X0074965Y0172962D02*
X0136968Y0172962D01*
X0137289Y0174160D02*
X0076163Y0174160D01*
X0077362Y0175359D02*
X0138251Y0175359D01*
X0145932Y0174160D02*
X0251369Y0174160D01*
X0251369Y0172962D02*
X0160842Y0172962D01*
X0159245Y0172962D02*
X0147131Y0172962D01*
X0148329Y0171763D02*
X0157237Y0171763D01*
X0156472Y0170565D02*
X0149528Y0170565D01*
X0150726Y0169366D02*
X0156193Y0169366D01*
X0155126Y0168168D02*
X0151925Y0168168D01*
X0152993Y0166969D02*
X0153928Y0166969D01*
X0156843Y0151388D02*
X0210219Y0151388D01*
X0209568Y0150190D02*
X0156843Y0150190D01*
X0156843Y0148991D02*
X0209468Y0148991D01*
X0209834Y0147793D02*
X0156843Y0147793D01*
X0156843Y0146594D02*
X0210869Y0146594D01*
X0210528Y0144197D02*
X0156843Y0144197D01*
X0156815Y0142999D02*
X0209696Y0142999D01*
X0209468Y0141800D02*
X0156178Y0141800D01*
X0154980Y0140602D02*
X0209706Y0140602D01*
X0210552Y0139403D02*
X0153781Y0139403D01*
X0152583Y0138205D02*
X0213165Y0138205D01*
X0213773Y0137006D02*
X0214363Y0137006D01*
X0217041Y0137440D02*
X0217041Y0132125D01*
X0202981Y0118065D01*
X0202981Y0118062D01*
X0200620Y0120227D02*
X0196026Y0120227D01*
X0197225Y0119029D02*
X0199917Y0119029D01*
X0199781Y0117830D02*
X0198423Y0117830D01*
X0199622Y0116632D02*
X0200110Y0116632D01*
X0200820Y0115433D02*
X0201085Y0115433D01*
X0204543Y0114312D02*
X0219543Y0129312D01*
X0219543Y0142438D01*
X0212668Y0149313D01*
X0213474Y0145396D02*
X0156843Y0145396D01*
X0151384Y0137006D02*
X0211564Y0137006D01*
X0209953Y0135808D02*
X0150872Y0135808D01*
X0150376Y0134609D02*
X0209468Y0134609D01*
X0208968Y0133411D02*
X0149274Y0133411D01*
X0144813Y0133411D02*
X0141743Y0133411D01*
X0141743Y0132212D02*
X0207769Y0132212D01*
X0206571Y0131014D02*
X0141743Y0131014D01*
X0141743Y0129815D02*
X0205372Y0129815D01*
X0204174Y0128617D02*
X0141743Y0128617D01*
X0141743Y0127418D02*
X0202975Y0127418D01*
X0201777Y0126220D02*
X0141743Y0126220D01*
X0141743Y0125021D02*
X0200781Y0125021D01*
X0200091Y0123823D02*
X0192430Y0123823D01*
X0193629Y0122624D02*
X0199781Y0122624D01*
X0199936Y0121426D02*
X0194828Y0121426D01*
X0190503Y0117830D02*
X0169833Y0117830D01*
X0168635Y0116632D02*
X0172649Y0116632D01*
X0172039Y0115433D02*
X0167436Y0115433D01*
X0166238Y0114234D02*
X0171968Y0114234D01*
X0165509Y0121426D02*
X0142743Y0121426D01*
X0142541Y0122624D02*
X0166708Y0122624D01*
X0167906Y0123823D02*
X0141746Y0123823D01*
X0142480Y0120227D02*
X0164311Y0120227D01*
X0143711Y0134609D02*
X0142326Y0134609D01*
X0133293Y0137125D02*
X0118918Y0137125D01*
X0112043Y0144000D01*
X0099543Y0144000D01*
X0097218Y0141800D02*
X0073203Y0141800D01*
X0072343Y0142999D02*
X0096494Y0142999D01*
X0096343Y0144197D02*
X0072343Y0144197D01*
X0072343Y0145396D02*
X0096658Y0145396D01*
X0097612Y0146594D02*
X0072343Y0146594D01*
X0074401Y0140602D02*
X0112330Y0140602D01*
X0113529Y0139403D02*
X0075600Y0139403D01*
X0076798Y0138205D02*
X0114727Y0138205D01*
X0115926Y0137006D02*
X0077997Y0137006D01*
X0079195Y0135808D02*
X0117124Y0135808D01*
X0116718Y0136214D02*
X0116718Y0136214D01*
X0119751Y0139403D02*
X0131046Y0139403D01*
X0131284Y0134609D02*
X0080394Y0134609D01*
X0101474Y0146594D02*
X0110112Y0146594D01*
X0143662Y0103448D02*
X0163313Y0103448D01*
X0162973Y0104646D02*
X0145340Y0104646D01*
X0201106Y0093375D02*
X0201106Y0084625D01*
X0203588Y0086669D02*
X0206124Y0086669D01*
X0206406Y0087867D02*
X0203306Y0087867D01*
X0204219Y0085470D02*
X0205492Y0085470D01*
X0205406Y0084272D02*
X0204306Y0084272D01*
X0203927Y0083073D02*
X0205785Y0083073D01*
X0206884Y0081875D02*
X0202828Y0081875D01*
X0202981Y0122437D02*
X0202981Y0124312D01*
X0212668Y0134000D01*
X0217041Y0137440D02*
X0212668Y0141813D01*
X0213376Y0237681D02*
X0183455Y0237681D01*
X0182681Y0238880D02*
X0202094Y0238880D01*
X0201711Y0240078D02*
X0182201Y0240078D01*
X0181003Y0241277D02*
X0201711Y0241277D01*
X0201711Y0241687D02*
X0204698Y0241687D01*
X0204698Y0244675D01*
X0203100Y0244675D01*
X0202693Y0244566D01*
X0202329Y0244355D01*
X0202031Y0244057D01*
X0201820Y0243692D01*
X0201711Y0243285D01*
X0201711Y0241687D01*
X0201711Y0242475D02*
X0179804Y0242475D01*
X0178606Y0243674D02*
X0201815Y0243674D01*
X0204698Y0243674D02*
X0205073Y0243674D01*
X0205073Y0242475D02*
X0204698Y0242475D01*
X0204698Y0241277D02*
X0205073Y0241277D01*
X0205073Y0240078D02*
X0204698Y0240078D01*
X0204698Y0238880D02*
X0205073Y0238880D01*
X0207678Y0238880D02*
X0207999Y0238880D01*
X0210791Y0241500D02*
X0212668Y0241500D01*
D13*
X0191165Y0214835D02*
X0201165Y0204835D01*
X0191165Y0214835D02*
X0139291Y0214835D01*
X0071106Y0201062D02*
X0069106Y0201062D01*
X0062043Y0194000D01*
X0062043Y0124000D01*
X0079543Y0106500D01*
X0104543Y0106500D01*
X0142668Y0106500D01*
D14*
X0147043Y0136625D03*
X0160043Y0169125D03*
X0139291Y0214835D03*
X0071106Y0201062D03*
D15*
X0079543Y0181500D02*
X0069543Y0171500D01*
X0069543Y0141500D01*
X0094543Y0116500D01*
X0164543Y0116500D01*
X0169543Y0121500D01*
X0190793Y0121500D01*
X0205793Y0106500D01*
X0154043Y0143625D02*
X0147043Y0136625D01*
X0154043Y0143625D02*
X0154043Y0163125D01*
X0160043Y0169125D01*
X0109543Y0181500D02*
X0079543Y0181500D01*
X0104543Y0181500D02*
X0109543Y0181500D01*
X0104543Y0181500D02*
X0104543Y0220750D01*
M02*
