%
M48
M72
T01C0.0197
T02C0.0200
T03C0.0300
T04C0.0402
T05C0.0429
T06C0.1260
%
T01
X7301Y15363
X7301Y16937
T02
X21954Y7650
X8954Y24650
X10954Y23650
X12454Y24150
X14454Y23650
X13942Y22087
X12754Y21150
X13942Y20775
X15254Y20775
X17798Y20213
X19117Y20483
X19117Y20827
X19361Y18869
X19361Y18150
X19392Y16838
X19392Y16119
X19298Y14619
X16598Y14462
X15204Y14813
X13673Y15019
X13642Y14619
X12329Y13713
X11798Y12744
X12954Y12088
X13298Y12306
X11954Y11150
X10954Y10650
X13704Y10650
X14673Y11181
X15048Y11275
X15454Y11150
X14954Y10806
X14204Y9650
X15673Y8994
X16986Y9338
X16954Y9900
X17454Y10150
X19079Y9525
X18954Y9150
X20111Y9306
X20454Y10150
X19579Y10650
X19611Y11244
X19298Y11806
X18423Y12525
X17423Y11494
X20954Y11150
X23954Y9650
X20111Y8244
X10204Y14400
X8954Y14400
X8173Y14838
X8204Y15650
X7517Y18338
X6704Y18525
X9898Y18994
X10486Y19213
X11079Y19213
X11736Y20213
X9954Y18150
X13017Y17275
X15154Y16013
X16486Y18494
X16923Y23025
X18048Y23650
X21642Y23650
X21954Y24650
X23954Y22650
X9454Y22075
X8054Y21108
X6611Y22025
X6954Y22650
X8954Y7650
X6954Y9650
X9454Y13056
X6673Y13775
T03
X13673Y13631
X15004Y16913
X13929Y21483
X7111Y20106
T04
X12954Y7650
X13954Y7650
X14954Y7650
X15954Y7650
X16954Y7650
X17954Y7650
T05
X20096Y16650
X20096Y17650
X20096Y18650
X20096Y19650
X20096Y20650
X20096Y15650
X20096Y14650
X20096Y13650
X20096Y12650
X20096Y11650
T06
X7187Y7882
X7187Y24418
X23722Y24418
X23722Y7882
M30
