G75*
%MOIN*%
%OFA0B0*%
%FSLAX25Y25*%
%IPPOS*%
%LPD*%
%AMOC8*
5,1,8,0,0,1.08239X$1,22.5*
%
%ADD10R,0.03937X0.04331*%
%ADD11R,0.04724X0.04724*%
%ADD12R,0.04331X0.03937*%
%ADD13R,0.06299X0.05512*%
%ADD14R,0.07008X0.04016*%
%ADD15R,0.05512X0.06299*%
%ADD16R,0.03543X0.01378*%
%ADD17R,0.04528X0.01732*%
%ADD18R,0.04528X0.02480*%
%ADD19R,0.05500X0.01370*%
%ADD20R,0.04724X0.02165*%
%ADD21R,0.01260X0.04961*%
%ADD22C,0.00000*%
%ADD23R,0.05906X0.05315*%
%ADD24R,0.05512X0.05512*%
%ADD25R,0.04724X0.01575*%
D10*
X0116197Y0106500D03*
X0122890Y0106500D03*
X0089543Y0130654D03*
X0089543Y0137346D03*
X0060016Y0155594D03*
X0060016Y0167406D03*
X0104856Y0180029D03*
X0110793Y0180029D03*
X0110793Y0186721D03*
X0104856Y0186721D03*
X0066165Y0207738D03*
X0066165Y0214431D03*
X0097902Y0235516D03*
X0104594Y0235516D03*
X0133433Y0235516D03*
X0140126Y0235516D03*
X0146165Y0214431D03*
X0146165Y0207738D03*
X0159543Y0184846D03*
X0159543Y0178154D03*
X0178043Y0207738D03*
X0178043Y0214431D03*
X0175657Y0235516D03*
X0168965Y0235516D03*
X0204492Y0235516D03*
X0211185Y0235516D03*
X0195793Y0099846D03*
X0195793Y0093154D03*
D11*
X0203705Y0241500D03*
X0211972Y0241500D03*
X0176445Y0241500D03*
X0168177Y0241500D03*
X0140913Y0241500D03*
X0132646Y0241500D03*
X0105382Y0241500D03*
X0097114Y0241500D03*
D12*
X0123697Y0127712D03*
X0130390Y0127712D03*
D13*
X0173638Y0146500D03*
X0185449Y0146500D03*
D14*
X0096165Y0207581D03*
X0096165Y0214589D03*
D15*
X0111165Y0216990D03*
X0111165Y0205179D03*
D16*
X0163028Y0104177D03*
X0163028Y0101618D03*
X0163028Y0099059D03*
X0163028Y0096500D03*
X0163028Y0093941D03*
X0163028Y0091382D03*
X0163028Y0088823D03*
X0186059Y0088823D03*
X0186059Y0091382D03*
X0186059Y0093941D03*
X0186059Y0096500D03*
X0186059Y0099059D03*
X0186059Y0101618D03*
X0186059Y0104177D03*
D17*
X0188382Y0114925D03*
X0188382Y0118075D03*
X0180705Y0118075D03*
X0180705Y0114925D03*
X0168382Y0114925D03*
X0168382Y0118075D03*
X0160705Y0118075D03*
X0160705Y0114925D03*
X0180705Y0164925D03*
X0180705Y0168075D03*
X0188382Y0168075D03*
X0188382Y0164925D03*
X0188382Y0184925D03*
X0188382Y0188075D03*
X0180705Y0188075D03*
X0180705Y0184925D03*
D18*
X0180705Y0181402D03*
X0188382Y0181402D03*
X0188382Y0171598D03*
X0180705Y0171598D03*
X0180705Y0161402D03*
X0188382Y0161402D03*
X0188382Y0191598D03*
X0180705Y0191598D03*
X0180705Y0121598D03*
X0188382Y0121598D03*
X0188382Y0111402D03*
X0180705Y0111402D03*
X0168382Y0111402D03*
X0160705Y0111402D03*
X0160705Y0121598D03*
X0168382Y0121598D03*
D19*
X0158937Y0135491D03*
X0158937Y0138050D03*
X0158937Y0140609D03*
X0158937Y0143168D03*
X0158937Y0145727D03*
X0158937Y0148286D03*
X0158937Y0150845D03*
X0158937Y0153405D03*
X0158937Y0155964D03*
X0158937Y0158523D03*
X0158937Y0161082D03*
X0158937Y0163641D03*
X0158937Y0166200D03*
X0158937Y0168759D03*
X0130150Y0168759D03*
X0130150Y0166200D03*
X0130150Y0163641D03*
X0130150Y0161082D03*
X0130150Y0158523D03*
X0130150Y0155964D03*
X0130150Y0153405D03*
X0130150Y0150845D03*
X0130150Y0148286D03*
X0130150Y0145727D03*
X0130150Y0143168D03*
X0130150Y0140609D03*
X0130150Y0138050D03*
X0130150Y0135491D03*
D20*
X0132161Y0207344D03*
X0121925Y0207344D03*
X0121925Y0211085D03*
X0121925Y0214825D03*
X0132161Y0214825D03*
X0159157Y0214825D03*
X0159157Y0211085D03*
X0159157Y0207344D03*
X0169394Y0207344D03*
X0169394Y0214825D03*
X0086283Y0214825D03*
X0086283Y0211085D03*
X0086283Y0207344D03*
X0076047Y0207344D03*
X0076047Y0214825D03*
D21*
X0095791Y0172441D03*
X0098291Y0172441D03*
X0100791Y0172441D03*
X0103291Y0172441D03*
X0105791Y0172441D03*
X0108291Y0172441D03*
X0110791Y0172441D03*
X0113291Y0172441D03*
X0113291Y0150559D03*
X0110791Y0150559D03*
X0108291Y0150559D03*
X0105791Y0150559D03*
X0103291Y0150559D03*
X0100791Y0150559D03*
X0098291Y0150559D03*
X0095791Y0150559D03*
D22*
X0071866Y0063075D02*
X0237220Y0063075D01*
X0230921Y0078823D02*
X0230923Y0078981D01*
X0230929Y0079139D01*
X0230939Y0079297D01*
X0230953Y0079455D01*
X0230971Y0079612D01*
X0230992Y0079769D01*
X0231018Y0079925D01*
X0231048Y0080081D01*
X0231081Y0080236D01*
X0231119Y0080389D01*
X0231160Y0080542D01*
X0231205Y0080694D01*
X0231254Y0080845D01*
X0231307Y0080994D01*
X0231363Y0081142D01*
X0231423Y0081288D01*
X0231487Y0081433D01*
X0231555Y0081576D01*
X0231626Y0081718D01*
X0231700Y0081858D01*
X0231778Y0081995D01*
X0231860Y0082131D01*
X0231944Y0082265D01*
X0232033Y0082396D01*
X0232124Y0082525D01*
X0232219Y0082652D01*
X0232316Y0082777D01*
X0232417Y0082899D01*
X0232521Y0083018D01*
X0232628Y0083135D01*
X0232738Y0083249D01*
X0232851Y0083360D01*
X0232966Y0083469D01*
X0233084Y0083574D01*
X0233205Y0083676D01*
X0233328Y0083776D01*
X0233454Y0083872D01*
X0233582Y0083965D01*
X0233712Y0084055D01*
X0233845Y0084141D01*
X0233980Y0084225D01*
X0234116Y0084304D01*
X0234255Y0084381D01*
X0234396Y0084453D01*
X0234538Y0084523D01*
X0234682Y0084588D01*
X0234828Y0084650D01*
X0234975Y0084708D01*
X0235124Y0084763D01*
X0235274Y0084814D01*
X0235425Y0084861D01*
X0235577Y0084904D01*
X0235730Y0084943D01*
X0235885Y0084979D01*
X0236040Y0085010D01*
X0236196Y0085038D01*
X0236352Y0085062D01*
X0236509Y0085082D01*
X0236667Y0085098D01*
X0236824Y0085110D01*
X0236983Y0085118D01*
X0237141Y0085122D01*
X0237299Y0085122D01*
X0237457Y0085118D01*
X0237616Y0085110D01*
X0237773Y0085098D01*
X0237931Y0085082D01*
X0238088Y0085062D01*
X0238244Y0085038D01*
X0238400Y0085010D01*
X0238555Y0084979D01*
X0238710Y0084943D01*
X0238863Y0084904D01*
X0239015Y0084861D01*
X0239166Y0084814D01*
X0239316Y0084763D01*
X0239465Y0084708D01*
X0239612Y0084650D01*
X0239758Y0084588D01*
X0239902Y0084523D01*
X0240044Y0084453D01*
X0240185Y0084381D01*
X0240324Y0084304D01*
X0240460Y0084225D01*
X0240595Y0084141D01*
X0240728Y0084055D01*
X0240858Y0083965D01*
X0240986Y0083872D01*
X0241112Y0083776D01*
X0241235Y0083676D01*
X0241356Y0083574D01*
X0241474Y0083469D01*
X0241589Y0083360D01*
X0241702Y0083249D01*
X0241812Y0083135D01*
X0241919Y0083018D01*
X0242023Y0082899D01*
X0242124Y0082777D01*
X0242221Y0082652D01*
X0242316Y0082525D01*
X0242407Y0082396D01*
X0242496Y0082265D01*
X0242580Y0082131D01*
X0242662Y0081995D01*
X0242740Y0081858D01*
X0242814Y0081718D01*
X0242885Y0081576D01*
X0242953Y0081433D01*
X0243017Y0081288D01*
X0243077Y0081142D01*
X0243133Y0080994D01*
X0243186Y0080845D01*
X0243235Y0080694D01*
X0243280Y0080542D01*
X0243321Y0080389D01*
X0243359Y0080236D01*
X0243392Y0080081D01*
X0243422Y0079925D01*
X0243448Y0079769D01*
X0243469Y0079612D01*
X0243487Y0079455D01*
X0243501Y0079297D01*
X0243511Y0079139D01*
X0243517Y0078981D01*
X0243519Y0078823D01*
X0243517Y0078665D01*
X0243511Y0078507D01*
X0243501Y0078349D01*
X0243487Y0078191D01*
X0243469Y0078034D01*
X0243448Y0077877D01*
X0243422Y0077721D01*
X0243392Y0077565D01*
X0243359Y0077410D01*
X0243321Y0077257D01*
X0243280Y0077104D01*
X0243235Y0076952D01*
X0243186Y0076801D01*
X0243133Y0076652D01*
X0243077Y0076504D01*
X0243017Y0076358D01*
X0242953Y0076213D01*
X0242885Y0076070D01*
X0242814Y0075928D01*
X0242740Y0075788D01*
X0242662Y0075651D01*
X0242580Y0075515D01*
X0242496Y0075381D01*
X0242407Y0075250D01*
X0242316Y0075121D01*
X0242221Y0074994D01*
X0242124Y0074869D01*
X0242023Y0074747D01*
X0241919Y0074628D01*
X0241812Y0074511D01*
X0241702Y0074397D01*
X0241589Y0074286D01*
X0241474Y0074177D01*
X0241356Y0074072D01*
X0241235Y0073970D01*
X0241112Y0073870D01*
X0240986Y0073774D01*
X0240858Y0073681D01*
X0240728Y0073591D01*
X0240595Y0073505D01*
X0240460Y0073421D01*
X0240324Y0073342D01*
X0240185Y0073265D01*
X0240044Y0073193D01*
X0239902Y0073123D01*
X0239758Y0073058D01*
X0239612Y0072996D01*
X0239465Y0072938D01*
X0239316Y0072883D01*
X0239166Y0072832D01*
X0239015Y0072785D01*
X0238863Y0072742D01*
X0238710Y0072703D01*
X0238555Y0072667D01*
X0238400Y0072636D01*
X0238244Y0072608D01*
X0238088Y0072584D01*
X0237931Y0072564D01*
X0237773Y0072548D01*
X0237616Y0072536D01*
X0237457Y0072528D01*
X0237299Y0072524D01*
X0237141Y0072524D01*
X0236983Y0072528D01*
X0236824Y0072536D01*
X0236667Y0072548D01*
X0236509Y0072564D01*
X0236352Y0072584D01*
X0236196Y0072608D01*
X0236040Y0072636D01*
X0235885Y0072667D01*
X0235730Y0072703D01*
X0235577Y0072742D01*
X0235425Y0072785D01*
X0235274Y0072832D01*
X0235124Y0072883D01*
X0234975Y0072938D01*
X0234828Y0072996D01*
X0234682Y0073058D01*
X0234538Y0073123D01*
X0234396Y0073193D01*
X0234255Y0073265D01*
X0234116Y0073342D01*
X0233980Y0073421D01*
X0233845Y0073505D01*
X0233712Y0073591D01*
X0233582Y0073681D01*
X0233454Y0073774D01*
X0233328Y0073870D01*
X0233205Y0073970D01*
X0233084Y0074072D01*
X0232966Y0074177D01*
X0232851Y0074286D01*
X0232738Y0074397D01*
X0232628Y0074511D01*
X0232521Y0074628D01*
X0232417Y0074747D01*
X0232316Y0074869D01*
X0232219Y0074994D01*
X0232124Y0075121D01*
X0232033Y0075250D01*
X0231944Y0075381D01*
X0231860Y0075515D01*
X0231778Y0075651D01*
X0231700Y0075788D01*
X0231626Y0075928D01*
X0231555Y0076070D01*
X0231487Y0076213D01*
X0231423Y0076358D01*
X0231363Y0076504D01*
X0231307Y0076652D01*
X0231254Y0076801D01*
X0231205Y0076952D01*
X0231160Y0077104D01*
X0231119Y0077257D01*
X0231081Y0077410D01*
X0231048Y0077565D01*
X0231018Y0077721D01*
X0230992Y0077877D01*
X0230971Y0078034D01*
X0230953Y0078191D01*
X0230939Y0078349D01*
X0230929Y0078507D01*
X0230923Y0078665D01*
X0230921Y0078823D01*
X0237220Y0063075D02*
X0237601Y0063080D01*
X0237981Y0063093D01*
X0238361Y0063116D01*
X0238740Y0063149D01*
X0239118Y0063190D01*
X0239495Y0063240D01*
X0239871Y0063300D01*
X0240246Y0063368D01*
X0240618Y0063446D01*
X0240989Y0063533D01*
X0241357Y0063628D01*
X0241723Y0063733D01*
X0242086Y0063846D01*
X0242447Y0063968D01*
X0242804Y0064098D01*
X0243158Y0064238D01*
X0243509Y0064385D01*
X0243856Y0064542D01*
X0244199Y0064706D01*
X0244538Y0064879D01*
X0244873Y0065060D01*
X0245204Y0065249D01*
X0245529Y0065446D01*
X0245850Y0065650D01*
X0246166Y0065863D01*
X0246476Y0066083D01*
X0246782Y0066310D01*
X0247081Y0066545D01*
X0247375Y0066787D01*
X0247663Y0067035D01*
X0247945Y0067291D01*
X0248220Y0067554D01*
X0248489Y0067823D01*
X0248752Y0068098D01*
X0249008Y0068380D01*
X0249256Y0068668D01*
X0249498Y0068962D01*
X0249733Y0069261D01*
X0249960Y0069567D01*
X0250180Y0069877D01*
X0250393Y0070193D01*
X0250597Y0070514D01*
X0250794Y0070839D01*
X0250983Y0071170D01*
X0251164Y0071505D01*
X0251337Y0071844D01*
X0251501Y0072187D01*
X0251658Y0072534D01*
X0251805Y0072885D01*
X0251945Y0073239D01*
X0252075Y0073596D01*
X0252197Y0073957D01*
X0252310Y0074320D01*
X0252415Y0074686D01*
X0252510Y0075054D01*
X0252597Y0075425D01*
X0252675Y0075797D01*
X0252743Y0076172D01*
X0252803Y0076548D01*
X0252853Y0076925D01*
X0252894Y0077303D01*
X0252927Y0077682D01*
X0252950Y0078062D01*
X0252963Y0078442D01*
X0252968Y0078823D01*
X0252969Y0078823D02*
X0252969Y0244177D01*
X0230921Y0244177D02*
X0230923Y0244335D01*
X0230929Y0244493D01*
X0230939Y0244651D01*
X0230953Y0244809D01*
X0230971Y0244966D01*
X0230992Y0245123D01*
X0231018Y0245279D01*
X0231048Y0245435D01*
X0231081Y0245590D01*
X0231119Y0245743D01*
X0231160Y0245896D01*
X0231205Y0246048D01*
X0231254Y0246199D01*
X0231307Y0246348D01*
X0231363Y0246496D01*
X0231423Y0246642D01*
X0231487Y0246787D01*
X0231555Y0246930D01*
X0231626Y0247072D01*
X0231700Y0247212D01*
X0231778Y0247349D01*
X0231860Y0247485D01*
X0231944Y0247619D01*
X0232033Y0247750D01*
X0232124Y0247879D01*
X0232219Y0248006D01*
X0232316Y0248131D01*
X0232417Y0248253D01*
X0232521Y0248372D01*
X0232628Y0248489D01*
X0232738Y0248603D01*
X0232851Y0248714D01*
X0232966Y0248823D01*
X0233084Y0248928D01*
X0233205Y0249030D01*
X0233328Y0249130D01*
X0233454Y0249226D01*
X0233582Y0249319D01*
X0233712Y0249409D01*
X0233845Y0249495D01*
X0233980Y0249579D01*
X0234116Y0249658D01*
X0234255Y0249735D01*
X0234396Y0249807D01*
X0234538Y0249877D01*
X0234682Y0249942D01*
X0234828Y0250004D01*
X0234975Y0250062D01*
X0235124Y0250117D01*
X0235274Y0250168D01*
X0235425Y0250215D01*
X0235577Y0250258D01*
X0235730Y0250297D01*
X0235885Y0250333D01*
X0236040Y0250364D01*
X0236196Y0250392D01*
X0236352Y0250416D01*
X0236509Y0250436D01*
X0236667Y0250452D01*
X0236824Y0250464D01*
X0236983Y0250472D01*
X0237141Y0250476D01*
X0237299Y0250476D01*
X0237457Y0250472D01*
X0237616Y0250464D01*
X0237773Y0250452D01*
X0237931Y0250436D01*
X0238088Y0250416D01*
X0238244Y0250392D01*
X0238400Y0250364D01*
X0238555Y0250333D01*
X0238710Y0250297D01*
X0238863Y0250258D01*
X0239015Y0250215D01*
X0239166Y0250168D01*
X0239316Y0250117D01*
X0239465Y0250062D01*
X0239612Y0250004D01*
X0239758Y0249942D01*
X0239902Y0249877D01*
X0240044Y0249807D01*
X0240185Y0249735D01*
X0240324Y0249658D01*
X0240460Y0249579D01*
X0240595Y0249495D01*
X0240728Y0249409D01*
X0240858Y0249319D01*
X0240986Y0249226D01*
X0241112Y0249130D01*
X0241235Y0249030D01*
X0241356Y0248928D01*
X0241474Y0248823D01*
X0241589Y0248714D01*
X0241702Y0248603D01*
X0241812Y0248489D01*
X0241919Y0248372D01*
X0242023Y0248253D01*
X0242124Y0248131D01*
X0242221Y0248006D01*
X0242316Y0247879D01*
X0242407Y0247750D01*
X0242496Y0247619D01*
X0242580Y0247485D01*
X0242662Y0247349D01*
X0242740Y0247212D01*
X0242814Y0247072D01*
X0242885Y0246930D01*
X0242953Y0246787D01*
X0243017Y0246642D01*
X0243077Y0246496D01*
X0243133Y0246348D01*
X0243186Y0246199D01*
X0243235Y0246048D01*
X0243280Y0245896D01*
X0243321Y0245743D01*
X0243359Y0245590D01*
X0243392Y0245435D01*
X0243422Y0245279D01*
X0243448Y0245123D01*
X0243469Y0244966D01*
X0243487Y0244809D01*
X0243501Y0244651D01*
X0243511Y0244493D01*
X0243517Y0244335D01*
X0243519Y0244177D01*
X0243517Y0244019D01*
X0243511Y0243861D01*
X0243501Y0243703D01*
X0243487Y0243545D01*
X0243469Y0243388D01*
X0243448Y0243231D01*
X0243422Y0243075D01*
X0243392Y0242919D01*
X0243359Y0242764D01*
X0243321Y0242611D01*
X0243280Y0242458D01*
X0243235Y0242306D01*
X0243186Y0242155D01*
X0243133Y0242006D01*
X0243077Y0241858D01*
X0243017Y0241712D01*
X0242953Y0241567D01*
X0242885Y0241424D01*
X0242814Y0241282D01*
X0242740Y0241142D01*
X0242662Y0241005D01*
X0242580Y0240869D01*
X0242496Y0240735D01*
X0242407Y0240604D01*
X0242316Y0240475D01*
X0242221Y0240348D01*
X0242124Y0240223D01*
X0242023Y0240101D01*
X0241919Y0239982D01*
X0241812Y0239865D01*
X0241702Y0239751D01*
X0241589Y0239640D01*
X0241474Y0239531D01*
X0241356Y0239426D01*
X0241235Y0239324D01*
X0241112Y0239224D01*
X0240986Y0239128D01*
X0240858Y0239035D01*
X0240728Y0238945D01*
X0240595Y0238859D01*
X0240460Y0238775D01*
X0240324Y0238696D01*
X0240185Y0238619D01*
X0240044Y0238547D01*
X0239902Y0238477D01*
X0239758Y0238412D01*
X0239612Y0238350D01*
X0239465Y0238292D01*
X0239316Y0238237D01*
X0239166Y0238186D01*
X0239015Y0238139D01*
X0238863Y0238096D01*
X0238710Y0238057D01*
X0238555Y0238021D01*
X0238400Y0237990D01*
X0238244Y0237962D01*
X0238088Y0237938D01*
X0237931Y0237918D01*
X0237773Y0237902D01*
X0237616Y0237890D01*
X0237457Y0237882D01*
X0237299Y0237878D01*
X0237141Y0237878D01*
X0236983Y0237882D01*
X0236824Y0237890D01*
X0236667Y0237902D01*
X0236509Y0237918D01*
X0236352Y0237938D01*
X0236196Y0237962D01*
X0236040Y0237990D01*
X0235885Y0238021D01*
X0235730Y0238057D01*
X0235577Y0238096D01*
X0235425Y0238139D01*
X0235274Y0238186D01*
X0235124Y0238237D01*
X0234975Y0238292D01*
X0234828Y0238350D01*
X0234682Y0238412D01*
X0234538Y0238477D01*
X0234396Y0238547D01*
X0234255Y0238619D01*
X0234116Y0238696D01*
X0233980Y0238775D01*
X0233845Y0238859D01*
X0233712Y0238945D01*
X0233582Y0239035D01*
X0233454Y0239128D01*
X0233328Y0239224D01*
X0233205Y0239324D01*
X0233084Y0239426D01*
X0232966Y0239531D01*
X0232851Y0239640D01*
X0232738Y0239751D01*
X0232628Y0239865D01*
X0232521Y0239982D01*
X0232417Y0240101D01*
X0232316Y0240223D01*
X0232219Y0240348D01*
X0232124Y0240475D01*
X0232033Y0240604D01*
X0231944Y0240735D01*
X0231860Y0240869D01*
X0231778Y0241005D01*
X0231700Y0241142D01*
X0231626Y0241282D01*
X0231555Y0241424D01*
X0231487Y0241567D01*
X0231423Y0241712D01*
X0231363Y0241858D01*
X0231307Y0242006D01*
X0231254Y0242155D01*
X0231205Y0242306D01*
X0231160Y0242458D01*
X0231119Y0242611D01*
X0231081Y0242764D01*
X0231048Y0242919D01*
X0231018Y0243075D01*
X0230992Y0243231D01*
X0230971Y0243388D01*
X0230953Y0243545D01*
X0230939Y0243703D01*
X0230929Y0243861D01*
X0230923Y0244019D01*
X0230921Y0244177D01*
X0237220Y0259925D02*
X0237601Y0259920D01*
X0237981Y0259907D01*
X0238361Y0259884D01*
X0238740Y0259851D01*
X0239118Y0259810D01*
X0239495Y0259760D01*
X0239871Y0259700D01*
X0240246Y0259632D01*
X0240618Y0259554D01*
X0240989Y0259467D01*
X0241357Y0259372D01*
X0241723Y0259267D01*
X0242086Y0259154D01*
X0242447Y0259032D01*
X0242804Y0258902D01*
X0243158Y0258762D01*
X0243509Y0258615D01*
X0243856Y0258458D01*
X0244199Y0258294D01*
X0244538Y0258121D01*
X0244873Y0257940D01*
X0245204Y0257751D01*
X0245529Y0257554D01*
X0245850Y0257350D01*
X0246166Y0257137D01*
X0246476Y0256917D01*
X0246782Y0256690D01*
X0247081Y0256455D01*
X0247375Y0256213D01*
X0247663Y0255965D01*
X0247945Y0255709D01*
X0248220Y0255446D01*
X0248489Y0255177D01*
X0248752Y0254902D01*
X0249008Y0254620D01*
X0249256Y0254332D01*
X0249498Y0254038D01*
X0249733Y0253739D01*
X0249960Y0253433D01*
X0250180Y0253123D01*
X0250393Y0252807D01*
X0250597Y0252486D01*
X0250794Y0252161D01*
X0250983Y0251830D01*
X0251164Y0251495D01*
X0251337Y0251156D01*
X0251501Y0250813D01*
X0251658Y0250466D01*
X0251805Y0250115D01*
X0251945Y0249761D01*
X0252075Y0249404D01*
X0252197Y0249043D01*
X0252310Y0248680D01*
X0252415Y0248314D01*
X0252510Y0247946D01*
X0252597Y0247575D01*
X0252675Y0247203D01*
X0252743Y0246828D01*
X0252803Y0246452D01*
X0252853Y0246075D01*
X0252894Y0245697D01*
X0252927Y0245318D01*
X0252950Y0244938D01*
X0252963Y0244558D01*
X0252968Y0244177D01*
X0237220Y0259925D02*
X0071866Y0259925D01*
X0065567Y0244177D02*
X0065569Y0244335D01*
X0065575Y0244493D01*
X0065585Y0244651D01*
X0065599Y0244809D01*
X0065617Y0244966D01*
X0065638Y0245123D01*
X0065664Y0245279D01*
X0065694Y0245435D01*
X0065727Y0245590D01*
X0065765Y0245743D01*
X0065806Y0245896D01*
X0065851Y0246048D01*
X0065900Y0246199D01*
X0065953Y0246348D01*
X0066009Y0246496D01*
X0066069Y0246642D01*
X0066133Y0246787D01*
X0066201Y0246930D01*
X0066272Y0247072D01*
X0066346Y0247212D01*
X0066424Y0247349D01*
X0066506Y0247485D01*
X0066590Y0247619D01*
X0066679Y0247750D01*
X0066770Y0247879D01*
X0066865Y0248006D01*
X0066962Y0248131D01*
X0067063Y0248253D01*
X0067167Y0248372D01*
X0067274Y0248489D01*
X0067384Y0248603D01*
X0067497Y0248714D01*
X0067612Y0248823D01*
X0067730Y0248928D01*
X0067851Y0249030D01*
X0067974Y0249130D01*
X0068100Y0249226D01*
X0068228Y0249319D01*
X0068358Y0249409D01*
X0068491Y0249495D01*
X0068626Y0249579D01*
X0068762Y0249658D01*
X0068901Y0249735D01*
X0069042Y0249807D01*
X0069184Y0249877D01*
X0069328Y0249942D01*
X0069474Y0250004D01*
X0069621Y0250062D01*
X0069770Y0250117D01*
X0069920Y0250168D01*
X0070071Y0250215D01*
X0070223Y0250258D01*
X0070376Y0250297D01*
X0070531Y0250333D01*
X0070686Y0250364D01*
X0070842Y0250392D01*
X0070998Y0250416D01*
X0071155Y0250436D01*
X0071313Y0250452D01*
X0071470Y0250464D01*
X0071629Y0250472D01*
X0071787Y0250476D01*
X0071945Y0250476D01*
X0072103Y0250472D01*
X0072262Y0250464D01*
X0072419Y0250452D01*
X0072577Y0250436D01*
X0072734Y0250416D01*
X0072890Y0250392D01*
X0073046Y0250364D01*
X0073201Y0250333D01*
X0073356Y0250297D01*
X0073509Y0250258D01*
X0073661Y0250215D01*
X0073812Y0250168D01*
X0073962Y0250117D01*
X0074111Y0250062D01*
X0074258Y0250004D01*
X0074404Y0249942D01*
X0074548Y0249877D01*
X0074690Y0249807D01*
X0074831Y0249735D01*
X0074970Y0249658D01*
X0075106Y0249579D01*
X0075241Y0249495D01*
X0075374Y0249409D01*
X0075504Y0249319D01*
X0075632Y0249226D01*
X0075758Y0249130D01*
X0075881Y0249030D01*
X0076002Y0248928D01*
X0076120Y0248823D01*
X0076235Y0248714D01*
X0076348Y0248603D01*
X0076458Y0248489D01*
X0076565Y0248372D01*
X0076669Y0248253D01*
X0076770Y0248131D01*
X0076867Y0248006D01*
X0076962Y0247879D01*
X0077053Y0247750D01*
X0077142Y0247619D01*
X0077226Y0247485D01*
X0077308Y0247349D01*
X0077386Y0247212D01*
X0077460Y0247072D01*
X0077531Y0246930D01*
X0077599Y0246787D01*
X0077663Y0246642D01*
X0077723Y0246496D01*
X0077779Y0246348D01*
X0077832Y0246199D01*
X0077881Y0246048D01*
X0077926Y0245896D01*
X0077967Y0245743D01*
X0078005Y0245590D01*
X0078038Y0245435D01*
X0078068Y0245279D01*
X0078094Y0245123D01*
X0078115Y0244966D01*
X0078133Y0244809D01*
X0078147Y0244651D01*
X0078157Y0244493D01*
X0078163Y0244335D01*
X0078165Y0244177D01*
X0078163Y0244019D01*
X0078157Y0243861D01*
X0078147Y0243703D01*
X0078133Y0243545D01*
X0078115Y0243388D01*
X0078094Y0243231D01*
X0078068Y0243075D01*
X0078038Y0242919D01*
X0078005Y0242764D01*
X0077967Y0242611D01*
X0077926Y0242458D01*
X0077881Y0242306D01*
X0077832Y0242155D01*
X0077779Y0242006D01*
X0077723Y0241858D01*
X0077663Y0241712D01*
X0077599Y0241567D01*
X0077531Y0241424D01*
X0077460Y0241282D01*
X0077386Y0241142D01*
X0077308Y0241005D01*
X0077226Y0240869D01*
X0077142Y0240735D01*
X0077053Y0240604D01*
X0076962Y0240475D01*
X0076867Y0240348D01*
X0076770Y0240223D01*
X0076669Y0240101D01*
X0076565Y0239982D01*
X0076458Y0239865D01*
X0076348Y0239751D01*
X0076235Y0239640D01*
X0076120Y0239531D01*
X0076002Y0239426D01*
X0075881Y0239324D01*
X0075758Y0239224D01*
X0075632Y0239128D01*
X0075504Y0239035D01*
X0075374Y0238945D01*
X0075241Y0238859D01*
X0075106Y0238775D01*
X0074970Y0238696D01*
X0074831Y0238619D01*
X0074690Y0238547D01*
X0074548Y0238477D01*
X0074404Y0238412D01*
X0074258Y0238350D01*
X0074111Y0238292D01*
X0073962Y0238237D01*
X0073812Y0238186D01*
X0073661Y0238139D01*
X0073509Y0238096D01*
X0073356Y0238057D01*
X0073201Y0238021D01*
X0073046Y0237990D01*
X0072890Y0237962D01*
X0072734Y0237938D01*
X0072577Y0237918D01*
X0072419Y0237902D01*
X0072262Y0237890D01*
X0072103Y0237882D01*
X0071945Y0237878D01*
X0071787Y0237878D01*
X0071629Y0237882D01*
X0071470Y0237890D01*
X0071313Y0237902D01*
X0071155Y0237918D01*
X0070998Y0237938D01*
X0070842Y0237962D01*
X0070686Y0237990D01*
X0070531Y0238021D01*
X0070376Y0238057D01*
X0070223Y0238096D01*
X0070071Y0238139D01*
X0069920Y0238186D01*
X0069770Y0238237D01*
X0069621Y0238292D01*
X0069474Y0238350D01*
X0069328Y0238412D01*
X0069184Y0238477D01*
X0069042Y0238547D01*
X0068901Y0238619D01*
X0068762Y0238696D01*
X0068626Y0238775D01*
X0068491Y0238859D01*
X0068358Y0238945D01*
X0068228Y0239035D01*
X0068100Y0239128D01*
X0067974Y0239224D01*
X0067851Y0239324D01*
X0067730Y0239426D01*
X0067612Y0239531D01*
X0067497Y0239640D01*
X0067384Y0239751D01*
X0067274Y0239865D01*
X0067167Y0239982D01*
X0067063Y0240101D01*
X0066962Y0240223D01*
X0066865Y0240348D01*
X0066770Y0240475D01*
X0066679Y0240604D01*
X0066590Y0240735D01*
X0066506Y0240869D01*
X0066424Y0241005D01*
X0066346Y0241142D01*
X0066272Y0241282D01*
X0066201Y0241424D01*
X0066133Y0241567D01*
X0066069Y0241712D01*
X0066009Y0241858D01*
X0065953Y0242006D01*
X0065900Y0242155D01*
X0065851Y0242306D01*
X0065806Y0242458D01*
X0065765Y0242611D01*
X0065727Y0242764D01*
X0065694Y0242919D01*
X0065664Y0243075D01*
X0065638Y0243231D01*
X0065617Y0243388D01*
X0065599Y0243545D01*
X0065585Y0243703D01*
X0065575Y0243861D01*
X0065569Y0244019D01*
X0065567Y0244177D01*
X0056118Y0244177D02*
X0056123Y0244558D01*
X0056136Y0244938D01*
X0056159Y0245318D01*
X0056192Y0245697D01*
X0056233Y0246075D01*
X0056283Y0246452D01*
X0056343Y0246828D01*
X0056411Y0247203D01*
X0056489Y0247575D01*
X0056576Y0247946D01*
X0056671Y0248314D01*
X0056776Y0248680D01*
X0056889Y0249043D01*
X0057011Y0249404D01*
X0057141Y0249761D01*
X0057281Y0250115D01*
X0057428Y0250466D01*
X0057585Y0250813D01*
X0057749Y0251156D01*
X0057922Y0251495D01*
X0058103Y0251830D01*
X0058292Y0252161D01*
X0058489Y0252486D01*
X0058693Y0252807D01*
X0058906Y0253123D01*
X0059126Y0253433D01*
X0059353Y0253739D01*
X0059588Y0254038D01*
X0059830Y0254332D01*
X0060078Y0254620D01*
X0060334Y0254902D01*
X0060597Y0255177D01*
X0060866Y0255446D01*
X0061141Y0255709D01*
X0061423Y0255965D01*
X0061711Y0256213D01*
X0062005Y0256455D01*
X0062304Y0256690D01*
X0062610Y0256917D01*
X0062920Y0257137D01*
X0063236Y0257350D01*
X0063557Y0257554D01*
X0063882Y0257751D01*
X0064213Y0257940D01*
X0064548Y0258121D01*
X0064887Y0258294D01*
X0065230Y0258458D01*
X0065577Y0258615D01*
X0065928Y0258762D01*
X0066282Y0258902D01*
X0066639Y0259032D01*
X0067000Y0259154D01*
X0067363Y0259267D01*
X0067729Y0259372D01*
X0068097Y0259467D01*
X0068468Y0259554D01*
X0068840Y0259632D01*
X0069215Y0259700D01*
X0069591Y0259760D01*
X0069968Y0259810D01*
X0070346Y0259851D01*
X0070725Y0259884D01*
X0071105Y0259907D01*
X0071485Y0259920D01*
X0071866Y0259925D01*
X0056118Y0244177D02*
X0056118Y0078823D01*
X0065567Y0078823D02*
X0065569Y0078981D01*
X0065575Y0079139D01*
X0065585Y0079297D01*
X0065599Y0079455D01*
X0065617Y0079612D01*
X0065638Y0079769D01*
X0065664Y0079925D01*
X0065694Y0080081D01*
X0065727Y0080236D01*
X0065765Y0080389D01*
X0065806Y0080542D01*
X0065851Y0080694D01*
X0065900Y0080845D01*
X0065953Y0080994D01*
X0066009Y0081142D01*
X0066069Y0081288D01*
X0066133Y0081433D01*
X0066201Y0081576D01*
X0066272Y0081718D01*
X0066346Y0081858D01*
X0066424Y0081995D01*
X0066506Y0082131D01*
X0066590Y0082265D01*
X0066679Y0082396D01*
X0066770Y0082525D01*
X0066865Y0082652D01*
X0066962Y0082777D01*
X0067063Y0082899D01*
X0067167Y0083018D01*
X0067274Y0083135D01*
X0067384Y0083249D01*
X0067497Y0083360D01*
X0067612Y0083469D01*
X0067730Y0083574D01*
X0067851Y0083676D01*
X0067974Y0083776D01*
X0068100Y0083872D01*
X0068228Y0083965D01*
X0068358Y0084055D01*
X0068491Y0084141D01*
X0068626Y0084225D01*
X0068762Y0084304D01*
X0068901Y0084381D01*
X0069042Y0084453D01*
X0069184Y0084523D01*
X0069328Y0084588D01*
X0069474Y0084650D01*
X0069621Y0084708D01*
X0069770Y0084763D01*
X0069920Y0084814D01*
X0070071Y0084861D01*
X0070223Y0084904D01*
X0070376Y0084943D01*
X0070531Y0084979D01*
X0070686Y0085010D01*
X0070842Y0085038D01*
X0070998Y0085062D01*
X0071155Y0085082D01*
X0071313Y0085098D01*
X0071470Y0085110D01*
X0071629Y0085118D01*
X0071787Y0085122D01*
X0071945Y0085122D01*
X0072103Y0085118D01*
X0072262Y0085110D01*
X0072419Y0085098D01*
X0072577Y0085082D01*
X0072734Y0085062D01*
X0072890Y0085038D01*
X0073046Y0085010D01*
X0073201Y0084979D01*
X0073356Y0084943D01*
X0073509Y0084904D01*
X0073661Y0084861D01*
X0073812Y0084814D01*
X0073962Y0084763D01*
X0074111Y0084708D01*
X0074258Y0084650D01*
X0074404Y0084588D01*
X0074548Y0084523D01*
X0074690Y0084453D01*
X0074831Y0084381D01*
X0074970Y0084304D01*
X0075106Y0084225D01*
X0075241Y0084141D01*
X0075374Y0084055D01*
X0075504Y0083965D01*
X0075632Y0083872D01*
X0075758Y0083776D01*
X0075881Y0083676D01*
X0076002Y0083574D01*
X0076120Y0083469D01*
X0076235Y0083360D01*
X0076348Y0083249D01*
X0076458Y0083135D01*
X0076565Y0083018D01*
X0076669Y0082899D01*
X0076770Y0082777D01*
X0076867Y0082652D01*
X0076962Y0082525D01*
X0077053Y0082396D01*
X0077142Y0082265D01*
X0077226Y0082131D01*
X0077308Y0081995D01*
X0077386Y0081858D01*
X0077460Y0081718D01*
X0077531Y0081576D01*
X0077599Y0081433D01*
X0077663Y0081288D01*
X0077723Y0081142D01*
X0077779Y0080994D01*
X0077832Y0080845D01*
X0077881Y0080694D01*
X0077926Y0080542D01*
X0077967Y0080389D01*
X0078005Y0080236D01*
X0078038Y0080081D01*
X0078068Y0079925D01*
X0078094Y0079769D01*
X0078115Y0079612D01*
X0078133Y0079455D01*
X0078147Y0079297D01*
X0078157Y0079139D01*
X0078163Y0078981D01*
X0078165Y0078823D01*
X0078163Y0078665D01*
X0078157Y0078507D01*
X0078147Y0078349D01*
X0078133Y0078191D01*
X0078115Y0078034D01*
X0078094Y0077877D01*
X0078068Y0077721D01*
X0078038Y0077565D01*
X0078005Y0077410D01*
X0077967Y0077257D01*
X0077926Y0077104D01*
X0077881Y0076952D01*
X0077832Y0076801D01*
X0077779Y0076652D01*
X0077723Y0076504D01*
X0077663Y0076358D01*
X0077599Y0076213D01*
X0077531Y0076070D01*
X0077460Y0075928D01*
X0077386Y0075788D01*
X0077308Y0075651D01*
X0077226Y0075515D01*
X0077142Y0075381D01*
X0077053Y0075250D01*
X0076962Y0075121D01*
X0076867Y0074994D01*
X0076770Y0074869D01*
X0076669Y0074747D01*
X0076565Y0074628D01*
X0076458Y0074511D01*
X0076348Y0074397D01*
X0076235Y0074286D01*
X0076120Y0074177D01*
X0076002Y0074072D01*
X0075881Y0073970D01*
X0075758Y0073870D01*
X0075632Y0073774D01*
X0075504Y0073681D01*
X0075374Y0073591D01*
X0075241Y0073505D01*
X0075106Y0073421D01*
X0074970Y0073342D01*
X0074831Y0073265D01*
X0074690Y0073193D01*
X0074548Y0073123D01*
X0074404Y0073058D01*
X0074258Y0072996D01*
X0074111Y0072938D01*
X0073962Y0072883D01*
X0073812Y0072832D01*
X0073661Y0072785D01*
X0073509Y0072742D01*
X0073356Y0072703D01*
X0073201Y0072667D01*
X0073046Y0072636D01*
X0072890Y0072608D01*
X0072734Y0072584D01*
X0072577Y0072564D01*
X0072419Y0072548D01*
X0072262Y0072536D01*
X0072103Y0072528D01*
X0071945Y0072524D01*
X0071787Y0072524D01*
X0071629Y0072528D01*
X0071470Y0072536D01*
X0071313Y0072548D01*
X0071155Y0072564D01*
X0070998Y0072584D01*
X0070842Y0072608D01*
X0070686Y0072636D01*
X0070531Y0072667D01*
X0070376Y0072703D01*
X0070223Y0072742D01*
X0070071Y0072785D01*
X0069920Y0072832D01*
X0069770Y0072883D01*
X0069621Y0072938D01*
X0069474Y0072996D01*
X0069328Y0073058D01*
X0069184Y0073123D01*
X0069042Y0073193D01*
X0068901Y0073265D01*
X0068762Y0073342D01*
X0068626Y0073421D01*
X0068491Y0073505D01*
X0068358Y0073591D01*
X0068228Y0073681D01*
X0068100Y0073774D01*
X0067974Y0073870D01*
X0067851Y0073970D01*
X0067730Y0074072D01*
X0067612Y0074177D01*
X0067497Y0074286D01*
X0067384Y0074397D01*
X0067274Y0074511D01*
X0067167Y0074628D01*
X0067063Y0074747D01*
X0066962Y0074869D01*
X0066865Y0074994D01*
X0066770Y0075121D01*
X0066679Y0075250D01*
X0066590Y0075381D01*
X0066506Y0075515D01*
X0066424Y0075651D01*
X0066346Y0075788D01*
X0066272Y0075928D01*
X0066201Y0076070D01*
X0066133Y0076213D01*
X0066069Y0076358D01*
X0066009Y0076504D01*
X0065953Y0076652D01*
X0065900Y0076801D01*
X0065851Y0076952D01*
X0065806Y0077104D01*
X0065765Y0077257D01*
X0065727Y0077410D01*
X0065694Y0077565D01*
X0065664Y0077721D01*
X0065638Y0077877D01*
X0065617Y0078034D01*
X0065599Y0078191D01*
X0065585Y0078349D01*
X0065575Y0078507D01*
X0065569Y0078665D01*
X0065567Y0078823D01*
X0056118Y0078823D02*
X0056123Y0078442D01*
X0056136Y0078062D01*
X0056159Y0077682D01*
X0056192Y0077303D01*
X0056233Y0076925D01*
X0056283Y0076548D01*
X0056343Y0076172D01*
X0056411Y0075797D01*
X0056489Y0075425D01*
X0056576Y0075054D01*
X0056671Y0074686D01*
X0056776Y0074320D01*
X0056889Y0073957D01*
X0057011Y0073596D01*
X0057141Y0073239D01*
X0057281Y0072885D01*
X0057428Y0072534D01*
X0057585Y0072187D01*
X0057749Y0071844D01*
X0057922Y0071505D01*
X0058103Y0071170D01*
X0058292Y0070839D01*
X0058489Y0070514D01*
X0058693Y0070193D01*
X0058906Y0069877D01*
X0059126Y0069567D01*
X0059353Y0069261D01*
X0059588Y0068962D01*
X0059830Y0068668D01*
X0060078Y0068380D01*
X0060334Y0068098D01*
X0060597Y0067823D01*
X0060866Y0067554D01*
X0061141Y0067291D01*
X0061423Y0067035D01*
X0061711Y0066787D01*
X0062005Y0066545D01*
X0062304Y0066310D01*
X0062610Y0066083D01*
X0062920Y0065863D01*
X0063236Y0065650D01*
X0063557Y0065446D01*
X0063882Y0065249D01*
X0064213Y0065060D01*
X0064548Y0064879D01*
X0064887Y0064706D01*
X0065230Y0064542D01*
X0065577Y0064385D01*
X0065928Y0064238D01*
X0066282Y0064098D01*
X0066639Y0063968D01*
X0067000Y0063846D01*
X0067363Y0063733D01*
X0067729Y0063628D01*
X0068097Y0063533D01*
X0068468Y0063446D01*
X0068840Y0063368D01*
X0069215Y0063300D01*
X0069591Y0063240D01*
X0069968Y0063190D01*
X0070346Y0063149D01*
X0070725Y0063116D01*
X0071105Y0063093D01*
X0071485Y0063080D01*
X0071866Y0063075D01*
X0072024Y0153626D02*
X0072026Y0153688D01*
X0072032Y0153751D01*
X0072042Y0153812D01*
X0072056Y0153873D01*
X0072073Y0153933D01*
X0072094Y0153992D01*
X0072120Y0154049D01*
X0072148Y0154104D01*
X0072180Y0154158D01*
X0072216Y0154209D01*
X0072254Y0154259D01*
X0072296Y0154305D01*
X0072340Y0154349D01*
X0072388Y0154390D01*
X0072437Y0154428D01*
X0072489Y0154462D01*
X0072543Y0154493D01*
X0072599Y0154521D01*
X0072657Y0154545D01*
X0072716Y0154566D01*
X0072776Y0154582D01*
X0072837Y0154595D01*
X0072899Y0154604D01*
X0072961Y0154609D01*
X0073024Y0154610D01*
X0073086Y0154607D01*
X0073148Y0154600D01*
X0073210Y0154589D01*
X0073270Y0154574D01*
X0073330Y0154556D01*
X0073388Y0154534D01*
X0073445Y0154508D01*
X0073500Y0154478D01*
X0073553Y0154445D01*
X0073604Y0154409D01*
X0073652Y0154370D01*
X0073698Y0154327D01*
X0073741Y0154282D01*
X0073781Y0154234D01*
X0073818Y0154184D01*
X0073852Y0154131D01*
X0073883Y0154077D01*
X0073909Y0154021D01*
X0073933Y0153963D01*
X0073952Y0153903D01*
X0073968Y0153843D01*
X0073980Y0153781D01*
X0073988Y0153720D01*
X0073992Y0153657D01*
X0073992Y0153595D01*
X0073988Y0153532D01*
X0073980Y0153471D01*
X0073968Y0153409D01*
X0073952Y0153349D01*
X0073933Y0153289D01*
X0073909Y0153231D01*
X0073883Y0153175D01*
X0073852Y0153121D01*
X0073818Y0153068D01*
X0073781Y0153018D01*
X0073741Y0152970D01*
X0073698Y0152925D01*
X0073652Y0152882D01*
X0073604Y0152843D01*
X0073553Y0152807D01*
X0073500Y0152774D01*
X0073445Y0152744D01*
X0073388Y0152718D01*
X0073330Y0152696D01*
X0073270Y0152678D01*
X0073210Y0152663D01*
X0073148Y0152652D01*
X0073086Y0152645D01*
X0073024Y0152642D01*
X0072961Y0152643D01*
X0072899Y0152648D01*
X0072837Y0152657D01*
X0072776Y0152670D01*
X0072716Y0152686D01*
X0072657Y0152707D01*
X0072599Y0152731D01*
X0072543Y0152759D01*
X0072489Y0152790D01*
X0072437Y0152824D01*
X0072388Y0152862D01*
X0072340Y0152903D01*
X0072296Y0152947D01*
X0072254Y0152993D01*
X0072216Y0153043D01*
X0072180Y0153094D01*
X0072148Y0153148D01*
X0072120Y0153203D01*
X0072094Y0153260D01*
X0072073Y0153319D01*
X0072056Y0153379D01*
X0072042Y0153440D01*
X0072032Y0153501D01*
X0072026Y0153564D01*
X0072024Y0153626D01*
X0072024Y0169374D02*
X0072026Y0169436D01*
X0072032Y0169499D01*
X0072042Y0169560D01*
X0072056Y0169621D01*
X0072073Y0169681D01*
X0072094Y0169740D01*
X0072120Y0169797D01*
X0072148Y0169852D01*
X0072180Y0169906D01*
X0072216Y0169957D01*
X0072254Y0170007D01*
X0072296Y0170053D01*
X0072340Y0170097D01*
X0072388Y0170138D01*
X0072437Y0170176D01*
X0072489Y0170210D01*
X0072543Y0170241D01*
X0072599Y0170269D01*
X0072657Y0170293D01*
X0072716Y0170314D01*
X0072776Y0170330D01*
X0072837Y0170343D01*
X0072899Y0170352D01*
X0072961Y0170357D01*
X0073024Y0170358D01*
X0073086Y0170355D01*
X0073148Y0170348D01*
X0073210Y0170337D01*
X0073270Y0170322D01*
X0073330Y0170304D01*
X0073388Y0170282D01*
X0073445Y0170256D01*
X0073500Y0170226D01*
X0073553Y0170193D01*
X0073604Y0170157D01*
X0073652Y0170118D01*
X0073698Y0170075D01*
X0073741Y0170030D01*
X0073781Y0169982D01*
X0073818Y0169932D01*
X0073852Y0169879D01*
X0073883Y0169825D01*
X0073909Y0169769D01*
X0073933Y0169711D01*
X0073952Y0169651D01*
X0073968Y0169591D01*
X0073980Y0169529D01*
X0073988Y0169468D01*
X0073992Y0169405D01*
X0073992Y0169343D01*
X0073988Y0169280D01*
X0073980Y0169219D01*
X0073968Y0169157D01*
X0073952Y0169097D01*
X0073933Y0169037D01*
X0073909Y0168979D01*
X0073883Y0168923D01*
X0073852Y0168869D01*
X0073818Y0168816D01*
X0073781Y0168766D01*
X0073741Y0168718D01*
X0073698Y0168673D01*
X0073652Y0168630D01*
X0073604Y0168591D01*
X0073553Y0168555D01*
X0073500Y0168522D01*
X0073445Y0168492D01*
X0073388Y0168466D01*
X0073330Y0168444D01*
X0073270Y0168426D01*
X0073210Y0168411D01*
X0073148Y0168400D01*
X0073086Y0168393D01*
X0073024Y0168390D01*
X0072961Y0168391D01*
X0072899Y0168396D01*
X0072837Y0168405D01*
X0072776Y0168418D01*
X0072716Y0168434D01*
X0072657Y0168455D01*
X0072599Y0168479D01*
X0072543Y0168507D01*
X0072489Y0168538D01*
X0072437Y0168572D01*
X0072388Y0168610D01*
X0072340Y0168651D01*
X0072296Y0168695D01*
X0072254Y0168741D01*
X0072216Y0168791D01*
X0072180Y0168842D01*
X0072148Y0168896D01*
X0072120Y0168951D01*
X0072094Y0169008D01*
X0072073Y0169067D01*
X0072056Y0169127D01*
X0072042Y0169188D01*
X0072032Y0169249D01*
X0072026Y0169312D01*
X0072024Y0169374D01*
D23*
X0064543Y0177543D03*
X0064543Y0145457D03*
D24*
X0075173Y0148311D03*
X0075173Y0174689D03*
D25*
X0076984Y0166618D03*
X0076984Y0164059D03*
X0076984Y0161500D03*
X0076984Y0158941D03*
X0076984Y0156382D03*
M02*
