G75*
%MOIN*%
%OFA0B0*%
%FSLAX25Y25*%
%IPPOS*%
%LPD*%
%AMOC8*
5,1,8,0,0,1.08239X$1,22.5*
%
%ADD10R,0.03937X0.04331*%
%ADD11R,0.03150X0.03150*%
%ADD12R,0.04331X0.03937*%
%ADD13R,0.06299X0.05512*%
%ADD14R,0.07008X0.04016*%
%ADD15R,0.05512X0.06299*%
%ADD16R,0.03543X0.01378*%
%ADD17R,0.04528X0.01732*%
%ADD18R,0.04528X0.02480*%
%ADD19R,0.05500X0.01370*%
%ADD20R,0.04724X0.02165*%
%ADD21R,0.01260X0.04961*%
%ADD22R,0.05118X0.05709*%
%ADD23R,0.07480X0.07480*%
%ADD24R,0.05315X0.01575*%
%ADD25R,0.13386X0.05906*%
%ADD26R,0.13780X0.03937*%
%ADD27R,0.05906X0.13386*%
%ADD28R,0.03937X0.13780*%
%ADD29C,0.01200*%
%ADD30C,0.03200*%
%ADD31C,0.01600*%
%ADD32C,0.03200*%
%ADD33C,0.02000*%
%ADD34C,0.02400*%
%ADD35C,0.04500*%
D10*
X0111197Y0106500D03*
X0117890Y0106500D03*
X0099543Y0130654D03*
X0099543Y0137346D03*
X0114856Y0180029D03*
X0120793Y0180029D03*
X0120793Y0186721D03*
X0114856Y0186721D03*
X0146165Y0207738D03*
X0146165Y0214431D03*
X0140126Y0236500D03*
X0133433Y0236500D03*
X0104594Y0236500D03*
X0097902Y0236500D03*
X0066165Y0214431D03*
X0066165Y0207738D03*
X0168965Y0236500D03*
X0175657Y0236500D03*
X0178043Y0214431D03*
X0178043Y0207738D03*
X0169543Y0184846D03*
X0169543Y0178154D03*
X0204492Y0236500D03*
X0211185Y0236500D03*
X0211197Y0106500D03*
X0217890Y0106500D03*
D11*
X0210791Y0241500D03*
X0204886Y0241500D03*
X0175264Y0241500D03*
X0169358Y0241500D03*
X0139732Y0241500D03*
X0133827Y0241500D03*
X0104201Y0241500D03*
X0098295Y0241500D03*
D12*
X0133697Y0127712D03*
X0140390Y0127712D03*
X0191197Y0106500D03*
X0197890Y0106500D03*
D13*
X0195449Y0146500D03*
X0183638Y0146500D03*
D14*
X0096165Y0207581D03*
X0096165Y0214589D03*
D15*
X0111165Y0216990D03*
X0111165Y0205179D03*
X0071472Y0174098D03*
X0071472Y0148902D03*
D16*
X0193028Y0099177D03*
X0193028Y0096618D03*
X0193028Y0094059D03*
X0193028Y0091500D03*
X0193028Y0088941D03*
X0193028Y0086382D03*
X0193028Y0083823D03*
X0216059Y0083823D03*
X0216059Y0086382D03*
X0216059Y0088941D03*
X0216059Y0091500D03*
X0216059Y0094059D03*
X0216059Y0096618D03*
X0216059Y0099177D03*
D17*
X0198382Y0114925D03*
X0198382Y0118075D03*
X0190705Y0118075D03*
X0190705Y0114925D03*
X0190705Y0164925D03*
X0190705Y0168075D03*
X0198382Y0168075D03*
X0198382Y0164925D03*
X0198382Y0184925D03*
X0198382Y0188075D03*
X0190705Y0188075D03*
X0190705Y0184925D03*
D18*
X0190705Y0181402D03*
X0198382Y0181402D03*
X0198382Y0171598D03*
X0190705Y0171598D03*
X0190705Y0161402D03*
X0198382Y0161402D03*
X0198382Y0191598D03*
X0190705Y0191598D03*
X0190705Y0121598D03*
X0198382Y0121598D03*
X0198382Y0111402D03*
X0190705Y0111402D03*
D19*
X0168937Y0135491D03*
X0168937Y0138050D03*
X0168937Y0140609D03*
X0168937Y0143168D03*
X0168937Y0145727D03*
X0168937Y0148286D03*
X0168937Y0150845D03*
X0168937Y0153405D03*
X0168937Y0155964D03*
X0168937Y0158523D03*
X0168937Y0161082D03*
X0168937Y0163641D03*
X0168937Y0166200D03*
X0168937Y0168759D03*
X0140150Y0168759D03*
X0140150Y0166200D03*
X0140150Y0163641D03*
X0140150Y0161082D03*
X0140150Y0158523D03*
X0140150Y0155964D03*
X0140150Y0153405D03*
X0140150Y0150845D03*
X0140150Y0148286D03*
X0140150Y0145727D03*
X0140150Y0143168D03*
X0140150Y0140609D03*
X0140150Y0138050D03*
X0140150Y0135491D03*
D20*
X0132161Y0207344D03*
X0121925Y0207344D03*
X0121925Y0211085D03*
X0121925Y0214825D03*
X0132161Y0214825D03*
X0159157Y0214825D03*
X0159157Y0211085D03*
X0159157Y0207344D03*
X0169394Y0207344D03*
X0169394Y0214825D03*
X0086283Y0214825D03*
X0086283Y0211085D03*
X0086283Y0207344D03*
X0076047Y0207344D03*
X0076047Y0214825D03*
D21*
X0105791Y0172441D03*
X0108291Y0172441D03*
X0110791Y0172441D03*
X0113291Y0172441D03*
X0115791Y0172441D03*
X0118291Y0172441D03*
X0120791Y0172441D03*
X0123291Y0172441D03*
X0123291Y0150559D03*
X0120791Y0150559D03*
X0118291Y0150559D03*
X0115791Y0150559D03*
X0113291Y0150559D03*
X0110791Y0150559D03*
X0108291Y0150559D03*
X0105791Y0150559D03*
D22*
X0061827Y0148016D03*
X0061827Y0174984D03*
D23*
X0061827Y0166224D03*
X0061827Y0156776D03*
D24*
X0072358Y0156382D03*
X0072358Y0158941D03*
X0072358Y0161500D03*
X0072358Y0164059D03*
X0072358Y0166618D03*
D25*
X0245094Y0206185D03*
X0245094Y0116815D03*
D26*
X0222457Y0126067D03*
X0222457Y0133941D03*
X0222457Y0141815D03*
X0222457Y0149689D03*
X0222457Y0157563D03*
X0222457Y0165437D03*
X0222457Y0173311D03*
X0222457Y0181185D03*
X0222457Y0189059D03*
X0222457Y0196933D03*
D27*
X0184228Y0070949D03*
X0124858Y0070949D03*
D28*
X0134858Y0093587D03*
X0142732Y0093587D03*
X0150606Y0093587D03*
X0158480Y0093587D03*
X0166354Y0093587D03*
X0174228Y0093587D03*
D29*
X0085277Y0078226D02*
X0085277Y0064675D01*
X0120306Y0064675D01*
X0120306Y0070349D01*
X0124258Y0070349D01*
X0124258Y0071549D01*
X0120306Y0071549D01*
X0120306Y0077852D01*
X0120415Y0078259D01*
X0120625Y0078624D01*
X0120923Y0078922D01*
X0121288Y0079133D01*
X0121695Y0079242D01*
X0124258Y0079242D01*
X0124258Y0071549D01*
X0125458Y0071549D01*
X0125458Y0079242D01*
X0128022Y0079242D01*
X0128429Y0079133D01*
X0128793Y0078922D01*
X0129091Y0078624D01*
X0129302Y0078259D01*
X0129411Y0077852D01*
X0129411Y0071549D01*
X0125458Y0071549D01*
X0125458Y0070349D01*
X0129411Y0070349D01*
X0129411Y0064675D01*
X0179676Y0064675D01*
X0179676Y0070349D01*
X0183628Y0070349D01*
X0183628Y0071549D01*
X0179676Y0071549D01*
X0179676Y0077852D01*
X0179785Y0078259D01*
X0179995Y0078624D01*
X0180293Y0078922D01*
X0180658Y0079133D01*
X0181065Y0079242D01*
X0183628Y0079242D01*
X0183628Y0071549D01*
X0184828Y0071549D01*
X0184828Y0079242D01*
X0187392Y0079242D01*
X0187799Y0079133D01*
X0188164Y0078922D01*
X0188461Y0078624D01*
X0188672Y0078259D01*
X0188781Y0077852D01*
X0188781Y0071549D01*
X0184828Y0071549D01*
X0184828Y0070349D01*
X0188781Y0070349D01*
X0188781Y0064675D01*
X0223809Y0064675D01*
X0223809Y0078226D01*
X0223766Y0078276D01*
X0223809Y0078880D01*
X0223809Y0079486D01*
X0223856Y0079532D01*
X0223896Y0080087D01*
X0223825Y0080196D01*
X0223942Y0080732D01*
X0223981Y0081279D01*
X0224079Y0081364D01*
X0224211Y0081970D01*
X0224157Y0082089D01*
X0224349Y0082602D01*
X0224465Y0083138D01*
X0224575Y0083208D01*
X0224792Y0083789D01*
X0224755Y0083914D01*
X0225018Y0084396D01*
X0225209Y0084909D01*
X0225328Y0084963D01*
X0225625Y0085508D01*
X0225606Y0085637D01*
X0225935Y0086076D01*
X0226198Y0086557D01*
X0226323Y0086593D01*
X0226694Y0087090D01*
X0226694Y0087220D01*
X0227082Y0087608D01*
X0227411Y0088047D01*
X0227539Y0088065D01*
X0227978Y0088504D01*
X0227997Y0088633D01*
X0228435Y0088961D01*
X0228823Y0089349D01*
X0228953Y0089349D01*
X0229450Y0089721D01*
X0229486Y0089846D01*
X0229968Y0090108D01*
X0230407Y0090437D01*
X0230536Y0090418D01*
X0231080Y0090716D01*
X0231134Y0090834D01*
X0231648Y0091026D01*
X0232129Y0091288D01*
X0232254Y0091252D01*
X0232835Y0091468D01*
X0232905Y0091578D01*
X0233441Y0091695D01*
X0233955Y0091886D01*
X0234073Y0091832D01*
X0234679Y0091964D01*
X0234764Y0092062D01*
X0235311Y0092101D01*
X0235847Y0092218D01*
X0235957Y0092148D01*
X0236511Y0092187D01*
X0236558Y0092234D01*
X0237163Y0092234D01*
X0237767Y0092277D01*
X0237817Y0092234D01*
X0251369Y0092234D01*
X0251369Y0112262D01*
X0245694Y0112262D01*
X0245694Y0116215D01*
X0244495Y0116215D01*
X0244495Y0112262D01*
X0238191Y0112262D01*
X0237784Y0112371D01*
X0237419Y0112582D01*
X0237121Y0112880D01*
X0236943Y0113188D01*
X0236943Y0103210D01*
X0236578Y0102328D01*
X0232431Y0098181D01*
X0232431Y0097738D01*
X0231944Y0096562D01*
X0231043Y0095662D01*
X0229867Y0095175D01*
X0229425Y0095175D01*
X0223715Y0089465D01*
X0222833Y0089100D01*
X0221743Y0089100D01*
X0221743Y0083401D01*
X0220455Y0082113D01*
X0219965Y0081623D01*
X0218582Y0081623D01*
X0218493Y0081534D01*
X0213625Y0081534D01*
X0212687Y0082471D01*
X0212687Y0084182D01*
X0211806Y0084182D01*
X0211806Y0083988D01*
X0211319Y0082812D01*
X0210418Y0081912D01*
X0209242Y0081425D01*
X0207969Y0081425D01*
X0206793Y0081912D01*
X0205893Y0082812D01*
X0205406Y0083988D01*
X0205406Y0085262D01*
X0205796Y0086204D01*
X0204306Y0084714D01*
X0204306Y0083988D01*
X0203819Y0082812D01*
X0202918Y0081912D01*
X0201742Y0081425D01*
X0200469Y0081425D01*
X0199293Y0081912D01*
X0198393Y0082812D01*
X0197906Y0083988D01*
X0197906Y0085262D01*
X0198393Y0086438D01*
X0198696Y0086741D01*
X0196399Y0086741D01*
X0196399Y0085030D01*
X0196334Y0084965D01*
X0196399Y0084722D01*
X0196399Y0083823D01*
X0193028Y0083823D01*
X0193028Y0083823D01*
X0196399Y0083823D01*
X0196399Y0082923D01*
X0196290Y0082516D01*
X0196080Y0082151D01*
X0195782Y0081854D01*
X0195417Y0081643D01*
X0195010Y0081534D01*
X0193028Y0081534D01*
X0193028Y0083823D01*
X0193027Y0083823D01*
X0193027Y0083823D01*
X0189656Y0083823D01*
X0189656Y0084722D01*
X0189721Y0084965D01*
X0189656Y0085030D01*
X0189656Y0086741D01*
X0185566Y0086741D01*
X0180820Y0091487D01*
X0179531Y0092776D01*
X0179531Y0104651D01*
X0174882Y0109300D01*
X0164257Y0109300D01*
X0162968Y0110589D01*
X0156743Y0116814D01*
X0156743Y0114911D01*
X0159392Y0112263D01*
X0160680Y0110974D01*
X0160680Y0102076D01*
X0161112Y0102076D01*
X0162049Y0101139D01*
X0162049Y0086034D01*
X0161112Y0085097D01*
X0155849Y0085097D01*
X0154912Y0086034D01*
X0154912Y0101139D01*
X0155849Y0102076D01*
X0156280Y0102076D01*
X0156280Y0105243D01*
X0156117Y0105175D01*
X0154844Y0105175D01*
X0153668Y0105662D01*
X0152768Y0106562D01*
X0152281Y0107738D01*
X0152281Y0108464D01*
X0151132Y0109612D01*
X0151132Y0109612D01*
X0149843Y0110901D01*
X0149843Y0116029D01*
X0149116Y0115302D01*
X0145868Y0112054D01*
X0145868Y0107227D01*
X0145932Y0107073D01*
X0145932Y0101508D01*
X0146301Y0101139D01*
X0146301Y0086034D01*
X0145364Y0085097D01*
X0140101Y0085097D01*
X0139164Y0086034D01*
X0139164Y0101139D01*
X0139532Y0101508D01*
X0139532Y0105709D01*
X0139468Y0105863D01*
X0139468Y0114016D01*
X0139955Y0115193D01*
X0144103Y0119340D01*
X0144103Y0124512D01*
X0143586Y0124512D01*
X0143218Y0124143D01*
X0141426Y0124143D01*
X0142256Y0123313D01*
X0142743Y0122137D01*
X0142743Y0120863D01*
X0142256Y0119687D01*
X0141356Y0118787D01*
X0140180Y0118300D01*
X0139455Y0118300D01*
X0137058Y0115904D01*
X0137058Y0102076D01*
X0137490Y0102076D01*
X0138427Y0101139D01*
X0138427Y0086034D01*
X0137490Y0085097D01*
X0132227Y0085097D01*
X0131290Y0086034D01*
X0131290Y0101139D01*
X0132227Y0102076D01*
X0132658Y0102076D01*
X0132658Y0104300D01*
X0121458Y0104300D01*
X0121458Y0103672D01*
X0120521Y0102735D01*
X0115259Y0102735D01*
X0114543Y0103450D01*
X0113828Y0102735D01*
X0108566Y0102735D01*
X0107628Y0103672D01*
X0107628Y0104300D01*
X0106869Y0104300D01*
X0106356Y0103787D01*
X0105180Y0103300D01*
X0103907Y0103300D01*
X0102731Y0103787D01*
X0101830Y0104687D01*
X0101343Y0105863D01*
X0101343Y0107137D01*
X0101830Y0108313D01*
X0102731Y0109213D01*
X0103907Y0109700D01*
X0105180Y0109700D01*
X0106356Y0109213D01*
X0106869Y0108700D01*
X0107628Y0108700D01*
X0107628Y0109328D01*
X0108566Y0110265D01*
X0113828Y0110265D01*
X0114543Y0109550D01*
X0115259Y0110265D01*
X0120521Y0110265D01*
X0121458Y0109328D01*
X0121458Y0108700D01*
X0132658Y0108700D01*
X0132658Y0117726D01*
X0133947Y0119015D01*
X0136343Y0121411D01*
X0136343Y0122137D01*
X0136830Y0123313D01*
X0137661Y0124143D01*
X0137562Y0124143D01*
X0137043Y0124661D01*
X0136845Y0124463D01*
X0136480Y0124252D01*
X0136073Y0124143D01*
X0134081Y0124143D01*
X0134081Y0127327D01*
X0133313Y0127327D01*
X0133313Y0124143D01*
X0131321Y0124143D01*
X0130914Y0124252D01*
X0130549Y0124463D01*
X0130251Y0124761D01*
X0130041Y0125126D01*
X0129931Y0125532D01*
X0129931Y0127327D01*
X0133313Y0127327D01*
X0133313Y0128096D01*
X0129931Y0128096D01*
X0129931Y0129891D01*
X0130041Y0130298D01*
X0130251Y0130663D01*
X0130549Y0130960D01*
X0130914Y0131171D01*
X0130929Y0131175D01*
X0113007Y0131175D01*
X0111718Y0132464D01*
X0111718Y0132464D01*
X0104882Y0139300D01*
X0103593Y0140589D01*
X0103593Y0144026D01*
X0103591Y0144028D01*
X0103591Y0147386D01*
X0103561Y0147416D01*
X0103561Y0153702D01*
X0104499Y0154639D01*
X0114584Y0154639D01*
X0114661Y0154562D01*
X0114951Y0154639D01*
X0115791Y0154639D01*
X0115791Y0150559D01*
X0115791Y0150559D01*
X0115791Y0154639D01*
X0116632Y0154639D01*
X0116921Y0154562D01*
X0116999Y0154639D01*
X0121091Y0154639D01*
X0121091Y0156841D01*
X0118632Y0159300D01*
X0076616Y0159300D01*
X0076616Y0157491D01*
X0076592Y0157467D01*
X0076616Y0157380D01*
X0076616Y0156382D01*
X0072358Y0156382D01*
X0072358Y0156382D01*
X0068101Y0156382D01*
X0068101Y0157380D01*
X0068124Y0157467D01*
X0068101Y0157491D01*
X0068101Y0163616D01*
X0067559Y0163840D01*
X0067167Y0164232D01*
X0067167Y0161822D01*
X0066845Y0161500D01*
X0067167Y0161178D01*
X0067167Y0152450D01*
X0067226Y0152669D01*
X0067436Y0153034D01*
X0067734Y0153331D01*
X0068099Y0153542D01*
X0068506Y0153651D01*
X0070872Y0153651D01*
X0070872Y0149502D01*
X0072072Y0149502D01*
X0072072Y0153651D01*
X0074439Y0153651D01*
X0074846Y0153542D01*
X0075211Y0153331D01*
X0075509Y0153034D01*
X0075719Y0152669D01*
X0075828Y0152262D01*
X0075828Y0149502D01*
X0072072Y0149502D01*
X0072072Y0148302D01*
X0075828Y0148302D01*
X0075828Y0145541D01*
X0075719Y0145134D01*
X0075509Y0144770D01*
X0075211Y0144472D01*
X0074846Y0144261D01*
X0074439Y0144152D01*
X0072072Y0144152D01*
X0072072Y0148302D01*
X0070872Y0148302D01*
X0067117Y0148302D01*
X0067117Y0145541D01*
X0067226Y0145134D01*
X0067436Y0144770D01*
X0067734Y0144472D01*
X0068099Y0144261D01*
X0068506Y0144152D01*
X0070872Y0144152D01*
X0070872Y0148302D01*
X0070872Y0149502D01*
X0067117Y0149502D01*
X0067117Y0152262D01*
X0067139Y0152344D01*
X0066230Y0151435D01*
X0065891Y0151435D01*
X0065986Y0151081D01*
X0065986Y0148616D01*
X0062427Y0148616D01*
X0062427Y0147416D01*
X0065986Y0147416D01*
X0065986Y0144951D01*
X0065877Y0144544D01*
X0065666Y0144179D01*
X0065368Y0143881D01*
X0065003Y0143670D01*
X0064596Y0143561D01*
X0062427Y0143561D01*
X0062427Y0147416D01*
X0061227Y0147416D01*
X0061227Y0143561D01*
X0059057Y0143561D01*
X0058650Y0143670D01*
X0058285Y0143881D01*
X0057987Y0144179D01*
X0057777Y0144544D01*
X0057718Y0144763D01*
X0057718Y0092234D01*
X0071269Y0092234D01*
X0071319Y0092277D01*
X0071923Y0092234D01*
X0072529Y0092234D01*
X0072576Y0092187D01*
X0073130Y0092148D01*
X0073240Y0092218D01*
X0073775Y0092101D01*
X0074322Y0092062D01*
X0074407Y0091964D01*
X0075013Y0091832D01*
X0075132Y0091886D01*
X0075646Y0091695D01*
X0076181Y0091578D01*
X0076252Y0091468D01*
X0076833Y0091252D01*
X0076958Y0091288D01*
X0077439Y0091026D01*
X0077953Y0090834D01*
X0078007Y0090716D01*
X0078551Y0090418D01*
X0078680Y0090437D01*
X0079119Y0090108D01*
X0079600Y0089846D01*
X0079637Y0089721D01*
X0080133Y0089349D01*
X0080263Y0089349D01*
X0080651Y0088961D01*
X0081090Y0088633D01*
X0081109Y0088504D01*
X0081547Y0088065D01*
X0081676Y0088047D01*
X0082005Y0087608D01*
X0082392Y0087220D01*
X0082392Y0087090D01*
X0082764Y0086593D01*
X0082889Y0086557D01*
X0083152Y0086076D01*
X0083480Y0085637D01*
X0083462Y0085508D01*
X0083759Y0084963D01*
X0083877Y0084909D01*
X0084069Y0084396D01*
X0084332Y0083914D01*
X0084295Y0083789D01*
X0084512Y0083208D01*
X0084621Y0083138D01*
X0084738Y0082602D01*
X0084929Y0082089D01*
X0084875Y0081970D01*
X0085007Y0081364D01*
X0085106Y0081279D01*
X0085145Y0080732D01*
X0085261Y0080196D01*
X0085191Y0080087D01*
X0085230Y0079532D01*
X0085277Y0079486D01*
X0085277Y0078880D01*
X0085320Y0078276D01*
X0085277Y0078226D01*
X0085320Y0078279D02*
X0120426Y0078279D01*
X0120306Y0077081D02*
X0085277Y0077081D01*
X0085277Y0075882D02*
X0120306Y0075882D01*
X0120306Y0074684D02*
X0085277Y0074684D01*
X0085277Y0073485D02*
X0120306Y0073485D01*
X0120306Y0072287D02*
X0085277Y0072287D01*
X0085277Y0071088D02*
X0124258Y0071088D01*
X0124258Y0072287D02*
X0125458Y0072287D01*
X0125458Y0073485D02*
X0124258Y0073485D01*
X0124258Y0074684D02*
X0125458Y0074684D01*
X0125458Y0075882D02*
X0124258Y0075882D01*
X0124258Y0077081D02*
X0125458Y0077081D01*
X0125458Y0078279D02*
X0124258Y0078279D01*
X0129291Y0078279D02*
X0179796Y0078279D01*
X0179676Y0077081D02*
X0129411Y0077081D01*
X0129411Y0075882D02*
X0179676Y0075882D01*
X0179676Y0074684D02*
X0129411Y0074684D01*
X0129411Y0073485D02*
X0179676Y0073485D01*
X0179676Y0072287D02*
X0129411Y0072287D01*
X0129411Y0069890D02*
X0179676Y0069890D01*
X0179676Y0068691D02*
X0129411Y0068691D01*
X0129411Y0067493D02*
X0179676Y0067493D01*
X0179676Y0066294D02*
X0129411Y0066294D01*
X0129411Y0065096D02*
X0179676Y0065096D01*
X0183628Y0071088D02*
X0125458Y0071088D01*
X0120306Y0069890D02*
X0085277Y0069890D01*
X0085277Y0068691D02*
X0120306Y0068691D01*
X0120306Y0067493D02*
X0085277Y0067493D01*
X0085277Y0066294D02*
X0120306Y0066294D01*
X0120306Y0065096D02*
X0085277Y0065096D01*
X0085277Y0079478D02*
X0223809Y0079478D01*
X0223766Y0078279D02*
X0188661Y0078279D01*
X0188781Y0077081D02*
X0223809Y0077081D01*
X0223809Y0075882D02*
X0188781Y0075882D01*
X0188781Y0074684D02*
X0223809Y0074684D01*
X0223809Y0073485D02*
X0188781Y0073485D01*
X0188781Y0072287D02*
X0223809Y0072287D01*
X0223809Y0071088D02*
X0184828Y0071088D01*
X0184828Y0072287D02*
X0183628Y0072287D01*
X0183628Y0073485D02*
X0184828Y0073485D01*
X0184828Y0074684D02*
X0183628Y0074684D01*
X0183628Y0075882D02*
X0184828Y0075882D01*
X0184828Y0077081D02*
X0183628Y0077081D01*
X0183628Y0078279D02*
X0184828Y0078279D01*
X0189976Y0082151D02*
X0190273Y0081854D01*
X0190638Y0081643D01*
X0191045Y0081534D01*
X0193027Y0081534D01*
X0193027Y0083823D01*
X0189656Y0083823D01*
X0189656Y0082923D01*
X0189765Y0082516D01*
X0189976Y0082151D01*
X0190252Y0081875D02*
X0084896Y0081875D01*
X0084635Y0083073D02*
X0189656Y0083073D01*
X0189656Y0084272D02*
X0084137Y0084272D01*
X0083482Y0085470D02*
X0131854Y0085470D01*
X0131290Y0086669D02*
X0082708Y0086669D01*
X0081810Y0087867D02*
X0131290Y0087867D01*
X0131290Y0089066D02*
X0080547Y0089066D01*
X0078911Y0090264D02*
X0131290Y0090264D01*
X0131290Y0091463D02*
X0076267Y0091463D01*
X0085157Y0080676D02*
X0223930Y0080676D01*
X0224191Y0081875D02*
X0220217Y0081875D01*
X0221415Y0083073D02*
X0224451Y0083073D01*
X0224950Y0084272D02*
X0221743Y0084272D01*
X0221743Y0085470D02*
X0225604Y0085470D01*
X0226379Y0086669D02*
X0221743Y0086669D01*
X0221743Y0087867D02*
X0227276Y0087867D01*
X0228540Y0089066D02*
X0221743Y0089066D01*
X0224514Y0090264D02*
X0230176Y0090264D01*
X0232820Y0091463D02*
X0225713Y0091463D01*
X0226911Y0092661D02*
X0251369Y0092661D01*
X0251369Y0093860D02*
X0228110Y0093860D01*
X0229308Y0095058D02*
X0251369Y0095058D01*
X0251369Y0096257D02*
X0231638Y0096257D01*
X0232314Y0097455D02*
X0251369Y0097455D01*
X0251369Y0098654D02*
X0232904Y0098654D01*
X0234102Y0099852D02*
X0251369Y0099852D01*
X0251369Y0101051D02*
X0235301Y0101051D01*
X0236499Y0102249D02*
X0251369Y0102249D01*
X0251369Y0103448D02*
X0236943Y0103448D01*
X0236943Y0104646D02*
X0251369Y0104646D01*
X0251369Y0105845D02*
X0236943Y0105845D01*
X0236943Y0107043D02*
X0251369Y0107043D01*
X0251369Y0108242D02*
X0236943Y0108242D01*
X0236943Y0109440D02*
X0251369Y0109440D01*
X0251369Y0110639D02*
X0236943Y0110639D01*
X0236943Y0111837D02*
X0251369Y0111837D01*
X0245694Y0113036D02*
X0244495Y0113036D01*
X0244495Y0114234D02*
X0245694Y0114234D01*
X0245694Y0115433D02*
X0244495Y0115433D01*
X0244495Y0117415D02*
X0244495Y0121368D01*
X0238191Y0121368D01*
X0237784Y0121259D01*
X0237419Y0121048D01*
X0237121Y0120750D01*
X0236943Y0120442D01*
X0236943Y0171977D01*
X0236578Y0172859D01*
X0235903Y0173535D01*
X0234767Y0174670D01*
X0234767Y0174671D02*
X0234092Y0175346D01*
X0233210Y0175711D01*
X0230946Y0175711D01*
X0230946Y0175942D01*
X0230009Y0176880D01*
X0214904Y0176880D01*
X0213967Y0175942D01*
X0213967Y0175511D01*
X0212943Y0175511D01*
X0211406Y0173974D01*
X0211406Y0173974D01*
X0211230Y0173798D01*
X0201949Y0173798D01*
X0201308Y0174439D01*
X0195455Y0174439D01*
X0194543Y0173527D01*
X0193631Y0174439D01*
X0187778Y0174439D01*
X0186841Y0173501D01*
X0186841Y0170275D01*
X0186144Y0170275D01*
X0184882Y0169012D01*
X0184556Y0168686D01*
X0184556Y0178401D01*
X0185356Y0179202D01*
X0187138Y0179202D01*
X0187778Y0178561D01*
X0193631Y0178561D01*
X0194568Y0179499D01*
X0194568Y0179763D01*
X0194627Y0179544D01*
X0194838Y0179179D01*
X0195136Y0178881D01*
X0195501Y0178670D01*
X0195907Y0178561D01*
X0198362Y0178561D01*
X0198362Y0181381D01*
X0198402Y0181381D01*
X0198402Y0178561D01*
X0200856Y0178561D01*
X0201263Y0178670D01*
X0201628Y0178881D01*
X0201926Y0179179D01*
X0202137Y0179544D01*
X0202246Y0179951D01*
X0202246Y0181381D01*
X0198402Y0181381D01*
X0198402Y0181422D01*
X0202246Y0181422D01*
X0202246Y0182725D01*
X0210207Y0182725D01*
X0212658Y0180274D01*
X0213947Y0178985D01*
X0213967Y0178985D01*
X0213967Y0178554D01*
X0214904Y0177617D01*
X0230009Y0177617D01*
X0230378Y0177985D01*
X0232052Y0177985D01*
X0233228Y0178472D01*
X0234129Y0179372D01*
X0237256Y0182500D01*
X0237743Y0183676D01*
X0237743Y0201765D01*
X0237784Y0201741D01*
X0238191Y0201632D01*
X0244495Y0201632D01*
X0244495Y0205585D01*
X0245694Y0205585D01*
X0245694Y0201632D01*
X0251369Y0201632D01*
X0251369Y0121368D01*
X0245694Y0121368D01*
X0245694Y0117415D01*
X0244495Y0117415D01*
X0244495Y0117830D02*
X0245694Y0117830D01*
X0245694Y0119029D02*
X0244495Y0119029D01*
X0244495Y0120227D02*
X0245694Y0120227D01*
X0251369Y0121426D02*
X0236943Y0121426D01*
X0236943Y0122624D02*
X0251369Y0122624D01*
X0251369Y0123823D02*
X0236943Y0123823D01*
X0236943Y0125021D02*
X0251369Y0125021D01*
X0251369Y0126220D02*
X0236943Y0126220D01*
X0236943Y0127418D02*
X0251369Y0127418D01*
X0251369Y0128617D02*
X0236943Y0128617D01*
X0236943Y0129815D02*
X0251369Y0129815D01*
X0251369Y0131014D02*
X0236943Y0131014D01*
X0236943Y0132212D02*
X0251369Y0132212D01*
X0251369Y0133411D02*
X0236943Y0133411D01*
X0236943Y0134609D02*
X0251369Y0134609D01*
X0251369Y0135808D02*
X0236943Y0135808D01*
X0236943Y0137006D02*
X0251369Y0137006D01*
X0251369Y0138205D02*
X0236943Y0138205D01*
X0236943Y0139403D02*
X0251369Y0139403D01*
X0251369Y0140602D02*
X0236943Y0140602D01*
X0236943Y0141800D02*
X0251369Y0141800D01*
X0251369Y0142999D02*
X0236943Y0142999D01*
X0236943Y0144197D02*
X0251369Y0144197D01*
X0251369Y0145396D02*
X0236943Y0145396D01*
X0236943Y0146594D02*
X0251369Y0146594D01*
X0251369Y0147793D02*
X0236943Y0147793D01*
X0236943Y0148991D02*
X0251369Y0148991D01*
X0251369Y0150190D02*
X0236943Y0150190D01*
X0236943Y0151388D02*
X0251369Y0151388D01*
X0251369Y0152587D02*
X0236943Y0152587D01*
X0236943Y0153785D02*
X0251369Y0153785D01*
X0251369Y0154984D02*
X0236943Y0154984D01*
X0236943Y0156182D02*
X0251369Y0156182D01*
X0251369Y0157381D02*
X0236943Y0157381D01*
X0236943Y0158579D02*
X0251369Y0158579D01*
X0251369Y0159778D02*
X0236943Y0159778D01*
X0236943Y0160976D02*
X0251369Y0160976D01*
X0251369Y0162175D02*
X0236943Y0162175D01*
X0236943Y0163373D02*
X0251369Y0163373D01*
X0251369Y0164572D02*
X0236943Y0164572D01*
X0236943Y0165770D02*
X0251369Y0165770D01*
X0251369Y0166969D02*
X0236943Y0166969D01*
X0236943Y0168168D02*
X0251369Y0168168D01*
X0251369Y0169366D02*
X0236943Y0169366D01*
X0236943Y0170565D02*
X0251369Y0170565D01*
X0251369Y0171763D02*
X0236943Y0171763D01*
X0236476Y0172962D02*
X0251369Y0172962D01*
X0251369Y0174160D02*
X0235277Y0174160D01*
X0234767Y0174670D02*
X0234767Y0174671D01*
X0234061Y0175359D02*
X0251369Y0175359D01*
X0251369Y0176557D02*
X0230332Y0176557D01*
X0230148Y0177756D02*
X0251369Y0177756D01*
X0251369Y0178954D02*
X0233710Y0178954D01*
X0234909Y0180153D02*
X0251369Y0180153D01*
X0251369Y0181351D02*
X0236107Y0181351D01*
X0237277Y0182550D02*
X0251369Y0182550D01*
X0251369Y0183748D02*
X0237743Y0183748D01*
X0237743Y0184947D02*
X0251369Y0184947D01*
X0251369Y0186145D02*
X0237743Y0186145D01*
X0237743Y0187344D02*
X0251369Y0187344D01*
X0251369Y0188542D02*
X0237743Y0188542D01*
X0237743Y0189741D02*
X0251369Y0189741D01*
X0251369Y0190939D02*
X0237743Y0190939D01*
X0237743Y0192138D02*
X0251369Y0192138D01*
X0251369Y0193336D02*
X0237743Y0193336D01*
X0237743Y0194535D02*
X0251369Y0194535D01*
X0251369Y0195733D02*
X0237743Y0195733D01*
X0237743Y0196932D02*
X0251369Y0196932D01*
X0251369Y0198130D02*
X0237743Y0198130D01*
X0237743Y0199329D02*
X0251369Y0199329D01*
X0251369Y0200527D02*
X0237743Y0200527D01*
X0237743Y0201726D02*
X0237842Y0201726D01*
X0244495Y0201726D02*
X0245694Y0201726D01*
X0245694Y0202924D02*
X0244495Y0202924D01*
X0244495Y0204123D02*
X0245694Y0204123D01*
X0245694Y0205321D02*
X0244495Y0205321D01*
X0244495Y0206785D02*
X0244495Y0210738D01*
X0238191Y0210738D01*
X0237784Y0210629D01*
X0237743Y0210605D01*
X0237743Y0212137D01*
X0237256Y0213313D01*
X0236356Y0214213D01*
X0231356Y0219213D01*
X0230180Y0219700D01*
X0206692Y0219700D01*
X0206692Y0232735D01*
X0207123Y0232735D01*
X0207839Y0233450D01*
X0208554Y0232735D01*
X0213816Y0232735D01*
X0214754Y0233672D01*
X0214754Y0233726D01*
X0215782Y0233300D01*
X0217055Y0233300D01*
X0218231Y0233787D01*
X0219131Y0234687D01*
X0219618Y0235863D01*
X0219618Y0237137D01*
X0219131Y0238313D01*
X0218231Y0239213D01*
X0217951Y0239329D01*
X0217330Y0239950D01*
X0213966Y0243313D01*
X0213966Y0243738D01*
X0213029Y0244675D01*
X0208554Y0244675D01*
X0207812Y0243933D01*
X0207741Y0244057D01*
X0207443Y0244355D01*
X0207078Y0244566D01*
X0206671Y0244675D01*
X0205073Y0244675D01*
X0205073Y0241687D01*
X0204698Y0241687D01*
X0204698Y0241313D01*
X0201711Y0241313D01*
X0201711Y0240115D01*
X0200924Y0239328D01*
X0200924Y0233672D01*
X0201861Y0232735D01*
X0202292Y0232735D01*
X0202292Y0219700D01*
X0179476Y0219700D01*
X0178300Y0219213D01*
X0177283Y0218196D01*
X0175412Y0218196D01*
X0175240Y0218025D01*
X0168757Y0218025D01*
X0167581Y0217538D01*
X0167551Y0217507D01*
X0166743Y0217507D01*
X0166743Y0232735D01*
X0171596Y0232735D01*
X0172311Y0233450D01*
X0173026Y0232735D01*
X0178289Y0232735D01*
X0179144Y0233590D01*
X0179844Y0233300D01*
X0181117Y0233300D01*
X0182293Y0233787D01*
X0183194Y0234687D01*
X0183681Y0235863D01*
X0183681Y0237137D01*
X0183194Y0238313D01*
X0182681Y0238825D01*
X0182681Y0239599D01*
X0181392Y0240887D01*
X0178580Y0243700D01*
X0178439Y0243700D01*
X0178439Y0243738D01*
X0177501Y0244675D01*
X0173026Y0244675D01*
X0172285Y0243933D01*
X0172213Y0244057D01*
X0171915Y0244355D01*
X0171551Y0244566D01*
X0171144Y0244675D01*
X0169546Y0244675D01*
X0169546Y0241687D01*
X0169171Y0241687D01*
X0169171Y0241313D01*
X0166183Y0241313D01*
X0166183Y0240115D01*
X0165396Y0239328D01*
X0165396Y0238700D01*
X0164882Y0238700D01*
X0163632Y0237450D01*
X0162343Y0236161D01*
X0162343Y0217347D01*
X0162315Y0217375D01*
X0162315Y0227812D01*
X0161950Y0228694D01*
X0159450Y0231194D01*
X0158775Y0231869D01*
X0157893Y0232235D01*
X0125043Y0232235D01*
X0127108Y0234300D01*
X0129865Y0234300D01*
X0129865Y0233672D01*
X0130802Y0232735D01*
X0136064Y0232735D01*
X0136780Y0233450D01*
X0137495Y0232735D01*
X0142757Y0232735D01*
X0143494Y0233471D01*
X0143907Y0233300D01*
X0145180Y0233300D01*
X0146356Y0233787D01*
X0147256Y0234687D01*
X0147743Y0235863D01*
X0147743Y0237137D01*
X0147256Y0238313D01*
X0146743Y0238825D01*
X0146743Y0240536D01*
X0145455Y0241825D01*
X0143580Y0243700D01*
X0142907Y0243700D01*
X0142907Y0243738D01*
X0141970Y0244675D01*
X0137495Y0244675D01*
X0136780Y0243960D01*
X0136064Y0244675D01*
X0131589Y0244675D01*
X0130652Y0243738D01*
X0130652Y0243700D01*
X0126869Y0243700D01*
X0126356Y0244213D01*
X0125180Y0244700D01*
X0123907Y0244700D01*
X0122731Y0244213D01*
X0121830Y0243313D01*
X0121343Y0242137D01*
X0121343Y0240863D01*
X0121830Y0239687D01*
X0122731Y0238787D01*
X0123907Y0238300D01*
X0124886Y0238300D01*
X0123997Y0237411D01*
X0121223Y0234637D01*
X0112206Y0234637D01*
X0112256Y0234687D01*
X0112743Y0235863D01*
X0112743Y0237137D01*
X0112256Y0238313D01*
X0111743Y0238825D01*
X0111743Y0240536D01*
X0110455Y0241825D01*
X0108580Y0243700D01*
X0107376Y0243700D01*
X0107376Y0243738D01*
X0106438Y0244675D01*
X0101963Y0244675D01*
X0101222Y0243933D01*
X0101150Y0244057D01*
X0100852Y0244355D01*
X0100488Y0244566D01*
X0100081Y0244675D01*
X0098483Y0244675D01*
X0098483Y0241687D01*
X0098108Y0241687D01*
X0098108Y0241313D01*
X0095120Y0241313D01*
X0095120Y0240115D01*
X0094333Y0239328D01*
X0094333Y0238700D01*
X0086445Y0238700D01*
X0068906Y0221161D01*
X0068906Y0217998D01*
X0068751Y0218087D01*
X0068345Y0218196D01*
X0066550Y0218196D01*
X0066550Y0214815D01*
X0065781Y0214815D01*
X0065781Y0214047D01*
X0062597Y0214047D01*
X0062597Y0212055D01*
X0062706Y0211648D01*
X0062917Y0211283D01*
X0063115Y0211085D01*
X0062918Y0210887D01*
X0062695Y0210887D01*
X0061406Y0209599D01*
X0061406Y0197151D01*
X0062695Y0195862D01*
X0077642Y0195862D01*
X0078931Y0197151D01*
X0078931Y0204662D01*
X0079072Y0204662D01*
X0080009Y0205599D01*
X0080009Y0209090D01*
X0079072Y0210027D01*
X0078502Y0210027D01*
X0077642Y0210887D01*
X0073306Y0210887D01*
X0073306Y0212142D01*
X0079072Y0212142D01*
X0080009Y0213079D01*
X0080009Y0216570D01*
X0079072Y0217507D01*
X0073306Y0217507D01*
X0073306Y0219339D01*
X0088267Y0234300D01*
X0094333Y0234300D01*
X0094333Y0233672D01*
X0095270Y0232735D01*
X0095822Y0232735D01*
X0096322Y0232235D01*
X0090688Y0232235D01*
X0089806Y0231869D01*
X0084806Y0226869D01*
X0084806Y0226869D01*
X0084131Y0226194D01*
X0083765Y0225312D01*
X0083765Y0217507D01*
X0083259Y0217507D01*
X0082321Y0216570D01*
X0082321Y0213079D01*
X0082498Y0212902D01*
X0082430Y0212785D01*
X0082321Y0212378D01*
X0082321Y0211085D01*
X0086283Y0211085D01*
X0086283Y0211085D01*
X0082321Y0211085D01*
X0082321Y0209791D01*
X0082430Y0209384D01*
X0082498Y0209267D01*
X0082321Y0209090D01*
X0082321Y0205599D01*
X0083259Y0204662D01*
X0089308Y0204662D01*
X0089391Y0204744D01*
X0090268Y0204744D01*
X0090268Y0173275D01*
X0075828Y0173275D01*
X0075828Y0173498D01*
X0072072Y0173498D01*
X0072072Y0174698D01*
X0070872Y0174698D01*
X0070872Y0173498D01*
X0067117Y0173498D01*
X0067117Y0172467D01*
X0066884Y0172234D01*
X0066518Y0171352D01*
X0066518Y0171276D01*
X0066230Y0171565D01*
X0065891Y0171565D01*
X0065986Y0171919D01*
X0065986Y0174384D01*
X0062427Y0174384D01*
X0062427Y0175584D01*
X0065986Y0175584D01*
X0065986Y0178049D01*
X0065877Y0178456D01*
X0065666Y0178821D01*
X0065368Y0179119D01*
X0065003Y0179330D01*
X0064596Y0179439D01*
X0062427Y0179439D01*
X0062427Y0175584D01*
X0061227Y0175584D01*
X0061227Y0179439D01*
X0059057Y0179439D01*
X0058650Y0179330D01*
X0058285Y0179119D01*
X0057987Y0178821D01*
X0057777Y0178456D01*
X0057718Y0178237D01*
X0057718Y0230766D01*
X0071269Y0230766D01*
X0071319Y0230723D01*
X0071923Y0230766D01*
X0072529Y0230766D01*
X0072576Y0230813D01*
X0073130Y0230852D01*
X0073240Y0230782D01*
X0073775Y0230899D01*
X0074322Y0230938D01*
X0074407Y0231036D01*
X0075013Y0231168D01*
X0075132Y0231114D01*
X0075646Y0231305D01*
X0076181Y0231422D01*
X0076252Y0231532D01*
X0076833Y0231748D01*
X0076958Y0231712D01*
X0077439Y0231974D01*
X0077953Y0232166D01*
X0078007Y0232284D01*
X0078551Y0232582D01*
X0078680Y0232563D01*
X0079119Y0232892D01*
X0079600Y0233154D01*
X0079637Y0233279D01*
X0080133Y0233651D01*
X0080263Y0233651D01*
X0080651Y0234039D01*
X0081090Y0234367D01*
X0081109Y0234496D01*
X0081547Y0234935D01*
X0081676Y0234953D01*
X0082005Y0235392D01*
X0082392Y0235780D01*
X0082392Y0235910D01*
X0082764Y0236406D01*
X0082889Y0236443D01*
X0083152Y0236924D01*
X0083480Y0237363D01*
X0083462Y0237492D01*
X0083759Y0238037D01*
X0083877Y0238091D01*
X0084069Y0238604D01*
X0084332Y0239086D01*
X0084295Y0239211D01*
X0084512Y0239792D01*
X0084621Y0239862D01*
X0084738Y0240398D01*
X0084929Y0240911D01*
X0084875Y0241030D01*
X0085007Y0241636D01*
X0085106Y0241721D01*
X0085145Y0242268D01*
X0085261Y0242804D01*
X0085191Y0242913D01*
X0085230Y0243468D01*
X0085277Y0243514D01*
X0085277Y0244120D01*
X0085320Y0244724D01*
X0085277Y0244774D01*
X0085277Y0258325D01*
X0223809Y0258325D01*
X0223809Y0244774D01*
X0223766Y0244724D01*
X0223809Y0244120D01*
X0223809Y0243514D01*
X0223856Y0243468D01*
X0223896Y0242913D01*
X0223825Y0242804D01*
X0223942Y0242268D01*
X0223981Y0241721D01*
X0224079Y0241636D01*
X0224211Y0241030D01*
X0224157Y0240911D01*
X0224349Y0240398D01*
X0224465Y0239862D01*
X0224575Y0239792D01*
X0224792Y0239211D01*
X0224755Y0239086D01*
X0225018Y0238604D01*
X0225209Y0238091D01*
X0225328Y0238037D01*
X0225625Y0237492D01*
X0225606Y0237363D01*
X0225935Y0236924D01*
X0226198Y0236443D01*
X0226323Y0236406D01*
X0226694Y0235910D01*
X0226694Y0235780D01*
X0227082Y0235392D01*
X0227411Y0234953D01*
X0227539Y0234935D01*
X0227978Y0234496D01*
X0227997Y0234367D01*
X0228435Y0234039D01*
X0228823Y0233651D01*
X0228953Y0233651D01*
X0229450Y0233279D01*
X0229486Y0233154D01*
X0229968Y0232892D01*
X0230407Y0232563D01*
X0230536Y0232582D01*
X0231080Y0232284D01*
X0231134Y0232166D01*
X0231648Y0231974D01*
X0232129Y0231712D01*
X0232254Y0231748D01*
X0232835Y0231532D01*
X0232905Y0231422D01*
X0233441Y0231305D01*
X0233955Y0231114D01*
X0234073Y0231168D01*
X0234679Y0231036D01*
X0234764Y0230938D01*
X0235311Y0230899D01*
X0235847Y0230782D01*
X0235957Y0230852D01*
X0236511Y0230813D01*
X0236558Y0230766D01*
X0237163Y0230766D01*
X0237767Y0230723D01*
X0237817Y0230766D01*
X0251369Y0230766D01*
X0251369Y0210738D01*
X0245694Y0210738D01*
X0245694Y0206785D01*
X0244495Y0206785D01*
X0244495Y0207718D02*
X0245694Y0207718D01*
X0245694Y0208917D02*
X0244495Y0208917D01*
X0244495Y0210115D02*
X0245694Y0210115D01*
X0251369Y0211314D02*
X0237743Y0211314D01*
X0237588Y0212512D02*
X0251369Y0212512D01*
X0251369Y0213711D02*
X0236858Y0213711D01*
X0235659Y0214909D02*
X0251369Y0214909D01*
X0251369Y0216108D02*
X0234461Y0216108D01*
X0233262Y0217306D02*
X0251369Y0217306D01*
X0251369Y0218505D02*
X0232064Y0218505D01*
X0228218Y0213300D02*
X0231343Y0210175D01*
X0231343Y0185638D01*
X0230234Y0184529D01*
X0230009Y0184754D01*
X0214904Y0184754D01*
X0214653Y0184502D01*
X0212029Y0187125D01*
X0202246Y0187125D01*
X0202246Y0188075D01*
X0202246Y0189152D01*
X0202137Y0189559D01*
X0202126Y0189576D01*
X0202246Y0189696D01*
X0202246Y0193300D01*
X0206655Y0193300D01*
X0213609Y0186346D01*
X0214359Y0186036D01*
X0214904Y0185491D01*
X0230009Y0185491D01*
X0230946Y0186428D01*
X0230946Y0191690D01*
X0230009Y0192628D01*
X0216379Y0192628D01*
X0215642Y0193365D01*
X0222072Y0193365D01*
X0222072Y0196549D01*
X0213967Y0196549D01*
X0213967Y0195039D01*
X0210694Y0198313D01*
X0209793Y0199213D01*
X0208617Y0199700D01*
X0204365Y0199700D01*
X0204365Y0205471D01*
X0203878Y0206647D01*
X0200166Y0210360D01*
X0198989Y0210847D01*
X0197716Y0210847D01*
X0196540Y0210360D01*
X0195640Y0209460D01*
X0195153Y0208284D01*
X0195153Y0207011D01*
X0195640Y0205834D01*
X0197965Y0203509D01*
X0197965Y0196694D01*
X0196347Y0195076D01*
X0196083Y0194439D01*
X0195455Y0194439D01*
X0194543Y0193527D01*
X0193631Y0194439D01*
X0187778Y0194439D01*
X0186841Y0193501D01*
X0186841Y0190275D01*
X0181445Y0190275D01*
X0177343Y0186174D01*
X0177343Y0170224D01*
X0173287Y0166167D01*
X0173287Y0166200D01*
X0173287Y0167095D01*
X0173220Y0167344D01*
X0173287Y0167411D01*
X0173287Y0170107D01*
X0172350Y0171044D01*
X0171137Y0171044D01*
X0171137Y0174388D01*
X0172175Y0174388D01*
X0173112Y0175325D01*
X0173112Y0180982D01*
X0172593Y0181500D01*
X0172792Y0181699D01*
X0173003Y0182064D01*
X0173112Y0182470D01*
X0173112Y0184462D01*
X0169928Y0184462D01*
X0169928Y0185231D01*
X0173112Y0185231D01*
X0173112Y0187222D01*
X0173003Y0187629D01*
X0172792Y0187994D01*
X0172494Y0188292D01*
X0172129Y0188503D01*
X0171722Y0188612D01*
X0169928Y0188612D01*
X0169928Y0185231D01*
X0169159Y0185231D01*
X0169159Y0188612D01*
X0167364Y0188612D01*
X0166957Y0188503D01*
X0166743Y0188379D01*
X0166743Y0204662D01*
X0172419Y0204662D01*
X0173356Y0205599D01*
X0173356Y0209090D01*
X0172419Y0210027D01*
X0166743Y0210027D01*
X0166743Y0212142D01*
X0167551Y0212142D01*
X0167581Y0212112D01*
X0168757Y0211625D01*
X0174475Y0211625D01*
X0174475Y0211603D01*
X0174993Y0211085D01*
X0174794Y0210886D01*
X0174584Y0210521D01*
X0174475Y0210114D01*
X0174475Y0208122D01*
X0177659Y0208122D01*
X0177659Y0207354D01*
X0174475Y0207354D01*
X0174475Y0205362D01*
X0174584Y0204955D01*
X0174794Y0204590D01*
X0175092Y0204293D01*
X0175457Y0204082D01*
X0175864Y0203973D01*
X0177659Y0203973D01*
X0177659Y0207354D01*
X0178428Y0207354D01*
X0178428Y0208122D01*
X0181612Y0208122D01*
X0181612Y0210114D01*
X0181503Y0210521D01*
X0181292Y0210886D01*
X0181093Y0211085D01*
X0181612Y0211603D01*
X0181612Y0213300D01*
X0228218Y0213300D01*
X0229005Y0212512D02*
X0181612Y0212512D01*
X0181323Y0211314D02*
X0230204Y0211314D01*
X0231343Y0210115D02*
X0200410Y0210115D01*
X0201609Y0208917D02*
X0231343Y0208917D01*
X0231343Y0207718D02*
X0202807Y0207718D01*
X0203931Y0206520D02*
X0231343Y0206520D01*
X0231343Y0205321D02*
X0204365Y0205321D01*
X0204365Y0204123D02*
X0231343Y0204123D01*
X0231343Y0202924D02*
X0204365Y0202924D01*
X0204365Y0201726D02*
X0231343Y0201726D01*
X0231343Y0200527D02*
X0204365Y0200527D01*
X0209513Y0199329D02*
X0214025Y0199329D01*
X0214076Y0199519D02*
X0213967Y0199112D01*
X0213967Y0197317D01*
X0222072Y0197317D01*
X0222072Y0196549D01*
X0222841Y0196549D01*
X0222841Y0197317D01*
X0230946Y0197317D01*
X0230946Y0199112D01*
X0230837Y0199519D01*
X0230627Y0199884D01*
X0230329Y0200182D01*
X0229964Y0200393D01*
X0229557Y0200502D01*
X0222841Y0200502D01*
X0222841Y0197317D01*
X0222072Y0197317D01*
X0222072Y0200502D01*
X0215356Y0200502D01*
X0214949Y0200393D01*
X0214584Y0200182D01*
X0214287Y0199884D01*
X0214076Y0199519D01*
X0213967Y0198130D02*
X0210876Y0198130D01*
X0212074Y0196932D02*
X0222072Y0196932D01*
X0222841Y0196932D02*
X0231343Y0196932D01*
X0230946Y0196549D02*
X0222841Y0196549D01*
X0222841Y0193365D01*
X0229557Y0193365D01*
X0229964Y0193474D01*
X0230329Y0193684D01*
X0230627Y0193982D01*
X0230837Y0194347D01*
X0230946Y0194754D01*
X0230946Y0196549D01*
X0230946Y0195733D02*
X0231343Y0195733D01*
X0231343Y0194535D02*
X0230888Y0194535D01*
X0231343Y0193336D02*
X0215670Y0193336D01*
X0213967Y0195733D02*
X0213273Y0195733D01*
X0207818Y0192138D02*
X0202246Y0192138D01*
X0202246Y0190939D02*
X0209016Y0190939D01*
X0210215Y0189741D02*
X0202246Y0189741D01*
X0202246Y0188542D02*
X0211413Y0188542D01*
X0212612Y0187344D02*
X0202246Y0187344D01*
X0202246Y0188075D02*
X0198382Y0188075D01*
X0202246Y0188075D01*
X0198382Y0188075D02*
X0198382Y0188075D01*
X0198382Y0184925D02*
X0211118Y0184925D01*
X0214858Y0181185D01*
X0222457Y0181185D01*
X0214765Y0177756D02*
X0184556Y0177756D01*
X0184556Y0176557D02*
X0214582Y0176557D01*
X0212791Y0175359D02*
X0184556Y0175359D01*
X0184556Y0174160D02*
X0187500Y0174160D01*
X0186841Y0172962D02*
X0184556Y0172962D01*
X0184556Y0171763D02*
X0186841Y0171763D01*
X0186841Y0170565D02*
X0184556Y0170565D01*
X0184556Y0169366D02*
X0185236Y0169366D01*
X0187056Y0168075D02*
X0185793Y0166813D01*
X0185793Y0164313D01*
X0180003Y0158523D01*
X0168937Y0158523D01*
X0168937Y0161082D02*
X0176312Y0161082D01*
X0182356Y0167125D01*
X0182356Y0179312D01*
X0184445Y0181402D01*
X0190705Y0181402D01*
X0190705Y0184925D01*
X0190705Y0188075D02*
X0182356Y0188075D01*
X0179543Y0185262D01*
X0179543Y0169313D01*
X0173872Y0163641D01*
X0168937Y0163641D01*
X0168937Y0166200D02*
X0164587Y0166200D01*
X0168937Y0166200D01*
X0168937Y0166200D01*
X0173287Y0166200D01*
X0168937Y0166200D01*
X0168937Y0166200D01*
X0168912Y0166225D01*
X0168443Y0166225D01*
X0168937Y0166200D02*
X0163618Y0166200D01*
X0161543Y0164125D01*
X0161543Y0160125D01*
X0164587Y0159778D02*
X0155002Y0159778D01*
X0155455Y0159325D02*
X0151498Y0163282D01*
X0147311Y0163282D01*
X0165455Y0181425D01*
X0166087Y0182058D01*
X0166294Y0181699D01*
X0166493Y0181500D01*
X0165975Y0180982D01*
X0165975Y0175325D01*
X0166737Y0174563D01*
X0166737Y0171044D01*
X0165524Y0171044D01*
X0165439Y0170959D01*
X0163451Y0170959D01*
X0163307Y0171306D01*
X0162224Y0172389D01*
X0160809Y0172975D01*
X0159277Y0172975D01*
X0157862Y0172389D01*
X0156779Y0171306D01*
X0156193Y0169891D01*
X0156193Y0168359D01*
X0156779Y0166944D01*
X0157862Y0165861D01*
X0159277Y0165275D01*
X0160809Y0165275D01*
X0162224Y0165861D01*
X0162922Y0166559D01*
X0164587Y0166559D01*
X0164587Y0166200D01*
X0164587Y0165304D01*
X0164654Y0165055D01*
X0164587Y0164989D01*
X0164587Y0155605D01*
X0159912Y0155605D01*
X0156743Y0152436D01*
X0156743Y0158036D01*
X0155455Y0159325D01*
X0156200Y0158579D02*
X0164587Y0158579D01*
X0164587Y0157381D02*
X0156743Y0157381D01*
X0156743Y0156182D02*
X0164587Y0156182D01*
X0168937Y0155964D02*
X0181507Y0155964D01*
X0186945Y0161402D01*
X0190705Y0161402D01*
X0190705Y0164925D01*
X0190705Y0168075D02*
X0187056Y0168075D01*
X0190705Y0168075D02*
X0190705Y0171598D01*
X0193910Y0174160D02*
X0195177Y0174160D01*
X0198382Y0171598D02*
X0212142Y0171598D01*
X0213293Y0172750D01*
X0213606Y0173062D01*
X0213854Y0173311D01*
X0222457Y0173311D01*
X0230009Y0169743D02*
X0214904Y0169743D01*
X0214151Y0170496D01*
X0213053Y0169398D01*
X0202180Y0169398D01*
X0202246Y0169152D01*
X0202246Y0168075D01*
X0198382Y0168075D01*
X0198382Y0168075D01*
X0202246Y0168075D01*
X0202246Y0167125D01*
X0213967Y0167125D01*
X0213967Y0168068D01*
X0214904Y0169005D01*
X0230009Y0169005D01*
X0230946Y0168068D01*
X0230946Y0162806D01*
X0230009Y0161869D01*
X0214904Y0161869D01*
X0214047Y0162725D01*
X0202246Y0162725D01*
X0202246Y0161422D01*
X0198402Y0161422D01*
X0198402Y0161381D01*
X0198402Y0158561D01*
X0200856Y0158561D01*
X0201263Y0158670D01*
X0201628Y0158881D01*
X0201926Y0159179D01*
X0202137Y0159544D01*
X0202246Y0159951D01*
X0202246Y0161381D01*
X0198402Y0161381D01*
X0198362Y0161381D01*
X0198362Y0158561D01*
X0195907Y0158561D01*
X0195501Y0158670D01*
X0195136Y0158881D01*
X0194838Y0159179D01*
X0194627Y0159544D01*
X0194568Y0159763D01*
X0194568Y0159499D01*
X0193631Y0158561D01*
X0187778Y0158561D01*
X0187497Y0158843D01*
X0182418Y0153764D01*
X0173287Y0153764D01*
X0173287Y0153045D01*
X0197977Y0153045D01*
X0203406Y0158474D01*
X0204695Y0159763D01*
X0213967Y0159763D01*
X0213967Y0160194D01*
X0214904Y0161131D01*
X0230009Y0161131D01*
X0230946Y0160194D01*
X0230946Y0154932D01*
X0230009Y0153994D01*
X0214904Y0153994D01*
X0213967Y0154932D01*
X0213967Y0155363D01*
X0206518Y0155363D01*
X0200198Y0149044D01*
X0200198Y0147100D01*
X0196049Y0147100D01*
X0196049Y0145900D01*
X0200198Y0145900D01*
X0200198Y0143533D01*
X0200089Y0143127D01*
X0199879Y0142762D01*
X0199581Y0142464D01*
X0199216Y0142253D01*
X0198809Y0142144D01*
X0196049Y0142144D01*
X0196049Y0145900D01*
X0194849Y0145900D01*
X0194849Y0142144D01*
X0192089Y0142144D01*
X0191682Y0142253D01*
X0191317Y0142464D01*
X0191019Y0142762D01*
X0190808Y0143127D01*
X0190699Y0143533D01*
X0190699Y0145900D01*
X0194849Y0145900D01*
X0194849Y0147100D01*
X0190699Y0147100D01*
X0190699Y0148645D01*
X0188387Y0148645D01*
X0188387Y0143081D01*
X0187450Y0142144D01*
X0179825Y0142144D01*
X0178888Y0143081D01*
X0178888Y0146086D01*
X0173287Y0146086D01*
X0173287Y0145727D01*
X0168937Y0145727D01*
X0164587Y0145727D01*
X0164587Y0145368D01*
X0162488Y0145368D01*
X0159431Y0142311D01*
X0159431Y0148901D01*
X0161734Y0151205D01*
X0164587Y0151205D01*
X0164587Y0146939D01*
X0164654Y0146872D01*
X0164587Y0146623D01*
X0164587Y0145727D01*
X0168937Y0145727D01*
X0168937Y0145727D01*
X0168937Y0145727D01*
X0164441Y0145727D01*
X0162043Y0148125D01*
X0160719Y0150190D02*
X0164587Y0150190D01*
X0164587Y0148991D02*
X0159521Y0148991D01*
X0159431Y0147793D02*
X0164587Y0147793D01*
X0164587Y0146594D02*
X0159431Y0146594D01*
X0159431Y0145396D02*
X0164587Y0145396D01*
X0163399Y0143168D02*
X0159231Y0139000D01*
X0159231Y0131813D01*
X0162981Y0128062D01*
X0207981Y0128062D01*
X0209543Y0126500D01*
X0209543Y0111812D01*
X0207981Y0110250D01*
X0202668Y0110250D01*
X0201517Y0111402D01*
X0198382Y0111402D01*
X0197890Y0106500D02*
X0205793Y0106500D01*
X0211197Y0106500D01*
X0215793Y0101904D01*
X0215793Y0099312D01*
X0215793Y0099177D01*
X0216059Y0099177D01*
X0215929Y0099177D02*
X0215793Y0099312D01*
X0216059Y0096618D02*
X0221224Y0096618D01*
X0221224Y0105757D01*
X0220481Y0106500D01*
X0217890Y0106500D01*
X0221458Y0108634D02*
X0221458Y0109328D01*
X0220521Y0110265D01*
X0215259Y0110265D01*
X0214543Y0109550D01*
X0213828Y0110265D01*
X0211107Y0110265D01*
X0211743Y0110901D01*
X0211743Y0123867D01*
X0213967Y0123867D01*
X0213967Y0123436D01*
X0214904Y0122498D01*
X0230009Y0122498D01*
X0230946Y0123436D01*
X0230946Y0128698D01*
X0230009Y0129635D01*
X0214904Y0129635D01*
X0213967Y0128698D01*
X0213967Y0128267D01*
X0210888Y0128267D01*
X0210467Y0128687D01*
X0212580Y0130800D01*
X0213305Y0130800D01*
X0214133Y0131143D01*
X0214904Y0130372D01*
X0230009Y0130372D01*
X0230946Y0131310D01*
X0230946Y0136572D01*
X0230009Y0137509D01*
X0214904Y0137509D01*
X0214217Y0136822D01*
X0213305Y0137200D01*
X0212032Y0137200D01*
X0210856Y0136713D01*
X0209955Y0135813D01*
X0209468Y0134637D01*
X0209468Y0133911D01*
X0208320Y0132762D01*
X0206730Y0132762D01*
X0212580Y0138613D01*
X0213305Y0138613D01*
X0214177Y0138974D01*
X0214904Y0138246D01*
X0230009Y0138246D01*
X0230946Y0139184D01*
X0230946Y0144446D01*
X0230009Y0145383D01*
X0214904Y0145383D01*
X0214173Y0144653D01*
X0213305Y0145012D01*
X0212032Y0145012D01*
X0211089Y0144622D01*
X0212580Y0146113D01*
X0213305Y0146113D01*
X0214441Y0146583D01*
X0214904Y0146120D01*
X0230009Y0146120D01*
X0230946Y0147058D01*
X0230946Y0152320D01*
X0230009Y0153257D01*
X0214904Y0153257D01*
X0213967Y0152320D01*
X0213967Y0152238D01*
X0213305Y0152512D01*
X0212032Y0152512D01*
X0210856Y0152025D01*
X0209955Y0151125D01*
X0209468Y0149949D01*
X0209468Y0149224D01*
X0197936Y0137691D01*
X0173287Y0137691D01*
X0173287Y0144516D01*
X0173220Y0144583D01*
X0173287Y0144832D01*
X0173287Y0145727D01*
X0168937Y0145727D01*
X0168937Y0143168D02*
X0163399Y0143168D01*
X0161317Y0144197D02*
X0159431Y0144197D01*
X0159431Y0142999D02*
X0160118Y0142999D01*
X0164278Y0140609D02*
X0161731Y0138063D01*
X0161731Y0132750D01*
X0163918Y0130562D01*
X0209231Y0130562D01*
X0212668Y0134000D01*
X0212727Y0133941D01*
X0222457Y0133941D01*
X0222457Y0126067D02*
X0209976Y0126067D01*
X0209543Y0126500D01*
X0210538Y0128617D02*
X0213967Y0128617D01*
X0213821Y0131014D02*
X0214263Y0131014D01*
X0211595Y0129815D02*
X0232143Y0129815D01*
X0232143Y0128617D02*
X0230946Y0128617D01*
X0230946Y0127418D02*
X0232143Y0127418D01*
X0232143Y0126220D02*
X0230946Y0126220D01*
X0230946Y0125021D02*
X0232143Y0125021D01*
X0232143Y0123823D02*
X0230946Y0123823D01*
X0230135Y0122624D02*
X0232143Y0122624D01*
X0232143Y0121426D02*
X0211743Y0121426D01*
X0211743Y0122624D02*
X0214779Y0122624D01*
X0213967Y0123823D02*
X0211743Y0123823D01*
X0211743Y0120227D02*
X0232143Y0120227D01*
X0232143Y0119029D02*
X0211743Y0119029D01*
X0211743Y0117830D02*
X0232143Y0117830D01*
X0232143Y0116632D02*
X0211743Y0116632D01*
X0211743Y0115433D02*
X0232143Y0115433D01*
X0232143Y0114234D02*
X0211743Y0114234D01*
X0211743Y0113036D02*
X0232143Y0113036D01*
X0232143Y0111837D02*
X0211743Y0111837D01*
X0211481Y0110639D02*
X0232143Y0110639D01*
X0232143Y0109440D02*
X0221346Y0109440D01*
X0221458Y0108634D02*
X0222681Y0107411D01*
X0223424Y0106668D01*
X0223424Y0095962D01*
X0226031Y0098569D01*
X0226031Y0099012D01*
X0226518Y0100188D01*
X0227418Y0101088D01*
X0228594Y0101575D01*
X0229037Y0101575D01*
X0232143Y0104682D01*
X0232143Y0170506D01*
X0231738Y0170911D01*
X0230946Y0170911D01*
X0230946Y0170680D01*
X0230009Y0169743D01*
X0230831Y0170565D02*
X0232085Y0170565D01*
X0232143Y0169366D02*
X0202188Y0169366D01*
X0202246Y0168168D02*
X0214066Y0168168D01*
X0214598Y0162175D02*
X0202246Y0162175D01*
X0202246Y0160976D02*
X0214749Y0160976D01*
X0213967Y0159778D02*
X0202199Y0159778D01*
X0200923Y0158579D02*
X0203511Y0158579D01*
X0202313Y0157381D02*
X0186035Y0157381D01*
X0184837Y0156182D02*
X0201114Y0156182D01*
X0199916Y0154984D02*
X0183638Y0154984D01*
X0182440Y0153785D02*
X0198717Y0153785D01*
X0198889Y0150845D02*
X0205606Y0157563D01*
X0222457Y0157563D01*
X0221945Y0164925D02*
X0222457Y0165437D01*
X0221945Y0164925D02*
X0198382Y0164925D01*
X0198362Y0160976D02*
X0198402Y0160976D01*
X0198362Y0159778D02*
X0198402Y0159778D01*
X0198362Y0158579D02*
X0198402Y0158579D01*
X0195840Y0158579D02*
X0193649Y0158579D01*
X0187760Y0158579D02*
X0187234Y0158579D01*
X0198889Y0150845D02*
X0168937Y0150845D01*
X0168937Y0148286D02*
X0182476Y0148286D01*
X0183638Y0146500D01*
X0188387Y0146594D02*
X0194849Y0146594D01*
X0194849Y0145396D02*
X0196049Y0145396D01*
X0196049Y0146594D02*
X0206839Y0146594D01*
X0205640Y0145396D02*
X0200198Y0145396D01*
X0200198Y0144197D02*
X0204442Y0144197D01*
X0203243Y0142999D02*
X0200016Y0142999D01*
X0202045Y0141800D02*
X0173287Y0141800D01*
X0173287Y0140602D02*
X0200846Y0140602D01*
X0199648Y0139403D02*
X0173287Y0139403D01*
X0173287Y0138205D02*
X0198449Y0138205D01*
X0198847Y0135491D02*
X0212668Y0149313D01*
X0213045Y0149689D01*
X0222457Y0149689D01*
X0230946Y0150190D02*
X0232143Y0150190D01*
X0232143Y0151388D02*
X0230946Y0151388D01*
X0230680Y0152587D02*
X0232143Y0152587D01*
X0232143Y0153785D02*
X0204940Y0153785D01*
X0203741Y0152587D02*
X0214234Y0152587D01*
X0213967Y0154984D02*
X0206138Y0154984D01*
X0202543Y0151388D02*
X0210219Y0151388D01*
X0209568Y0150190D02*
X0201344Y0150190D01*
X0200198Y0148991D02*
X0209236Y0148991D01*
X0208037Y0147793D02*
X0200198Y0147793D01*
X0196049Y0144197D02*
X0194849Y0144197D01*
X0194849Y0142999D02*
X0196049Y0142999D01*
X0190882Y0142999D02*
X0188305Y0142999D01*
X0188387Y0144197D02*
X0190699Y0144197D01*
X0190699Y0145396D02*
X0188387Y0145396D01*
X0188387Y0147793D02*
X0190699Y0147793D01*
X0178888Y0145396D02*
X0173287Y0145396D01*
X0173287Y0144197D02*
X0178888Y0144197D01*
X0178971Y0142999D02*
X0173287Y0142999D01*
X0168937Y0140609D02*
X0164278Y0140609D01*
X0165156Y0138050D02*
X0163918Y0136813D01*
X0163918Y0134313D01*
X0165168Y0133063D01*
X0203918Y0133063D01*
X0212668Y0141813D01*
X0212671Y0141815D01*
X0222457Y0141815D01*
X0230946Y0141800D02*
X0232143Y0141800D01*
X0232143Y0140602D02*
X0230946Y0140602D01*
X0230946Y0139403D02*
X0232143Y0139403D01*
X0232143Y0138205D02*
X0212172Y0138205D01*
X0211564Y0137006D02*
X0210973Y0137006D01*
X0209953Y0135808D02*
X0209775Y0135808D01*
X0209468Y0134609D02*
X0208576Y0134609D01*
X0208968Y0133411D02*
X0207378Y0133411D01*
X0213773Y0137006D02*
X0214401Y0137006D01*
X0211863Y0145396D02*
X0232143Y0145396D01*
X0232143Y0146594D02*
X0230483Y0146594D01*
X0230946Y0147793D02*
X0232143Y0147793D01*
X0232143Y0148991D02*
X0230946Y0148991D01*
X0230946Y0144197D02*
X0232143Y0144197D01*
X0232143Y0142999D02*
X0230946Y0142999D01*
X0230512Y0137006D02*
X0232143Y0137006D01*
X0232143Y0135808D02*
X0230946Y0135808D01*
X0230946Y0134609D02*
X0232143Y0134609D01*
X0232143Y0133411D02*
X0230946Y0133411D01*
X0230946Y0132212D02*
X0232143Y0132212D01*
X0232143Y0131014D02*
X0230650Y0131014D01*
X0236943Y0113036D02*
X0237031Y0113036D01*
X0232143Y0108242D02*
X0221850Y0108242D01*
X0223049Y0107043D02*
X0232143Y0107043D01*
X0232143Y0105845D02*
X0223424Y0105845D01*
X0223424Y0104646D02*
X0232108Y0104646D01*
X0230910Y0103448D02*
X0223424Y0103448D01*
X0223424Y0102249D02*
X0229711Y0102249D01*
X0227381Y0101051D02*
X0223424Y0101051D01*
X0223424Y0099852D02*
X0226379Y0099852D01*
X0226031Y0098654D02*
X0223424Y0098654D01*
X0223424Y0097455D02*
X0224917Y0097455D01*
X0223719Y0096257D02*
X0223424Y0096257D01*
X0219607Y0091500D02*
X0219543Y0091436D01*
X0219479Y0091500D01*
X0216059Y0091500D01*
X0216059Y0094059D02*
X0207102Y0094059D01*
X0201984Y0088941D01*
X0193028Y0088941D01*
X0186477Y0088941D01*
X0181731Y0093687D01*
X0181731Y0105562D01*
X0175793Y0111500D01*
X0165168Y0111500D01*
X0157231Y0119437D01*
X0157231Y0149813D01*
X0160823Y0153405D01*
X0168937Y0153405D01*
X0159291Y0154984D02*
X0156743Y0154984D01*
X0156743Y0153785D02*
X0158092Y0153785D01*
X0156894Y0152587D02*
X0156743Y0152587D01*
X0154543Y0157125D02*
X0154543Y0114000D01*
X0158480Y0110063D01*
X0158480Y0093587D01*
X0154912Y0093860D02*
X0150991Y0093860D01*
X0150991Y0093971D02*
X0154175Y0093971D01*
X0154175Y0100687D01*
X0154066Y0101094D01*
X0153855Y0101459D01*
X0153557Y0101757D01*
X0153192Y0101967D01*
X0152785Y0102076D01*
X0150991Y0102076D01*
X0150991Y0093971D01*
X0150991Y0093202D01*
X0154175Y0093202D01*
X0154175Y0086486D01*
X0154066Y0086079D01*
X0153855Y0085714D01*
X0153557Y0085417D01*
X0153192Y0085206D01*
X0152785Y0085097D01*
X0150991Y0085097D01*
X0150991Y0093202D01*
X0150222Y0093202D01*
X0150222Y0085097D01*
X0148427Y0085097D01*
X0148020Y0085206D01*
X0147655Y0085417D01*
X0147357Y0085714D01*
X0147147Y0086079D01*
X0147038Y0086486D01*
X0147038Y0093202D01*
X0150222Y0093202D01*
X0150222Y0093971D01*
X0150222Y0102076D01*
X0148427Y0102076D01*
X0148020Y0101967D01*
X0147655Y0101757D01*
X0147357Y0101459D01*
X0147147Y0101094D01*
X0147038Y0100687D01*
X0147038Y0093971D01*
X0150222Y0093971D01*
X0150991Y0093971D01*
X0150222Y0093860D02*
X0146301Y0093860D01*
X0146301Y0095058D02*
X0147038Y0095058D01*
X0147038Y0096257D02*
X0146301Y0096257D01*
X0146301Y0097455D02*
X0147038Y0097455D01*
X0147038Y0098654D02*
X0146301Y0098654D01*
X0146301Y0099852D02*
X0147038Y0099852D01*
X0147135Y0101051D02*
X0146301Y0101051D01*
X0145932Y0102249D02*
X0156280Y0102249D01*
X0156280Y0103448D02*
X0145932Y0103448D01*
X0145932Y0104646D02*
X0156280Y0104646D01*
X0153485Y0105845D02*
X0145932Y0105845D01*
X0145932Y0107043D02*
X0152569Y0107043D01*
X0152281Y0108242D02*
X0145868Y0108242D01*
X0145868Y0109440D02*
X0151304Y0109440D01*
X0150106Y0110639D02*
X0145868Y0110639D01*
X0145868Y0111837D02*
X0149843Y0111837D01*
X0149843Y0113036D02*
X0146850Y0113036D01*
X0148048Y0114234D02*
X0149843Y0114234D01*
X0149843Y0115433D02*
X0149247Y0115433D01*
X0152043Y0111812D02*
X0155481Y0108375D01*
X0160680Y0108242D02*
X0175940Y0108242D01*
X0177139Y0107043D02*
X0168187Y0107043D01*
X0168231Y0107025D02*
X0167055Y0107512D01*
X0165782Y0107512D01*
X0164606Y0107025D01*
X0163705Y0106125D01*
X0163218Y0104949D01*
X0163218Y0103676D01*
X0163705Y0102500D01*
X0164129Y0102076D01*
X0163723Y0102076D01*
X0162786Y0101139D01*
X0162786Y0086034D01*
X0163723Y0085097D01*
X0168986Y0085097D01*
X0169923Y0086034D01*
X0169923Y0101139D01*
X0168986Y0102076D01*
X0168708Y0102076D01*
X0169131Y0102500D01*
X0169618Y0103676D01*
X0169618Y0104949D01*
X0169131Y0106125D01*
X0168231Y0107025D01*
X0169247Y0105845D02*
X0178337Y0105845D01*
X0179531Y0104646D02*
X0169618Y0104646D01*
X0169524Y0103448D02*
X0179531Y0103448D01*
X0179531Y0102249D02*
X0168881Y0102249D01*
X0169923Y0101051D02*
X0170660Y0101051D01*
X0170660Y0101139D02*
X0171597Y0102076D01*
X0176860Y0102076D01*
X0177797Y0101139D01*
X0177797Y0086034D01*
X0176860Y0085097D01*
X0171597Y0085097D01*
X0170660Y0086034D01*
X0170660Y0101139D01*
X0170660Y0099852D02*
X0169923Y0099852D01*
X0169923Y0098654D02*
X0170660Y0098654D01*
X0170660Y0097455D02*
X0169923Y0097455D01*
X0169923Y0096257D02*
X0170660Y0096257D01*
X0170660Y0095058D02*
X0169923Y0095058D01*
X0169923Y0093860D02*
X0170660Y0093860D01*
X0170660Y0092661D02*
X0169923Y0092661D01*
X0169923Y0091463D02*
X0170660Y0091463D01*
X0170660Y0090264D02*
X0169923Y0090264D01*
X0169923Y0089066D02*
X0170660Y0089066D01*
X0170660Y0087867D02*
X0169923Y0087867D01*
X0169923Y0086669D02*
X0170660Y0086669D01*
X0171224Y0085470D02*
X0169359Y0085470D01*
X0177233Y0085470D02*
X0189656Y0085470D01*
X0189656Y0086669D02*
X0177797Y0086669D01*
X0177797Y0087867D02*
X0184440Y0087867D01*
X0183241Y0089066D02*
X0177797Y0089066D01*
X0177797Y0090264D02*
X0182043Y0090264D01*
X0180844Y0091463D02*
X0177797Y0091463D01*
X0177797Y0092661D02*
X0179646Y0092661D01*
X0179531Y0093860D02*
X0177797Y0093860D01*
X0177797Y0095058D02*
X0179531Y0095058D01*
X0179531Y0096257D02*
X0177797Y0096257D01*
X0177797Y0097455D02*
X0179531Y0097455D01*
X0179531Y0098654D02*
X0177797Y0098654D01*
X0177797Y0099852D02*
X0179531Y0099852D01*
X0179531Y0101051D02*
X0177797Y0101051D01*
X0184856Y0099000D02*
X0187238Y0096618D01*
X0193028Y0096618D01*
X0193028Y0094059D02*
X0186047Y0094059D01*
X0185793Y0094312D01*
X0193028Y0091500D02*
X0197356Y0091500D01*
X0198606Y0092750D01*
X0198606Y0098375D01*
X0197804Y0099177D01*
X0193028Y0099177D01*
X0195462Y0101466D02*
X0190593Y0101466D01*
X0189656Y0100529D01*
X0189656Y0098818D01*
X0188149Y0098818D01*
X0187056Y0099911D01*
X0187056Y0109026D01*
X0187185Y0109155D01*
X0187480Y0108860D01*
X0187431Y0108679D01*
X0187431Y0106884D01*
X0190813Y0106884D01*
X0190813Y0106116D01*
X0191581Y0106116D01*
X0191581Y0102931D01*
X0193573Y0102931D01*
X0193980Y0103041D01*
X0194345Y0103251D01*
X0194543Y0103450D01*
X0195062Y0102931D01*
X0200718Y0102931D01*
X0201655Y0103869D01*
X0201655Y0104300D01*
X0203468Y0104300D01*
X0203981Y0103787D01*
X0205157Y0103300D01*
X0206430Y0103300D01*
X0207606Y0103787D01*
X0207628Y0103810D01*
X0207628Y0103672D01*
X0208566Y0102735D01*
X0211851Y0102735D01*
X0213372Y0101214D01*
X0212687Y0100529D01*
X0212687Y0096259D01*
X0211015Y0096259D01*
X0211319Y0096562D01*
X0211806Y0097738D01*
X0211806Y0099012D01*
X0211319Y0100188D01*
X0210418Y0101088D01*
X0209242Y0101575D01*
X0207969Y0101575D01*
X0206793Y0101088D01*
X0206280Y0100575D01*
X0199517Y0100575D01*
X0198715Y0101377D01*
X0195551Y0101377D01*
X0195462Y0101466D01*
X0194545Y0103448D02*
X0194541Y0103448D01*
X0191581Y0103448D02*
X0190813Y0103448D01*
X0190813Y0102931D02*
X0190813Y0106116D01*
X0187431Y0106116D01*
X0187431Y0104321D01*
X0187541Y0103914D01*
X0187751Y0103549D01*
X0188049Y0103251D01*
X0188414Y0103041D01*
X0188821Y0102931D01*
X0190813Y0102931D01*
X0190813Y0104646D02*
X0191581Y0104646D01*
X0191581Y0105845D02*
X0190813Y0105845D01*
X0187431Y0105845D02*
X0187056Y0105845D01*
X0187056Y0107043D02*
X0187431Y0107043D01*
X0187431Y0108242D02*
X0187056Y0108242D01*
X0184856Y0109937D02*
X0184856Y0099000D01*
X0187115Y0099852D02*
X0189656Y0099852D01*
X0190178Y0101051D02*
X0187056Y0101051D01*
X0187056Y0102249D02*
X0212336Y0102249D01*
X0213209Y0101051D02*
X0210455Y0101051D01*
X0211458Y0099852D02*
X0212687Y0099852D01*
X0212687Y0098654D02*
X0211806Y0098654D01*
X0211689Y0097455D02*
X0212687Y0097455D01*
X0216059Y0096618D02*
X0216059Y0094059D01*
X0219543Y0091436D02*
X0219543Y0084313D01*
X0219054Y0083823D01*
X0216059Y0083823D01*
X0216059Y0086382D02*
X0210363Y0086382D01*
X0208606Y0084625D01*
X0211427Y0083073D02*
X0212687Y0083073D01*
X0213284Y0081875D02*
X0210328Y0081875D01*
X0206884Y0081875D02*
X0202828Y0081875D01*
X0203927Y0083073D02*
X0205785Y0083073D01*
X0205406Y0084272D02*
X0204306Y0084272D01*
X0205062Y0085470D02*
X0205492Y0085470D01*
X0205422Y0088941D02*
X0201106Y0084625D01*
X0198624Y0086669D02*
X0196399Y0086669D01*
X0196399Y0085470D02*
X0197992Y0085470D01*
X0197906Y0084272D02*
X0196399Y0084272D01*
X0196399Y0083073D02*
X0198285Y0083073D01*
X0199384Y0081875D02*
X0195803Y0081875D01*
X0193028Y0081875D02*
X0193027Y0081875D01*
X0193027Y0083073D02*
X0193028Y0083073D01*
X0193028Y0086382D02*
X0193028Y0088941D01*
X0198606Y0098375D02*
X0208606Y0098375D01*
X0206756Y0101051D02*
X0199041Y0101051D01*
X0201234Y0103448D02*
X0204800Y0103448D01*
X0206787Y0103448D02*
X0207852Y0103448D01*
X0204543Y0114312D02*
X0203931Y0114925D01*
X0198382Y0114925D01*
X0198382Y0118075D02*
X0202056Y0118075D01*
X0202981Y0118062D01*
X0205319Y0120250D02*
X0205694Y0120625D01*
X0206181Y0121801D01*
X0206181Y0123074D01*
X0205694Y0124250D01*
X0204793Y0125150D01*
X0203617Y0125637D01*
X0202344Y0125637D01*
X0201168Y0125150D01*
X0200456Y0124439D01*
X0195455Y0124439D01*
X0194543Y0123527D01*
X0193631Y0124439D01*
X0187778Y0124439D01*
X0187138Y0123798D01*
X0177480Y0123798D01*
X0174257Y0120575D01*
X0172968Y0119286D01*
X0172968Y0116950D01*
X0172455Y0116438D01*
X0171968Y0115262D01*
X0171968Y0113988D01*
X0172088Y0113700D01*
X0166080Y0113700D01*
X0159431Y0120349D01*
X0159431Y0128501D01*
X0160781Y0127151D01*
X0162070Y0125862D01*
X0207070Y0125862D01*
X0207343Y0125589D01*
X0207343Y0115915D01*
X0207256Y0116125D01*
X0206356Y0117025D01*
X0206065Y0117146D01*
X0206181Y0117426D01*
X0206181Y0118699D01*
X0205694Y0119875D01*
X0205319Y0120250D01*
X0205342Y0120227D02*
X0207343Y0120227D01*
X0207343Y0119029D02*
X0206044Y0119029D01*
X0206181Y0117830D02*
X0207343Y0117830D01*
X0207343Y0116632D02*
X0206750Y0116632D01*
X0207343Y0121426D02*
X0206025Y0121426D01*
X0206181Y0122624D02*
X0207343Y0122624D01*
X0207343Y0123823D02*
X0205871Y0123823D01*
X0204923Y0125021D02*
X0207343Y0125021D01*
X0202981Y0122437D02*
X0202142Y0121598D01*
X0198382Y0121598D01*
X0194839Y0123823D02*
X0194247Y0123823D01*
X0190705Y0121598D02*
X0178392Y0121598D01*
X0175168Y0118375D01*
X0175168Y0114625D01*
X0172649Y0116632D02*
X0163148Y0116632D01*
X0161950Y0117830D02*
X0172968Y0117830D01*
X0172968Y0119029D02*
X0160751Y0119029D01*
X0159553Y0120227D02*
X0173909Y0120227D01*
X0175108Y0121426D02*
X0159431Y0121426D01*
X0159431Y0122624D02*
X0176306Y0122624D01*
X0183306Y0118075D02*
X0179856Y0114625D01*
X0184543Y0114625D02*
X0184844Y0114925D01*
X0190705Y0114925D01*
X0190705Y0118075D02*
X0183306Y0118075D01*
X0187162Y0123823D02*
X0159431Y0123823D01*
X0159431Y0125021D02*
X0201039Y0125021D01*
X0198847Y0135491D02*
X0168937Y0135491D01*
X0168937Y0138050D02*
X0165156Y0138050D01*
X0149843Y0139270D02*
X0149224Y0139889D01*
X0147809Y0140475D01*
X0146277Y0140475D01*
X0145735Y0140250D01*
X0144500Y0140250D01*
X0144500Y0141957D01*
X0144500Y0149634D01*
X0144433Y0149701D01*
X0144500Y0149950D01*
X0144500Y0150845D01*
X0140150Y0150845D01*
X0140150Y0150846D01*
X0140150Y0150846D01*
X0140150Y0153404D01*
X0140150Y0153404D01*
X0140150Y0153405D01*
X0140150Y0153405D01*
X0140150Y0155963D01*
X0140150Y0155963D01*
X0140150Y0155964D02*
X0140150Y0155964D01*
X0144500Y0155964D01*
X0144500Y0156323D01*
X0147734Y0156323D01*
X0149843Y0154214D01*
X0149843Y0139270D01*
X0149843Y0139403D02*
X0149710Y0139403D01*
X0149843Y0140602D02*
X0144500Y0140602D01*
X0144500Y0141800D02*
X0149843Y0141800D01*
X0149843Y0142999D02*
X0144500Y0142999D01*
X0144500Y0144197D02*
X0149843Y0144197D01*
X0149843Y0145396D02*
X0144500Y0145396D01*
X0144500Y0146594D02*
X0149843Y0146594D01*
X0149843Y0147793D02*
X0144500Y0147793D01*
X0144500Y0148991D02*
X0149843Y0148991D01*
X0149843Y0150190D02*
X0144500Y0150190D01*
X0144500Y0150846D02*
X0144500Y0151741D01*
X0144397Y0152125D01*
X0144500Y0152509D01*
X0144500Y0153404D01*
X0140150Y0153404D01*
X0140150Y0153130D01*
X0140150Y0150846D01*
X0144500Y0150846D01*
X0144500Y0151388D02*
X0149843Y0151388D01*
X0149843Y0152587D02*
X0144500Y0152587D01*
X0144500Y0153405D02*
X0144500Y0154300D01*
X0144397Y0154684D01*
X0144500Y0155068D01*
X0144500Y0155964D01*
X0140150Y0155964D01*
X0135782Y0155964D01*
X0135743Y0155925D01*
X0145743Y0155925D01*
X0144500Y0156182D02*
X0147875Y0156182D01*
X0149073Y0154984D02*
X0144477Y0154984D01*
X0144500Y0153785D02*
X0149843Y0153785D01*
X0152043Y0155125D02*
X0148646Y0158523D01*
X0140150Y0158523D01*
X0140150Y0161082D02*
X0150587Y0161082D01*
X0154543Y0157125D01*
X0152043Y0155125D02*
X0152043Y0111812D01*
X0156743Y0115433D02*
X0158124Y0115433D01*
X0157420Y0114234D02*
X0159323Y0114234D01*
X0158619Y0113036D02*
X0160521Y0113036D01*
X0159817Y0111837D02*
X0161720Y0111837D01*
X0160680Y0110639D02*
X0162918Y0110639D01*
X0164117Y0109440D02*
X0160680Y0109440D01*
X0160680Y0107043D02*
X0164649Y0107043D01*
X0163589Y0105845D02*
X0160680Y0105845D01*
X0160680Y0104646D02*
X0163218Y0104646D01*
X0163313Y0103448D02*
X0160680Y0103448D01*
X0160680Y0102249D02*
X0163956Y0102249D01*
X0162786Y0101051D02*
X0162049Y0101051D01*
X0162049Y0099852D02*
X0162786Y0099852D01*
X0162786Y0098654D02*
X0162049Y0098654D01*
X0162049Y0097455D02*
X0162786Y0097455D01*
X0162786Y0096257D02*
X0162049Y0096257D01*
X0162049Y0095058D02*
X0162786Y0095058D01*
X0162786Y0093860D02*
X0162049Y0093860D01*
X0162049Y0092661D02*
X0162786Y0092661D01*
X0162786Y0091463D02*
X0162049Y0091463D01*
X0162049Y0090264D02*
X0162786Y0090264D01*
X0162786Y0089066D02*
X0162049Y0089066D01*
X0162049Y0087867D02*
X0162786Y0087867D01*
X0162786Y0086669D02*
X0162049Y0086669D01*
X0161485Y0085470D02*
X0163350Y0085470D01*
X0155476Y0085470D02*
X0153611Y0085470D01*
X0154175Y0086669D02*
X0154912Y0086669D01*
X0154912Y0087867D02*
X0154175Y0087867D01*
X0154175Y0089066D02*
X0154912Y0089066D01*
X0154912Y0090264D02*
X0154175Y0090264D01*
X0154175Y0091463D02*
X0154912Y0091463D01*
X0154912Y0092661D02*
X0154175Y0092661D01*
X0154175Y0095058D02*
X0154912Y0095058D01*
X0154912Y0096257D02*
X0154175Y0096257D01*
X0154175Y0097455D02*
X0154912Y0097455D01*
X0154912Y0098654D02*
X0154175Y0098654D01*
X0154175Y0099852D02*
X0154912Y0099852D01*
X0154912Y0101051D02*
X0154077Y0101051D01*
X0150991Y0101051D02*
X0150222Y0101051D01*
X0150222Y0099852D02*
X0150991Y0099852D01*
X0150991Y0098654D02*
X0150222Y0098654D01*
X0150222Y0097455D02*
X0150991Y0097455D01*
X0150991Y0096257D02*
X0150222Y0096257D01*
X0150222Y0095058D02*
X0150991Y0095058D01*
X0150991Y0092661D02*
X0150222Y0092661D01*
X0150222Y0091463D02*
X0150991Y0091463D01*
X0150991Y0090264D02*
X0150222Y0090264D01*
X0150222Y0089066D02*
X0150991Y0089066D01*
X0150991Y0087867D02*
X0150222Y0087867D01*
X0150222Y0086669D02*
X0150991Y0086669D01*
X0150991Y0085470D02*
X0150222Y0085470D01*
X0147602Y0085470D02*
X0145737Y0085470D01*
X0146301Y0086669D02*
X0147038Y0086669D01*
X0147038Y0087867D02*
X0146301Y0087867D01*
X0146301Y0089066D02*
X0147038Y0089066D01*
X0147038Y0090264D02*
X0146301Y0090264D01*
X0146301Y0091463D02*
X0147038Y0091463D01*
X0147038Y0092661D02*
X0146301Y0092661D01*
X0139164Y0092661D02*
X0138427Y0092661D01*
X0138427Y0091463D02*
X0139164Y0091463D01*
X0139164Y0090264D02*
X0138427Y0090264D01*
X0138427Y0089066D02*
X0139164Y0089066D01*
X0139164Y0087867D02*
X0138427Y0087867D01*
X0138427Y0086669D02*
X0139164Y0086669D01*
X0139728Y0085470D02*
X0137863Y0085470D01*
X0138427Y0093860D02*
X0139164Y0093860D01*
X0139164Y0095058D02*
X0138427Y0095058D01*
X0138427Y0096257D02*
X0139164Y0096257D01*
X0139164Y0097455D02*
X0138427Y0097455D01*
X0138427Y0098654D02*
X0139164Y0098654D01*
X0139164Y0099852D02*
X0138427Y0099852D01*
X0138427Y0101051D02*
X0139164Y0101051D01*
X0139532Y0102249D02*
X0137058Y0102249D01*
X0137058Y0103448D02*
X0139532Y0103448D01*
X0139532Y0104646D02*
X0137058Y0104646D01*
X0137058Y0105845D02*
X0139476Y0105845D01*
X0139468Y0107043D02*
X0137058Y0107043D01*
X0137058Y0108242D02*
X0139468Y0108242D01*
X0139468Y0109440D02*
X0137058Y0109440D01*
X0137058Y0110639D02*
X0139468Y0110639D01*
X0139468Y0111837D02*
X0137058Y0111837D01*
X0137058Y0113036D02*
X0139468Y0113036D01*
X0139559Y0114234D02*
X0137058Y0114234D01*
X0137058Y0115433D02*
X0140196Y0115433D01*
X0141394Y0116632D02*
X0137786Y0116632D01*
X0138985Y0117830D02*
X0142593Y0117830D01*
X0141597Y0119029D02*
X0143791Y0119029D01*
X0144103Y0120227D02*
X0142480Y0120227D01*
X0142743Y0121426D02*
X0144103Y0121426D01*
X0144103Y0122624D02*
X0142541Y0122624D01*
X0141746Y0123823D02*
X0144103Y0123823D01*
X0139543Y0121500D02*
X0134858Y0116815D01*
X0134858Y0106500D01*
X0134858Y0093587D01*
X0131290Y0093860D02*
X0057718Y0093860D01*
X0057718Y0095058D02*
X0131290Y0095058D01*
X0131290Y0096257D02*
X0057718Y0096257D01*
X0057718Y0097455D02*
X0131290Y0097455D01*
X0131290Y0098654D02*
X0057718Y0098654D01*
X0057718Y0099852D02*
X0131290Y0099852D01*
X0131290Y0101051D02*
X0057718Y0101051D01*
X0057718Y0102249D02*
X0132658Y0102249D01*
X0132658Y0103448D02*
X0121234Y0103448D01*
X0117890Y0106500D02*
X0134858Y0106500D01*
X0132658Y0109440D02*
X0121346Y0109440D01*
X0114545Y0103448D02*
X0114541Y0103448D01*
X0111197Y0106500D02*
X0104543Y0106500D01*
X0103280Y0109440D02*
X0057718Y0109440D01*
X0057718Y0108242D02*
X0101801Y0108242D01*
X0101343Y0107043D02*
X0057718Y0107043D01*
X0057718Y0105845D02*
X0101351Y0105845D01*
X0101871Y0104646D02*
X0057718Y0104646D01*
X0057718Y0103448D02*
X0103550Y0103448D01*
X0105537Y0103448D02*
X0107852Y0103448D01*
X0107741Y0109440D02*
X0105806Y0109440D01*
X0101722Y0126888D02*
X0099928Y0126888D01*
X0099928Y0130269D01*
X0099928Y0131038D01*
X0103112Y0131038D01*
X0103112Y0133030D01*
X0103003Y0133436D01*
X0102792Y0133801D01*
X0102593Y0134000D01*
X0103112Y0134518D01*
X0103112Y0140175D01*
X0102175Y0141112D01*
X0101743Y0141112D01*
X0101743Y0141675D01*
X0102256Y0142187D01*
X0102743Y0143363D01*
X0102743Y0144637D01*
X0102256Y0145813D01*
X0101356Y0146713D01*
X0100180Y0147200D01*
X0098907Y0147200D01*
X0097731Y0146713D01*
X0096830Y0145813D01*
X0096343Y0144637D01*
X0096343Y0143363D01*
X0096830Y0142187D01*
X0097343Y0141675D01*
X0097343Y0141112D01*
X0096912Y0141112D01*
X0095975Y0140175D01*
X0095975Y0134518D01*
X0096493Y0134000D01*
X0096294Y0133801D01*
X0096084Y0133436D01*
X0095975Y0133030D01*
X0095975Y0131038D01*
X0099159Y0131038D01*
X0099159Y0130269D01*
X0099928Y0130269D01*
X0103112Y0130269D01*
X0103112Y0128278D01*
X0103003Y0127871D01*
X0102792Y0127506D01*
X0102494Y0127208D01*
X0102129Y0126997D01*
X0101722Y0126888D01*
X0102704Y0127418D02*
X0133313Y0127418D01*
X0133313Y0126220D02*
X0134081Y0126220D01*
X0134081Y0125021D02*
X0133313Y0125021D01*
X0130101Y0125021D02*
X0057718Y0125021D01*
X0057718Y0123823D02*
X0137340Y0123823D01*
X0136545Y0122624D02*
X0057718Y0122624D01*
X0057718Y0121426D02*
X0136343Y0121426D01*
X0135159Y0120227D02*
X0057718Y0120227D01*
X0057718Y0119029D02*
X0133961Y0119029D01*
X0132762Y0117830D02*
X0057718Y0117830D01*
X0057718Y0116632D02*
X0132658Y0116632D01*
X0132658Y0115433D02*
X0057718Y0115433D01*
X0057718Y0114234D02*
X0132658Y0114234D01*
X0132658Y0113036D02*
X0057718Y0113036D01*
X0057718Y0111837D02*
X0132658Y0111837D01*
X0132658Y0110639D02*
X0057718Y0110639D01*
X0057718Y0126220D02*
X0129931Y0126220D01*
X0129931Y0128617D02*
X0103112Y0128617D01*
X0103112Y0129815D02*
X0129931Y0129815D01*
X0130641Y0131014D02*
X0099928Y0131014D01*
X0099159Y0131014D02*
X0057718Y0131014D01*
X0057718Y0132212D02*
X0095975Y0132212D01*
X0096077Y0133411D02*
X0057718Y0133411D01*
X0057718Y0134609D02*
X0095975Y0134609D01*
X0095975Y0135808D02*
X0057718Y0135808D01*
X0057718Y0137006D02*
X0095975Y0137006D01*
X0095975Y0138205D02*
X0057718Y0138205D01*
X0057718Y0139403D02*
X0095975Y0139403D01*
X0096402Y0140602D02*
X0057718Y0140602D01*
X0057718Y0141800D02*
X0097218Y0141800D01*
X0096494Y0142999D02*
X0057718Y0142999D01*
X0057718Y0144197D02*
X0057977Y0144197D01*
X0061227Y0144197D02*
X0062427Y0144197D01*
X0062427Y0145396D02*
X0061227Y0145396D01*
X0061227Y0146594D02*
X0062427Y0146594D01*
X0062427Y0147793D02*
X0067117Y0147793D01*
X0067117Y0146594D02*
X0065986Y0146594D01*
X0065986Y0145396D02*
X0067156Y0145396D01*
X0068337Y0144197D02*
X0065677Y0144197D01*
X0070872Y0144197D02*
X0072072Y0144197D01*
X0072072Y0145396D02*
X0070872Y0145396D01*
X0070872Y0146594D02*
X0072072Y0146594D01*
X0072072Y0147793D02*
X0070872Y0147793D01*
X0070872Y0148991D02*
X0065986Y0148991D01*
X0065986Y0150190D02*
X0067117Y0150190D01*
X0067117Y0151388D02*
X0065903Y0151388D01*
X0067167Y0152587D02*
X0067204Y0152587D01*
X0067167Y0153785D02*
X0103645Y0153785D01*
X0103561Y0152587D02*
X0075741Y0152587D01*
X0075828Y0151388D02*
X0103561Y0151388D01*
X0103561Y0150190D02*
X0075828Y0150190D01*
X0075828Y0147793D02*
X0103561Y0147793D01*
X0103561Y0148991D02*
X0072072Y0148991D01*
X0072072Y0150190D02*
X0070872Y0150190D01*
X0070872Y0151388D02*
X0072072Y0151388D01*
X0072072Y0152587D02*
X0070872Y0152587D01*
X0069490Y0153994D02*
X0072358Y0153994D01*
X0072358Y0156382D01*
X0068101Y0156382D01*
X0068101Y0155384D01*
X0068210Y0154977D01*
X0068420Y0154612D01*
X0068718Y0154314D01*
X0069083Y0154104D01*
X0069490Y0153994D01*
X0068208Y0154984D02*
X0067167Y0154984D01*
X0067167Y0156182D02*
X0068101Y0156182D01*
X0068101Y0157381D02*
X0067167Y0157381D01*
X0067167Y0158579D02*
X0068101Y0158579D01*
X0068101Y0159778D02*
X0067167Y0159778D01*
X0067167Y0160976D02*
X0068101Y0160976D01*
X0068101Y0162175D02*
X0067167Y0162175D01*
X0067167Y0163373D02*
X0068101Y0163373D01*
X0068918Y0166610D02*
X0068918Y0169149D01*
X0074974Y0169149D01*
X0076028Y0170203D01*
X0076028Y0170875D01*
X0092668Y0170875D01*
X0092668Y0206128D01*
X0092914Y0206374D01*
X0093341Y0207403D01*
X0093341Y0208375D01*
X0099543Y0208375D01*
X0099543Y0166459D01*
X0075949Y0166459D01*
X0075761Y0166646D01*
X0068955Y0166646D01*
X0068918Y0166610D01*
X0068918Y0166969D02*
X0099543Y0166969D01*
X0099543Y0168168D02*
X0068918Y0168168D01*
X0072358Y0164059D02*
X0119602Y0164059D01*
X0123291Y0167748D01*
X0123291Y0172441D01*
X0125521Y0172962D02*
X0136968Y0172962D01*
X0136968Y0173387D02*
X0136968Y0172113D01*
X0137411Y0171044D01*
X0136737Y0171044D01*
X0135800Y0170107D01*
X0135800Y0157175D01*
X0135866Y0157108D01*
X0135800Y0156859D01*
X0135800Y0155964D01*
X0140149Y0155964D01*
X0140149Y0155964D01*
X0135800Y0155964D01*
X0135800Y0155068D01*
X0135902Y0154684D01*
X0135800Y0154300D01*
X0135800Y0153405D01*
X0140149Y0153405D01*
X0140149Y0153404D01*
X0135800Y0153404D01*
X0135800Y0152509D01*
X0135902Y0152125D01*
X0135800Y0151741D01*
X0135800Y0150846D01*
X0140149Y0150846D01*
X0140149Y0150845D01*
X0135800Y0150845D01*
X0135800Y0149950D01*
X0135866Y0149701D01*
X0135800Y0149634D01*
X0135800Y0147927D01*
X0125521Y0147927D01*
X0125521Y0153702D01*
X0125491Y0153732D01*
X0125491Y0158663D01*
X0121743Y0162411D01*
X0121405Y0162750D01*
X0121802Y0163148D01*
X0124203Y0165548D01*
X0125491Y0166837D01*
X0125491Y0169268D01*
X0125521Y0169298D01*
X0125521Y0175584D01*
X0124584Y0176521D01*
X0123683Y0176521D01*
X0124362Y0177200D01*
X0124362Y0182857D01*
X0123843Y0183375D01*
X0124042Y0183574D01*
X0124253Y0183939D01*
X0124362Y0184345D01*
X0124362Y0186337D01*
X0121178Y0186337D01*
X0121178Y0187106D01*
X0124362Y0187106D01*
X0124362Y0189097D01*
X0124253Y0189504D01*
X0124042Y0189869D01*
X0123744Y0190167D01*
X0123379Y0190378D01*
X0122972Y0190487D01*
X0121178Y0190487D01*
X0121178Y0187106D01*
X0120409Y0187106D01*
X0120409Y0190487D01*
X0118614Y0190487D01*
X0118207Y0190378D01*
X0117842Y0190167D01*
X0117825Y0190149D01*
X0117807Y0190167D01*
X0117442Y0190378D01*
X0117035Y0190487D01*
X0115240Y0190487D01*
X0115240Y0187106D01*
X0114472Y0187106D01*
X0114472Y0190487D01*
X0112677Y0190487D01*
X0112270Y0190378D01*
X0112181Y0190326D01*
X0112181Y0190574D01*
X0111694Y0191750D01*
X0110793Y0192650D01*
X0109617Y0193137D01*
X0108344Y0193137D01*
X0107168Y0192650D01*
X0106268Y0191750D01*
X0105781Y0190574D01*
X0105781Y0189849D01*
X0104218Y0188286D01*
X0104218Y0178714D01*
X0105507Y0177425D01*
X0106411Y0176521D01*
X0104499Y0176521D01*
X0103561Y0175584D01*
X0103561Y0169298D01*
X0104499Y0168361D01*
X0112084Y0168361D01*
X0112161Y0168438D01*
X0112451Y0168361D01*
X0113291Y0168361D01*
X0113291Y0172441D01*
X0113291Y0172441D01*
X0113291Y0168361D01*
X0114132Y0168361D01*
X0114421Y0168438D01*
X0114499Y0168361D01*
X0120793Y0168361D01*
X0118691Y0166259D01*
X0101943Y0166259D01*
X0101943Y0208852D01*
X0101578Y0209734D01*
X0101269Y0210043D01*
X0101269Y0210251D01*
X0100436Y0211085D01*
X0101269Y0211918D01*
X0101269Y0212435D01*
X0107553Y0212435D01*
X0107747Y0212241D01*
X0114584Y0212241D01*
X0114778Y0212435D01*
X0117978Y0212435D01*
X0117963Y0212378D01*
X0117963Y0211085D01*
X0121925Y0211085D01*
X0121925Y0211085D01*
X0117963Y0211085D01*
X0117963Y0209791D01*
X0118072Y0209384D01*
X0118140Y0209267D01*
X0117963Y0209090D01*
X0117963Y0205599D01*
X0118900Y0204662D01*
X0119725Y0204662D01*
X0119725Y0203207D01*
X0121014Y0201919D01*
X0122343Y0200589D01*
X0123632Y0199300D01*
X0156957Y0199300D01*
X0156957Y0182900D01*
X0144332Y0170275D01*
X0143562Y0171044D01*
X0142925Y0171044D01*
X0143368Y0172113D01*
X0143368Y0173387D01*
X0142881Y0174563D01*
X0141981Y0175463D01*
X0140805Y0175950D01*
X0139532Y0175950D01*
X0138356Y0175463D01*
X0137455Y0174563D01*
X0136968Y0173387D01*
X0137289Y0174160D02*
X0125521Y0174160D01*
X0125521Y0175359D02*
X0138251Y0175359D01*
X0140168Y0172750D02*
X0140168Y0168778D01*
X0140150Y0168759D01*
X0140150Y0166200D02*
X0143368Y0166200D01*
X0159157Y0181989D01*
X0159157Y0201500D01*
X0124543Y0201500D01*
X0121925Y0204119D01*
X0121925Y0204119D01*
X0121925Y0207344D01*
X0124493Y0204662D02*
X0124950Y0204662D01*
X0125887Y0205599D01*
X0125887Y0209090D01*
X0125710Y0209267D01*
X0125778Y0209384D01*
X0125887Y0209791D01*
X0125887Y0211085D01*
X0125887Y0212378D01*
X0125778Y0212785D01*
X0125710Y0212902D01*
X0125887Y0213079D01*
X0125887Y0216570D01*
X0125440Y0217017D01*
X0125440Y0220716D01*
X0127159Y0222435D01*
X0151421Y0222435D01*
X0154391Y0219466D01*
X0154391Y0214357D01*
X0154756Y0213475D01*
X0155356Y0212875D01*
X0155304Y0212785D01*
X0155195Y0212378D01*
X0155195Y0211085D01*
X0159157Y0211085D01*
X0159157Y0211085D01*
X0155195Y0211085D01*
X0155195Y0209791D01*
X0155304Y0209384D01*
X0155372Y0209267D01*
X0155195Y0209090D01*
X0155195Y0205599D01*
X0156133Y0204662D01*
X0156957Y0204662D01*
X0156957Y0203700D01*
X0125455Y0203700D01*
X0124493Y0204662D01*
X0125032Y0204123D02*
X0143508Y0204123D01*
X0143579Y0204082D02*
X0143986Y0203973D01*
X0145781Y0203973D01*
X0145781Y0207354D01*
X0142597Y0207354D01*
X0142597Y0205362D01*
X0142706Y0204955D01*
X0142917Y0204590D01*
X0143214Y0204293D01*
X0143579Y0204082D01*
X0142608Y0205321D02*
X0135846Y0205321D01*
X0136124Y0205599D02*
X0136124Y0209090D01*
X0135186Y0210027D01*
X0129136Y0210027D01*
X0128199Y0209090D01*
X0128199Y0205599D01*
X0129136Y0204662D01*
X0135186Y0204662D01*
X0136124Y0205599D01*
X0136124Y0206520D02*
X0142597Y0206520D01*
X0142597Y0208122D02*
X0145781Y0208122D01*
X0145781Y0207354D01*
X0146550Y0207354D01*
X0146550Y0208122D01*
X0149734Y0208122D01*
X0149734Y0210114D01*
X0149625Y0210521D01*
X0149414Y0210886D01*
X0149215Y0211085D01*
X0149734Y0211603D01*
X0149734Y0217259D01*
X0148797Y0218196D01*
X0143534Y0218196D01*
X0143372Y0218035D01*
X0141535Y0218035D01*
X0141471Y0218099D01*
X0140056Y0218685D01*
X0138525Y0218685D01*
X0137110Y0218099D01*
X0137039Y0218028D01*
X0135813Y0218025D01*
X0131525Y0218025D01*
X0130349Y0217538D01*
X0130319Y0217507D01*
X0129136Y0217507D01*
X0128199Y0216570D01*
X0128199Y0213079D01*
X0129136Y0212142D01*
X0130319Y0212142D01*
X0130349Y0212112D01*
X0131525Y0211625D01*
X0135185Y0211625D01*
X0135189Y0211623D01*
X0135823Y0211625D01*
X0136453Y0211625D01*
X0136458Y0211627D01*
X0137052Y0211628D01*
X0137110Y0211571D01*
X0138525Y0210985D01*
X0140056Y0210985D01*
X0141471Y0211571D01*
X0141535Y0211635D01*
X0142597Y0211635D01*
X0142597Y0211603D01*
X0143115Y0211085D01*
X0142917Y0210886D01*
X0142706Y0210521D01*
X0142597Y0210114D01*
X0142597Y0208122D01*
X0142597Y0208917D02*
X0136124Y0208917D01*
X0136124Y0207718D02*
X0145781Y0207718D01*
X0146550Y0207718D02*
X0155195Y0207718D01*
X0155195Y0206520D02*
X0149734Y0206520D01*
X0149734Y0207354D02*
X0146550Y0207354D01*
X0146550Y0203973D01*
X0148345Y0203973D01*
X0148751Y0204082D01*
X0149116Y0204293D01*
X0149414Y0204590D01*
X0149625Y0204955D01*
X0149734Y0205362D01*
X0149734Y0207354D01*
X0149734Y0208917D02*
X0155195Y0208917D01*
X0155195Y0210115D02*
X0149734Y0210115D01*
X0149445Y0211314D02*
X0155195Y0211314D01*
X0155231Y0212512D02*
X0149734Y0212512D01*
X0149734Y0213711D02*
X0154658Y0213711D01*
X0154391Y0214909D02*
X0149734Y0214909D01*
X0149734Y0216108D02*
X0154391Y0216108D01*
X0154391Y0217306D02*
X0149687Y0217306D01*
X0154391Y0218505D02*
X0140490Y0218505D01*
X0138091Y0218505D02*
X0125440Y0218505D01*
X0125440Y0219703D02*
X0154153Y0219703D01*
X0152954Y0220902D02*
X0125627Y0220902D01*
X0126825Y0222101D02*
X0151755Y0222101D01*
X0153951Y0223299D02*
X0159915Y0223299D01*
X0159915Y0222101D02*
X0155150Y0222101D01*
X0156348Y0220902D02*
X0159915Y0220902D01*
X0159915Y0219703D02*
X0156791Y0219703D01*
X0156791Y0220460D02*
X0156791Y0214835D01*
X0159915Y0214835D01*
X0159915Y0227335D01*
X0157415Y0229835D01*
X0091165Y0229835D01*
X0086165Y0224835D01*
X0086165Y0214835D01*
X0123041Y0214835D01*
X0123040Y0221710D01*
X0126165Y0224835D01*
X0152415Y0224835D01*
X0156791Y0220460D01*
X0156791Y0218505D02*
X0159915Y0218505D01*
X0159915Y0217306D02*
X0156791Y0217306D01*
X0156791Y0216108D02*
X0159915Y0216108D01*
X0159915Y0214909D02*
X0156791Y0214909D01*
X0162315Y0218505D02*
X0162343Y0218505D01*
X0162315Y0219703D02*
X0162343Y0219703D01*
X0162315Y0220902D02*
X0162343Y0220902D01*
X0162315Y0222101D02*
X0162343Y0222101D01*
X0162315Y0223299D02*
X0162343Y0223299D01*
X0162315Y0224498D02*
X0162343Y0224498D01*
X0162315Y0225696D02*
X0162343Y0225696D01*
X0162315Y0226895D02*
X0162343Y0226895D01*
X0162343Y0228093D02*
X0162199Y0228093D01*
X0162343Y0229292D02*
X0161353Y0229292D01*
X0162343Y0230490D02*
X0160154Y0230490D01*
X0158955Y0231689D02*
X0162343Y0231689D01*
X0162343Y0232887D02*
X0142910Y0232887D01*
X0146654Y0234086D02*
X0162343Y0234086D01*
X0162343Y0235284D02*
X0147503Y0235284D01*
X0147743Y0236483D02*
X0162665Y0236483D01*
X0163632Y0237450D02*
X0163632Y0237450D01*
X0163863Y0237681D02*
X0147518Y0237681D01*
X0146743Y0238880D02*
X0165396Y0238880D01*
X0166146Y0240078D02*
X0146743Y0240078D01*
X0146003Y0241277D02*
X0166183Y0241277D01*
X0166183Y0241687D02*
X0169171Y0241687D01*
X0169171Y0244675D01*
X0167573Y0244675D01*
X0167166Y0244566D01*
X0166801Y0244355D01*
X0166503Y0244057D01*
X0166292Y0243692D01*
X0166183Y0243285D01*
X0166183Y0241687D01*
X0166183Y0242475D02*
X0144804Y0242475D01*
X0143606Y0243674D02*
X0166288Y0243674D01*
X0169171Y0243674D02*
X0169546Y0243674D01*
X0169546Y0242475D02*
X0169171Y0242475D01*
X0168965Y0236500D02*
X0165793Y0236500D01*
X0164543Y0235250D01*
X0164543Y0183625D01*
X0144559Y0163641D01*
X0140150Y0163641D01*
X0135800Y0163373D02*
X0122028Y0163373D01*
X0121802Y0163148D02*
X0121802Y0163148D01*
X0121980Y0162175D02*
X0135800Y0162175D01*
X0135800Y0160976D02*
X0123178Y0160976D01*
X0124377Y0159778D02*
X0135800Y0159778D01*
X0135800Y0158579D02*
X0125491Y0158579D01*
X0125491Y0157381D02*
X0135800Y0157381D01*
X0135800Y0156182D02*
X0125491Y0156182D01*
X0125491Y0154984D02*
X0135822Y0154984D01*
X0135800Y0153785D02*
X0125491Y0153785D01*
X0125521Y0152587D02*
X0135800Y0152587D01*
X0135800Y0151388D02*
X0125521Y0151388D01*
X0125521Y0150190D02*
X0135800Y0150190D01*
X0135643Y0150725D02*
X0146643Y0150725D01*
X0144500Y0153405D02*
X0140150Y0153405D01*
X0140150Y0155690D01*
X0140150Y0155963D01*
X0140150Y0154984D02*
X0140150Y0154984D01*
X0140150Y0153785D02*
X0140150Y0153785D01*
X0140150Y0152587D02*
X0140150Y0152587D01*
X0140150Y0151388D02*
X0140150Y0151388D01*
X0135800Y0148991D02*
X0125521Y0148991D01*
X0123291Y0150559D02*
X0123291Y0157752D01*
X0119543Y0161500D01*
X0072358Y0161500D01*
X0072358Y0156382D02*
X0072358Y0156382D01*
X0072358Y0156382D01*
X0072358Y0153994D01*
X0075226Y0153994D01*
X0075633Y0154104D01*
X0075998Y0154314D01*
X0076296Y0154612D01*
X0076507Y0154977D01*
X0076616Y0155384D01*
X0076616Y0156382D01*
X0072358Y0156382D01*
X0072358Y0156182D02*
X0072358Y0156182D01*
X0072358Y0154984D02*
X0072358Y0154984D01*
X0076509Y0154984D02*
X0121091Y0154984D01*
X0121091Y0156182D02*
X0076616Y0156182D01*
X0076615Y0157381D02*
X0120551Y0157381D01*
X0119353Y0158579D02*
X0076616Y0158579D01*
X0075191Y0169366D02*
X0099543Y0169366D01*
X0099543Y0170565D02*
X0076028Y0170565D01*
X0072072Y0174160D02*
X0090268Y0174160D01*
X0090268Y0175359D02*
X0075828Y0175359D01*
X0075828Y0174698D02*
X0075828Y0177459D01*
X0075719Y0177866D01*
X0075509Y0178230D01*
X0075211Y0178528D01*
X0074846Y0178739D01*
X0074439Y0178848D01*
X0072072Y0178848D01*
X0072072Y0174698D01*
X0075828Y0174698D01*
X0075828Y0176557D02*
X0090268Y0176557D01*
X0090268Y0177756D02*
X0075749Y0177756D01*
X0072072Y0177756D02*
X0070872Y0177756D01*
X0070872Y0178848D02*
X0068506Y0178848D01*
X0068099Y0178739D01*
X0067734Y0178528D01*
X0067436Y0178230D01*
X0067226Y0177866D01*
X0067117Y0177459D01*
X0067117Y0174698D01*
X0070872Y0174698D01*
X0070872Y0178848D01*
X0070872Y0176557D02*
X0072072Y0176557D01*
X0072072Y0175359D02*
X0070872Y0175359D01*
X0070872Y0174160D02*
X0065986Y0174160D01*
X0065986Y0172962D02*
X0067117Y0172962D01*
X0066688Y0171763D02*
X0065944Y0171763D01*
X0067117Y0175359D02*
X0062427Y0175359D01*
X0062427Y0176557D02*
X0061227Y0176557D01*
X0061227Y0177756D02*
X0062427Y0177756D01*
X0062427Y0178954D02*
X0061227Y0178954D01*
X0058121Y0178954D02*
X0057718Y0178954D01*
X0057718Y0180153D02*
X0090268Y0180153D01*
X0090268Y0181351D02*
X0057718Y0181351D01*
X0057718Y0182550D02*
X0090268Y0182550D01*
X0090268Y0183748D02*
X0057718Y0183748D01*
X0057718Y0184947D02*
X0090268Y0184947D01*
X0090268Y0186145D02*
X0057718Y0186145D01*
X0057718Y0187344D02*
X0090268Y0187344D01*
X0090268Y0188542D02*
X0057718Y0188542D01*
X0057718Y0189741D02*
X0090268Y0189741D01*
X0090268Y0190939D02*
X0057718Y0190939D01*
X0057718Y0192138D02*
X0090268Y0192138D01*
X0090268Y0193336D02*
X0057718Y0193336D01*
X0057718Y0194535D02*
X0090268Y0194535D01*
X0090268Y0195733D02*
X0057718Y0195733D01*
X0057718Y0196932D02*
X0061625Y0196932D01*
X0061406Y0198130D02*
X0057718Y0198130D01*
X0057718Y0199329D02*
X0061406Y0199329D01*
X0061406Y0200527D02*
X0057718Y0200527D01*
X0057718Y0201726D02*
X0061406Y0201726D01*
X0061406Y0202924D02*
X0057718Y0202924D01*
X0057718Y0204123D02*
X0061406Y0204123D01*
X0061406Y0205321D02*
X0057718Y0205321D01*
X0057718Y0206520D02*
X0061406Y0206520D01*
X0061406Y0207718D02*
X0057718Y0207718D01*
X0057718Y0208917D02*
X0061406Y0208917D01*
X0061922Y0210115D02*
X0057718Y0210115D01*
X0057718Y0211314D02*
X0062899Y0211314D01*
X0062597Y0212512D02*
X0057718Y0212512D01*
X0057718Y0213711D02*
X0062597Y0213711D01*
X0062597Y0214815D02*
X0065781Y0214815D01*
X0065781Y0218196D01*
X0063986Y0218196D01*
X0063579Y0218087D01*
X0063214Y0217877D01*
X0062917Y0217579D01*
X0062706Y0217214D01*
X0062597Y0216807D01*
X0062597Y0214815D01*
X0062597Y0214909D02*
X0057718Y0214909D01*
X0057718Y0216108D02*
X0062597Y0216108D01*
X0062759Y0217306D02*
X0057718Y0217306D01*
X0057718Y0218505D02*
X0068906Y0218505D01*
X0068906Y0219703D02*
X0057718Y0219703D01*
X0057718Y0220902D02*
X0068906Y0220902D01*
X0069845Y0222101D02*
X0057718Y0222101D01*
X0057718Y0223299D02*
X0071044Y0223299D01*
X0072242Y0224498D02*
X0057718Y0224498D01*
X0057718Y0225696D02*
X0073441Y0225696D01*
X0074639Y0226895D02*
X0057718Y0226895D01*
X0057718Y0228093D02*
X0075838Y0228093D01*
X0077036Y0229292D02*
X0057718Y0229292D01*
X0057718Y0230490D02*
X0078235Y0230490D01*
X0079433Y0231689D02*
X0076673Y0231689D01*
X0079113Y0232887D02*
X0080632Y0232887D01*
X0080714Y0234086D02*
X0081830Y0234086D01*
X0081924Y0235284D02*
X0083029Y0235284D01*
X0082910Y0236483D02*
X0084227Y0236483D01*
X0083565Y0237681D02*
X0085426Y0237681D01*
X0084219Y0238880D02*
X0094333Y0238880D01*
X0095083Y0240078D02*
X0084668Y0240078D01*
X0084929Y0241277D02*
X0095120Y0241277D01*
X0095120Y0241687D02*
X0098108Y0241687D01*
X0098108Y0244675D01*
X0096510Y0244675D01*
X0096103Y0244566D01*
X0095738Y0244355D01*
X0095440Y0244057D01*
X0095230Y0243692D01*
X0095120Y0243285D01*
X0095120Y0241687D01*
X0095120Y0242475D02*
X0085190Y0242475D01*
X0085277Y0243674D02*
X0095225Y0243674D01*
X0098108Y0243674D02*
X0098483Y0243674D01*
X0098483Y0242475D02*
X0098108Y0242475D01*
X0104201Y0241500D02*
X0107668Y0241500D01*
X0109543Y0239625D01*
X0109543Y0236500D01*
X0104594Y0236500D01*
X0097902Y0236500D02*
X0097902Y0233767D01*
X0099231Y0232437D01*
X0122134Y0232437D01*
X0126197Y0236500D01*
X0133433Y0236500D01*
X0129865Y0234086D02*
X0126894Y0234086D01*
X0125695Y0232887D02*
X0130649Y0232887D01*
X0136217Y0232887D02*
X0137342Y0232887D01*
X0140126Y0236500D02*
X0144543Y0236500D01*
X0144543Y0239625D01*
X0142668Y0241500D01*
X0139732Y0241500D01*
X0133827Y0241500D02*
X0124543Y0241500D01*
X0122192Y0243674D02*
X0108606Y0243674D01*
X0109804Y0242475D02*
X0121484Y0242475D01*
X0121343Y0241277D02*
X0111003Y0241277D01*
X0111743Y0240078D02*
X0121669Y0240078D01*
X0122638Y0238880D02*
X0111743Y0238880D01*
X0112518Y0237681D02*
X0124267Y0237681D01*
X0123068Y0236483D02*
X0112743Y0236483D01*
X0112503Y0235284D02*
X0121870Y0235284D01*
X0125828Y0224498D02*
X0086165Y0224498D01*
X0086165Y0223299D02*
X0124630Y0223299D01*
X0123431Y0222101D02*
X0086165Y0222101D01*
X0086165Y0220902D02*
X0123040Y0220902D01*
X0123040Y0219703D02*
X0086165Y0219703D01*
X0086165Y0218505D02*
X0123040Y0218505D01*
X0123040Y0217306D02*
X0086165Y0217306D01*
X0086165Y0216108D02*
X0123040Y0216108D01*
X0123041Y0214909D02*
X0086165Y0214909D01*
X0082321Y0214909D02*
X0080009Y0214909D01*
X0080009Y0213711D02*
X0082321Y0213711D01*
X0082357Y0212512D02*
X0079442Y0212512D01*
X0078414Y0210115D02*
X0082321Y0210115D01*
X0082321Y0208917D02*
X0080009Y0208917D01*
X0080009Y0207718D02*
X0082321Y0207718D01*
X0082321Y0206520D02*
X0080009Y0206520D01*
X0079732Y0205321D02*
X0082599Y0205321D01*
X0078931Y0204123D02*
X0090268Y0204123D01*
X0090268Y0202924D02*
X0078931Y0202924D01*
X0078931Y0201726D02*
X0090268Y0201726D01*
X0090268Y0200527D02*
X0078931Y0200527D01*
X0078931Y0199329D02*
X0090268Y0199329D01*
X0090268Y0198130D02*
X0078931Y0198130D01*
X0078711Y0196932D02*
X0090268Y0196932D01*
X0092668Y0196932D02*
X0099543Y0196932D01*
X0099543Y0198130D02*
X0092668Y0198130D01*
X0092668Y0199329D02*
X0099543Y0199329D01*
X0099543Y0200527D02*
X0092668Y0200527D01*
X0092668Y0201726D02*
X0099543Y0201726D01*
X0099543Y0202924D02*
X0092668Y0202924D01*
X0092668Y0204123D02*
X0099543Y0204123D01*
X0099543Y0205321D02*
X0092668Y0205321D01*
X0092975Y0206520D02*
X0099543Y0206520D01*
X0099543Y0207718D02*
X0093341Y0207718D01*
X0100665Y0211314D02*
X0117963Y0211314D01*
X0117963Y0210115D02*
X0101269Y0210115D01*
X0101917Y0208917D02*
X0106911Y0208917D01*
X0106918Y0208946D02*
X0106809Y0208539D01*
X0106809Y0205779D01*
X0110565Y0205779D01*
X0110565Y0204579D01*
X0106809Y0204579D01*
X0106809Y0201819D01*
X0106918Y0201412D01*
X0107129Y0201047D01*
X0107427Y0200749D01*
X0107792Y0200539D01*
X0108199Y0200430D01*
X0110565Y0200430D01*
X0110565Y0204579D01*
X0111765Y0204579D01*
X0111765Y0200430D01*
X0114132Y0200430D01*
X0114539Y0200539D01*
X0114904Y0200749D01*
X0115202Y0201047D01*
X0115412Y0201412D01*
X0115521Y0201819D01*
X0115521Y0204579D01*
X0111765Y0204579D01*
X0111765Y0205779D01*
X0110565Y0205779D01*
X0110565Y0209929D01*
X0108199Y0209929D01*
X0107792Y0209820D01*
X0107427Y0209609D01*
X0107129Y0209311D01*
X0106918Y0208946D01*
X0106809Y0207718D02*
X0101943Y0207718D01*
X0101943Y0206520D02*
X0106809Y0206520D01*
X0106809Y0204123D02*
X0101943Y0204123D01*
X0101943Y0205321D02*
X0110565Y0205321D01*
X0110565Y0204123D02*
X0111765Y0204123D01*
X0111765Y0205321D02*
X0118241Y0205321D01*
X0117963Y0206520D02*
X0115521Y0206520D01*
X0115521Y0205779D02*
X0115521Y0208539D01*
X0115412Y0208946D01*
X0115202Y0209311D01*
X0114904Y0209609D01*
X0114539Y0209820D01*
X0114132Y0209929D01*
X0111765Y0209929D01*
X0111765Y0205779D01*
X0115521Y0205779D01*
X0115521Y0204123D02*
X0119725Y0204123D01*
X0120008Y0202924D02*
X0115521Y0202924D01*
X0115496Y0201726D02*
X0121206Y0201726D01*
X0121014Y0201919D02*
X0121014Y0201919D01*
X0122343Y0200589D02*
X0122343Y0200589D01*
X0122405Y0200527D02*
X0114497Y0200527D01*
X0111765Y0200527D02*
X0110565Y0200527D01*
X0110565Y0201726D02*
X0111765Y0201726D01*
X0111765Y0202924D02*
X0110565Y0202924D01*
X0107834Y0200527D02*
X0101943Y0200527D01*
X0101943Y0199329D02*
X0123603Y0199329D01*
X0125610Y0205321D02*
X0128477Y0205321D01*
X0128199Y0206520D02*
X0125887Y0206520D01*
X0125887Y0207718D02*
X0128199Y0207718D01*
X0128199Y0208917D02*
X0125887Y0208917D01*
X0125887Y0210115D02*
X0142597Y0210115D01*
X0142886Y0211314D02*
X0140851Y0211314D01*
X0137730Y0211314D02*
X0125887Y0211314D01*
X0125887Y0211085D02*
X0121925Y0211085D01*
X0121925Y0211085D01*
X0125887Y0211085D01*
X0125851Y0212512D02*
X0128766Y0212512D01*
X0128199Y0213711D02*
X0125887Y0213711D01*
X0125887Y0214909D02*
X0128199Y0214909D01*
X0128199Y0216108D02*
X0125887Y0216108D01*
X0125440Y0217306D02*
X0128935Y0217306D01*
X0117963Y0208917D02*
X0115420Y0208917D01*
X0115521Y0207718D02*
X0117963Y0207718D01*
X0111765Y0207718D02*
X0110565Y0207718D01*
X0110565Y0206520D02*
X0111765Y0206520D01*
X0111765Y0208917D02*
X0110565Y0208917D01*
X0106809Y0202924D02*
X0101943Y0202924D01*
X0101943Y0201726D02*
X0106834Y0201726D01*
X0101943Y0198130D02*
X0156957Y0198130D01*
X0156957Y0196932D02*
X0101943Y0196932D01*
X0101943Y0195733D02*
X0156957Y0195733D01*
X0156957Y0194535D02*
X0101943Y0194535D01*
X0101943Y0193336D02*
X0156957Y0193336D01*
X0156957Y0192138D02*
X0111306Y0192138D01*
X0112030Y0190939D02*
X0156957Y0190939D01*
X0156957Y0189741D02*
X0124116Y0189741D01*
X0124362Y0188542D02*
X0156957Y0188542D01*
X0156957Y0187344D02*
X0124362Y0187344D01*
X0124362Y0186145D02*
X0156957Y0186145D01*
X0156957Y0184947D02*
X0124362Y0184947D01*
X0124143Y0183748D02*
X0156957Y0183748D01*
X0156607Y0182550D02*
X0124362Y0182550D01*
X0124362Y0181351D02*
X0155408Y0181351D01*
X0154210Y0180153D02*
X0124362Y0180153D01*
X0124362Y0178954D02*
X0153011Y0178954D01*
X0151813Y0177756D02*
X0124362Y0177756D01*
X0123718Y0176557D02*
X0150614Y0176557D01*
X0149416Y0175359D02*
X0142085Y0175359D01*
X0143048Y0174160D02*
X0148217Y0174160D01*
X0147019Y0172962D02*
X0143368Y0172962D01*
X0143223Y0171763D02*
X0145820Y0171763D01*
X0144622Y0170565D02*
X0144042Y0170565D01*
X0137113Y0171763D02*
X0125521Y0171763D01*
X0125521Y0170565D02*
X0136258Y0170565D01*
X0135800Y0169366D02*
X0125521Y0169366D01*
X0125491Y0168168D02*
X0135800Y0168168D01*
X0135800Y0166969D02*
X0125491Y0166969D01*
X0124425Y0165770D02*
X0135800Y0165770D01*
X0135800Y0164572D02*
X0123227Y0164572D01*
X0124203Y0165548D02*
X0124203Y0165548D01*
X0120600Y0168168D02*
X0101943Y0168168D01*
X0101943Y0169366D02*
X0103561Y0169366D01*
X0103561Y0170565D02*
X0101943Y0170565D01*
X0101943Y0171763D02*
X0103561Y0171763D01*
X0103561Y0172962D02*
X0101943Y0172962D01*
X0101943Y0174160D02*
X0103561Y0174160D01*
X0103561Y0175359D02*
X0101943Y0175359D01*
X0101943Y0176557D02*
X0106375Y0176557D01*
X0105176Y0177756D02*
X0101943Y0177756D01*
X0101943Y0178954D02*
X0104218Y0178954D01*
X0104218Y0180153D02*
X0101943Y0180153D01*
X0101943Y0181351D02*
X0104218Y0181351D01*
X0104218Y0182550D02*
X0101943Y0182550D01*
X0101943Y0183748D02*
X0104218Y0183748D01*
X0104218Y0184947D02*
X0101943Y0184947D01*
X0101943Y0186145D02*
X0104218Y0186145D01*
X0104218Y0187344D02*
X0101943Y0187344D01*
X0101943Y0188542D02*
X0104474Y0188542D01*
X0105673Y0189741D02*
X0101943Y0189741D01*
X0101943Y0190939D02*
X0105932Y0190939D01*
X0106656Y0192138D02*
X0101943Y0192138D01*
X0099543Y0192138D02*
X0092668Y0192138D01*
X0092668Y0193336D02*
X0099543Y0193336D01*
X0099543Y0194535D02*
X0092668Y0194535D01*
X0092668Y0195733D02*
X0099543Y0195733D01*
X0099543Y0190939D02*
X0092668Y0190939D01*
X0092668Y0189741D02*
X0099543Y0189741D01*
X0099543Y0188542D02*
X0092668Y0188542D01*
X0092668Y0187344D02*
X0099543Y0187344D01*
X0099543Y0186145D02*
X0092668Y0186145D01*
X0092668Y0184947D02*
X0099543Y0184947D01*
X0099543Y0183748D02*
X0092668Y0183748D01*
X0092668Y0182550D02*
X0099543Y0182550D01*
X0099543Y0181351D02*
X0092668Y0181351D01*
X0092668Y0180153D02*
X0099543Y0180153D01*
X0099543Y0178954D02*
X0092668Y0178954D01*
X0092668Y0177756D02*
X0099543Y0177756D01*
X0099543Y0176557D02*
X0092668Y0176557D01*
X0092668Y0175359D02*
X0099543Y0175359D01*
X0099543Y0174160D02*
X0092668Y0174160D01*
X0092668Y0172962D02*
X0099543Y0172962D01*
X0099543Y0171763D02*
X0092668Y0171763D01*
X0090268Y0178954D02*
X0065533Y0178954D01*
X0065986Y0177756D02*
X0067196Y0177756D01*
X0067117Y0176557D02*
X0065986Y0176557D01*
X0063606Y0198062D02*
X0063606Y0204075D01*
X0063986Y0203973D01*
X0065781Y0203973D01*
X0065781Y0207354D01*
X0066550Y0207354D01*
X0066550Y0208122D01*
X0069734Y0208122D01*
X0069734Y0208687D01*
X0072098Y0208687D01*
X0072085Y0208638D01*
X0072085Y0207345D01*
X0076047Y0207345D01*
X0076047Y0207344D01*
X0076047Y0207344D01*
X0076047Y0204662D01*
X0073474Y0204662D01*
X0073067Y0204771D01*
X0072703Y0204981D01*
X0072405Y0205279D01*
X0072194Y0205644D01*
X0072085Y0206051D01*
X0072085Y0207344D01*
X0076047Y0207344D01*
X0076047Y0204662D01*
X0076731Y0204662D01*
X0076731Y0198062D01*
X0063606Y0198062D01*
X0063606Y0198130D02*
X0076731Y0198130D01*
X0076731Y0199329D02*
X0063606Y0199329D01*
X0063606Y0200527D02*
X0076731Y0200527D01*
X0076731Y0201726D02*
X0063606Y0201726D01*
X0063606Y0202924D02*
X0076731Y0202924D01*
X0076731Y0204123D02*
X0068822Y0204123D01*
X0068751Y0204082D02*
X0069116Y0204293D01*
X0069414Y0204590D01*
X0069625Y0204955D01*
X0069734Y0205362D01*
X0069734Y0207354D01*
X0066550Y0207354D01*
X0066550Y0203973D01*
X0068345Y0203973D01*
X0068751Y0204082D01*
X0069723Y0205321D02*
X0072380Y0205321D01*
X0072085Y0206520D02*
X0069734Y0206520D01*
X0071106Y0207344D02*
X0071106Y0201062D01*
X0066550Y0204123D02*
X0065781Y0204123D01*
X0065781Y0205321D02*
X0066550Y0205321D01*
X0066550Y0206520D02*
X0065781Y0206520D01*
X0066550Y0207718D02*
X0072085Y0207718D01*
X0071106Y0207344D02*
X0076047Y0207344D01*
X0076047Y0206520D02*
X0076047Y0206520D01*
X0076047Y0205321D02*
X0076047Y0205321D01*
X0071106Y0207344D02*
X0071106Y0220250D01*
X0087356Y0236500D01*
X0097902Y0236500D01*
X0094333Y0234086D02*
X0088053Y0234086D01*
X0086854Y0232887D02*
X0095118Y0232887D01*
X0089625Y0231689D02*
X0085656Y0231689D01*
X0084457Y0230490D02*
X0088427Y0230490D01*
X0087228Y0229292D02*
X0083259Y0229292D01*
X0082060Y0228093D02*
X0086030Y0228093D01*
X0084831Y0226895D02*
X0080862Y0226895D01*
X0079663Y0225696D02*
X0083924Y0225696D01*
X0083765Y0224498D02*
X0078465Y0224498D01*
X0077266Y0223299D02*
X0083765Y0223299D01*
X0083765Y0222101D02*
X0076068Y0222101D01*
X0074869Y0220902D02*
X0083765Y0220902D01*
X0083765Y0219703D02*
X0073671Y0219703D01*
X0073306Y0218505D02*
X0083765Y0218505D01*
X0083058Y0217306D02*
X0079273Y0217306D01*
X0080009Y0216108D02*
X0082321Y0216108D01*
X0082321Y0211314D02*
X0073306Y0211314D01*
X0066550Y0214909D02*
X0065781Y0214909D01*
X0065781Y0216108D02*
X0066550Y0216108D01*
X0066550Y0217306D02*
X0065781Y0217306D01*
X0087027Y0225696D02*
X0159915Y0225696D01*
X0159915Y0224498D02*
X0152752Y0224498D01*
X0157958Y0229292D02*
X0090622Y0229292D01*
X0089424Y0228093D02*
X0159157Y0228093D01*
X0159915Y0226895D02*
X0088225Y0226895D01*
X0085277Y0244872D02*
X0223809Y0244872D01*
X0223809Y0243674D02*
X0213966Y0243674D01*
X0214804Y0242475D02*
X0223897Y0242475D01*
X0224158Y0241277D02*
X0216003Y0241277D01*
X0217201Y0240078D02*
X0224418Y0240078D01*
X0224867Y0238880D02*
X0218564Y0238880D01*
X0219393Y0237681D02*
X0225522Y0237681D01*
X0226176Y0236483D02*
X0219618Y0236483D01*
X0219378Y0235284D02*
X0227163Y0235284D01*
X0228373Y0234086D02*
X0218529Y0234086D01*
X0216418Y0236500D02*
X0216418Y0237750D01*
X0212668Y0241500D01*
X0210791Y0241500D01*
X0211185Y0236500D02*
X0216418Y0236500D01*
X0213969Y0232887D02*
X0229974Y0232887D01*
X0232414Y0231689D02*
X0206692Y0231689D01*
X0206692Y0230490D02*
X0251369Y0230490D01*
X0251369Y0229292D02*
X0206692Y0229292D01*
X0206692Y0228093D02*
X0251369Y0228093D01*
X0251369Y0226895D02*
X0206692Y0226895D01*
X0206692Y0225696D02*
X0251369Y0225696D01*
X0251369Y0224498D02*
X0206692Y0224498D01*
X0206692Y0223299D02*
X0251369Y0223299D01*
X0251369Y0222101D02*
X0206692Y0222101D01*
X0206692Y0220902D02*
X0251369Y0220902D01*
X0251369Y0219703D02*
X0206692Y0219703D01*
X0204492Y0216551D02*
X0204543Y0216500D01*
X0204492Y0216551D02*
X0204492Y0236500D01*
X0200924Y0236483D02*
X0183681Y0236483D01*
X0183455Y0237681D02*
X0200924Y0237681D01*
X0200924Y0238880D02*
X0182681Y0238880D01*
X0182201Y0240078D02*
X0201674Y0240078D01*
X0201711Y0241277D02*
X0181003Y0241277D01*
X0179804Y0242475D02*
X0201711Y0242475D01*
X0201711Y0241687D02*
X0204698Y0241687D01*
X0204698Y0244675D01*
X0203100Y0244675D01*
X0202693Y0244566D01*
X0202329Y0244355D01*
X0202031Y0244057D01*
X0201820Y0243692D01*
X0201711Y0243285D01*
X0201711Y0241687D01*
X0201815Y0243674D02*
X0178606Y0243674D01*
X0177668Y0241500D02*
X0175264Y0241500D01*
X0177668Y0241500D02*
X0180481Y0238687D01*
X0180481Y0236500D01*
X0175657Y0236500D01*
X0172874Y0232887D02*
X0171748Y0232887D01*
X0166743Y0231689D02*
X0202292Y0231689D01*
X0202292Y0230490D02*
X0166743Y0230490D01*
X0166743Y0229292D02*
X0202292Y0229292D01*
X0202292Y0228093D02*
X0166743Y0228093D01*
X0166743Y0226895D02*
X0202292Y0226895D01*
X0202292Y0225696D02*
X0166743Y0225696D01*
X0166743Y0224498D02*
X0202292Y0224498D01*
X0202292Y0223299D02*
X0166743Y0223299D01*
X0166743Y0222101D02*
X0202292Y0222101D01*
X0202292Y0220902D02*
X0166743Y0220902D01*
X0166743Y0219703D02*
X0202292Y0219703D01*
X0196296Y0210115D02*
X0181611Y0210115D01*
X0181612Y0208917D02*
X0195415Y0208917D01*
X0195153Y0207718D02*
X0178428Y0207718D01*
X0178428Y0207354D02*
X0181612Y0207354D01*
X0181612Y0205362D01*
X0181503Y0204955D01*
X0181292Y0204590D01*
X0180994Y0204293D01*
X0180629Y0204082D01*
X0180222Y0203973D01*
X0178428Y0203973D01*
X0178428Y0207354D01*
X0178428Y0206520D02*
X0177659Y0206520D01*
X0177659Y0207718D02*
X0173356Y0207718D01*
X0173356Y0206520D02*
X0174475Y0206520D01*
X0174486Y0205321D02*
X0173078Y0205321D01*
X0175386Y0204123D02*
X0166743Y0204123D01*
X0166743Y0202924D02*
X0197965Y0202924D01*
X0197965Y0201726D02*
X0166743Y0201726D01*
X0166743Y0200527D02*
X0197965Y0200527D01*
X0197965Y0199329D02*
X0166743Y0199329D01*
X0166743Y0198130D02*
X0197965Y0198130D01*
X0197965Y0196932D02*
X0166743Y0196932D01*
X0166743Y0195733D02*
X0197005Y0195733D01*
X0196123Y0194535D02*
X0166743Y0194535D01*
X0166743Y0193336D02*
X0186841Y0193336D01*
X0186841Y0192138D02*
X0166743Y0192138D01*
X0166743Y0190939D02*
X0186841Y0190939D01*
X0190705Y0191598D02*
X0190705Y0188075D01*
X0198362Y0181351D02*
X0198402Y0181351D01*
X0198362Y0180153D02*
X0198402Y0180153D01*
X0198362Y0178954D02*
X0198402Y0178954D01*
X0201701Y0178954D02*
X0213967Y0178954D01*
X0212779Y0180153D02*
X0202246Y0180153D01*
X0202246Y0181351D02*
X0211581Y0181351D01*
X0210382Y0182550D02*
X0202246Y0182550D01*
X0195063Y0178954D02*
X0194024Y0178954D01*
X0187386Y0178954D02*
X0185109Y0178954D01*
X0177343Y0178954D02*
X0173112Y0178954D01*
X0173112Y0177756D02*
X0177343Y0177756D01*
X0177343Y0176557D02*
X0173112Y0176557D01*
X0173112Y0175359D02*
X0177343Y0175359D01*
X0177343Y0174160D02*
X0171137Y0174160D01*
X0171137Y0172962D02*
X0177343Y0172962D01*
X0177343Y0171763D02*
X0171137Y0171763D01*
X0172829Y0170565D02*
X0177343Y0170565D01*
X0176486Y0169366D02*
X0173287Y0169366D01*
X0173287Y0168168D02*
X0175287Y0168168D01*
X0174089Y0166969D02*
X0173287Y0166969D01*
X0168937Y0168759D02*
X0160409Y0168759D01*
X0160043Y0169125D01*
X0156472Y0170565D02*
X0154594Y0170565D01*
X0155793Y0171763D02*
X0157237Y0171763D01*
X0156991Y0172962D02*
X0159245Y0172962D01*
X0160842Y0172962D02*
X0166737Y0172962D01*
X0166737Y0174160D02*
X0158190Y0174160D01*
X0159388Y0175359D02*
X0165975Y0175359D01*
X0165975Y0176557D02*
X0160587Y0176557D01*
X0161785Y0177756D02*
X0165975Y0177756D01*
X0165975Y0178954D02*
X0162984Y0178954D01*
X0164182Y0180153D02*
X0165975Y0180153D01*
X0166344Y0181351D02*
X0165381Y0181351D01*
X0168937Y0178154D02*
X0169543Y0178154D01*
X0168937Y0178154D02*
X0168937Y0168759D01*
X0166737Y0171763D02*
X0162850Y0171763D01*
X0156193Y0169366D02*
X0153396Y0169366D01*
X0152197Y0168168D02*
X0156273Y0168168D01*
X0156769Y0166969D02*
X0150999Y0166969D01*
X0149800Y0165770D02*
X0158081Y0165770D01*
X0162005Y0165770D02*
X0164587Y0165770D01*
X0164587Y0164572D02*
X0148602Y0164572D01*
X0147403Y0163373D02*
X0164587Y0163373D01*
X0164587Y0162175D02*
X0152605Y0162175D01*
X0153803Y0160976D02*
X0164587Y0160976D01*
X0140150Y0145727D02*
X0119691Y0145727D01*
X0118293Y0147125D01*
X0118293Y0150557D01*
X0118291Y0150559D01*
X0115791Y0151388D02*
X0115791Y0151388D01*
X0115791Y0152587D02*
X0115791Y0152587D01*
X0115791Y0153785D02*
X0115791Y0153785D01*
X0113291Y0150559D02*
X0113291Y0147752D01*
X0117875Y0143168D01*
X0140150Y0143168D01*
X0140150Y0140609D02*
X0110434Y0140609D01*
X0108291Y0142752D01*
X0108291Y0150559D01*
X0105791Y0150559D02*
X0105791Y0144939D01*
X0105793Y0144938D01*
X0105793Y0141500D01*
X0113918Y0133375D01*
X0138606Y0133375D01*
X0140150Y0134919D01*
X0140150Y0135491D01*
X0140150Y0138050D02*
X0134219Y0138050D01*
X0133293Y0137125D01*
X0140150Y0138050D02*
X0145618Y0138050D01*
X0147043Y0136625D01*
X0159431Y0127418D02*
X0160514Y0127418D01*
X0159431Y0126220D02*
X0161712Y0126220D01*
X0156926Y0116632D02*
X0156743Y0116632D01*
X0164347Y0115433D02*
X0172039Y0115433D01*
X0171968Y0114234D02*
X0165545Y0114234D01*
X0166418Y0104312D02*
X0166418Y0093651D01*
X0166354Y0093587D01*
X0187056Y0103448D02*
X0187852Y0103448D01*
X0187431Y0104646D02*
X0187056Y0104646D01*
X0184856Y0109937D02*
X0186320Y0111402D01*
X0190705Y0111402D01*
X0205422Y0088941D02*
X0216059Y0088941D01*
X0223809Y0069890D02*
X0188781Y0069890D01*
X0188781Y0068691D02*
X0223809Y0068691D01*
X0223809Y0067493D02*
X0188781Y0067493D01*
X0188781Y0066294D02*
X0223809Y0066294D01*
X0223809Y0065096D02*
X0188781Y0065096D01*
X0131290Y0092661D02*
X0057718Y0092661D01*
X0057718Y0127418D02*
X0096382Y0127418D01*
X0096294Y0127506D02*
X0096592Y0127208D01*
X0096957Y0126997D01*
X0097364Y0126888D01*
X0099159Y0126888D01*
X0099159Y0130269D01*
X0095975Y0130269D01*
X0095975Y0128278D01*
X0096084Y0127871D01*
X0096294Y0127506D01*
X0095975Y0128617D02*
X0057718Y0128617D01*
X0057718Y0129815D02*
X0095975Y0129815D01*
X0099159Y0129815D02*
X0099928Y0129815D01*
X0099928Y0128617D02*
X0099159Y0128617D01*
X0099159Y0127418D02*
X0099928Y0127418D01*
X0103112Y0132212D02*
X0111970Y0132212D01*
X0110771Y0133411D02*
X0103010Y0133411D01*
X0103112Y0134609D02*
X0109573Y0134609D01*
X0108374Y0135808D02*
X0103112Y0135808D01*
X0103112Y0137006D02*
X0107176Y0137006D01*
X0105977Y0138205D02*
X0103112Y0138205D01*
X0103112Y0139403D02*
X0104779Y0139403D01*
X0103593Y0140602D02*
X0102685Y0140602D01*
X0101869Y0141800D02*
X0103593Y0141800D01*
X0103593Y0142999D02*
X0102592Y0142999D01*
X0102743Y0144197D02*
X0103591Y0144197D01*
X0103591Y0145396D02*
X0102429Y0145396D01*
X0101474Y0146594D02*
X0103591Y0146594D01*
X0099543Y0144000D02*
X0099543Y0137346D01*
X0096343Y0144197D02*
X0074608Y0144197D01*
X0075789Y0145396D02*
X0096658Y0145396D01*
X0097612Y0146594D02*
X0075828Y0146594D01*
X0101943Y0166969D02*
X0119401Y0166969D01*
X0113291Y0169366D02*
X0113291Y0169366D01*
X0113291Y0170565D02*
X0113291Y0170565D01*
X0113291Y0171763D02*
X0113291Y0171763D01*
X0110791Y0172441D02*
X0110791Y0175252D01*
X0106418Y0179625D01*
X0106418Y0187375D01*
X0108981Y0189937D01*
X0111287Y0187719D02*
X0111287Y0187106D01*
X0114471Y0187106D01*
X0114471Y0186337D01*
X0111287Y0186337D01*
X0111287Y0184345D01*
X0111319Y0184228D01*
X0110180Y0184700D01*
X0108907Y0184700D01*
X0108618Y0184580D01*
X0108618Y0186464D01*
X0108892Y0186737D01*
X0109617Y0186737D01*
X0110793Y0187225D01*
X0111287Y0187719D01*
X0111287Y0187344D02*
X0110912Y0187344D01*
X0111287Y0186145D02*
X0108618Y0186145D01*
X0108618Y0184947D02*
X0111287Y0184947D01*
X0114472Y0187344D02*
X0115240Y0187344D01*
X0115240Y0187106D02*
X0120409Y0187106D01*
X0120409Y0186337D01*
X0117225Y0186337D01*
X0115240Y0186337D01*
X0115240Y0187106D01*
X0115240Y0188542D02*
X0114472Y0188542D01*
X0114472Y0189741D02*
X0115240Y0189741D01*
X0120409Y0189741D02*
X0121178Y0189741D01*
X0121178Y0188542D02*
X0120409Y0188542D01*
X0120409Y0187344D02*
X0121178Y0187344D01*
X0120793Y0180029D02*
X0120791Y0180027D01*
X0120791Y0172441D01*
X0115791Y0172441D02*
X0115791Y0179093D01*
X0114856Y0180029D01*
X0145781Y0204123D02*
X0146550Y0204123D01*
X0146550Y0205321D02*
X0145781Y0205321D01*
X0145781Y0206520D02*
X0146550Y0206520D01*
X0148822Y0204123D02*
X0156957Y0204123D01*
X0155473Y0205321D02*
X0149723Y0205321D01*
X0159157Y0207344D02*
X0159157Y0201500D01*
X0166743Y0210115D02*
X0174475Y0210115D01*
X0174475Y0208917D02*
X0173356Y0208917D01*
X0174764Y0211314D02*
X0166743Y0211314D01*
X0166743Y0218505D02*
X0177592Y0218505D01*
X0181612Y0206520D02*
X0195356Y0206520D01*
X0196153Y0205321D02*
X0181601Y0205321D01*
X0180700Y0204123D02*
X0197352Y0204123D01*
X0178428Y0204123D02*
X0177659Y0204123D01*
X0177659Y0205321D02*
X0178428Y0205321D01*
X0180910Y0189741D02*
X0166743Y0189741D01*
X0166743Y0188542D02*
X0167104Y0188542D01*
X0169159Y0188542D02*
X0169928Y0188542D01*
X0169928Y0187344D02*
X0169159Y0187344D01*
X0169159Y0186145D02*
X0169928Y0186145D01*
X0169928Y0184947D02*
X0177343Y0184947D01*
X0177343Y0186145D02*
X0173112Y0186145D01*
X0173079Y0187344D02*
X0178513Y0187344D01*
X0179712Y0188542D02*
X0171982Y0188542D01*
X0173112Y0183748D02*
X0177343Y0183748D01*
X0177343Y0182550D02*
X0173112Y0182550D01*
X0172742Y0181351D02*
X0177343Y0181351D01*
X0177343Y0180153D02*
X0173112Y0180153D01*
X0201587Y0174160D02*
X0211592Y0174160D01*
X0214208Y0184947D02*
X0230652Y0184947D01*
X0230664Y0186145D02*
X0231343Y0186145D01*
X0231343Y0187344D02*
X0230946Y0187344D01*
X0230946Y0188542D02*
X0231343Y0188542D01*
X0231343Y0189741D02*
X0230946Y0189741D01*
X0230946Y0190939D02*
X0231343Y0190939D01*
X0231343Y0192138D02*
X0230499Y0192138D01*
X0230946Y0198130D02*
X0231343Y0198130D01*
X0231343Y0199329D02*
X0230888Y0199329D01*
X0222841Y0199329D02*
X0222072Y0199329D01*
X0222072Y0198130D02*
X0222841Y0198130D01*
X0222841Y0195733D02*
X0222072Y0195733D01*
X0222072Y0194535D02*
X0222841Y0194535D01*
X0214094Y0186145D02*
X0213009Y0186145D01*
X0235903Y0173535D02*
X0235903Y0173535D01*
X0232143Y0168168D02*
X0230847Y0168168D01*
X0230946Y0166969D02*
X0232143Y0166969D01*
X0232143Y0165770D02*
X0230946Y0165770D01*
X0230946Y0164572D02*
X0232143Y0164572D01*
X0232143Y0163373D02*
X0230946Y0163373D01*
X0230316Y0162175D02*
X0232143Y0162175D01*
X0232143Y0160976D02*
X0230164Y0160976D01*
X0230946Y0159778D02*
X0232143Y0159778D01*
X0232143Y0158579D02*
X0230946Y0158579D01*
X0230946Y0157381D02*
X0232143Y0157381D01*
X0232143Y0156182D02*
X0230946Y0156182D01*
X0230946Y0154984D02*
X0232143Y0154984D01*
X0208401Y0232887D02*
X0207276Y0232887D01*
X0201708Y0232887D02*
X0178441Y0232887D01*
X0182592Y0234086D02*
X0200924Y0234086D01*
X0200924Y0235284D02*
X0183441Y0235284D01*
X0204698Y0242475D02*
X0205073Y0242475D01*
X0205073Y0243674D02*
X0204698Y0243674D01*
X0223809Y0246071D02*
X0085277Y0246071D01*
X0085277Y0247269D02*
X0223809Y0247269D01*
X0223809Y0248468D02*
X0085277Y0248468D01*
X0085277Y0249666D02*
X0223809Y0249666D01*
X0223809Y0250865D02*
X0085277Y0250865D01*
X0085277Y0252063D02*
X0223809Y0252063D01*
X0223809Y0253262D02*
X0085277Y0253262D01*
X0085277Y0254460D02*
X0223809Y0254460D01*
X0223809Y0255659D02*
X0085277Y0255659D01*
X0085277Y0256857D02*
X0223809Y0256857D01*
X0223809Y0258056D02*
X0085277Y0258056D01*
X0110791Y0150559D02*
X0110791Y0145252D01*
X0112043Y0144000D01*
D30*
X0112043Y0144000D03*
X0099543Y0144000D03*
X0078293Y0148688D03*
X0078293Y0156500D03*
X0079231Y0174625D03*
X0071418Y0181500D03*
X0080541Y0211085D03*
X0066106Y0220250D03*
X0069543Y0226500D03*
X0089543Y0246500D03*
X0109543Y0236500D03*
X0124543Y0241500D03*
X0144543Y0236500D03*
X0139418Y0220875D03*
X0127543Y0211500D03*
X0139419Y0207750D03*
X0152543Y0207750D03*
X0177981Y0202125D03*
X0198353Y0207647D03*
X0201165Y0204835D03*
X0205793Y0206500D03*
X0212356Y0199000D03*
X0222356Y0203062D03*
X0203606Y0188687D03*
X0203918Y0181500D03*
X0203918Y0168375D03*
X0203918Y0161188D03*
X0212668Y0149313D03*
X0202981Y0146188D03*
X0212668Y0141813D03*
X0212668Y0134000D03*
X0202981Y0122437D03*
X0202981Y0118062D03*
X0204543Y0114312D03*
X0205793Y0106500D03*
X0202668Y0102437D03*
X0208606Y0098375D03*
X0208606Y0084625D03*
X0201106Y0084625D03*
X0192981Y0080250D03*
X0185793Y0094312D03*
X0188606Y0100562D03*
X0184543Y0114625D03*
X0179856Y0114625D03*
X0175168Y0114625D03*
X0170168Y0114937D03*
X0161731Y0124312D03*
X0155481Y0108375D03*
X0150481Y0106500D03*
X0142668Y0106500D03*
X0125481Y0111187D03*
X0139543Y0121500D03*
X0127981Y0127437D03*
X0133293Y0137125D03*
X0147043Y0151125D03*
X0162043Y0148125D03*
X0175981Y0144625D03*
X0161543Y0160125D03*
X0140168Y0172750D03*
X0120793Y0192125D03*
X0114856Y0192125D03*
X0108981Y0189937D03*
X0109543Y0181500D03*
X0117356Y0202125D03*
X0104543Y0220750D03*
X0169543Y0231500D03*
X0180481Y0236500D03*
X0216418Y0236500D03*
X0219543Y0246500D03*
X0239543Y0226500D03*
X0174856Y0184937D03*
X0099543Y0125250D03*
X0104543Y0106500D03*
X0069543Y0096500D03*
X0089543Y0076500D03*
X0150481Y0082438D03*
X0166418Y0104312D03*
X0219543Y0076500D03*
X0239543Y0096500D03*
X0229231Y0098375D03*
D31*
X0222356Y0091500D01*
X0219607Y0091500D01*
X0229231Y0098375D02*
X0234543Y0103687D01*
X0234543Y0171500D01*
X0232732Y0173311D01*
X0222457Y0173311D01*
X0198382Y0191598D02*
X0198382Y0193717D01*
X0201165Y0196500D01*
X0146803Y0127712D02*
X0147303Y0127212D01*
D32*
X0147303Y0118015D01*
X0142668Y0113380D01*
X0142668Y0106500D01*
X0142732Y0106436D01*
X0142732Y0093587D01*
X0147303Y0127212D02*
X0147303Y0136365D01*
X0146803Y0127712D02*
X0140390Y0127712D01*
X0222457Y0181185D02*
X0231416Y0181185D01*
X0234543Y0184312D01*
X0234543Y0211500D01*
X0229543Y0216500D01*
X0204543Y0216500D01*
X0180112Y0216500D01*
X0178043Y0214431D01*
X0177650Y0214825D02*
X0169394Y0214825D01*
X0146165Y0214835D02*
X0139291Y0214835D01*
X0135817Y0214825D01*
X0132161Y0214825D01*
X0198353Y0207647D02*
X0201165Y0204835D01*
X0201165Y0196500D01*
X0207981Y0196500D01*
X0215422Y0189059D01*
X0222457Y0189059D01*
X0201165Y0204835D02*
X0199543Y0206457D01*
D33*
X0178043Y0214431D02*
X0177650Y0214825D01*
X0146165Y0214835D02*
X0146000Y0215000D01*
X0145890Y0215000D01*
X0090541Y0214835D02*
X0090541Y0207960D01*
X0089925Y0207344D01*
X0086283Y0207344D01*
X0090531Y0214825D02*
X0090541Y0214835D01*
X0076047Y0207344D02*
X0066559Y0207344D01*
X0066165Y0207738D01*
D34*
X0109543Y0181500D02*
X0111015Y0180029D01*
X0114856Y0180029D01*
X0146165Y0214431D02*
X0145890Y0215000D01*
X0147043Y0136625D02*
X0147303Y0136365D01*
D35*
X0147043Y0136625D03*
X0160043Y0169125D03*
X0139291Y0214835D03*
X0071106Y0201062D03*
M02*
