G75*
%MOIN*%
%OFA0B0*%
%FSLAX25Y25*%
%IPPOS*%
%LPD*%
%AMOC8*
5,1,8,0,0,1.08239X$1,22.5*
%
%ADD10R,0.04337X0.04731*%
%ADD11R,0.03550X0.03550*%
%ADD12R,0.04731X0.04337*%
%ADD13R,0.06699X0.05912*%
%ADD14R,0.07408X0.04416*%
%ADD15R,0.05912X0.06699*%
%ADD16R,0.03937X0.01772*%
%ADD17R,0.04928X0.02132*%
%ADD18R,0.04928X0.02880*%
%ADD19R,0.05900X0.01770*%
%ADD20R,0.05124X0.02565*%
%ADD21R,0.01660X0.05361*%
%ADD22C,0.12998*%
%ADD23R,0.05518X0.06109*%
%ADD24R,0.07880X0.07880*%
%ADD25R,0.05715X0.01975*%
%ADD26R,0.13786X0.06306*%
%ADD27R,0.14180X0.04337*%
%ADD28R,0.06306X0.13786*%
%ADD29R,0.04337X0.14180*%
%ADD30C,0.04900*%
D10*
X0111197Y0106500D03*
X0117890Y0106500D03*
X0099543Y0130654D03*
X0099543Y0137346D03*
X0114856Y0180029D03*
X0120793Y0180029D03*
X0120793Y0186721D03*
X0114856Y0186721D03*
X0146165Y0207738D03*
X0146165Y0214431D03*
X0140126Y0236500D03*
X0133433Y0236500D03*
X0104594Y0236500D03*
X0097902Y0236500D03*
X0066165Y0214431D03*
X0066165Y0207738D03*
X0168965Y0236500D03*
X0175657Y0236500D03*
X0178043Y0214431D03*
X0178043Y0207738D03*
X0169543Y0184846D03*
X0169543Y0178154D03*
X0204492Y0236500D03*
X0211185Y0236500D03*
X0211197Y0106500D03*
X0217890Y0106500D03*
D11*
X0210791Y0241500D03*
X0204886Y0241500D03*
X0175264Y0241500D03*
X0169358Y0241500D03*
X0139732Y0241500D03*
X0133827Y0241500D03*
X0104201Y0241500D03*
X0098295Y0241500D03*
D12*
X0133697Y0127712D03*
X0140390Y0127712D03*
X0191197Y0106500D03*
X0197890Y0106500D03*
D13*
X0195449Y0146500D03*
X0183638Y0146500D03*
D14*
X0096165Y0207581D03*
X0096165Y0214589D03*
D15*
X0111165Y0216990D03*
X0111165Y0205179D03*
X0071472Y0174098D03*
X0071472Y0148902D03*
D16*
X0193028Y0099177D03*
X0193028Y0096618D03*
X0193028Y0094059D03*
X0193028Y0091500D03*
X0193028Y0088941D03*
X0193028Y0086382D03*
X0193028Y0083823D03*
X0216059Y0083823D03*
X0216059Y0086382D03*
X0216059Y0088941D03*
X0216059Y0091500D03*
X0216059Y0094059D03*
X0216059Y0096618D03*
X0216059Y0099177D03*
D17*
X0198382Y0114925D03*
X0198382Y0118075D03*
X0190705Y0118075D03*
X0190705Y0114925D03*
X0190705Y0164925D03*
X0190705Y0168075D03*
X0198382Y0168075D03*
X0198382Y0164925D03*
X0198382Y0184925D03*
X0198382Y0188075D03*
X0190705Y0188075D03*
X0190705Y0184925D03*
D18*
X0190705Y0181402D03*
X0198382Y0181402D03*
X0198382Y0171598D03*
X0190705Y0171598D03*
X0190705Y0161402D03*
X0198382Y0161402D03*
X0198382Y0191598D03*
X0190705Y0191598D03*
X0190705Y0121598D03*
X0198382Y0121598D03*
X0198382Y0111402D03*
X0190705Y0111402D03*
D19*
X0168937Y0135491D03*
X0168937Y0138050D03*
X0168937Y0140609D03*
X0168937Y0143168D03*
X0168937Y0145727D03*
X0168937Y0148286D03*
X0168937Y0150845D03*
X0168937Y0153405D03*
X0168937Y0155964D03*
X0168937Y0158523D03*
X0168937Y0161082D03*
X0168937Y0163641D03*
X0168937Y0166200D03*
X0168937Y0168759D03*
X0140150Y0168759D03*
X0140150Y0166200D03*
X0140150Y0163641D03*
X0140150Y0161082D03*
X0140150Y0158523D03*
X0140150Y0155964D03*
X0140150Y0153405D03*
X0140150Y0150845D03*
X0140150Y0148286D03*
X0140150Y0145727D03*
X0140150Y0143168D03*
X0140150Y0140609D03*
X0140150Y0138050D03*
X0140150Y0135491D03*
D20*
X0132161Y0207344D03*
X0121925Y0207344D03*
X0121925Y0211085D03*
X0121925Y0214825D03*
X0132161Y0214825D03*
X0159157Y0214825D03*
X0159157Y0211085D03*
X0159157Y0207344D03*
X0169394Y0207344D03*
X0169394Y0214825D03*
X0086283Y0214825D03*
X0086283Y0211085D03*
X0086283Y0207344D03*
X0076047Y0207344D03*
X0076047Y0214825D03*
D21*
X0105791Y0172441D03*
X0108291Y0172441D03*
X0110791Y0172441D03*
X0113291Y0172441D03*
X0115791Y0172441D03*
X0118291Y0172441D03*
X0120791Y0172441D03*
X0123291Y0172441D03*
X0123291Y0150559D03*
X0120791Y0150559D03*
X0118291Y0150559D03*
X0115791Y0150559D03*
X0113291Y0150559D03*
X0110791Y0150559D03*
X0108291Y0150559D03*
X0105791Y0150559D03*
D22*
X0071866Y0078823D03*
X0237220Y0078823D03*
X0237220Y0244177D03*
X0071866Y0244177D03*
D23*
X0061827Y0174984D03*
X0061827Y0148016D03*
D24*
X0061827Y0156776D03*
X0061827Y0166224D03*
D25*
X0072358Y0166618D03*
X0072358Y0164059D03*
X0072358Y0161500D03*
X0072358Y0158941D03*
X0072358Y0156382D03*
D26*
X0245094Y0116815D03*
X0245094Y0206185D03*
D27*
X0222457Y0196933D03*
X0222457Y0189059D03*
X0222457Y0181185D03*
X0222457Y0173311D03*
X0222457Y0165437D03*
X0222457Y0157563D03*
X0222457Y0149689D03*
X0222457Y0141815D03*
X0222457Y0133941D03*
X0222457Y0126067D03*
D28*
X0184228Y0070949D03*
X0124858Y0070949D03*
D29*
X0134858Y0093587D03*
X0142732Y0093587D03*
X0150606Y0093587D03*
X0158480Y0093587D03*
X0166354Y0093587D03*
X0174228Y0093587D03*
D30*
X0147043Y0136625D03*
X0160043Y0169125D03*
X0139291Y0214835D03*
X0071106Y0201062D03*
M02*
