%
M48
M72
T01C0.0200
T02C0.0300
T03C0.1260
%
T01
X21954Y7650
X20861Y8463
X20111Y8463
X19298Y8025
X18579Y9431
X18861Y10056
X20267Y10244
X20861Y9838
X20579Y10650
X20454Y11431
X20298Y11806
X20298Y12244
X21267Y13400
X21267Y14181
X20298Y14619
X21267Y14931
X20392Y16119
X20392Y16838
X20392Y18150
X20361Y18869
X21236Y19900
X20579Y20650
X20117Y20483
X19835Y20765
X17798Y20213
X17486Y18494
X16154Y16013
X14704Y15113
X16204Y14813
X17598Y14462
X16173Y12431
X17017Y11494
X17517Y11463
X17986Y11463
X18454Y11463
X16642Y10431
X15548Y10838
X15048Y10650
X14267Y10650
X12548Y11119
X13954Y12150
X12798Y12744
X13329Y13713
X11204Y14400
X9954Y14400
X7829Y14869
X7829Y15650
X7923Y17463
X7142Y18150
X8054Y21108
X6611Y22025
X6954Y22650
X21954Y24650
X21642Y23650
X23954Y9650
X22923Y9838
X15048Y8244
X10454Y10650
X9954Y12525
X6954Y9650
X8954Y7650
X8954Y24650
X10954Y23650
X12454Y24150
X14454Y23650
X13942Y22087
X12754Y21150
X13942Y20775
X15254Y20775
X16954Y23150
X18048Y23650
X22236Y20306
X23954Y22650
X14017Y17275
X12079Y19213
X11486Y19213
X10898Y18994
X10954Y18150
X11736Y20213
X10454Y22075
T02
X14704Y13663
X16004Y16913
X13929Y21483
X7111Y20106
T03
X23722Y7882
X23722Y24418
X7187Y24418
X7187Y7882
M30
