G75*
%MOIN*%
%OFA0B0*%
%FSLAX25Y25*%
%IPPOS*%
%LPD*%
%AMOC8*
5,1,8,0,0,1.08239X$1,22.5*
%
%ADD10R,0.03937X0.04331*%
%ADD11R,0.04724X0.04724*%
%ADD12R,0.04331X0.03937*%
%ADD13R,0.06299X0.05512*%
%ADD14R,0.07008X0.04016*%
%ADD15R,0.05512X0.06299*%
%ADD16R,0.03543X0.01378*%
%ADD17R,0.04528X0.01732*%
%ADD18R,0.04528X0.02480*%
%ADD19R,0.05500X0.01370*%
%ADD20R,0.04724X0.02165*%
%ADD21R,0.01260X0.04961*%
%ADD22R,0.05906X0.05315*%
%ADD23R,0.05512X0.05512*%
%ADD24R,0.04724X0.01575*%
%ADD25R,0.06425X0.06425*%
%ADD26C,0.06425*%
%ADD27R,0.06437X0.06437*%
%ADD28C,0.06437*%
%ADD29C,0.01200*%
%ADD30C,0.03200*%
%ADD31C,0.01600*%
%ADD32C,0.03200*%
%ADD33C,0.02000*%
%ADD34C,0.02400*%
%ADD35C,0.04500*%
%ADD36C,0.01400*%
D10*
X0116197Y0106500D03*
X0122890Y0106500D03*
X0089543Y0130654D03*
X0089543Y0137346D03*
X0060016Y0155594D03*
X0060016Y0167406D03*
X0104856Y0180029D03*
X0110793Y0180029D03*
X0110793Y0186721D03*
X0104856Y0186721D03*
X0066165Y0207738D03*
X0066165Y0214431D03*
X0097902Y0235516D03*
X0104594Y0235516D03*
X0133433Y0235516D03*
X0140126Y0235516D03*
X0146165Y0214431D03*
X0146165Y0207738D03*
X0159543Y0184846D03*
X0159543Y0178154D03*
X0178043Y0207738D03*
X0178043Y0214431D03*
X0175657Y0235516D03*
X0168965Y0235516D03*
X0204492Y0235516D03*
X0211185Y0235516D03*
X0195793Y0099846D03*
X0195793Y0093154D03*
D11*
X0203705Y0241500D03*
X0211972Y0241500D03*
X0176445Y0241500D03*
X0168177Y0241500D03*
X0140913Y0241500D03*
X0132646Y0241500D03*
X0105382Y0241500D03*
X0097114Y0241500D03*
D12*
X0123697Y0127712D03*
X0130390Y0127712D03*
D13*
X0173638Y0146500D03*
X0185449Y0146500D03*
D14*
X0096165Y0207581D03*
X0096165Y0214589D03*
D15*
X0111165Y0216990D03*
X0111165Y0205179D03*
D16*
X0163028Y0104177D03*
X0163028Y0101618D03*
X0163028Y0099059D03*
X0163028Y0096500D03*
X0163028Y0093941D03*
X0163028Y0091382D03*
X0163028Y0088823D03*
X0186059Y0088823D03*
X0186059Y0091382D03*
X0186059Y0093941D03*
X0186059Y0096500D03*
X0186059Y0099059D03*
X0186059Y0101618D03*
X0186059Y0104177D03*
D17*
X0188382Y0114925D03*
X0188382Y0118075D03*
X0180705Y0118075D03*
X0180705Y0114925D03*
X0168382Y0114925D03*
X0168382Y0118075D03*
X0160705Y0118075D03*
X0160705Y0114925D03*
X0180705Y0164925D03*
X0180705Y0168075D03*
X0188382Y0168075D03*
X0188382Y0164925D03*
X0188382Y0184925D03*
X0188382Y0188075D03*
X0180705Y0188075D03*
X0180705Y0184925D03*
D18*
X0180705Y0181402D03*
X0188382Y0181402D03*
X0188382Y0171598D03*
X0180705Y0171598D03*
X0180705Y0161402D03*
X0188382Y0161402D03*
X0188382Y0191598D03*
X0180705Y0191598D03*
X0180705Y0121598D03*
X0188382Y0121598D03*
X0188382Y0111402D03*
X0180705Y0111402D03*
X0168382Y0111402D03*
X0160705Y0111402D03*
X0160705Y0121598D03*
X0168382Y0121598D03*
D19*
X0158937Y0135491D03*
X0158937Y0138050D03*
X0158937Y0140609D03*
X0158937Y0143168D03*
X0158937Y0145727D03*
X0158937Y0148286D03*
X0158937Y0150845D03*
X0158937Y0153405D03*
X0158937Y0155964D03*
X0158937Y0158523D03*
X0158937Y0161082D03*
X0158937Y0163641D03*
X0158937Y0166200D03*
X0158937Y0168759D03*
X0130150Y0168759D03*
X0130150Y0166200D03*
X0130150Y0163641D03*
X0130150Y0161082D03*
X0130150Y0158523D03*
X0130150Y0155964D03*
X0130150Y0153405D03*
X0130150Y0150845D03*
X0130150Y0148286D03*
X0130150Y0145727D03*
X0130150Y0143168D03*
X0130150Y0140609D03*
X0130150Y0138050D03*
X0130150Y0135491D03*
D20*
X0132161Y0207344D03*
X0121925Y0207344D03*
X0121925Y0211085D03*
X0121925Y0214825D03*
X0132161Y0214825D03*
X0159157Y0214825D03*
X0159157Y0211085D03*
X0159157Y0207344D03*
X0169394Y0207344D03*
X0169394Y0214825D03*
X0086283Y0214825D03*
X0086283Y0211085D03*
X0086283Y0207344D03*
X0076047Y0207344D03*
X0076047Y0214825D03*
D21*
X0095791Y0172441D03*
X0098291Y0172441D03*
X0100791Y0172441D03*
X0103291Y0172441D03*
X0105791Y0172441D03*
X0108291Y0172441D03*
X0110791Y0172441D03*
X0113291Y0172441D03*
X0113291Y0150559D03*
X0110791Y0150559D03*
X0108291Y0150559D03*
X0105791Y0150559D03*
X0103291Y0150559D03*
X0100791Y0150559D03*
X0098291Y0150559D03*
X0095791Y0150559D03*
D22*
X0064543Y0145457D03*
X0064543Y0177543D03*
D23*
X0075173Y0174689D03*
X0075173Y0148311D03*
D24*
X0076984Y0156382D03*
X0076984Y0158941D03*
X0076984Y0161500D03*
X0076984Y0164059D03*
X0076984Y0166618D03*
D25*
X0129543Y0076500D03*
D26*
X0139543Y0076500D03*
X0149543Y0076500D03*
X0159543Y0076500D03*
X0169543Y0076500D03*
X0179543Y0076500D03*
D27*
X0200961Y0206500D03*
D28*
X0200961Y0196500D03*
X0200961Y0186500D03*
X0200961Y0176500D03*
X0200961Y0166500D03*
X0200961Y0156500D03*
X0200961Y0146500D03*
X0200961Y0136500D03*
X0200961Y0126500D03*
X0200961Y0116500D03*
D29*
X0085277Y0078226D02*
X0085277Y0064675D01*
X0223809Y0064675D01*
X0223809Y0078226D01*
X0223766Y0078276D01*
X0223809Y0078880D01*
X0223809Y0079486D01*
X0223856Y0079532D01*
X0223896Y0080087D01*
X0223825Y0080196D01*
X0223942Y0080732D01*
X0223981Y0081279D01*
X0224079Y0081364D01*
X0224211Y0081970D01*
X0224157Y0082089D01*
X0224349Y0082602D01*
X0224465Y0083138D01*
X0224575Y0083208D01*
X0224792Y0083789D01*
X0224755Y0083914D01*
X0225018Y0084396D01*
X0225209Y0084909D01*
X0225328Y0084963D01*
X0225625Y0085508D01*
X0225606Y0085637D01*
X0225935Y0086076D01*
X0226198Y0086557D01*
X0226323Y0086593D01*
X0226694Y0087090D01*
X0226694Y0087220D01*
X0227082Y0087608D01*
X0227411Y0088047D01*
X0227539Y0088065D01*
X0227978Y0088504D01*
X0227997Y0088633D01*
X0228435Y0088961D01*
X0228823Y0089349D01*
X0228953Y0089349D01*
X0229450Y0089721D01*
X0229486Y0089846D01*
X0229968Y0090108D01*
X0230407Y0090437D01*
X0230536Y0090418D01*
X0231080Y0090716D01*
X0231134Y0090834D01*
X0231648Y0091026D01*
X0232129Y0091288D01*
X0232254Y0091252D01*
X0232835Y0091468D01*
X0232905Y0091578D01*
X0233441Y0091695D01*
X0233955Y0091886D01*
X0234073Y0091832D01*
X0234679Y0091964D01*
X0234764Y0092062D01*
X0235311Y0092101D01*
X0235847Y0092218D01*
X0235957Y0092148D01*
X0236511Y0092187D01*
X0236558Y0092234D01*
X0237163Y0092234D01*
X0237767Y0092277D01*
X0237817Y0092234D01*
X0251369Y0092234D01*
X0251369Y0230766D01*
X0237817Y0230766D01*
X0237767Y0230723D01*
X0237163Y0230766D01*
X0236558Y0230766D01*
X0236511Y0230813D01*
X0235957Y0230852D01*
X0235847Y0230782D01*
X0235311Y0230899D01*
X0234764Y0230938D01*
X0234679Y0231036D01*
X0234073Y0231168D01*
X0233955Y0231114D01*
X0233441Y0231305D01*
X0232905Y0231422D01*
X0232835Y0231532D01*
X0232254Y0231748D01*
X0232129Y0231712D01*
X0231648Y0231974D01*
X0231134Y0232166D01*
X0231080Y0232284D01*
X0230536Y0232582D01*
X0230407Y0232563D01*
X0229968Y0232892D01*
X0229486Y0233154D01*
X0229450Y0233279D01*
X0228953Y0233651D01*
X0228823Y0233651D01*
X0228435Y0234039D01*
X0227997Y0234367D01*
X0227978Y0234496D01*
X0227539Y0234935D01*
X0227411Y0234953D01*
X0227082Y0235392D01*
X0226694Y0235780D01*
X0226694Y0235910D01*
X0226323Y0236406D01*
X0226198Y0236443D01*
X0225935Y0236924D01*
X0225606Y0237363D01*
X0225625Y0237492D01*
X0225328Y0238037D01*
X0225209Y0238091D01*
X0225018Y0238604D01*
X0224755Y0239086D01*
X0224792Y0239211D01*
X0224575Y0239792D01*
X0224465Y0239862D01*
X0224349Y0240398D01*
X0224157Y0240911D01*
X0224211Y0241030D01*
X0224079Y0241636D01*
X0223981Y0241721D01*
X0223942Y0242268D01*
X0223825Y0242804D01*
X0223896Y0242913D01*
X0223856Y0243468D01*
X0223809Y0243514D01*
X0223809Y0244120D01*
X0223766Y0244724D01*
X0223809Y0244774D01*
X0223809Y0258325D01*
X0085277Y0258325D01*
X0085277Y0244774D01*
X0085320Y0244724D01*
X0085277Y0244120D01*
X0085277Y0243514D01*
X0085230Y0243468D01*
X0085191Y0242913D01*
X0085261Y0242804D01*
X0085145Y0242268D01*
X0085106Y0241721D01*
X0085007Y0241636D01*
X0084875Y0241030D01*
X0084929Y0240911D01*
X0084738Y0240398D01*
X0084621Y0239862D01*
X0084512Y0239792D01*
X0084295Y0239211D01*
X0084332Y0239086D01*
X0084069Y0238604D01*
X0083877Y0238091D01*
X0083759Y0238037D01*
X0083462Y0237492D01*
X0083480Y0237363D01*
X0083152Y0236924D01*
X0082889Y0236443D01*
X0082764Y0236406D01*
X0082392Y0235910D01*
X0082392Y0235780D01*
X0082005Y0235392D01*
X0081676Y0234953D01*
X0081547Y0234935D01*
X0081109Y0234496D01*
X0081090Y0234367D01*
X0080651Y0234039D01*
X0080263Y0233651D01*
X0080133Y0233651D01*
X0079637Y0233279D01*
X0079600Y0233154D01*
X0079119Y0232892D01*
X0078680Y0232563D01*
X0078551Y0232582D01*
X0078007Y0232284D01*
X0077953Y0232166D01*
X0077439Y0231974D01*
X0076958Y0231712D01*
X0076833Y0231748D01*
X0076252Y0231532D01*
X0076181Y0231422D01*
X0075646Y0231305D01*
X0075132Y0231114D01*
X0075013Y0231168D01*
X0074407Y0231036D01*
X0074322Y0230938D01*
X0073775Y0230899D01*
X0073240Y0230782D01*
X0073130Y0230852D01*
X0072576Y0230813D01*
X0072529Y0230766D01*
X0071923Y0230766D01*
X0071319Y0230723D01*
X0071269Y0230766D01*
X0057718Y0230766D01*
X0057718Y0171139D01*
X0057837Y0171171D01*
X0059631Y0171171D01*
X0059631Y0167790D01*
X0060400Y0167790D01*
X0060400Y0171171D01*
X0062195Y0171171D01*
X0062602Y0171062D01*
X0062967Y0170851D01*
X0063265Y0170553D01*
X0063475Y0170188D01*
X0063584Y0169782D01*
X0063584Y0167790D01*
X0060400Y0167790D01*
X0060400Y0167021D01*
X0060400Y0163640D01*
X0062195Y0163640D01*
X0062602Y0163749D01*
X0062967Y0163960D01*
X0063265Y0164258D01*
X0063475Y0164623D01*
X0063584Y0165030D01*
X0063584Y0167021D01*
X0060400Y0167021D01*
X0059631Y0167021D01*
X0059631Y0163640D01*
X0057837Y0163640D01*
X0057718Y0163672D01*
X0057718Y0159328D01*
X0057837Y0159360D01*
X0059631Y0159360D01*
X0059631Y0155979D01*
X0060400Y0155979D01*
X0060400Y0159360D01*
X0062195Y0159360D01*
X0062602Y0159251D01*
X0062967Y0159040D01*
X0063265Y0158742D01*
X0063475Y0158377D01*
X0063584Y0157970D01*
X0063584Y0155979D01*
X0060400Y0155979D01*
X0060400Y0155210D01*
X0060400Y0151829D01*
X0062195Y0151829D01*
X0062602Y0151938D01*
X0062967Y0152149D01*
X0063265Y0152447D01*
X0063475Y0152812D01*
X0063584Y0153218D01*
X0063584Y0155210D01*
X0060400Y0155210D01*
X0059631Y0155210D01*
X0059631Y0151829D01*
X0057837Y0151829D01*
X0057718Y0151861D01*
X0057718Y0092234D01*
X0071269Y0092234D01*
X0071319Y0092277D01*
X0071923Y0092234D01*
X0072529Y0092234D01*
X0072576Y0092187D01*
X0073130Y0092148D01*
X0073240Y0092218D01*
X0073775Y0092101D01*
X0074322Y0092062D01*
X0074407Y0091964D01*
X0075013Y0091832D01*
X0075132Y0091886D01*
X0075646Y0091695D01*
X0076181Y0091578D01*
X0076252Y0091468D01*
X0076833Y0091252D01*
X0076958Y0091288D01*
X0077439Y0091026D01*
X0077953Y0090834D01*
X0078007Y0090716D01*
X0078551Y0090418D01*
X0078680Y0090437D01*
X0079119Y0090108D01*
X0079600Y0089846D01*
X0079637Y0089721D01*
X0080133Y0089349D01*
X0080263Y0089349D01*
X0080651Y0088961D01*
X0081090Y0088633D01*
X0081109Y0088504D01*
X0081547Y0088065D01*
X0081676Y0088047D01*
X0082005Y0087608D01*
X0082392Y0087220D01*
X0082392Y0087090D01*
X0082764Y0086593D01*
X0082889Y0086557D01*
X0083152Y0086076D01*
X0083480Y0085637D01*
X0083462Y0085508D01*
X0083759Y0084963D01*
X0083877Y0084909D01*
X0084069Y0084396D01*
X0084332Y0083914D01*
X0084295Y0083789D01*
X0084512Y0083208D01*
X0084621Y0083138D01*
X0084738Y0082602D01*
X0084929Y0082089D01*
X0084875Y0081970D01*
X0085007Y0081364D01*
X0085106Y0081279D01*
X0085145Y0080732D01*
X0085261Y0080196D01*
X0085191Y0080087D01*
X0085230Y0079532D01*
X0085277Y0079486D01*
X0085277Y0078880D01*
X0085320Y0078276D01*
X0085277Y0078226D01*
X0085320Y0078279D02*
X0124731Y0078279D01*
X0124731Y0077081D02*
X0085277Y0077081D01*
X0085277Y0075882D02*
X0124731Y0075882D01*
X0124731Y0074684D02*
X0085277Y0074684D01*
X0085277Y0073485D02*
X0124731Y0073485D01*
X0124731Y0072625D02*
X0125668Y0071687D01*
X0133419Y0071687D01*
X0134356Y0072625D01*
X0134356Y0080375D01*
X0133419Y0081313D01*
X0131743Y0081313D01*
X0131743Y0102126D01*
X0133632Y0100237D01*
X0155781Y0100237D01*
X0155781Y0093089D01*
X0157070Y0091800D01*
X0159656Y0089214D01*
X0159656Y0088823D01*
X0163027Y0088823D01*
X0163027Y0088823D01*
X0159656Y0088823D01*
X0159656Y0087923D01*
X0159765Y0087516D01*
X0159976Y0087151D01*
X0160273Y0086854D01*
X0160638Y0086643D01*
X0161045Y0086534D01*
X0163027Y0086534D01*
X0163027Y0088823D01*
X0163028Y0088823D01*
X0166399Y0088823D01*
X0166399Y0089722D01*
X0166334Y0089965D01*
X0166399Y0090030D01*
X0166399Y0091741D01*
X0167069Y0091741D01*
X0167143Y0091562D01*
X0168043Y0090662D01*
X0169219Y0090175D01*
X0170492Y0090175D01*
X0171668Y0090662D01*
X0172569Y0091562D01*
X0173056Y0092738D01*
X0173056Y0093987D01*
X0178505Y0093987D01*
X0178505Y0088802D01*
X0179793Y0087514D01*
X0180684Y0086623D01*
X0183536Y0086623D01*
X0183625Y0086534D01*
X0188493Y0086534D01*
X0189431Y0087471D01*
X0189431Y0088300D01*
X0190180Y0088300D01*
X0191356Y0088787D01*
X0192256Y0089687D01*
X0192453Y0090164D01*
X0192544Y0090006D01*
X0192842Y0089708D01*
X0193207Y0089497D01*
X0193614Y0089388D01*
X0195409Y0089388D01*
X0195409Y0092769D01*
X0196178Y0092769D01*
X0196178Y0093538D01*
X0199362Y0093538D01*
X0199362Y0095530D01*
X0199253Y0095936D01*
X0199042Y0096301D01*
X0198843Y0096500D01*
X0199362Y0097018D01*
X0199362Y0102675D01*
X0198425Y0103612D01*
X0197993Y0103612D01*
X0197993Y0104175D01*
X0198506Y0104687D01*
X0198993Y0105863D01*
X0198993Y0107112D01*
X0204830Y0107112D01*
X0207117Y0109400D01*
X0207731Y0108787D01*
X0208907Y0108300D01*
X0210180Y0108300D01*
X0211356Y0108787D01*
X0212256Y0109687D01*
X0212743Y0110863D01*
X0212743Y0111306D01*
X0213140Y0111703D01*
X0213506Y0112585D01*
X0213506Y0175102D01*
X0213140Y0175984D01*
X0212465Y0176660D01*
X0211265Y0177859D01*
X0210590Y0178535D01*
X0209708Y0178900D01*
X0205182Y0178900D01*
X0205046Y0179229D01*
X0203690Y0180585D01*
X0201919Y0181318D01*
X0200002Y0181318D01*
X0198231Y0180585D01*
X0196876Y0179229D01*
X0196142Y0177458D01*
X0196142Y0175542D01*
X0196279Y0175212D01*
X0195065Y0173998D01*
X0191749Y0173998D01*
X0191308Y0174439D01*
X0185455Y0174439D01*
X0184543Y0173527D01*
X0183631Y0174439D01*
X0177778Y0174439D01*
X0176841Y0173501D01*
X0176841Y0170275D01*
X0176144Y0170275D01*
X0174882Y0169012D01*
X0174556Y0168686D01*
X0174556Y0178401D01*
X0175356Y0179202D01*
X0177138Y0179202D01*
X0177778Y0178561D01*
X0183631Y0178561D01*
X0184568Y0179499D01*
X0184568Y0179763D01*
X0184627Y0179544D01*
X0184838Y0179179D01*
X0185136Y0178881D01*
X0185501Y0178670D01*
X0185907Y0178561D01*
X0188362Y0178561D01*
X0188362Y0181381D01*
X0188402Y0181381D01*
X0188402Y0178561D01*
X0190856Y0178561D01*
X0191263Y0178670D01*
X0191628Y0178881D01*
X0191926Y0179179D01*
X0192137Y0179544D01*
X0192246Y0179951D01*
X0192246Y0181381D01*
X0188402Y0181381D01*
X0188402Y0181422D01*
X0192246Y0181422D01*
X0192246Y0182525D01*
X0198121Y0182525D01*
X0198231Y0182415D01*
X0200002Y0181681D01*
X0201919Y0181681D01*
X0203690Y0182415D01*
X0204575Y0183300D01*
X0219018Y0183300D01*
X0219018Y0114369D01*
X0208549Y0103900D01*
X0206669Y0103900D01*
X0206356Y0104213D01*
X0205180Y0104700D01*
X0203907Y0104700D01*
X0202731Y0104213D01*
X0201830Y0103313D01*
X0201343Y0102137D01*
X0201343Y0100863D01*
X0201830Y0099687D01*
X0202731Y0098787D01*
X0203907Y0098300D01*
X0205180Y0098300D01*
X0206356Y0098787D01*
X0206669Y0099100D01*
X0210021Y0099100D01*
X0210903Y0099465D01*
X0211578Y0100141D01*
X0223453Y0112016D01*
X0223818Y0112898D01*
X0223818Y0184375D01*
X0224131Y0184687D01*
X0224618Y0185863D01*
X0224618Y0210262D01*
X0224131Y0211438D01*
X0217256Y0218313D01*
X0216356Y0219213D01*
X0215180Y0219700D01*
X0206692Y0219700D01*
X0206692Y0231750D01*
X0207123Y0231750D01*
X0207839Y0232466D01*
X0208554Y0231750D01*
X0213816Y0231750D01*
X0214754Y0232688D01*
X0214754Y0233726D01*
X0215782Y0233300D01*
X0217055Y0233300D01*
X0218231Y0233787D01*
X0219131Y0234687D01*
X0219618Y0235863D01*
X0219618Y0237137D01*
X0219131Y0238313D01*
X0218231Y0239213D01*
X0217951Y0239329D01*
X0217330Y0239950D01*
X0215935Y0241345D01*
X0215935Y0244525D01*
X0214997Y0245462D01*
X0208947Y0245462D01*
X0208010Y0244525D01*
X0208010Y0238738D01*
X0207839Y0238566D01*
X0207627Y0238778D01*
X0207667Y0238927D01*
X0207667Y0240919D01*
X0204286Y0240919D01*
X0204286Y0242081D01*
X0207667Y0242081D01*
X0207667Y0244073D01*
X0207558Y0244480D01*
X0207347Y0244845D01*
X0207049Y0245143D01*
X0206684Y0245353D01*
X0206278Y0245462D01*
X0204286Y0245462D01*
X0204286Y0242081D01*
X0203124Y0242081D01*
X0203124Y0245462D01*
X0201132Y0245462D01*
X0200725Y0245353D01*
X0200360Y0245143D01*
X0200062Y0244845D01*
X0199852Y0244480D01*
X0199743Y0244073D01*
X0199743Y0242081D01*
X0203124Y0242081D01*
X0203124Y0240919D01*
X0199743Y0240919D01*
X0199743Y0238927D01*
X0199852Y0238520D01*
X0200062Y0238155D01*
X0200360Y0237857D01*
X0200725Y0237647D01*
X0200924Y0237594D01*
X0200924Y0232688D01*
X0201861Y0231750D01*
X0202292Y0231750D01*
X0202292Y0219700D01*
X0179476Y0219700D01*
X0178300Y0219213D01*
X0177399Y0218313D01*
X0177399Y0218313D01*
X0177283Y0218196D01*
X0175412Y0218196D01*
X0175240Y0218025D01*
X0168757Y0218025D01*
X0167581Y0217538D01*
X0167551Y0217507D01*
X0166743Y0217507D01*
X0166743Y0231750D01*
X0171596Y0231750D01*
X0172311Y0232466D01*
X0173026Y0231750D01*
X0178289Y0231750D01*
X0179226Y0232688D01*
X0179226Y0233556D01*
X0179844Y0233300D01*
X0181117Y0233300D01*
X0182293Y0233787D01*
X0183194Y0234687D01*
X0183681Y0235863D01*
X0183681Y0237137D01*
X0183194Y0238313D01*
X0182681Y0238825D01*
X0182681Y0239599D01*
X0181392Y0240887D01*
X0180407Y0241872D01*
X0180407Y0244525D01*
X0179470Y0245462D01*
X0173420Y0245462D01*
X0172483Y0244525D01*
X0172483Y0238738D01*
X0172311Y0238566D01*
X0172099Y0238778D01*
X0172139Y0238927D01*
X0172139Y0240919D01*
X0168758Y0240919D01*
X0168758Y0242081D01*
X0167596Y0242081D01*
X0167596Y0240919D01*
X0164215Y0240919D01*
X0164215Y0238927D01*
X0164324Y0238520D01*
X0164535Y0238155D01*
X0164833Y0237857D01*
X0165078Y0237716D01*
X0164835Y0237716D01*
X0162343Y0235224D01*
X0162343Y0217347D01*
X0162315Y0217375D01*
X0162315Y0227812D01*
X0161950Y0228694D01*
X0159450Y0231194D01*
X0158775Y0231869D01*
X0157893Y0232235D01*
X0143241Y0232235D01*
X0143694Y0232688D01*
X0143694Y0233388D01*
X0143907Y0233300D01*
X0145180Y0233300D01*
X0146356Y0233787D01*
X0147256Y0234687D01*
X0147743Y0235863D01*
X0147743Y0237137D01*
X0147256Y0238313D01*
X0146743Y0238825D01*
X0146743Y0240536D01*
X0145455Y0241825D01*
X0144876Y0242404D01*
X0144876Y0244525D01*
X0143938Y0245462D01*
X0137888Y0245462D01*
X0136951Y0244525D01*
X0136951Y0238738D01*
X0136780Y0238566D01*
X0136608Y0238738D01*
X0136608Y0244525D01*
X0135671Y0245462D01*
X0129621Y0245462D01*
X0128683Y0244525D01*
X0128683Y0243700D01*
X0126869Y0243700D01*
X0126356Y0244213D01*
X0125180Y0244700D01*
X0123907Y0244700D01*
X0122731Y0244213D01*
X0121830Y0243313D01*
X0121343Y0242137D01*
X0121343Y0240863D01*
X0121830Y0239687D01*
X0122731Y0238787D01*
X0123907Y0238300D01*
X0125180Y0238300D01*
X0126356Y0238787D01*
X0126869Y0239300D01*
X0128683Y0239300D01*
X0128683Y0238475D01*
X0129443Y0237716D01*
X0124614Y0237716D01*
X0121223Y0234325D01*
X0111894Y0234325D01*
X0112256Y0234687D01*
X0112743Y0235863D01*
X0112743Y0237137D01*
X0112256Y0238313D01*
X0111743Y0238825D01*
X0111743Y0240536D01*
X0110455Y0241825D01*
X0109344Y0242935D01*
X0109344Y0244525D01*
X0108407Y0245462D01*
X0102357Y0245462D01*
X0101420Y0244525D01*
X0101420Y0238738D01*
X0101248Y0238566D01*
X0101036Y0238778D01*
X0101076Y0238927D01*
X0101076Y0240919D01*
X0097695Y0240919D01*
X0097695Y0242081D01*
X0096533Y0242081D01*
X0096533Y0240919D01*
X0093152Y0240919D01*
X0093152Y0238927D01*
X0093261Y0238520D01*
X0093472Y0238155D01*
X0093770Y0237857D01*
X0094015Y0237716D01*
X0085460Y0237716D01*
X0068906Y0221161D01*
X0068906Y0217998D01*
X0068751Y0218087D01*
X0068345Y0218196D01*
X0066550Y0218196D01*
X0066550Y0214815D01*
X0065781Y0214815D01*
X0065781Y0214047D01*
X0062597Y0214047D01*
X0062597Y0212055D01*
X0062706Y0211648D01*
X0062917Y0211283D01*
X0063115Y0211085D01*
X0062918Y0210887D01*
X0062695Y0210887D01*
X0061406Y0209599D01*
X0061406Y0197151D01*
X0062695Y0195862D01*
X0077642Y0195862D01*
X0078931Y0197151D01*
X0078931Y0204662D01*
X0079072Y0204662D01*
X0080009Y0205599D01*
X0080009Y0209090D01*
X0079072Y0210027D01*
X0078502Y0210027D01*
X0077642Y0210887D01*
X0073306Y0210887D01*
X0073306Y0212142D01*
X0079072Y0212142D01*
X0080009Y0213079D01*
X0080009Y0216570D01*
X0079072Y0217507D01*
X0073306Y0217507D01*
X0073306Y0219339D01*
X0087283Y0233316D01*
X0094333Y0233316D01*
X0094333Y0232688D01*
X0094786Y0232235D01*
X0090688Y0232235D01*
X0089806Y0231869D01*
X0084806Y0226869D01*
X0084806Y0226869D01*
X0084131Y0226194D01*
X0083765Y0225312D01*
X0083765Y0217507D01*
X0083259Y0217507D01*
X0082321Y0216570D01*
X0082321Y0213079D01*
X0082498Y0212902D01*
X0082430Y0212785D01*
X0082321Y0212378D01*
X0082321Y0211085D01*
X0086283Y0211085D01*
X0086283Y0211085D01*
X0082321Y0211085D01*
X0082321Y0209791D01*
X0082430Y0209384D01*
X0082498Y0209267D01*
X0082321Y0209090D01*
X0082321Y0205599D01*
X0083259Y0204662D01*
X0089308Y0204662D01*
X0089391Y0204744D01*
X0090268Y0204744D01*
X0090268Y0204682D01*
X0080634Y0195047D01*
X0080268Y0194165D01*
X0080268Y0173275D01*
X0079529Y0173275D01*
X0079529Y0174089D01*
X0075773Y0174089D01*
X0075773Y0175289D01*
X0074573Y0175289D01*
X0074573Y0174089D01*
X0070817Y0174089D01*
X0070817Y0173275D01*
X0068441Y0173275D01*
X0067559Y0172910D01*
X0066884Y0172234D01*
X0066518Y0171352D01*
X0066518Y0165398D01*
X0066884Y0164516D01*
X0067559Y0163840D01*
X0068441Y0163475D01*
X0073022Y0163475D01*
X0073022Y0157491D01*
X0073045Y0157467D01*
X0073022Y0157380D01*
X0073022Y0156382D01*
X0076984Y0156382D01*
X0076984Y0156382D01*
X0073022Y0156382D01*
X0073022Y0156210D01*
X0072494Y0156210D01*
X0071544Y0155817D01*
X0070817Y0155090D01*
X0070424Y0154140D01*
X0070424Y0153112D01*
X0070817Y0152162D01*
X0071061Y0151918D01*
X0070926Y0151684D01*
X0070817Y0151278D01*
X0070817Y0148911D01*
X0074573Y0148911D01*
X0074573Y0147711D01*
X0070817Y0147711D01*
X0070817Y0145344D01*
X0070926Y0144938D01*
X0071137Y0144573D01*
X0071435Y0144275D01*
X0071800Y0144064D01*
X0072207Y0143955D01*
X0074573Y0143955D01*
X0074573Y0147711D01*
X0075773Y0147711D01*
X0075773Y0143955D01*
X0078140Y0143955D01*
X0078547Y0144064D01*
X0078912Y0144275D01*
X0079209Y0144573D01*
X0079420Y0144938D01*
X0079529Y0145344D01*
X0079529Y0147711D01*
X0075773Y0147711D01*
X0075773Y0148911D01*
X0074573Y0148911D01*
X0074573Y0151537D01*
X0075199Y0152162D01*
X0075592Y0153112D01*
X0075592Y0153994D01*
X0076984Y0153994D01*
X0076984Y0156382D01*
X0076984Y0156382D01*
X0080946Y0156382D01*
X0080946Y0157380D01*
X0080923Y0157467D01*
X0080946Y0157491D01*
X0080946Y0159300D01*
X0108632Y0159300D01*
X0111091Y0156841D01*
X0111091Y0154639D01*
X0106999Y0154639D01*
X0106921Y0154562D01*
X0106632Y0154639D01*
X0105791Y0154639D01*
X0104951Y0154639D01*
X0104661Y0154562D01*
X0104584Y0154639D01*
X0094499Y0154639D01*
X0093561Y0153702D01*
X0093561Y0147416D01*
X0093591Y0147386D01*
X0093591Y0144028D01*
X0093593Y0144026D01*
X0093593Y0140589D01*
X0094882Y0139300D01*
X0101718Y0132464D01*
X0103007Y0131175D01*
X0120929Y0131175D01*
X0120914Y0131171D01*
X0120549Y0130960D01*
X0120251Y0130663D01*
X0120041Y0130298D01*
X0119931Y0129891D01*
X0119931Y0128096D01*
X0123313Y0128096D01*
X0123313Y0127327D01*
X0124081Y0127327D01*
X0124081Y0124143D01*
X0126073Y0124143D01*
X0126480Y0124252D01*
X0126845Y0124463D01*
X0127043Y0124661D01*
X0127562Y0124143D01*
X0129965Y0124143D01*
X0129937Y0124075D01*
X0128907Y0124075D01*
X0127731Y0123588D01*
X0126830Y0122688D01*
X0126343Y0121512D01*
X0126343Y0120238D01*
X0126830Y0119062D01*
X0127343Y0118550D01*
X0127343Y0108700D01*
X0126458Y0108700D01*
X0126458Y0109328D01*
X0125521Y0110265D01*
X0120259Y0110265D01*
X0119543Y0109550D01*
X0118828Y0110265D01*
X0113566Y0110265D01*
X0112628Y0109328D01*
X0112628Y0108700D01*
X0111869Y0108700D01*
X0111356Y0109213D01*
X0110180Y0109700D01*
X0108907Y0109700D01*
X0107731Y0109213D01*
X0106830Y0108313D01*
X0106343Y0107137D01*
X0106343Y0105863D01*
X0106830Y0104687D01*
X0107731Y0103787D01*
X0108907Y0103300D01*
X0110180Y0103300D01*
X0111356Y0103787D01*
X0111869Y0104300D01*
X0112628Y0104300D01*
X0112628Y0103672D01*
X0113566Y0102735D01*
X0118828Y0102735D01*
X0119543Y0103450D01*
X0120259Y0102735D01*
X0125521Y0102735D01*
X0126458Y0103672D01*
X0126458Y0104300D01*
X0127343Y0104300D01*
X0127343Y0081313D01*
X0125668Y0081313D01*
X0124731Y0080375D01*
X0124731Y0072625D01*
X0125069Y0072287D02*
X0085277Y0072287D01*
X0085277Y0071088D02*
X0223809Y0071088D01*
X0223809Y0069890D02*
X0085277Y0069890D01*
X0085277Y0068691D02*
X0223809Y0068691D01*
X0223809Y0067493D02*
X0085277Y0067493D01*
X0085277Y0066294D02*
X0223809Y0066294D01*
X0223809Y0065096D02*
X0085277Y0065096D01*
X0085277Y0079478D02*
X0124731Y0079478D01*
X0125032Y0080676D02*
X0085157Y0080676D01*
X0084896Y0081875D02*
X0127343Y0081875D01*
X0127343Y0083073D02*
X0084635Y0083073D01*
X0084137Y0084272D02*
X0127343Y0084272D01*
X0127343Y0085470D02*
X0083482Y0085470D01*
X0082708Y0086669D02*
X0127343Y0086669D01*
X0127343Y0087867D02*
X0081810Y0087867D01*
X0080547Y0089066D02*
X0127343Y0089066D01*
X0127343Y0090264D02*
X0078911Y0090264D01*
X0076267Y0091463D02*
X0127343Y0091463D01*
X0127343Y0092661D02*
X0057718Y0092661D01*
X0057718Y0093860D02*
X0127343Y0093860D01*
X0127343Y0095058D02*
X0057718Y0095058D01*
X0057718Y0096257D02*
X0127343Y0096257D01*
X0127343Y0097455D02*
X0057718Y0097455D01*
X0057718Y0098654D02*
X0127343Y0098654D01*
X0127343Y0099852D02*
X0057718Y0099852D01*
X0057718Y0101051D02*
X0127343Y0101051D01*
X0127343Y0102249D02*
X0057718Y0102249D01*
X0057718Y0103448D02*
X0108550Y0103448D01*
X0110537Y0103448D02*
X0112852Y0103448D01*
X0109543Y0106500D02*
X0116197Y0106500D01*
X0119541Y0103448D02*
X0119545Y0103448D01*
X0122890Y0106500D02*
X0129543Y0106500D01*
X0129543Y0076500D01*
X0134356Y0077081D02*
X0134731Y0077081D01*
X0134731Y0077457D02*
X0134731Y0075543D01*
X0135463Y0073774D01*
X0136817Y0072420D01*
X0138586Y0071687D01*
X0140501Y0071687D01*
X0142269Y0072420D01*
X0143623Y0073774D01*
X0144356Y0075543D01*
X0144356Y0077457D01*
X0143623Y0079226D01*
X0142269Y0080580D01*
X0140501Y0081313D01*
X0138586Y0081313D01*
X0136817Y0080580D01*
X0135463Y0079226D01*
X0134731Y0077457D01*
X0135071Y0078279D02*
X0134356Y0078279D01*
X0134356Y0079478D02*
X0135715Y0079478D01*
X0137050Y0080676D02*
X0134055Y0080676D01*
X0131743Y0081875D02*
X0224191Y0081875D01*
X0224451Y0083073D02*
X0131743Y0083073D01*
X0131743Y0084272D02*
X0224950Y0084272D01*
X0225604Y0085470D02*
X0131743Y0085470D01*
X0131743Y0086669D02*
X0160594Y0086669D01*
X0159671Y0087867D02*
X0131743Y0087867D01*
X0131743Y0089066D02*
X0159656Y0089066D01*
X0158605Y0090264D02*
X0131743Y0090264D01*
X0131743Y0091463D02*
X0157407Y0091463D01*
X0156208Y0092661D02*
X0131743Y0092661D01*
X0131743Y0093860D02*
X0155781Y0093860D01*
X0155781Y0095058D02*
X0131743Y0095058D01*
X0131743Y0096257D02*
X0155781Y0096257D01*
X0155781Y0097455D02*
X0131743Y0097455D01*
X0131743Y0098654D02*
X0155781Y0098654D01*
X0155781Y0099852D02*
X0131743Y0099852D01*
X0131743Y0101051D02*
X0132819Y0101051D01*
X0134543Y0102437D02*
X0132981Y0104000D01*
X0132981Y0123062D01*
X0129543Y0120875D02*
X0129543Y0106500D01*
X0127343Y0109440D02*
X0126346Y0109440D01*
X0127343Y0110639D02*
X0057718Y0110639D01*
X0057718Y0111837D02*
X0127343Y0111837D01*
X0127343Y0113036D02*
X0057718Y0113036D01*
X0057718Y0114234D02*
X0127343Y0114234D01*
X0127343Y0115433D02*
X0057718Y0115433D01*
X0057718Y0116632D02*
X0127343Y0116632D01*
X0127343Y0117830D02*
X0057718Y0117830D01*
X0057718Y0119029D02*
X0126864Y0119029D01*
X0126348Y0120227D02*
X0057718Y0120227D01*
X0057718Y0121426D02*
X0126343Y0121426D01*
X0126804Y0122624D02*
X0057718Y0122624D01*
X0057718Y0123823D02*
X0128297Y0123823D01*
X0124081Y0125021D02*
X0123313Y0125021D01*
X0123313Y0124143D02*
X0123313Y0127327D01*
X0119931Y0127327D01*
X0119931Y0125532D01*
X0120041Y0125126D01*
X0120251Y0124761D01*
X0120549Y0124463D01*
X0120914Y0124252D01*
X0121321Y0124143D01*
X0123313Y0124143D01*
X0123313Y0126220D02*
X0124081Y0126220D01*
X0123313Y0127418D02*
X0092704Y0127418D01*
X0092792Y0127506D02*
X0093003Y0127871D01*
X0093112Y0128278D01*
X0093112Y0130269D01*
X0089928Y0130269D01*
X0089928Y0131038D01*
X0093112Y0131038D01*
X0093112Y0133030D01*
X0093003Y0133436D01*
X0092792Y0133801D01*
X0092593Y0134000D01*
X0093112Y0134518D01*
X0093112Y0140175D01*
X0092175Y0141112D01*
X0091743Y0141112D01*
X0091743Y0141675D01*
X0092256Y0142187D01*
X0092743Y0143363D01*
X0092743Y0144637D01*
X0092256Y0145813D01*
X0091356Y0146713D01*
X0090180Y0147200D01*
X0088907Y0147200D01*
X0087731Y0146713D01*
X0086830Y0145813D01*
X0086343Y0144637D01*
X0086343Y0143363D01*
X0086830Y0142187D01*
X0087343Y0141675D01*
X0087343Y0141112D01*
X0086912Y0141112D01*
X0085975Y0140175D01*
X0085975Y0134518D01*
X0086493Y0134000D01*
X0086294Y0133801D01*
X0086084Y0133436D01*
X0085975Y0133030D01*
X0085975Y0131038D01*
X0089159Y0131038D01*
X0089159Y0130269D01*
X0089928Y0130269D01*
X0089928Y0126888D01*
X0091722Y0126888D01*
X0092129Y0126997D01*
X0092494Y0127208D01*
X0092792Y0127506D01*
X0093112Y0128617D02*
X0119931Y0128617D01*
X0119931Y0129815D02*
X0093112Y0129815D01*
X0093112Y0132212D02*
X0101970Y0132212D01*
X0101718Y0132464D02*
X0101718Y0132464D01*
X0100771Y0133411D02*
X0093010Y0133411D01*
X0093112Y0134609D02*
X0099573Y0134609D01*
X0098374Y0135808D02*
X0093112Y0135808D01*
X0093112Y0137006D02*
X0097176Y0137006D01*
X0095977Y0138205D02*
X0093112Y0138205D01*
X0093112Y0139403D02*
X0094779Y0139403D01*
X0093593Y0140602D02*
X0092685Y0140602D01*
X0091869Y0141800D02*
X0093593Y0141800D01*
X0093593Y0142999D02*
X0092592Y0142999D01*
X0092743Y0144197D02*
X0093591Y0144197D01*
X0093591Y0145396D02*
X0092429Y0145396D01*
X0091474Y0146594D02*
X0093591Y0146594D01*
X0093561Y0147793D02*
X0075773Y0147793D01*
X0075773Y0148911D02*
X0079529Y0148911D01*
X0079529Y0151278D01*
X0079420Y0151684D01*
X0079209Y0152049D01*
X0078912Y0152347D01*
X0078547Y0152558D01*
X0078140Y0152667D01*
X0075773Y0152667D01*
X0075773Y0148911D01*
X0075773Y0148991D02*
X0074573Y0148991D01*
X0074573Y0147793D02*
X0069096Y0147793D01*
X0069096Y0148325D02*
X0068987Y0148732D01*
X0068776Y0149097D01*
X0068478Y0149394D01*
X0068114Y0149605D01*
X0067707Y0149714D01*
X0065143Y0149714D01*
X0065143Y0146057D01*
X0063943Y0146057D01*
X0063943Y0149714D01*
X0061380Y0149714D01*
X0060973Y0149605D01*
X0060608Y0149394D01*
X0060310Y0149097D01*
X0060100Y0148732D01*
X0059991Y0148325D01*
X0059991Y0146057D01*
X0063943Y0146057D01*
X0063943Y0144857D01*
X0059991Y0144857D01*
X0059991Y0142589D01*
X0060100Y0142182D01*
X0060310Y0141817D01*
X0060608Y0141519D01*
X0060973Y0141308D01*
X0061380Y0141199D01*
X0063943Y0141199D01*
X0063943Y0144857D01*
X0065143Y0144857D01*
X0065143Y0141199D01*
X0067707Y0141199D01*
X0068114Y0141308D01*
X0068478Y0141519D01*
X0068776Y0141817D01*
X0068987Y0142182D01*
X0069096Y0142589D01*
X0069096Y0144857D01*
X0065143Y0144857D01*
X0065143Y0146057D01*
X0069096Y0146057D01*
X0069096Y0148325D01*
X0068837Y0148991D02*
X0070817Y0148991D01*
X0070817Y0150190D02*
X0057718Y0150190D01*
X0057718Y0151388D02*
X0070847Y0151388D01*
X0070641Y0152587D02*
X0063345Y0152587D01*
X0063584Y0153785D02*
X0070424Y0153785D01*
X0070773Y0154984D02*
X0063584Y0154984D01*
X0063584Y0156182D02*
X0072427Y0156182D01*
X0073022Y0157381D02*
X0063584Y0157381D01*
X0063359Y0158579D02*
X0073022Y0158579D01*
X0073022Y0159778D02*
X0057718Y0159778D01*
X0057718Y0160976D02*
X0073022Y0160976D01*
X0073022Y0162175D02*
X0057718Y0162175D01*
X0057718Y0163373D02*
X0073022Y0163373D01*
X0073105Y0165875D02*
X0068918Y0165875D01*
X0068918Y0170875D01*
X0070616Y0170875D01*
X0070224Y0169928D01*
X0070224Y0168820D01*
X0070648Y0167797D01*
X0071431Y0167014D01*
X0072454Y0166590D01*
X0073562Y0166590D01*
X0074585Y0167014D01*
X0075368Y0167797D01*
X0075792Y0168820D01*
X0075792Y0169928D01*
X0075707Y0170133D01*
X0078675Y0170133D01*
X0079417Y0170875D01*
X0082668Y0170875D01*
X0082668Y0193687D01*
X0092668Y0203687D01*
X0092668Y0206128D01*
X0092914Y0206374D01*
X0093341Y0207403D01*
X0093341Y0208375D01*
X0099543Y0208375D01*
X0099543Y0202125D01*
X0089543Y0192125D01*
X0089543Y0166459D01*
X0080279Y0166459D01*
X0080092Y0166646D01*
X0073876Y0166646D01*
X0073105Y0165875D01*
X0074477Y0166969D02*
X0089543Y0166969D01*
X0089543Y0168168D02*
X0075522Y0168168D01*
X0075792Y0169366D02*
X0089543Y0169366D01*
X0089543Y0170565D02*
X0079106Y0170565D01*
X0082668Y0171763D02*
X0089543Y0171763D01*
X0089543Y0172962D02*
X0082668Y0172962D01*
X0082668Y0174160D02*
X0089543Y0174160D01*
X0089543Y0175359D02*
X0082668Y0175359D01*
X0082668Y0176557D02*
X0089543Y0176557D01*
X0089543Y0177756D02*
X0082668Y0177756D01*
X0082668Y0178954D02*
X0089543Y0178954D01*
X0089543Y0180153D02*
X0082668Y0180153D01*
X0082668Y0181351D02*
X0089543Y0181351D01*
X0089543Y0182550D02*
X0082668Y0182550D01*
X0082668Y0183748D02*
X0089543Y0183748D01*
X0089543Y0184947D02*
X0082668Y0184947D01*
X0082668Y0186145D02*
X0089543Y0186145D01*
X0089543Y0187344D02*
X0082668Y0187344D01*
X0082668Y0188542D02*
X0089543Y0188542D01*
X0089543Y0189741D02*
X0082668Y0189741D01*
X0082668Y0190939D02*
X0089543Y0190939D01*
X0089556Y0192138D02*
X0082668Y0192138D01*
X0082668Y0193336D02*
X0090755Y0193336D01*
X0091953Y0194535D02*
X0083516Y0194535D01*
X0084714Y0195733D02*
X0093152Y0195733D01*
X0094350Y0196932D02*
X0085913Y0196932D01*
X0087111Y0198130D02*
X0095549Y0198130D01*
X0096747Y0199329D02*
X0088310Y0199329D01*
X0089508Y0200527D02*
X0097946Y0200527D01*
X0099144Y0201726D02*
X0090707Y0201726D01*
X0091905Y0202924D02*
X0099543Y0202924D01*
X0099543Y0204123D02*
X0092668Y0204123D01*
X0092668Y0205321D02*
X0099543Y0205321D01*
X0099543Y0206520D02*
X0092975Y0206520D01*
X0093341Y0207718D02*
X0099543Y0207718D01*
X0101943Y0207718D02*
X0106809Y0207718D01*
X0106809Y0208539D02*
X0106809Y0205779D01*
X0110565Y0205779D01*
X0110565Y0204579D01*
X0106809Y0204579D01*
X0106809Y0201819D01*
X0106918Y0201412D01*
X0107129Y0201047D01*
X0107427Y0200749D01*
X0107792Y0200539D01*
X0108199Y0200430D01*
X0110565Y0200430D01*
X0110565Y0204579D01*
X0111765Y0204579D01*
X0111765Y0200430D01*
X0114132Y0200430D01*
X0114539Y0200539D01*
X0114904Y0200749D01*
X0115202Y0201047D01*
X0115412Y0201412D01*
X0115521Y0201819D01*
X0115521Y0204579D01*
X0111765Y0204579D01*
X0111765Y0205779D01*
X0110565Y0205779D01*
X0110565Y0209929D01*
X0108199Y0209929D01*
X0107792Y0209820D01*
X0107427Y0209609D01*
X0107129Y0209311D01*
X0106918Y0208946D01*
X0106809Y0208539D01*
X0106911Y0208917D02*
X0101917Y0208917D01*
X0101943Y0208852D02*
X0101578Y0209734D01*
X0101269Y0210043D01*
X0101269Y0210251D01*
X0100436Y0211085D01*
X0101269Y0211918D01*
X0101269Y0212435D01*
X0107553Y0212435D01*
X0107747Y0212241D01*
X0114584Y0212241D01*
X0114778Y0212435D01*
X0117978Y0212435D01*
X0117963Y0212378D01*
X0117963Y0211085D01*
X0121925Y0211085D01*
X0121925Y0211085D01*
X0117963Y0211085D01*
X0117963Y0209791D01*
X0118072Y0209384D01*
X0118140Y0209267D01*
X0117963Y0209090D01*
X0117963Y0205599D01*
X0118900Y0204662D01*
X0119725Y0204662D01*
X0119725Y0203207D01*
X0123632Y0199300D01*
X0146957Y0199300D01*
X0146957Y0182900D01*
X0134332Y0170275D01*
X0133562Y0171044D01*
X0132925Y0171044D01*
X0133368Y0172113D01*
X0133368Y0173387D01*
X0132881Y0174563D01*
X0131981Y0175463D01*
X0130805Y0175950D01*
X0129532Y0175950D01*
X0128356Y0175463D01*
X0127455Y0174563D01*
X0126968Y0173387D01*
X0126968Y0172113D01*
X0127411Y0171044D01*
X0126737Y0171044D01*
X0125800Y0170107D01*
X0125800Y0152057D01*
X0125866Y0151990D01*
X0125800Y0151741D01*
X0125800Y0150846D01*
X0130149Y0150846D01*
X0130149Y0150845D01*
X0125800Y0150845D01*
X0125800Y0149950D01*
X0125866Y0149701D01*
X0125800Y0149634D01*
X0125800Y0147927D01*
X0115521Y0147927D01*
X0115521Y0153702D01*
X0115491Y0153732D01*
X0115491Y0158663D01*
X0111743Y0162411D01*
X0111405Y0162750D01*
X0115491Y0166837D01*
X0115491Y0169268D01*
X0115521Y0169298D01*
X0115521Y0175584D01*
X0114584Y0176521D01*
X0113683Y0176521D01*
X0114362Y0177200D01*
X0114362Y0182857D01*
X0113843Y0183375D01*
X0114042Y0183574D01*
X0114253Y0183939D01*
X0114362Y0184345D01*
X0114362Y0186337D01*
X0111178Y0186337D01*
X0111178Y0187106D01*
X0114362Y0187106D01*
X0114362Y0189097D01*
X0114253Y0189504D01*
X0114042Y0189869D01*
X0113744Y0190167D01*
X0113379Y0190378D01*
X0112972Y0190487D01*
X0111178Y0190487D01*
X0111178Y0187106D01*
X0110409Y0187106D01*
X0110409Y0190487D01*
X0108614Y0190487D01*
X0108207Y0190378D01*
X0107842Y0190167D01*
X0107825Y0190149D01*
X0107807Y0190167D01*
X0107442Y0190378D01*
X0107035Y0190487D01*
X0105240Y0190487D01*
X0105240Y0187106D01*
X0104472Y0187106D01*
X0104472Y0190487D01*
X0102677Y0190487D01*
X0102270Y0190378D01*
X0102181Y0190326D01*
X0102181Y0190574D01*
X0101694Y0191750D01*
X0100793Y0192650D01*
X0099617Y0193137D01*
X0098344Y0193137D01*
X0097168Y0192650D01*
X0096268Y0191750D01*
X0095781Y0190574D01*
X0095781Y0189849D01*
X0094218Y0188286D01*
X0094218Y0178714D01*
X0095507Y0177425D01*
X0096411Y0176521D01*
X0094499Y0176521D01*
X0093561Y0175584D01*
X0093561Y0169298D01*
X0094499Y0168361D01*
X0102084Y0168361D01*
X0102161Y0168438D01*
X0102451Y0168361D01*
X0103291Y0168361D01*
X0103291Y0172441D01*
X0103291Y0172441D01*
X0103291Y0168361D01*
X0104132Y0168361D01*
X0104421Y0168438D01*
X0104499Y0168361D01*
X0110793Y0168361D01*
X0108691Y0166259D01*
X0091943Y0166259D01*
X0091943Y0191131D01*
X0101578Y0200766D01*
X0101943Y0201648D01*
X0101943Y0208852D01*
X0101269Y0210115D02*
X0117963Y0210115D01*
X0117963Y0208917D02*
X0115420Y0208917D01*
X0115412Y0208946D02*
X0115202Y0209311D01*
X0114904Y0209609D01*
X0114539Y0209820D01*
X0114132Y0209929D01*
X0111765Y0209929D01*
X0111765Y0205779D01*
X0115521Y0205779D01*
X0115521Y0208539D01*
X0115412Y0208946D01*
X0115521Y0207718D02*
X0117963Y0207718D01*
X0117963Y0206520D02*
X0115521Y0206520D01*
X0115521Y0204123D02*
X0119725Y0204123D01*
X0120008Y0202924D02*
X0115521Y0202924D01*
X0115496Y0201726D02*
X0121206Y0201726D01*
X0122405Y0200527D02*
X0114497Y0200527D01*
X0111765Y0200527D02*
X0110565Y0200527D01*
X0110565Y0201726D02*
X0111765Y0201726D01*
X0111765Y0202924D02*
X0110565Y0202924D01*
X0110565Y0204123D02*
X0111765Y0204123D01*
X0111765Y0205321D02*
X0118241Y0205321D01*
X0121925Y0204119D02*
X0124543Y0201500D01*
X0148606Y0201500D01*
X0149157Y0200948D01*
X0149157Y0181989D01*
X0133368Y0166200D01*
X0130150Y0166200D01*
X0130150Y0168759D02*
X0130168Y0168778D01*
X0130168Y0172750D01*
X0127289Y0174160D02*
X0115521Y0174160D01*
X0115521Y0172962D02*
X0126968Y0172962D01*
X0127113Y0171763D02*
X0115521Y0171763D01*
X0115521Y0170565D02*
X0126258Y0170565D01*
X0125800Y0169366D02*
X0115521Y0169366D01*
X0115491Y0168168D02*
X0125800Y0168168D01*
X0125800Y0166969D02*
X0115491Y0166969D01*
X0114425Y0165770D02*
X0125800Y0165770D01*
X0125800Y0164572D02*
X0113227Y0164572D01*
X0112028Y0163373D02*
X0125800Y0163373D01*
X0125800Y0162175D02*
X0111980Y0162175D01*
X0113178Y0160976D02*
X0125800Y0160976D01*
X0125800Y0159778D02*
X0114377Y0159778D01*
X0115491Y0158579D02*
X0125800Y0158579D01*
X0125800Y0157381D02*
X0115491Y0157381D01*
X0115491Y0156182D02*
X0125800Y0156182D01*
X0125800Y0154984D02*
X0115491Y0154984D01*
X0115491Y0153785D02*
X0125800Y0153785D01*
X0125800Y0152587D02*
X0115521Y0152587D01*
X0115521Y0151388D02*
X0125800Y0151388D01*
X0125643Y0150725D02*
X0136643Y0150725D01*
X0137040Y0151205D02*
X0134500Y0151205D01*
X0134500Y0150846D01*
X0130150Y0150846D01*
X0130150Y0150845D01*
X0134500Y0150845D01*
X0134500Y0150486D01*
X0135231Y0150486D01*
X0136330Y0149387D01*
X0137055Y0149387D01*
X0138231Y0148900D01*
X0138281Y0148850D01*
X0138281Y0149964D01*
X0137040Y0151205D01*
X0138055Y0150190D02*
X0135527Y0150190D01*
X0134319Y0148286D02*
X0130150Y0148286D01*
X0130150Y0145727D02*
X0109691Y0145727D01*
X0108293Y0147125D01*
X0108293Y0150557D01*
X0108291Y0150559D01*
X0105791Y0150559D02*
X0105791Y0150559D01*
X0105791Y0154639D01*
X0105791Y0150559D01*
X0105791Y0151388D02*
X0105791Y0151388D01*
X0105791Y0152587D02*
X0105791Y0152587D01*
X0105791Y0153785D02*
X0105791Y0153785D01*
X0103291Y0150559D02*
X0103291Y0147752D01*
X0107875Y0143168D01*
X0130150Y0143168D01*
X0130150Y0140609D02*
X0100434Y0140609D01*
X0098291Y0142752D01*
X0098291Y0150559D01*
X0095791Y0150559D02*
X0095791Y0144939D01*
X0095793Y0144938D01*
X0095793Y0141500D01*
X0103918Y0133375D01*
X0128606Y0133375D01*
X0130150Y0134919D01*
X0130150Y0135491D01*
X0130150Y0138050D02*
X0134993Y0138050D01*
X0136731Y0136313D01*
X0130150Y0138050D02*
X0124219Y0138050D01*
X0123293Y0137125D01*
X0120641Y0131014D02*
X0089928Y0131014D01*
X0089159Y0131014D02*
X0057718Y0131014D01*
X0057718Y0132212D02*
X0085975Y0132212D01*
X0086077Y0133411D02*
X0057718Y0133411D01*
X0057718Y0134609D02*
X0085975Y0134609D01*
X0085975Y0135808D02*
X0057718Y0135808D01*
X0057718Y0137006D02*
X0085975Y0137006D01*
X0085975Y0138205D02*
X0057718Y0138205D01*
X0057718Y0139403D02*
X0085975Y0139403D01*
X0086402Y0140602D02*
X0057718Y0140602D01*
X0057718Y0141800D02*
X0060327Y0141800D01*
X0059991Y0142999D02*
X0057718Y0142999D01*
X0057718Y0144197D02*
X0059991Y0144197D01*
X0059991Y0146594D02*
X0057718Y0146594D01*
X0057718Y0145396D02*
X0063943Y0145396D01*
X0063943Y0146594D02*
X0065143Y0146594D01*
X0065143Y0145396D02*
X0070817Y0145396D01*
X0070817Y0146594D02*
X0069096Y0146594D01*
X0069096Y0144197D02*
X0071569Y0144197D01*
X0069096Y0142999D02*
X0086494Y0142999D01*
X0086343Y0144197D02*
X0078777Y0144197D01*
X0079529Y0145396D02*
X0086658Y0145396D01*
X0087612Y0146594D02*
X0079529Y0146594D01*
X0079529Y0148991D02*
X0093561Y0148991D01*
X0093561Y0150190D02*
X0079529Y0150190D01*
X0079499Y0151388D02*
X0093561Y0151388D01*
X0093561Y0152587D02*
X0078439Y0152587D01*
X0079557Y0153994D02*
X0079964Y0154104D01*
X0080329Y0154314D01*
X0080627Y0154612D01*
X0080837Y0154977D01*
X0080946Y0155384D01*
X0080946Y0156382D01*
X0076984Y0156382D01*
X0076984Y0156382D01*
X0076984Y0153994D01*
X0079557Y0153994D01*
X0080839Y0154984D02*
X0111091Y0154984D01*
X0111091Y0156182D02*
X0080946Y0156182D01*
X0080946Y0157381D02*
X0110551Y0157381D01*
X0109353Y0158579D02*
X0080946Y0158579D01*
X0076984Y0156182D02*
X0076984Y0156182D01*
X0076984Y0154984D02*
X0076984Y0154984D01*
X0075592Y0153785D02*
X0093645Y0153785D01*
X0100791Y0150559D02*
X0100791Y0145252D01*
X0102043Y0144000D01*
X0089543Y0144000D02*
X0089543Y0137346D01*
X0087218Y0141800D02*
X0068760Y0141800D01*
X0065143Y0141800D02*
X0063943Y0141800D01*
X0063943Y0142999D02*
X0065143Y0142999D01*
X0065143Y0144197D02*
X0063943Y0144197D01*
X0063943Y0147793D02*
X0065143Y0147793D01*
X0065143Y0148991D02*
X0063943Y0148991D01*
X0060249Y0148991D02*
X0057718Y0148991D01*
X0057718Y0147793D02*
X0059991Y0147793D01*
X0059631Y0152587D02*
X0060400Y0152587D01*
X0060400Y0153785D02*
X0059631Y0153785D01*
X0059631Y0154984D02*
X0060400Y0154984D01*
X0060400Y0156182D02*
X0059631Y0156182D01*
X0059631Y0157381D02*
X0060400Y0157381D01*
X0060400Y0158579D02*
X0059631Y0158579D01*
X0059631Y0164572D02*
X0060400Y0164572D01*
X0060400Y0165770D02*
X0059631Y0165770D01*
X0059631Y0166969D02*
X0060400Y0166969D01*
X0060400Y0168168D02*
X0059631Y0168168D01*
X0059631Y0169366D02*
X0060400Y0169366D01*
X0060400Y0170565D02*
X0059631Y0170565D01*
X0057718Y0171763D02*
X0066688Y0171763D01*
X0066518Y0170565D02*
X0063253Y0170565D01*
X0063584Y0169366D02*
X0066518Y0169366D01*
X0066518Y0168168D02*
X0063584Y0168168D01*
X0063584Y0166969D02*
X0066518Y0166969D01*
X0066518Y0165770D02*
X0063584Y0165770D01*
X0063446Y0164572D02*
X0066860Y0164572D01*
X0068918Y0166969D02*
X0071539Y0166969D01*
X0070494Y0168168D02*
X0068918Y0168168D01*
X0068918Y0169366D02*
X0070224Y0169366D01*
X0070487Y0170565D02*
X0068918Y0170565D01*
X0067684Y0172962D02*
X0057718Y0172962D01*
X0057718Y0174160D02*
X0060162Y0174160D01*
X0060100Y0174268D02*
X0060310Y0173903D01*
X0060608Y0173606D01*
X0060973Y0173395D01*
X0061380Y0173286D01*
X0063943Y0173286D01*
X0063943Y0176943D01*
X0065143Y0176943D01*
X0065143Y0173286D01*
X0067707Y0173286D01*
X0068114Y0173395D01*
X0068478Y0173606D01*
X0068776Y0173903D01*
X0068987Y0174268D01*
X0069096Y0174675D01*
X0069096Y0176943D01*
X0065143Y0176943D01*
X0065143Y0178143D01*
X0063943Y0178143D01*
X0063943Y0176943D01*
X0059991Y0176943D01*
X0059991Y0174675D01*
X0060100Y0174268D01*
X0059991Y0175359D02*
X0057718Y0175359D01*
X0057718Y0176557D02*
X0059991Y0176557D01*
X0059991Y0178143D02*
X0063943Y0178143D01*
X0063943Y0181801D01*
X0061380Y0181801D01*
X0060973Y0181692D01*
X0060608Y0181481D01*
X0060310Y0181183D01*
X0060100Y0180818D01*
X0059991Y0180411D01*
X0059991Y0178143D01*
X0059991Y0178954D02*
X0057718Y0178954D01*
X0057718Y0177756D02*
X0063943Y0177756D01*
X0063943Y0178954D02*
X0065143Y0178954D01*
X0065143Y0178143D02*
X0065143Y0181801D01*
X0067707Y0181801D01*
X0068114Y0181692D01*
X0068478Y0181481D01*
X0068776Y0181183D01*
X0068987Y0180818D01*
X0069096Y0180411D01*
X0069096Y0178143D01*
X0065143Y0178143D01*
X0065143Y0177756D02*
X0070844Y0177756D01*
X0070817Y0177656D02*
X0070817Y0175289D01*
X0074573Y0175289D01*
X0074573Y0179045D01*
X0072207Y0179045D01*
X0071800Y0178936D01*
X0071435Y0178725D01*
X0071137Y0178427D01*
X0070926Y0178062D01*
X0070817Y0177656D01*
X0070817Y0176557D02*
X0069096Y0176557D01*
X0069096Y0175359D02*
X0070817Y0175359D01*
X0068925Y0174160D02*
X0074573Y0174160D01*
X0074573Y0175359D02*
X0075773Y0175359D01*
X0075773Y0175289D02*
X0075773Y0179045D01*
X0078140Y0179045D01*
X0078547Y0178936D01*
X0078912Y0178725D01*
X0079209Y0178427D01*
X0079420Y0178062D01*
X0079529Y0177656D01*
X0079529Y0175289D01*
X0075773Y0175289D01*
X0075773Y0174160D02*
X0080268Y0174160D01*
X0080268Y0175359D02*
X0079529Y0175359D01*
X0079529Y0176557D02*
X0080268Y0176557D01*
X0080268Y0177756D02*
X0079502Y0177756D01*
X0080268Y0178954D02*
X0078479Y0178954D01*
X0080268Y0180153D02*
X0069096Y0180153D01*
X0069096Y0178954D02*
X0071868Y0178954D01*
X0074573Y0178954D02*
X0075773Y0178954D01*
X0075773Y0177756D02*
X0074573Y0177756D01*
X0074573Y0176557D02*
X0075773Y0176557D01*
X0080268Y0181351D02*
X0068608Y0181351D01*
X0065143Y0181351D02*
X0063943Y0181351D01*
X0063943Y0180153D02*
X0065143Y0180153D01*
X0060478Y0181351D02*
X0057718Y0181351D01*
X0057718Y0180153D02*
X0059991Y0180153D01*
X0057718Y0182550D02*
X0080268Y0182550D01*
X0080268Y0183748D02*
X0057718Y0183748D01*
X0057718Y0184947D02*
X0080268Y0184947D01*
X0080268Y0186145D02*
X0057718Y0186145D01*
X0057718Y0187344D02*
X0080268Y0187344D01*
X0080268Y0188542D02*
X0057718Y0188542D01*
X0057718Y0189741D02*
X0080268Y0189741D01*
X0080268Y0190939D02*
X0057718Y0190939D01*
X0057718Y0192138D02*
X0080268Y0192138D01*
X0080268Y0193336D02*
X0057718Y0193336D01*
X0057718Y0194535D02*
X0080422Y0194535D01*
X0081320Y0195733D02*
X0057718Y0195733D01*
X0057718Y0196932D02*
X0061625Y0196932D01*
X0061406Y0198130D02*
X0057718Y0198130D01*
X0057718Y0199329D02*
X0061406Y0199329D01*
X0061406Y0200527D02*
X0057718Y0200527D01*
X0057718Y0201726D02*
X0061406Y0201726D01*
X0061406Y0202924D02*
X0057718Y0202924D01*
X0057718Y0204123D02*
X0061406Y0204123D01*
X0061406Y0205321D02*
X0057718Y0205321D01*
X0057718Y0206520D02*
X0061406Y0206520D01*
X0061406Y0207718D02*
X0057718Y0207718D01*
X0057718Y0208917D02*
X0061406Y0208917D01*
X0061922Y0210115D02*
X0057718Y0210115D01*
X0057718Y0211314D02*
X0062899Y0211314D01*
X0062597Y0212512D02*
X0057718Y0212512D01*
X0057718Y0213711D02*
X0062597Y0213711D01*
X0062597Y0214815D02*
X0065781Y0214815D01*
X0065781Y0218196D01*
X0063986Y0218196D01*
X0063579Y0218087D01*
X0063214Y0217877D01*
X0062917Y0217579D01*
X0062706Y0217214D01*
X0062597Y0216807D01*
X0062597Y0214815D01*
X0062597Y0214909D02*
X0057718Y0214909D01*
X0057718Y0216108D02*
X0062597Y0216108D01*
X0062759Y0217306D02*
X0057718Y0217306D01*
X0057718Y0218505D02*
X0068906Y0218505D01*
X0068906Y0219703D02*
X0057718Y0219703D01*
X0057718Y0220902D02*
X0068906Y0220902D01*
X0069845Y0222101D02*
X0057718Y0222101D01*
X0057718Y0223299D02*
X0071044Y0223299D01*
X0072242Y0224498D02*
X0057718Y0224498D01*
X0057718Y0225696D02*
X0073441Y0225696D01*
X0074639Y0226895D02*
X0057718Y0226895D01*
X0057718Y0228093D02*
X0075838Y0228093D01*
X0077036Y0229292D02*
X0057718Y0229292D01*
X0057718Y0230490D02*
X0078235Y0230490D01*
X0079433Y0231689D02*
X0076673Y0231689D01*
X0079113Y0232887D02*
X0080632Y0232887D01*
X0080714Y0234086D02*
X0081830Y0234086D01*
X0081924Y0235284D02*
X0083029Y0235284D01*
X0082910Y0236483D02*
X0084227Y0236483D01*
X0083565Y0237681D02*
X0085426Y0237681D01*
X0084219Y0238880D02*
X0093165Y0238880D01*
X0093152Y0240078D02*
X0084668Y0240078D01*
X0084929Y0241277D02*
X0096533Y0241277D01*
X0096533Y0242081D02*
X0093152Y0242081D01*
X0093152Y0244073D01*
X0093261Y0244480D01*
X0093472Y0244845D01*
X0093770Y0245143D01*
X0094134Y0245353D01*
X0094541Y0245462D01*
X0096533Y0245462D01*
X0096533Y0242081D01*
X0096533Y0242475D02*
X0097695Y0242475D01*
X0097695Y0242081D02*
X0097695Y0245462D01*
X0099687Y0245462D01*
X0100094Y0245353D01*
X0100459Y0245143D01*
X0100757Y0244845D01*
X0100967Y0244480D01*
X0101076Y0244073D01*
X0101076Y0242081D01*
X0097695Y0242081D01*
X0097695Y0241277D02*
X0101420Y0241277D01*
X0101420Y0242475D02*
X0101076Y0242475D01*
X0101076Y0243674D02*
X0101420Y0243674D01*
X0101767Y0244872D02*
X0100729Y0244872D01*
X0097695Y0244872D02*
X0096533Y0244872D01*
X0096533Y0243674D02*
X0097695Y0243674D01*
X0093499Y0244872D02*
X0085277Y0244872D01*
X0085277Y0243674D02*
X0093152Y0243674D01*
X0093152Y0242475D02*
X0085190Y0242475D01*
X0085277Y0246071D02*
X0223809Y0246071D01*
X0223809Y0247269D02*
X0085277Y0247269D01*
X0085277Y0248468D02*
X0223809Y0248468D01*
X0223809Y0249666D02*
X0085277Y0249666D01*
X0085277Y0250865D02*
X0223809Y0250865D01*
X0223809Y0252063D02*
X0085277Y0252063D01*
X0085277Y0253262D02*
X0223809Y0253262D01*
X0223809Y0254460D02*
X0085277Y0254460D01*
X0085277Y0255659D02*
X0223809Y0255659D01*
X0223809Y0256857D02*
X0085277Y0256857D01*
X0085277Y0258056D02*
X0223809Y0258056D01*
X0223809Y0244872D02*
X0215587Y0244872D01*
X0215935Y0243674D02*
X0223809Y0243674D01*
X0223897Y0242475D02*
X0215935Y0242475D01*
X0216003Y0241277D02*
X0224158Y0241277D01*
X0224418Y0240078D02*
X0217201Y0240078D01*
X0218564Y0238880D02*
X0224867Y0238880D01*
X0225522Y0237681D02*
X0219393Y0237681D01*
X0219618Y0236483D02*
X0226176Y0236483D01*
X0227163Y0235284D02*
X0219378Y0235284D01*
X0218529Y0234086D02*
X0228373Y0234086D01*
X0229974Y0232887D02*
X0214754Y0232887D01*
X0216418Y0236500D02*
X0212169Y0236500D01*
X0211185Y0235516D01*
X0208010Y0238880D02*
X0207654Y0238880D01*
X0207667Y0240078D02*
X0208010Y0240078D01*
X0208010Y0241277D02*
X0204286Y0241277D01*
X0203124Y0241277D02*
X0181003Y0241277D01*
X0180407Y0242475D02*
X0199743Y0242475D01*
X0199743Y0243674D02*
X0180407Y0243674D01*
X0180060Y0244872D02*
X0200090Y0244872D01*
X0203124Y0244872D02*
X0204286Y0244872D01*
X0204286Y0243674D02*
X0203124Y0243674D01*
X0203124Y0242475D02*
X0204286Y0242475D01*
X0207667Y0242475D02*
X0208010Y0242475D01*
X0208010Y0243674D02*
X0207667Y0243674D01*
X0207320Y0244872D02*
X0208358Y0244872D01*
X0211972Y0241500D02*
X0212668Y0241500D01*
X0216418Y0237750D01*
X0216418Y0236500D01*
X0206692Y0231689D02*
X0232414Y0231689D01*
X0251369Y0230490D02*
X0206692Y0230490D01*
X0206692Y0229292D02*
X0251369Y0229292D01*
X0251369Y0228093D02*
X0206692Y0228093D01*
X0206692Y0226895D02*
X0251369Y0226895D01*
X0251369Y0225696D02*
X0206692Y0225696D01*
X0206692Y0224498D02*
X0251369Y0224498D01*
X0251369Y0223299D02*
X0206692Y0223299D01*
X0206692Y0222101D02*
X0251369Y0222101D01*
X0251369Y0220902D02*
X0206692Y0220902D01*
X0206692Y0219703D02*
X0251369Y0219703D01*
X0251369Y0218505D02*
X0217064Y0218505D01*
X0218262Y0217306D02*
X0251369Y0217306D01*
X0251369Y0216108D02*
X0219461Y0216108D01*
X0220659Y0214909D02*
X0251369Y0214909D01*
X0251369Y0213711D02*
X0221858Y0213711D01*
X0223056Y0212512D02*
X0251369Y0212512D01*
X0251369Y0211314D02*
X0224182Y0211314D01*
X0224618Y0210115D02*
X0251369Y0210115D01*
X0251369Y0208917D02*
X0224618Y0208917D01*
X0224618Y0207718D02*
X0251369Y0207718D01*
X0251369Y0206520D02*
X0224618Y0206520D01*
X0224618Y0205321D02*
X0251369Y0205321D01*
X0251369Y0204123D02*
X0224618Y0204123D01*
X0224618Y0202924D02*
X0251369Y0202924D01*
X0251369Y0201726D02*
X0224618Y0201726D01*
X0224618Y0200527D02*
X0251369Y0200527D01*
X0251369Y0199329D02*
X0224618Y0199329D01*
X0224618Y0198130D02*
X0251369Y0198130D01*
X0251369Y0196932D02*
X0224618Y0196932D01*
X0224618Y0195733D02*
X0251369Y0195733D01*
X0251369Y0194535D02*
X0224618Y0194535D01*
X0224618Y0193336D02*
X0251369Y0193336D01*
X0251369Y0192138D02*
X0224618Y0192138D01*
X0224618Y0190939D02*
X0251369Y0190939D01*
X0251369Y0189741D02*
X0224618Y0189741D01*
X0224618Y0188542D02*
X0251369Y0188542D01*
X0251369Y0187344D02*
X0224618Y0187344D01*
X0224618Y0186145D02*
X0251369Y0186145D01*
X0251369Y0184947D02*
X0224239Y0184947D01*
X0223818Y0183748D02*
X0251369Y0183748D01*
X0251369Y0182550D02*
X0223818Y0182550D01*
X0223818Y0181351D02*
X0251369Y0181351D01*
X0251369Y0180153D02*
X0223818Y0180153D01*
X0223818Y0178954D02*
X0251369Y0178954D01*
X0251369Y0177756D02*
X0223818Y0177756D01*
X0223818Y0176557D02*
X0251369Y0176557D01*
X0251369Y0175359D02*
X0223818Y0175359D01*
X0223818Y0174160D02*
X0251369Y0174160D01*
X0251369Y0172962D02*
X0223818Y0172962D01*
X0223818Y0171763D02*
X0251369Y0171763D01*
X0251369Y0170565D02*
X0223818Y0170565D01*
X0223818Y0169366D02*
X0251369Y0169366D01*
X0251369Y0168168D02*
X0223818Y0168168D01*
X0223818Y0166969D02*
X0251369Y0166969D01*
X0251369Y0165770D02*
X0223818Y0165770D01*
X0223818Y0164572D02*
X0251369Y0164572D01*
X0251369Y0163373D02*
X0223818Y0163373D01*
X0223818Y0162175D02*
X0251369Y0162175D01*
X0251369Y0160976D02*
X0223818Y0160976D01*
X0223818Y0159778D02*
X0251369Y0159778D01*
X0251369Y0158579D02*
X0223818Y0158579D01*
X0223818Y0157381D02*
X0251369Y0157381D01*
X0251369Y0156182D02*
X0223818Y0156182D01*
X0223818Y0154984D02*
X0251369Y0154984D01*
X0251369Y0153785D02*
X0223818Y0153785D01*
X0223818Y0152587D02*
X0251369Y0152587D01*
X0251369Y0151388D02*
X0223818Y0151388D01*
X0223818Y0150190D02*
X0251369Y0150190D01*
X0251369Y0148991D02*
X0223818Y0148991D01*
X0223818Y0147793D02*
X0251369Y0147793D01*
X0251369Y0146594D02*
X0223818Y0146594D01*
X0223818Y0145396D02*
X0251369Y0145396D01*
X0251369Y0144197D02*
X0223818Y0144197D01*
X0223818Y0142999D02*
X0251369Y0142999D01*
X0251369Y0141800D02*
X0223818Y0141800D01*
X0223818Y0140602D02*
X0251369Y0140602D01*
X0251369Y0139403D02*
X0223818Y0139403D01*
X0223818Y0138205D02*
X0251369Y0138205D01*
X0251369Y0137006D02*
X0223818Y0137006D01*
X0223818Y0135808D02*
X0251369Y0135808D01*
X0251369Y0134609D02*
X0223818Y0134609D01*
X0223818Y0133411D02*
X0251369Y0133411D01*
X0251369Y0132212D02*
X0223818Y0132212D01*
X0223818Y0131014D02*
X0251369Y0131014D01*
X0251369Y0129815D02*
X0223818Y0129815D01*
X0223818Y0128617D02*
X0251369Y0128617D01*
X0251369Y0127418D02*
X0223818Y0127418D01*
X0223818Y0126220D02*
X0251369Y0126220D01*
X0251369Y0125021D02*
X0223818Y0125021D01*
X0223818Y0123823D02*
X0251369Y0123823D01*
X0251369Y0122624D02*
X0223818Y0122624D01*
X0223818Y0121426D02*
X0251369Y0121426D01*
X0251369Y0120227D02*
X0223818Y0120227D01*
X0223818Y0119029D02*
X0251369Y0119029D01*
X0251369Y0117830D02*
X0223818Y0117830D01*
X0223818Y0116632D02*
X0251369Y0116632D01*
X0251369Y0115433D02*
X0223818Y0115433D01*
X0223818Y0114234D02*
X0251369Y0114234D01*
X0251369Y0113036D02*
X0223818Y0113036D01*
X0223275Y0111837D02*
X0251369Y0111837D01*
X0251369Y0110639D02*
X0222076Y0110639D01*
X0220878Y0109440D02*
X0251369Y0109440D01*
X0251369Y0108242D02*
X0219679Y0108242D01*
X0218481Y0107043D02*
X0251369Y0107043D01*
X0251369Y0105845D02*
X0217282Y0105845D01*
X0216084Y0104646D02*
X0251369Y0104646D01*
X0251369Y0103448D02*
X0214885Y0103448D01*
X0213687Y0102249D02*
X0251369Y0102249D01*
X0251369Y0101051D02*
X0212488Y0101051D01*
X0211290Y0099852D02*
X0251369Y0099852D01*
X0251369Y0098654D02*
X0206034Y0098654D01*
X0203052Y0098654D02*
X0199362Y0098654D01*
X0199362Y0099852D02*
X0201762Y0099852D01*
X0201343Y0101051D02*
X0199362Y0101051D01*
X0199362Y0102249D02*
X0201390Y0102249D01*
X0201966Y0103448D02*
X0198588Y0103448D01*
X0198465Y0104646D02*
X0203777Y0104646D01*
X0205309Y0104646D02*
X0209296Y0104646D01*
X0210494Y0105845D02*
X0198986Y0105845D01*
X0198993Y0107043D02*
X0211693Y0107043D01*
X0212891Y0108242D02*
X0205959Y0108242D01*
X0203918Y0109312D02*
X0206731Y0112125D01*
X0206731Y0124937D01*
X0205168Y0126500D01*
X0200961Y0126500D01*
X0196898Y0130562D01*
X0153918Y0130562D01*
X0151731Y0132750D01*
X0151731Y0138063D01*
X0154278Y0140609D01*
X0158937Y0140609D01*
X0158937Y0138050D02*
X0155156Y0138050D01*
X0153918Y0136813D01*
X0153918Y0134313D01*
X0155168Y0133063D01*
X0197523Y0133063D01*
X0200961Y0136500D01*
X0205393Y0134609D02*
X0208706Y0134609D01*
X0208706Y0133411D02*
X0204686Y0133411D01*
X0205046Y0133771D02*
X0205779Y0135542D01*
X0205779Y0137458D01*
X0205046Y0139229D01*
X0203690Y0140585D01*
X0201919Y0141318D01*
X0200002Y0141318D01*
X0198231Y0140585D01*
X0196876Y0139229D01*
X0196142Y0137458D01*
X0196142Y0135542D01*
X0196258Y0135262D01*
X0192834Y0135262D01*
X0199473Y0141901D01*
X0200002Y0141681D01*
X0201919Y0141681D01*
X0203690Y0142415D01*
X0205046Y0143771D01*
X0205779Y0145542D01*
X0205779Y0147458D01*
X0205046Y0149229D01*
X0203690Y0150585D01*
X0201919Y0151318D01*
X0200002Y0151318D01*
X0198231Y0150585D01*
X0196876Y0149229D01*
X0196142Y0147458D01*
X0196142Y0145542D01*
X0196361Y0145012D01*
X0189040Y0137691D01*
X0163287Y0137691D01*
X0163287Y0144516D01*
X0163220Y0144583D01*
X0163287Y0144832D01*
X0163287Y0145727D01*
X0158937Y0145727D01*
X0158937Y0145727D01*
X0154587Y0145727D01*
X0154587Y0145368D01*
X0152488Y0145368D01*
X0149431Y0142311D01*
X0149431Y0148901D01*
X0151734Y0151205D01*
X0154587Y0151205D01*
X0154587Y0146939D01*
X0154654Y0146872D01*
X0154587Y0146623D01*
X0154587Y0145727D01*
X0158937Y0145727D01*
X0158937Y0145727D01*
X0154441Y0145727D01*
X0152043Y0148125D01*
X0150719Y0150190D02*
X0154587Y0150190D01*
X0154587Y0148991D02*
X0149521Y0148991D01*
X0149431Y0147793D02*
X0154587Y0147793D01*
X0154587Y0146594D02*
X0149431Y0146594D01*
X0149431Y0145396D02*
X0154587Y0145396D01*
X0153399Y0143168D02*
X0149231Y0139000D01*
X0149231Y0131813D01*
X0152981Y0128062D01*
X0185481Y0128062D01*
X0188293Y0125250D01*
X0188293Y0121687D01*
X0188382Y0121598D01*
X0195862Y0121598D01*
X0200961Y0116500D01*
X0196106Y0112437D02*
X0193618Y0114925D01*
X0188382Y0114925D01*
X0188394Y0118062D02*
X0188382Y0118075D01*
X0188394Y0118062D02*
X0192981Y0118062D01*
X0184231Y0125250D02*
X0162356Y0125250D01*
X0160705Y0123599D01*
X0160705Y0121598D01*
X0160705Y0118075D02*
X0150656Y0118075D01*
X0150481Y0117900D01*
X0150481Y0112750D01*
X0146731Y0111812D02*
X0144856Y0113687D01*
X0144856Y0156813D01*
X0140587Y0161082D01*
X0130150Y0161082D01*
X0130150Y0163641D02*
X0134559Y0163641D01*
X0154543Y0183625D01*
X0154543Y0191500D01*
X0164543Y0201500D01*
X0164543Y0234312D01*
X0165747Y0235516D01*
X0168965Y0235516D01*
X0166743Y0231689D02*
X0202292Y0231689D01*
X0202292Y0230490D02*
X0166743Y0230490D01*
X0166743Y0229292D02*
X0202292Y0229292D01*
X0202292Y0228093D02*
X0166743Y0228093D01*
X0166743Y0226895D02*
X0202292Y0226895D01*
X0202292Y0225696D02*
X0166743Y0225696D01*
X0166743Y0224498D02*
X0202292Y0224498D01*
X0202292Y0223299D02*
X0166743Y0223299D01*
X0166743Y0222101D02*
X0202292Y0222101D01*
X0202292Y0220902D02*
X0166743Y0220902D01*
X0166743Y0219703D02*
X0202292Y0219703D01*
X0204492Y0216551D02*
X0204543Y0216500D01*
X0204492Y0216551D02*
X0204492Y0235516D01*
X0200924Y0235284D02*
X0183441Y0235284D01*
X0183681Y0236483D02*
X0200924Y0236483D01*
X0200665Y0237681D02*
X0183455Y0237681D01*
X0182681Y0238880D02*
X0199755Y0238880D01*
X0199743Y0240078D02*
X0182201Y0240078D01*
X0180481Y0238687D02*
X0180481Y0236500D01*
X0176642Y0236500D01*
X0175657Y0235516D01*
X0179226Y0232887D02*
X0200924Y0232887D01*
X0200924Y0234086D02*
X0182592Y0234086D01*
X0180481Y0238687D02*
X0177668Y0241500D01*
X0176445Y0241500D01*
X0172483Y0241277D02*
X0168758Y0241277D01*
X0168758Y0242081D02*
X0172139Y0242081D01*
X0172139Y0244073D01*
X0172030Y0244480D01*
X0171820Y0244845D01*
X0171522Y0245143D01*
X0171157Y0245353D01*
X0170750Y0245462D01*
X0168758Y0245462D01*
X0168758Y0242081D01*
X0168758Y0242475D02*
X0167596Y0242475D01*
X0167596Y0242081D02*
X0167596Y0245462D01*
X0165604Y0245462D01*
X0165197Y0245353D01*
X0164833Y0245143D01*
X0164535Y0244845D01*
X0164324Y0244480D01*
X0164215Y0244073D01*
X0164215Y0242081D01*
X0167596Y0242081D01*
X0167596Y0241277D02*
X0146003Y0241277D01*
X0146743Y0240078D02*
X0164215Y0240078D01*
X0164228Y0238880D02*
X0146743Y0238880D01*
X0147518Y0237681D02*
X0164801Y0237681D01*
X0163602Y0236483D02*
X0147743Y0236483D01*
X0147503Y0235284D02*
X0162404Y0235284D01*
X0162343Y0234086D02*
X0146654Y0234086D01*
X0143694Y0232887D02*
X0162343Y0232887D01*
X0162343Y0231689D02*
X0158955Y0231689D01*
X0160154Y0230490D02*
X0162343Y0230490D01*
X0162343Y0229292D02*
X0161353Y0229292D01*
X0162199Y0228093D02*
X0162343Y0228093D01*
X0162315Y0226895D02*
X0162343Y0226895D01*
X0162315Y0225696D02*
X0162343Y0225696D01*
X0162315Y0224498D02*
X0162343Y0224498D01*
X0162315Y0223299D02*
X0162343Y0223299D01*
X0162315Y0222101D02*
X0162343Y0222101D01*
X0162315Y0220902D02*
X0162343Y0220902D01*
X0162315Y0219703D02*
X0162343Y0219703D01*
X0162315Y0218505D02*
X0162343Y0218505D01*
X0159915Y0218505D02*
X0156791Y0218505D01*
X0156791Y0219703D02*
X0159915Y0219703D01*
X0159915Y0220902D02*
X0156348Y0220902D01*
X0156791Y0220460D02*
X0152415Y0224835D01*
X0126165Y0224835D01*
X0123040Y0221710D01*
X0123041Y0214835D01*
X0086165Y0214835D01*
X0086165Y0224835D01*
X0091165Y0229835D01*
X0098489Y0229835D01*
X0098753Y0229725D01*
X0122612Y0229725D01*
X0122876Y0229835D01*
X0157415Y0229835D01*
X0159915Y0227335D01*
X0159915Y0214835D01*
X0156791Y0214835D01*
X0156791Y0220460D01*
X0155150Y0222101D02*
X0159915Y0222101D01*
X0159915Y0223299D02*
X0153951Y0223299D01*
X0152752Y0224498D02*
X0159915Y0224498D01*
X0159915Y0225696D02*
X0087027Y0225696D01*
X0086165Y0224498D02*
X0125828Y0224498D01*
X0124630Y0223299D02*
X0086165Y0223299D01*
X0086165Y0222101D02*
X0123431Y0222101D01*
X0123040Y0220902D02*
X0086165Y0220902D01*
X0086165Y0219703D02*
X0123040Y0219703D01*
X0123040Y0218505D02*
X0086165Y0218505D01*
X0086165Y0217306D02*
X0123040Y0217306D01*
X0123040Y0216108D02*
X0086165Y0216108D01*
X0086165Y0214909D02*
X0123041Y0214909D01*
X0125887Y0214909D02*
X0128199Y0214909D01*
X0128199Y0213711D02*
X0125887Y0213711D01*
X0125887Y0213079D02*
X0125887Y0216570D01*
X0125440Y0217017D01*
X0125440Y0220716D01*
X0127159Y0222435D01*
X0151421Y0222435D01*
X0154391Y0219466D01*
X0154391Y0214357D01*
X0154756Y0213475D01*
X0155356Y0212875D01*
X0155304Y0212785D01*
X0155195Y0212378D01*
X0155195Y0211085D01*
X0159157Y0211085D01*
X0159157Y0211085D01*
X0155195Y0211085D01*
X0155195Y0209791D01*
X0155304Y0209384D01*
X0155372Y0209267D01*
X0155195Y0209090D01*
X0155195Y0205599D01*
X0156133Y0204662D01*
X0156957Y0204662D01*
X0156957Y0203700D01*
X0125455Y0203700D01*
X0124493Y0204662D01*
X0124950Y0204662D01*
X0125887Y0205599D01*
X0125887Y0209090D01*
X0125710Y0209267D01*
X0125778Y0209384D01*
X0125887Y0209791D01*
X0125887Y0211085D01*
X0125887Y0212378D01*
X0125778Y0212785D01*
X0125710Y0212902D01*
X0125887Y0213079D01*
X0125851Y0212512D02*
X0128766Y0212512D01*
X0129136Y0212142D02*
X0128199Y0213079D01*
X0128199Y0216570D01*
X0129136Y0217507D01*
X0130319Y0217507D01*
X0130349Y0217538D01*
X0131525Y0218025D01*
X0135813Y0218025D01*
X0137039Y0218028D01*
X0137110Y0218099D01*
X0138525Y0218685D01*
X0140056Y0218685D01*
X0141471Y0218099D01*
X0141535Y0218035D01*
X0143372Y0218035D01*
X0143534Y0218196D01*
X0148797Y0218196D01*
X0149734Y0217259D01*
X0149734Y0211603D01*
X0149215Y0211085D01*
X0149414Y0210886D01*
X0149625Y0210521D01*
X0149734Y0210114D01*
X0149734Y0208122D01*
X0146550Y0208122D01*
X0146550Y0207354D01*
X0149734Y0207354D01*
X0149734Y0205362D01*
X0149625Y0204955D01*
X0149414Y0204590D01*
X0149116Y0204293D01*
X0148751Y0204082D01*
X0148345Y0203973D01*
X0146550Y0203973D01*
X0146550Y0207354D01*
X0145781Y0207354D01*
X0142597Y0207354D01*
X0142597Y0205362D01*
X0142706Y0204955D01*
X0142917Y0204590D01*
X0143214Y0204293D01*
X0143579Y0204082D01*
X0143986Y0203973D01*
X0145781Y0203973D01*
X0145781Y0207354D01*
X0145781Y0208122D01*
X0142597Y0208122D01*
X0142597Y0210114D01*
X0142706Y0210521D01*
X0142917Y0210886D01*
X0143115Y0211085D01*
X0142597Y0211603D01*
X0142597Y0211635D01*
X0141535Y0211635D01*
X0141471Y0211571D01*
X0140056Y0210985D01*
X0138525Y0210985D01*
X0137110Y0211571D01*
X0137052Y0211628D01*
X0136458Y0211627D01*
X0136453Y0211625D01*
X0135823Y0211625D01*
X0135189Y0211623D01*
X0135185Y0211625D01*
X0131525Y0211625D01*
X0130349Y0212112D01*
X0130319Y0212142D01*
X0129136Y0212142D01*
X0129136Y0210027D02*
X0128199Y0209090D01*
X0128199Y0205599D01*
X0129136Y0204662D01*
X0135186Y0204662D01*
X0136124Y0205599D01*
X0136124Y0209090D01*
X0135186Y0210027D01*
X0129136Y0210027D01*
X0128199Y0208917D02*
X0125887Y0208917D01*
X0125887Y0210115D02*
X0142597Y0210115D01*
X0142597Y0208917D02*
X0136124Y0208917D01*
X0136124Y0207718D02*
X0145781Y0207718D01*
X0146550Y0207718D02*
X0155195Y0207718D01*
X0155195Y0206520D02*
X0149734Y0206520D01*
X0149723Y0205321D02*
X0155473Y0205321D01*
X0156957Y0204123D02*
X0148822Y0204123D01*
X0146550Y0204123D02*
X0145781Y0204123D01*
X0145781Y0205321D02*
X0146550Y0205321D01*
X0146550Y0206520D02*
X0145781Y0206520D01*
X0142597Y0206520D02*
X0136124Y0206520D01*
X0135846Y0205321D02*
X0142608Y0205321D01*
X0143508Y0204123D02*
X0125032Y0204123D01*
X0125610Y0205321D02*
X0128477Y0205321D01*
X0128199Y0206520D02*
X0125887Y0206520D01*
X0125887Y0207718D02*
X0128199Y0207718D01*
X0125887Y0211085D02*
X0121925Y0211085D01*
X0125887Y0211085D01*
X0125887Y0211314D02*
X0137730Y0211314D01*
X0140851Y0211314D02*
X0142886Y0211314D01*
X0149445Y0211314D02*
X0155195Y0211314D01*
X0155195Y0210115D02*
X0149734Y0210115D01*
X0149734Y0208917D02*
X0155195Y0208917D01*
X0155231Y0212512D02*
X0149734Y0212512D01*
X0149734Y0213711D02*
X0154658Y0213711D01*
X0154391Y0214909D02*
X0149734Y0214909D01*
X0149734Y0216108D02*
X0154391Y0216108D01*
X0154391Y0217306D02*
X0149687Y0217306D01*
X0154391Y0218505D02*
X0140490Y0218505D01*
X0138091Y0218505D02*
X0125440Y0218505D01*
X0125440Y0219703D02*
X0154153Y0219703D01*
X0152954Y0220902D02*
X0125627Y0220902D01*
X0126825Y0222101D02*
X0151755Y0222101D01*
X0156791Y0217306D02*
X0159915Y0217306D01*
X0159915Y0216108D02*
X0156791Y0216108D01*
X0156791Y0214909D02*
X0159915Y0214909D01*
X0166743Y0212142D02*
X0166743Y0210027D01*
X0172419Y0210027D01*
X0173356Y0209090D01*
X0173356Y0205599D01*
X0172419Y0204662D01*
X0166743Y0204662D01*
X0166743Y0200589D01*
X0156743Y0190589D01*
X0156743Y0188379D01*
X0156957Y0188503D01*
X0157364Y0188612D01*
X0159159Y0188612D01*
X0159159Y0185231D01*
X0159928Y0185231D01*
X0163112Y0185231D01*
X0163112Y0187222D01*
X0163003Y0187629D01*
X0162792Y0187994D01*
X0162494Y0188292D01*
X0162129Y0188503D01*
X0161722Y0188612D01*
X0159928Y0188612D01*
X0159928Y0185231D01*
X0159928Y0184462D01*
X0163112Y0184462D01*
X0163112Y0182470D01*
X0163003Y0182064D01*
X0162792Y0181699D01*
X0162593Y0181500D01*
X0163112Y0180982D01*
X0163112Y0175325D01*
X0162175Y0174388D01*
X0161137Y0174388D01*
X0161137Y0171044D01*
X0162350Y0171044D01*
X0163287Y0170107D01*
X0163287Y0167411D01*
X0163220Y0167344D01*
X0163287Y0167095D01*
X0163287Y0166200D01*
X0158937Y0166200D01*
X0158937Y0166200D01*
X0154587Y0166200D01*
X0154587Y0166559D01*
X0152922Y0166559D01*
X0152224Y0165861D01*
X0150809Y0165275D01*
X0149277Y0165275D01*
X0147862Y0165861D01*
X0146779Y0166944D01*
X0146193Y0168359D01*
X0146193Y0169891D01*
X0146779Y0171306D01*
X0147862Y0172389D01*
X0149277Y0172975D01*
X0150809Y0172975D01*
X0152224Y0172389D01*
X0153307Y0171306D01*
X0153451Y0170959D01*
X0155439Y0170959D01*
X0155524Y0171044D01*
X0156737Y0171044D01*
X0156737Y0174563D01*
X0155975Y0175325D01*
X0155975Y0180982D01*
X0156493Y0181500D01*
X0156294Y0181699D01*
X0156087Y0182058D01*
X0155455Y0181425D01*
X0137311Y0163282D01*
X0141498Y0163282D01*
X0145767Y0159012D01*
X0147056Y0157724D01*
X0147056Y0152749D01*
X0149912Y0155605D01*
X0154587Y0155605D01*
X0154587Y0164989D01*
X0154654Y0165055D01*
X0154587Y0165304D01*
X0154587Y0166200D01*
X0158937Y0166200D01*
X0158937Y0166200D01*
X0158912Y0166225D01*
X0158443Y0166225D01*
X0158937Y0166200D02*
X0153618Y0166200D01*
X0151543Y0164125D01*
X0151543Y0160125D01*
X0154587Y0159778D02*
X0145002Y0159778D01*
X0146200Y0158579D02*
X0154587Y0158579D01*
X0154587Y0157381D02*
X0147056Y0157381D01*
X0147056Y0156182D02*
X0154587Y0156182D01*
X0158937Y0155964D02*
X0171507Y0155964D01*
X0176945Y0161402D01*
X0180705Y0161402D01*
X0180705Y0164925D01*
X0180705Y0168075D02*
X0177056Y0168075D01*
X0175793Y0166813D01*
X0175793Y0164313D01*
X0170003Y0158523D01*
X0158937Y0158523D01*
X0158937Y0161082D02*
X0166313Y0161082D01*
X0172356Y0167125D01*
X0172356Y0179312D01*
X0174445Y0181402D01*
X0180705Y0181402D01*
X0180705Y0184925D01*
X0180705Y0188075D02*
X0172356Y0188075D01*
X0169543Y0185262D01*
X0169543Y0169313D01*
X0163872Y0163641D01*
X0158937Y0163641D01*
X0158937Y0166200D02*
X0163287Y0166200D01*
X0163287Y0166167D01*
X0167343Y0170224D01*
X0167343Y0186174D01*
X0171445Y0190275D01*
X0176841Y0190275D01*
X0176841Y0193501D01*
X0177778Y0194439D01*
X0183631Y0194439D01*
X0184543Y0193527D01*
X0185455Y0194439D01*
X0186083Y0194439D01*
X0186347Y0195076D01*
X0187965Y0196694D01*
X0187965Y0208909D01*
X0188453Y0210085D01*
X0189353Y0210985D01*
X0190529Y0211472D01*
X0191802Y0211472D01*
X0192978Y0210985D01*
X0193878Y0210085D01*
X0194365Y0208909D01*
X0194365Y0199700D01*
X0197346Y0199700D01*
X0198231Y0200585D01*
X0200002Y0201318D01*
X0201919Y0201318D01*
X0203690Y0200585D01*
X0205046Y0199229D01*
X0205779Y0197458D01*
X0205779Y0195542D01*
X0205046Y0193771D01*
X0203690Y0192415D01*
X0201919Y0191681D01*
X0200002Y0191681D01*
X0198231Y0192415D01*
X0197346Y0193300D01*
X0192246Y0193300D01*
X0192246Y0189696D01*
X0192126Y0189576D01*
X0192137Y0189559D01*
X0192246Y0189152D01*
X0192246Y0188075D01*
X0188382Y0188075D01*
X0188382Y0188075D01*
X0192246Y0188075D01*
X0192246Y0187325D01*
X0196142Y0187325D01*
X0196142Y0187458D01*
X0196876Y0189229D01*
X0198231Y0190585D01*
X0200002Y0191318D01*
X0201919Y0191318D01*
X0203690Y0190585D01*
X0204575Y0189700D01*
X0218218Y0189700D01*
X0218218Y0208300D01*
X0213218Y0213300D01*
X0181612Y0213300D01*
X0181612Y0211603D01*
X0181093Y0211085D01*
X0181292Y0210886D01*
X0181503Y0210521D01*
X0181612Y0210114D01*
X0181612Y0208122D01*
X0178428Y0208122D01*
X0178428Y0207354D01*
X0181612Y0207354D01*
X0181612Y0205362D01*
X0181503Y0204955D01*
X0181292Y0204590D01*
X0180994Y0204293D01*
X0180629Y0204082D01*
X0180222Y0203973D01*
X0178428Y0203973D01*
X0178428Y0207354D01*
X0177659Y0207354D01*
X0174475Y0207354D01*
X0174475Y0205362D01*
X0174584Y0204955D01*
X0174794Y0204590D01*
X0175092Y0204293D01*
X0175457Y0204082D01*
X0175864Y0203973D01*
X0177659Y0203973D01*
X0177659Y0207354D01*
X0177659Y0208122D01*
X0174475Y0208122D01*
X0174475Y0210114D01*
X0174584Y0210521D01*
X0174794Y0210886D01*
X0174993Y0211085D01*
X0174475Y0211603D01*
X0174475Y0211625D01*
X0168757Y0211625D01*
X0167581Y0212112D01*
X0167551Y0212142D01*
X0166743Y0212142D01*
X0166743Y0211314D02*
X0174764Y0211314D01*
X0174475Y0210115D02*
X0166743Y0210115D01*
X0166743Y0204123D02*
X0175386Y0204123D01*
X0174486Y0205321D02*
X0173078Y0205321D01*
X0173356Y0206520D02*
X0174475Y0206520D01*
X0173356Y0207718D02*
X0177659Y0207718D01*
X0178428Y0207718D02*
X0187965Y0207718D01*
X0187965Y0206520D02*
X0181612Y0206520D01*
X0181601Y0205321D02*
X0187965Y0205321D01*
X0187965Y0204123D02*
X0180700Y0204123D01*
X0178428Y0204123D02*
X0177659Y0204123D01*
X0177659Y0205321D02*
X0178428Y0205321D01*
X0178428Y0206520D02*
X0177659Y0206520D01*
X0174475Y0208917D02*
X0173356Y0208917D01*
X0181323Y0211314D02*
X0190147Y0211314D01*
X0192184Y0211314D02*
X0197514Y0211314D01*
X0197531Y0211318D02*
X0197125Y0211209D01*
X0196760Y0210999D01*
X0196462Y0210701D01*
X0196251Y0210336D01*
X0196142Y0209929D01*
X0196142Y0206973D01*
X0200488Y0206973D01*
X0200488Y0211318D01*
X0197531Y0211318D01*
X0196192Y0210115D02*
X0193848Y0210115D01*
X0194362Y0208917D02*
X0196142Y0208917D01*
X0196142Y0207718D02*
X0194365Y0207718D01*
X0194365Y0206520D02*
X0200488Y0206520D01*
X0200488Y0206973D02*
X0200488Y0206027D01*
X0201433Y0206027D01*
X0201433Y0201681D01*
X0204390Y0201681D01*
X0204797Y0201791D01*
X0205162Y0202001D01*
X0205459Y0202299D01*
X0205670Y0202664D01*
X0205779Y0203071D01*
X0205779Y0206027D01*
X0201434Y0206027D01*
X0201434Y0206973D01*
X0205779Y0206973D01*
X0205779Y0209929D01*
X0205670Y0210336D01*
X0205459Y0210701D01*
X0205162Y0210999D01*
X0204797Y0211209D01*
X0204390Y0211318D01*
X0201433Y0211318D01*
X0201433Y0206973D01*
X0200488Y0206973D01*
X0200488Y0207718D02*
X0201433Y0207718D01*
X0201434Y0206520D02*
X0218218Y0206520D01*
X0218218Y0207718D02*
X0205779Y0207718D01*
X0205779Y0208917D02*
X0217601Y0208917D01*
X0216402Y0210115D02*
X0205729Y0210115D01*
X0204407Y0211314D02*
X0215204Y0211314D01*
X0214005Y0212512D02*
X0181612Y0212512D01*
X0181611Y0210115D02*
X0188483Y0210115D01*
X0187969Y0208917D02*
X0181612Y0208917D01*
X0187965Y0202924D02*
X0166743Y0202924D01*
X0166743Y0201726D02*
X0187965Y0201726D01*
X0187965Y0200527D02*
X0166682Y0200527D01*
X0165483Y0199329D02*
X0187965Y0199329D01*
X0187965Y0198130D02*
X0164285Y0198130D01*
X0163086Y0196932D02*
X0187965Y0196932D01*
X0187005Y0195733D02*
X0161888Y0195733D01*
X0160689Y0194535D02*
X0186123Y0194535D01*
X0192246Y0192138D02*
X0198901Y0192138D01*
X0199087Y0190939D02*
X0192246Y0190939D01*
X0192246Y0189741D02*
X0197387Y0189741D01*
X0196591Y0188542D02*
X0192246Y0188542D01*
X0192246Y0187344D02*
X0196142Y0187344D01*
X0192246Y0181351D02*
X0219018Y0181351D01*
X0219018Y0180153D02*
X0204122Y0180153D01*
X0205160Y0178954D02*
X0219018Y0178954D01*
X0219018Y0177756D02*
X0211369Y0177756D01*
X0212568Y0176557D02*
X0219018Y0176557D01*
X0219018Y0175359D02*
X0213400Y0175359D01*
X0213506Y0174160D02*
X0219018Y0174160D01*
X0219018Y0172962D02*
X0213506Y0172962D01*
X0213506Y0171763D02*
X0219018Y0171763D01*
X0219018Y0170565D02*
X0213506Y0170565D01*
X0213506Y0169366D02*
X0219018Y0169366D01*
X0219018Y0168168D02*
X0213506Y0168168D01*
X0213506Y0166969D02*
X0219018Y0166969D01*
X0219018Y0165770D02*
X0213506Y0165770D01*
X0213506Y0164572D02*
X0219018Y0164572D01*
X0219018Y0163373D02*
X0213506Y0163373D01*
X0213506Y0162175D02*
X0219018Y0162175D01*
X0219018Y0160976D02*
X0213506Y0160976D01*
X0213506Y0159778D02*
X0219018Y0159778D01*
X0219018Y0158579D02*
X0213506Y0158579D01*
X0213506Y0157381D02*
X0219018Y0157381D01*
X0219018Y0156182D02*
X0213506Y0156182D01*
X0213506Y0154984D02*
X0219018Y0154984D01*
X0219018Y0153785D02*
X0213506Y0153785D01*
X0213506Y0152587D02*
X0219018Y0152587D01*
X0219018Y0151388D02*
X0213506Y0151388D01*
X0213506Y0150190D02*
X0219018Y0150190D01*
X0219018Y0148991D02*
X0213506Y0148991D01*
X0213506Y0147793D02*
X0219018Y0147793D01*
X0219018Y0146594D02*
X0213506Y0146594D01*
X0213506Y0145396D02*
X0219018Y0145396D01*
X0219018Y0144197D02*
X0213506Y0144197D01*
X0213506Y0142999D02*
X0219018Y0142999D01*
X0219018Y0141800D02*
X0213506Y0141800D01*
X0213506Y0140602D02*
X0219018Y0140602D01*
X0219018Y0139403D02*
X0213506Y0139403D01*
X0213506Y0138205D02*
X0219018Y0138205D01*
X0219018Y0137006D02*
X0213506Y0137006D01*
X0213506Y0135808D02*
X0219018Y0135808D01*
X0219018Y0134609D02*
X0213506Y0134609D01*
X0213506Y0133411D02*
X0219018Y0133411D01*
X0219018Y0132212D02*
X0213506Y0132212D01*
X0213506Y0131014D02*
X0219018Y0131014D01*
X0219018Y0129815D02*
X0213506Y0129815D01*
X0213506Y0128617D02*
X0219018Y0128617D01*
X0219018Y0127418D02*
X0213506Y0127418D01*
X0213506Y0126220D02*
X0219018Y0126220D01*
X0219018Y0125021D02*
X0213506Y0125021D01*
X0213506Y0123823D02*
X0219018Y0123823D01*
X0219018Y0122624D02*
X0213506Y0122624D01*
X0213506Y0121426D02*
X0219018Y0121426D01*
X0219018Y0120227D02*
X0213506Y0120227D01*
X0213506Y0119029D02*
X0219018Y0119029D01*
X0219018Y0117830D02*
X0213506Y0117830D01*
X0213506Y0116632D02*
X0219018Y0116632D01*
X0219018Y0115433D02*
X0213506Y0115433D01*
X0213506Y0114234D02*
X0218884Y0114234D01*
X0217685Y0113036D02*
X0213506Y0113036D01*
X0213196Y0111837D02*
X0216487Y0111837D01*
X0215288Y0110639D02*
X0212650Y0110639D01*
X0212009Y0109440D02*
X0214090Y0109440D01*
X0203918Y0109312D02*
X0194856Y0109312D01*
X0192767Y0111402D01*
X0188382Y0111402D01*
X0180705Y0111402D02*
X0180705Y0104625D01*
X0167043Y0104625D01*
X0166595Y0104177D01*
X0163028Y0104177D01*
X0163028Y0101618D02*
X0167474Y0101618D01*
X0167981Y0102125D01*
X0173918Y0102125D01*
X0174543Y0101500D01*
X0169543Y0099000D02*
X0169484Y0099059D01*
X0163028Y0099059D01*
X0163028Y0096500D02*
X0167356Y0096500D01*
X0167668Y0096187D01*
X0180705Y0096187D01*
X0180705Y0089714D01*
X0181595Y0088823D01*
X0186059Y0088823D01*
X0186059Y0091382D02*
X0189425Y0091382D01*
X0189543Y0091500D01*
X0191635Y0089066D02*
X0228540Y0089066D01*
X0227276Y0087867D02*
X0189431Y0087867D01*
X0188628Y0086669D02*
X0226379Y0086669D01*
X0230176Y0090264D02*
X0199191Y0090264D01*
X0199253Y0090371D02*
X0199362Y0090778D01*
X0199362Y0092769D01*
X0196178Y0092769D01*
X0196178Y0089388D01*
X0197972Y0089388D01*
X0198379Y0089497D01*
X0198744Y0089708D01*
X0199042Y0090006D01*
X0199253Y0090371D01*
X0199362Y0091463D02*
X0232820Y0091463D01*
X0223930Y0080676D02*
X0182037Y0080676D01*
X0182269Y0080580D02*
X0180501Y0081313D01*
X0178586Y0081313D01*
X0176817Y0080580D01*
X0175463Y0079226D01*
X0174731Y0077457D01*
X0174731Y0075543D01*
X0175463Y0073774D01*
X0176817Y0072420D01*
X0178586Y0071687D01*
X0180501Y0071687D01*
X0182269Y0072420D01*
X0183623Y0073774D01*
X0184356Y0075543D01*
X0184356Y0077457D01*
X0183623Y0079226D01*
X0182269Y0080580D01*
X0183372Y0079478D02*
X0223809Y0079478D01*
X0223766Y0078279D02*
X0184015Y0078279D01*
X0184356Y0077081D02*
X0223809Y0077081D01*
X0223809Y0075882D02*
X0184356Y0075882D01*
X0184000Y0074684D02*
X0223809Y0074684D01*
X0223809Y0073485D02*
X0183334Y0073485D01*
X0181947Y0072287D02*
X0223809Y0072287D01*
X0199362Y0092661D02*
X0251369Y0092661D01*
X0251369Y0093860D02*
X0199362Y0093860D01*
X0199362Y0095058D02*
X0251369Y0095058D01*
X0251369Y0096257D02*
X0199068Y0096257D01*
X0199362Y0097455D02*
X0251369Y0097455D01*
X0208706Y0126074D02*
X0207368Y0127411D01*
X0206080Y0128700D01*
X0205265Y0128700D01*
X0205046Y0129229D01*
X0203690Y0130585D01*
X0201919Y0131318D01*
X0200002Y0131318D01*
X0199473Y0131099D01*
X0199098Y0131474D01*
X0199072Y0131500D01*
X0199473Y0131901D01*
X0200002Y0131681D01*
X0201919Y0131681D01*
X0203690Y0132415D01*
X0205046Y0133771D01*
X0205779Y0135808D02*
X0208706Y0135808D01*
X0208706Y0137006D02*
X0205779Y0137006D01*
X0205470Y0138205D02*
X0208706Y0138205D01*
X0208706Y0139403D02*
X0204872Y0139403D01*
X0203649Y0140602D02*
X0208706Y0140602D01*
X0208706Y0141800D02*
X0202206Y0141800D01*
X0204274Y0142999D02*
X0208706Y0142999D01*
X0208706Y0144197D02*
X0205222Y0144197D01*
X0205719Y0145396D02*
X0208706Y0145396D01*
X0208706Y0146594D02*
X0205779Y0146594D01*
X0205641Y0147793D02*
X0208706Y0147793D01*
X0208706Y0148991D02*
X0205144Y0148991D01*
X0204085Y0150190D02*
X0208706Y0150190D01*
X0208706Y0151388D02*
X0198960Y0151388D01*
X0199473Y0151901D02*
X0200002Y0151681D01*
X0201919Y0151681D01*
X0203690Y0152415D01*
X0205046Y0153771D01*
X0205779Y0155542D01*
X0205779Y0157458D01*
X0205046Y0159229D01*
X0203690Y0160585D01*
X0201919Y0161318D01*
X0200002Y0161318D01*
X0198231Y0160585D01*
X0196876Y0159229D01*
X0196142Y0157458D01*
X0196142Y0155542D01*
X0196361Y0155012D01*
X0194395Y0153045D01*
X0163287Y0153045D01*
X0163287Y0153764D01*
X0172418Y0153764D01*
X0177497Y0158843D01*
X0177778Y0158561D01*
X0183631Y0158561D01*
X0184568Y0159499D01*
X0184568Y0159763D01*
X0184627Y0159544D01*
X0184838Y0159179D01*
X0185136Y0158881D01*
X0185501Y0158670D01*
X0185907Y0158561D01*
X0188362Y0158561D01*
X0188362Y0161381D01*
X0188402Y0161381D01*
X0188402Y0158561D01*
X0190856Y0158561D01*
X0191263Y0158670D01*
X0191628Y0158881D01*
X0191926Y0159179D01*
X0192137Y0159544D01*
X0192246Y0159951D01*
X0192246Y0161381D01*
X0188402Y0161381D01*
X0188402Y0161422D01*
X0192246Y0161422D01*
X0192246Y0162525D01*
X0198121Y0162525D01*
X0198231Y0162415D01*
X0200002Y0161681D01*
X0201919Y0161681D01*
X0203690Y0162415D01*
X0205046Y0163771D01*
X0205779Y0165542D01*
X0205779Y0167458D01*
X0205046Y0169229D01*
X0203690Y0170585D01*
X0201919Y0171318D01*
X0200002Y0171318D01*
X0198587Y0170732D01*
X0199673Y0171818D01*
X0200002Y0171681D01*
X0201919Y0171681D01*
X0203690Y0172415D01*
X0205046Y0173771D01*
X0205182Y0174100D01*
X0208237Y0174100D01*
X0208706Y0173631D01*
X0208706Y0126074D01*
X0208706Y0126220D02*
X0208560Y0126220D01*
X0208706Y0127418D02*
X0207361Y0127418D01*
X0206163Y0128617D02*
X0208706Y0128617D01*
X0208706Y0129815D02*
X0204460Y0129815D01*
X0202655Y0131014D02*
X0208706Y0131014D01*
X0208706Y0132212D02*
X0203200Y0132212D01*
X0199098Y0131474D02*
X0199098Y0131474D01*
X0196142Y0135808D02*
X0193380Y0135808D01*
X0194578Y0137006D02*
X0196142Y0137006D01*
X0196451Y0138205D02*
X0195777Y0138205D01*
X0196975Y0139403D02*
X0197049Y0139403D01*
X0198174Y0140602D02*
X0198272Y0140602D01*
X0199372Y0141800D02*
X0199715Y0141800D01*
X0195547Y0144197D02*
X0190198Y0144197D01*
X0190198Y0143533D02*
X0190198Y0145900D01*
X0186049Y0145900D01*
X0186049Y0147100D01*
X0190198Y0147100D01*
X0190198Y0148645D01*
X0196217Y0148645D01*
X0199473Y0151901D01*
X0197836Y0150190D02*
X0197762Y0150190D01*
X0196777Y0148991D02*
X0196563Y0148991D01*
X0196281Y0147793D02*
X0190198Y0147793D01*
X0190198Y0145396D02*
X0196202Y0145396D01*
X0196142Y0146594D02*
X0186049Y0146594D01*
X0186049Y0145900D02*
X0186049Y0142144D01*
X0188809Y0142144D01*
X0189216Y0142253D01*
X0189581Y0142464D01*
X0189879Y0142762D01*
X0190089Y0143127D01*
X0190198Y0143533D01*
X0190016Y0142999D02*
X0194348Y0142999D01*
X0193150Y0141800D02*
X0163287Y0141800D01*
X0163287Y0140602D02*
X0191951Y0140602D01*
X0190753Y0139403D02*
X0163287Y0139403D01*
X0163287Y0138205D02*
X0189554Y0138205D01*
X0189952Y0135491D02*
X0200961Y0146500D01*
X0195306Y0150845D02*
X0200961Y0156500D01*
X0204497Y0159778D02*
X0208706Y0159778D01*
X0208706Y0160976D02*
X0202745Y0160976D01*
X0203110Y0162175D02*
X0208706Y0162175D01*
X0208706Y0163373D02*
X0204648Y0163373D01*
X0205378Y0164572D02*
X0208706Y0164572D01*
X0208706Y0165770D02*
X0205779Y0165770D01*
X0205779Y0166969D02*
X0208706Y0166969D01*
X0208706Y0168168D02*
X0205485Y0168168D01*
X0204909Y0169366D02*
X0208706Y0169366D01*
X0208706Y0170565D02*
X0203710Y0170565D01*
X0202116Y0171763D02*
X0208706Y0171763D01*
X0208706Y0172962D02*
X0204237Y0172962D01*
X0199805Y0171763D02*
X0199618Y0171763D01*
X0197063Y0169416D02*
X0196876Y0169229D01*
X0196142Y0167458D01*
X0196142Y0167325D01*
X0192246Y0167325D01*
X0192246Y0168075D01*
X0192246Y0169152D01*
X0192233Y0169198D01*
X0196536Y0169198D01*
X0197063Y0169416D01*
X0197012Y0169366D02*
X0196941Y0169366D01*
X0196436Y0168168D02*
X0192246Y0168168D01*
X0192246Y0168075D02*
X0188382Y0168075D01*
X0188382Y0168075D01*
X0192246Y0168075D01*
X0192246Y0162175D02*
X0198811Y0162175D01*
X0199176Y0160976D02*
X0192246Y0160976D01*
X0192199Y0159778D02*
X0197424Y0159778D01*
X0196606Y0158579D02*
X0190923Y0158579D01*
X0188402Y0158579D02*
X0188362Y0158579D01*
X0188362Y0159778D02*
X0188402Y0159778D01*
X0188362Y0160976D02*
X0188402Y0160976D01*
X0185840Y0158579D02*
X0183649Y0158579D01*
X0177760Y0158579D02*
X0177234Y0158579D01*
X0176035Y0157381D02*
X0196142Y0157381D01*
X0196142Y0156182D02*
X0174837Y0156182D01*
X0173638Y0154984D02*
X0196333Y0154984D01*
X0195135Y0153785D02*
X0172440Y0153785D01*
X0172476Y0148286D02*
X0173638Y0146500D01*
X0172476Y0148286D02*
X0158937Y0148286D01*
X0158937Y0145727D02*
X0163287Y0145727D01*
X0163287Y0146086D01*
X0168888Y0146086D01*
X0168888Y0143081D01*
X0169825Y0142144D01*
X0177450Y0142144D01*
X0178387Y0143081D01*
X0178387Y0148645D01*
X0180699Y0148645D01*
X0180699Y0147100D01*
X0184849Y0147100D01*
X0184849Y0145900D01*
X0186049Y0145900D01*
X0186049Y0145396D02*
X0184849Y0145396D01*
X0184849Y0145900D02*
X0184849Y0142144D01*
X0182089Y0142144D01*
X0181682Y0142253D01*
X0181317Y0142464D01*
X0181019Y0142762D01*
X0180808Y0143127D01*
X0180699Y0143533D01*
X0180699Y0145900D01*
X0184849Y0145900D01*
X0184849Y0146594D02*
X0178387Y0146594D01*
X0178387Y0145396D02*
X0180699Y0145396D01*
X0180699Y0144197D02*
X0178387Y0144197D01*
X0178305Y0142999D02*
X0180882Y0142999D01*
X0184849Y0142999D02*
X0186049Y0142999D01*
X0186049Y0144197D02*
X0184849Y0144197D01*
X0180699Y0147793D02*
X0178387Y0147793D01*
X0168888Y0145396D02*
X0163287Y0145396D01*
X0163287Y0144197D02*
X0168888Y0144197D01*
X0168971Y0142999D02*
X0163287Y0142999D01*
X0158937Y0143168D02*
X0153399Y0143168D01*
X0151317Y0144197D02*
X0149431Y0144197D01*
X0149431Y0142999D02*
X0150118Y0142999D01*
X0147231Y0149813D02*
X0150823Y0153405D01*
X0158937Y0153405D01*
X0158937Y0150845D02*
X0195306Y0150845D01*
X0203862Y0152587D02*
X0208706Y0152587D01*
X0208706Y0153785D02*
X0205052Y0153785D01*
X0205548Y0154984D02*
X0208706Y0154984D01*
X0208706Y0156182D02*
X0205779Y0156182D01*
X0205779Y0157381D02*
X0208706Y0157381D01*
X0208706Y0158579D02*
X0205315Y0158579D01*
X0195227Y0174160D02*
X0191587Y0174160D01*
X0196218Y0175359D02*
X0174556Y0175359D01*
X0174556Y0176557D02*
X0196142Y0176557D01*
X0196265Y0177756D02*
X0174556Y0177756D01*
X0175109Y0178954D02*
X0177386Y0178954D01*
X0184024Y0178954D02*
X0185063Y0178954D01*
X0188362Y0178954D02*
X0188402Y0178954D01*
X0188362Y0180153D02*
X0188402Y0180153D01*
X0188362Y0181351D02*
X0188402Y0181351D01*
X0192246Y0180153D02*
X0197799Y0180153D01*
X0196762Y0178954D02*
X0191701Y0178954D01*
X0185177Y0174160D02*
X0183910Y0174160D01*
X0180705Y0171598D02*
X0180705Y0168075D01*
X0176841Y0170565D02*
X0174556Y0170565D01*
X0174556Y0171763D02*
X0176841Y0171763D01*
X0176841Y0172962D02*
X0174556Y0172962D01*
X0174556Y0174160D02*
X0177500Y0174160D01*
X0175236Y0169366D02*
X0174556Y0169366D01*
X0167343Y0170565D02*
X0162829Y0170565D01*
X0163287Y0169366D02*
X0166486Y0169366D01*
X0165287Y0168168D02*
X0163287Y0168168D01*
X0163287Y0166969D02*
X0164089Y0166969D01*
X0158937Y0168759D02*
X0150409Y0168759D01*
X0150043Y0169125D01*
X0146472Y0170565D02*
X0144594Y0170565D01*
X0145793Y0171763D02*
X0147237Y0171763D01*
X0146991Y0172962D02*
X0149245Y0172962D01*
X0150842Y0172962D02*
X0156737Y0172962D01*
X0156737Y0174160D02*
X0148190Y0174160D01*
X0149388Y0175359D02*
X0155975Y0175359D01*
X0155975Y0176557D02*
X0150587Y0176557D01*
X0151785Y0177756D02*
X0155975Y0177756D01*
X0155975Y0178954D02*
X0152984Y0178954D01*
X0154182Y0180153D02*
X0155975Y0180153D01*
X0156344Y0181351D02*
X0155381Y0181351D01*
X0158937Y0178154D02*
X0159543Y0178154D01*
X0158937Y0178154D02*
X0158937Y0168759D01*
X0156737Y0171763D02*
X0152850Y0171763D01*
X0146193Y0169366D02*
X0143396Y0169366D01*
X0142197Y0168168D02*
X0146273Y0168168D01*
X0146769Y0166969D02*
X0140999Y0166969D01*
X0139800Y0165770D02*
X0148081Y0165770D01*
X0152005Y0165770D02*
X0154587Y0165770D01*
X0154587Y0164572D02*
X0138602Y0164572D01*
X0137403Y0163373D02*
X0154587Y0163373D01*
X0154587Y0162175D02*
X0142605Y0162175D01*
X0143803Y0160976D02*
X0154587Y0160976D01*
X0149291Y0154984D02*
X0147056Y0154984D01*
X0147056Y0153785D02*
X0148092Y0153785D01*
X0147231Y0149813D02*
X0147231Y0121500D01*
X0150656Y0118075D01*
X0154543Y0111500D02*
X0154543Y0107437D01*
X0151731Y0104625D01*
X0142981Y0104625D01*
X0140481Y0107125D01*
X0140481Y0150875D01*
X0137951Y0153405D01*
X0130150Y0153405D01*
X0125800Y0150190D02*
X0115521Y0150190D01*
X0115521Y0148991D02*
X0125800Y0148991D01*
X0134319Y0148286D02*
X0136418Y0146188D01*
X0138011Y0148991D02*
X0138281Y0148991D01*
X0142668Y0154500D02*
X0138646Y0158523D01*
X0130150Y0158523D01*
X0142668Y0154500D02*
X0142668Y0111187D01*
X0145793Y0108062D01*
X0149543Y0108062D01*
X0154543Y0111500D02*
X0157969Y0114925D01*
X0160705Y0114925D01*
X0160705Y0111402D02*
X0160705Y0108599D01*
X0157981Y0105875D01*
X0157981Y0102125D01*
X0157668Y0102437D01*
X0134543Y0102437D01*
X0127343Y0103448D02*
X0126234Y0103448D01*
X0112741Y0109440D02*
X0110806Y0109440D01*
X0108280Y0109440D02*
X0057718Y0109440D01*
X0057718Y0108242D02*
X0106801Y0108242D01*
X0106343Y0107043D02*
X0057718Y0107043D01*
X0057718Y0105845D02*
X0106351Y0105845D01*
X0106871Y0104646D02*
X0057718Y0104646D01*
X0057718Y0125021D02*
X0120101Y0125021D01*
X0119931Y0126220D02*
X0057718Y0126220D01*
X0057718Y0127418D02*
X0086382Y0127418D01*
X0086294Y0127506D02*
X0086592Y0127208D01*
X0086957Y0126997D01*
X0087364Y0126888D01*
X0089159Y0126888D01*
X0089159Y0130269D01*
X0085975Y0130269D01*
X0085975Y0128278D01*
X0086084Y0127871D01*
X0086294Y0127506D01*
X0085975Y0128617D02*
X0057718Y0128617D01*
X0057718Y0129815D02*
X0085975Y0129815D01*
X0089159Y0129815D02*
X0089928Y0129815D01*
X0089928Y0128617D02*
X0089159Y0128617D01*
X0089159Y0127418D02*
X0089928Y0127418D01*
X0075773Y0144197D02*
X0074573Y0144197D01*
X0074573Y0145396D02*
X0075773Y0145396D01*
X0075773Y0146594D02*
X0074573Y0146594D01*
X0074573Y0150190D02*
X0075773Y0150190D01*
X0075773Y0151388D02*
X0074573Y0151388D01*
X0075375Y0152587D02*
X0075773Y0152587D01*
X0076984Y0161500D02*
X0109543Y0161500D01*
X0113291Y0157752D01*
X0113291Y0150559D01*
X0109602Y0164059D02*
X0113291Y0167748D01*
X0113291Y0172441D01*
X0110791Y0172441D02*
X0110791Y0180027D01*
X0110793Y0180029D01*
X0114362Y0180153D02*
X0144210Y0180153D01*
X0145408Y0181351D02*
X0114362Y0181351D01*
X0114362Y0182550D02*
X0146607Y0182550D01*
X0146957Y0183748D02*
X0114143Y0183748D01*
X0114362Y0184947D02*
X0146957Y0184947D01*
X0146957Y0186145D02*
X0114362Y0186145D01*
X0114362Y0187344D02*
X0146957Y0187344D01*
X0146957Y0188542D02*
X0114362Y0188542D01*
X0114116Y0189741D02*
X0146957Y0189741D01*
X0146957Y0190939D02*
X0102030Y0190939D01*
X0101306Y0192138D02*
X0146957Y0192138D01*
X0146957Y0193336D02*
X0094149Y0193336D01*
X0095347Y0194535D02*
X0146957Y0194535D01*
X0146957Y0195733D02*
X0096546Y0195733D01*
X0097744Y0196932D02*
X0146957Y0196932D01*
X0146957Y0198130D02*
X0098943Y0198130D01*
X0100141Y0199329D02*
X0123603Y0199329D01*
X0121925Y0204119D02*
X0121925Y0204119D01*
X0121925Y0207344D01*
X0121925Y0211085D02*
X0121925Y0211085D01*
X0117963Y0211314D02*
X0100665Y0211314D01*
X0101943Y0206520D02*
X0106809Y0206520D01*
X0106809Y0204123D02*
X0101943Y0204123D01*
X0101943Y0205321D02*
X0110565Y0205321D01*
X0110565Y0206520D02*
X0111765Y0206520D01*
X0111765Y0207718D02*
X0110565Y0207718D01*
X0110565Y0208917D02*
X0111765Y0208917D01*
X0106809Y0202924D02*
X0101943Y0202924D01*
X0101943Y0201726D02*
X0106834Y0201726D01*
X0107834Y0200527D02*
X0101340Y0200527D01*
X0096656Y0192138D02*
X0092950Y0192138D01*
X0091943Y0190939D02*
X0095932Y0190939D01*
X0095673Y0189741D02*
X0091943Y0189741D01*
X0091943Y0188542D02*
X0094474Y0188542D01*
X0094218Y0187344D02*
X0091943Y0187344D01*
X0091943Y0186145D02*
X0094218Y0186145D01*
X0094218Y0184947D02*
X0091943Y0184947D01*
X0091943Y0183748D02*
X0094218Y0183748D01*
X0094218Y0182550D02*
X0091943Y0182550D01*
X0091943Y0181351D02*
X0094218Y0181351D01*
X0094218Y0180153D02*
X0091943Y0180153D01*
X0091943Y0178954D02*
X0094218Y0178954D01*
X0095176Y0177756D02*
X0091943Y0177756D01*
X0091943Y0176557D02*
X0096375Y0176557D01*
X0093561Y0175359D02*
X0091943Y0175359D01*
X0091943Y0174160D02*
X0093561Y0174160D01*
X0093561Y0172962D02*
X0091943Y0172962D01*
X0091943Y0171763D02*
X0093561Y0171763D01*
X0093561Y0170565D02*
X0091943Y0170565D01*
X0091943Y0169366D02*
X0093561Y0169366D01*
X0091943Y0168168D02*
X0110600Y0168168D01*
X0109401Y0166969D02*
X0091943Y0166969D01*
X0100791Y0172441D02*
X0100791Y0175252D01*
X0096418Y0179625D01*
X0096418Y0187375D01*
X0098981Y0189937D01*
X0101287Y0187719D02*
X0101287Y0187106D01*
X0104471Y0187106D01*
X0104471Y0186337D01*
X0101287Y0186337D01*
X0101287Y0184345D01*
X0101319Y0184228D01*
X0100180Y0184700D01*
X0098907Y0184700D01*
X0098618Y0184580D01*
X0098618Y0186464D01*
X0098892Y0186737D01*
X0099617Y0186737D01*
X0100793Y0187225D01*
X0101287Y0187719D01*
X0101287Y0187344D02*
X0100912Y0187344D01*
X0101287Y0186145D02*
X0098618Y0186145D01*
X0098618Y0184947D02*
X0101287Y0184947D01*
X0104472Y0187344D02*
X0105240Y0187344D01*
X0105240Y0187106D02*
X0110409Y0187106D01*
X0110409Y0186337D01*
X0107225Y0186337D01*
X0105240Y0186337D01*
X0105240Y0187106D01*
X0105240Y0188542D02*
X0104472Y0188542D01*
X0104472Y0189741D02*
X0105240Y0189741D01*
X0110409Y0189741D02*
X0111178Y0189741D01*
X0111178Y0188542D02*
X0110409Y0188542D01*
X0110409Y0187344D02*
X0111178Y0187344D01*
X0114362Y0178954D02*
X0143011Y0178954D01*
X0141813Y0177756D02*
X0114362Y0177756D01*
X0113718Y0176557D02*
X0140614Y0176557D01*
X0139416Y0175359D02*
X0132085Y0175359D01*
X0133048Y0174160D02*
X0138217Y0174160D01*
X0137019Y0172962D02*
X0133368Y0172962D01*
X0133223Y0171763D02*
X0135820Y0171763D01*
X0134622Y0170565D02*
X0134042Y0170565D01*
X0128251Y0175359D02*
X0115521Y0175359D01*
X0105791Y0172441D02*
X0105791Y0179093D01*
X0104856Y0180029D01*
X0103291Y0171763D02*
X0103291Y0171763D01*
X0103291Y0170565D02*
X0103291Y0170565D01*
X0103291Y0169366D02*
X0103291Y0169366D01*
X0109602Y0164059D02*
X0076984Y0164059D01*
X0065143Y0174160D02*
X0063943Y0174160D01*
X0063943Y0175359D02*
X0065143Y0175359D01*
X0065143Y0176557D02*
X0063943Y0176557D01*
X0078711Y0196932D02*
X0082518Y0196932D01*
X0083717Y0198130D02*
X0078931Y0198130D01*
X0078931Y0199329D02*
X0084916Y0199329D01*
X0086114Y0200527D02*
X0078931Y0200527D01*
X0078931Y0201726D02*
X0087313Y0201726D01*
X0088511Y0202924D02*
X0078931Y0202924D01*
X0078931Y0204123D02*
X0089710Y0204123D01*
X0082599Y0205321D02*
X0079732Y0205321D01*
X0080009Y0206520D02*
X0082321Y0206520D01*
X0082321Y0207718D02*
X0080009Y0207718D01*
X0080009Y0208917D02*
X0082321Y0208917D01*
X0082321Y0210115D02*
X0078414Y0210115D01*
X0079442Y0212512D02*
X0082357Y0212512D01*
X0082321Y0211314D02*
X0073306Y0211314D01*
X0072098Y0208687D02*
X0072085Y0208638D01*
X0072085Y0207345D01*
X0076047Y0207345D01*
X0076047Y0207344D01*
X0076047Y0207344D01*
X0076047Y0204662D01*
X0073474Y0204662D01*
X0073067Y0204771D01*
X0072703Y0204981D01*
X0072405Y0205279D01*
X0072194Y0205644D01*
X0072085Y0206051D01*
X0072085Y0207344D01*
X0076047Y0207344D01*
X0076047Y0204662D01*
X0076731Y0204662D01*
X0076731Y0198062D01*
X0063606Y0198062D01*
X0063606Y0204075D01*
X0063986Y0203973D01*
X0065781Y0203973D01*
X0065781Y0207354D01*
X0066550Y0207354D01*
X0066550Y0208122D01*
X0069734Y0208122D01*
X0069734Y0208687D01*
X0072098Y0208687D01*
X0072085Y0207718D02*
X0066550Y0207718D01*
X0066550Y0207354D02*
X0069734Y0207354D01*
X0069734Y0205362D01*
X0069625Y0204955D01*
X0069414Y0204590D01*
X0069116Y0204293D01*
X0068751Y0204082D01*
X0068345Y0203973D01*
X0066550Y0203973D01*
X0066550Y0207354D01*
X0066550Y0206520D02*
X0065781Y0206520D01*
X0065781Y0205321D02*
X0066550Y0205321D01*
X0066550Y0204123D02*
X0065781Y0204123D01*
X0063606Y0202924D02*
X0076731Y0202924D01*
X0076731Y0201726D02*
X0063606Y0201726D01*
X0063606Y0200527D02*
X0076731Y0200527D01*
X0076731Y0199329D02*
X0063606Y0199329D01*
X0063606Y0198130D02*
X0076731Y0198130D01*
X0076731Y0204123D02*
X0068822Y0204123D01*
X0069723Y0205321D02*
X0072380Y0205321D01*
X0072085Y0206520D02*
X0069734Y0206520D01*
X0071106Y0207344D02*
X0071106Y0201062D01*
X0076047Y0205321D02*
X0076047Y0205321D01*
X0076047Y0206520D02*
X0076047Y0206520D01*
X0076047Y0207344D02*
X0071106Y0207344D01*
X0071106Y0220250D01*
X0086372Y0235516D01*
X0097902Y0235516D01*
X0097902Y0233454D01*
X0099231Y0232125D01*
X0122134Y0232125D01*
X0125525Y0235516D01*
X0133433Y0235516D01*
X0136608Y0238880D02*
X0136951Y0238880D01*
X0136951Y0240078D02*
X0136608Y0240078D01*
X0136608Y0241277D02*
X0136951Y0241277D01*
X0136951Y0242475D02*
X0136608Y0242475D01*
X0136608Y0243674D02*
X0136951Y0243674D01*
X0137298Y0244872D02*
X0136261Y0244872D01*
X0132646Y0241500D02*
X0124543Y0241500D01*
X0122192Y0243674D02*
X0109344Y0243674D01*
X0108997Y0244872D02*
X0129031Y0244872D01*
X0128683Y0238880D02*
X0126448Y0238880D01*
X0124579Y0237681D02*
X0112518Y0237681D01*
X0112743Y0236483D02*
X0123381Y0236483D01*
X0122182Y0235284D02*
X0112503Y0235284D01*
X0109543Y0236500D02*
X0105579Y0236500D01*
X0104594Y0235516D01*
X0101420Y0238880D02*
X0101064Y0238880D01*
X0101076Y0240078D02*
X0101420Y0240078D01*
X0105382Y0241500D02*
X0107668Y0241500D01*
X0109543Y0239625D01*
X0109543Y0236500D01*
X0111743Y0238880D02*
X0122638Y0238880D01*
X0121669Y0240078D02*
X0111743Y0240078D01*
X0111003Y0241277D02*
X0121343Y0241277D01*
X0121484Y0242475D02*
X0109804Y0242475D01*
X0094333Y0232887D02*
X0086854Y0232887D01*
X0085656Y0231689D02*
X0089625Y0231689D01*
X0088427Y0230490D02*
X0084457Y0230490D01*
X0083259Y0229292D02*
X0087228Y0229292D01*
X0086030Y0228093D02*
X0082060Y0228093D01*
X0080862Y0226895D02*
X0084831Y0226895D01*
X0083924Y0225696D02*
X0079663Y0225696D01*
X0078465Y0224498D02*
X0083765Y0224498D01*
X0083765Y0223299D02*
X0077266Y0223299D01*
X0076068Y0222101D02*
X0083765Y0222101D01*
X0083765Y0220902D02*
X0074869Y0220902D01*
X0073671Y0219703D02*
X0083765Y0219703D01*
X0083765Y0218505D02*
X0073306Y0218505D01*
X0079273Y0217306D02*
X0083058Y0217306D01*
X0082321Y0216108D02*
X0080009Y0216108D01*
X0080009Y0214909D02*
X0082321Y0214909D01*
X0082321Y0213711D02*
X0080009Y0213711D01*
X0066550Y0214909D02*
X0065781Y0214909D01*
X0065781Y0216108D02*
X0066550Y0216108D01*
X0066550Y0217306D02*
X0065781Y0217306D01*
X0088225Y0226895D02*
X0159915Y0226895D01*
X0159157Y0228093D02*
X0089424Y0228093D01*
X0090622Y0229292D02*
X0157958Y0229292D01*
X0172127Y0238880D02*
X0172483Y0238880D01*
X0172483Y0240078D02*
X0172139Y0240078D01*
X0172139Y0242475D02*
X0172483Y0242475D01*
X0172483Y0243674D02*
X0172139Y0243674D01*
X0171792Y0244872D02*
X0172830Y0244872D01*
X0168758Y0244872D02*
X0167596Y0244872D01*
X0167596Y0243674D02*
X0168758Y0243674D01*
X0164562Y0244872D02*
X0144528Y0244872D01*
X0144876Y0243674D02*
X0164215Y0243674D01*
X0164215Y0242475D02*
X0144876Y0242475D01*
X0142668Y0241500D02*
X0144543Y0239625D01*
X0144543Y0236500D01*
X0141110Y0236500D01*
X0140126Y0235516D01*
X0140913Y0241500D02*
X0142668Y0241500D01*
X0128935Y0217306D02*
X0125440Y0217306D01*
X0125887Y0216108D02*
X0128199Y0216108D01*
X0148606Y0201500D02*
X0159157Y0201500D01*
X0159157Y0207344D01*
X0166743Y0218505D02*
X0177592Y0218505D01*
X0196142Y0206027D02*
X0196142Y0203071D01*
X0196251Y0202664D01*
X0196462Y0202299D01*
X0196760Y0202001D01*
X0197125Y0201791D01*
X0197531Y0201681D01*
X0200488Y0201681D01*
X0200488Y0206027D01*
X0196142Y0206027D01*
X0196142Y0205321D02*
X0194365Y0205321D01*
X0194365Y0204123D02*
X0196142Y0204123D01*
X0196181Y0202924D02*
X0194365Y0202924D01*
X0194365Y0201726D02*
X0197366Y0201726D01*
X0198174Y0200527D02*
X0194365Y0200527D01*
X0200488Y0201726D02*
X0201433Y0201726D01*
X0201433Y0202924D02*
X0200488Y0202924D01*
X0200488Y0204123D02*
X0201433Y0204123D01*
X0201433Y0205321D02*
X0200488Y0205321D01*
X0204555Y0201726D02*
X0218218Y0201726D01*
X0218218Y0202924D02*
X0205740Y0202924D01*
X0205779Y0204123D02*
X0218218Y0204123D01*
X0218218Y0205321D02*
X0205779Y0205321D01*
X0203748Y0200527D02*
X0218218Y0200527D01*
X0218218Y0199329D02*
X0204946Y0199329D01*
X0205501Y0198130D02*
X0218218Y0198130D01*
X0218218Y0196932D02*
X0205779Y0196932D01*
X0205779Y0195733D02*
X0218218Y0195733D01*
X0218218Y0194535D02*
X0205362Y0194535D01*
X0204611Y0193336D02*
X0218218Y0193336D01*
X0218218Y0192138D02*
X0203021Y0192138D01*
X0202835Y0190939D02*
X0218218Y0190939D01*
X0218218Y0189741D02*
X0204534Y0189741D01*
X0203825Y0182550D02*
X0219018Y0182550D01*
X0201433Y0208917D02*
X0200488Y0208917D01*
X0200488Y0210115D02*
X0201433Y0210115D01*
X0201433Y0211314D02*
X0200488Y0211314D01*
X0180705Y0191598D02*
X0180705Y0188075D01*
X0176841Y0190939D02*
X0157094Y0190939D01*
X0156743Y0189741D02*
X0170910Y0189741D01*
X0169712Y0188542D02*
X0161982Y0188542D01*
X0163079Y0187344D02*
X0168513Y0187344D01*
X0167343Y0186145D02*
X0163112Y0186145D01*
X0163112Y0183748D02*
X0167343Y0183748D01*
X0167343Y0182550D02*
X0163112Y0182550D01*
X0162742Y0181351D02*
X0167343Y0181351D01*
X0167343Y0180153D02*
X0163112Y0180153D01*
X0163112Y0178954D02*
X0167343Y0178954D01*
X0167343Y0177756D02*
X0163112Y0177756D01*
X0163112Y0176557D02*
X0167343Y0176557D01*
X0167343Y0175359D02*
X0163112Y0175359D01*
X0161137Y0174160D02*
X0167343Y0174160D01*
X0167343Y0172962D02*
X0161137Y0172962D01*
X0161137Y0171763D02*
X0167343Y0171763D01*
X0167343Y0184947D02*
X0159928Y0184947D01*
X0159928Y0186145D02*
X0159159Y0186145D01*
X0159159Y0187344D02*
X0159928Y0187344D01*
X0159928Y0188542D02*
X0159159Y0188542D01*
X0157104Y0188542D02*
X0156743Y0188542D01*
X0158292Y0192138D02*
X0176841Y0192138D01*
X0176841Y0193336D02*
X0159491Y0193336D01*
X0158937Y0135491D02*
X0189952Y0135491D01*
X0176841Y0119298D02*
X0172206Y0119298D01*
X0172246Y0119152D01*
X0172246Y0118075D01*
X0168382Y0118075D01*
X0168382Y0118075D01*
X0172246Y0118075D01*
X0172246Y0116998D01*
X0172137Y0116591D01*
X0172084Y0116500D01*
X0172137Y0116409D01*
X0172246Y0116002D01*
X0172246Y0114925D01*
X0168382Y0114925D01*
X0168382Y0112459D01*
X0168402Y0112459D01*
X0168402Y0111422D01*
X0168362Y0111422D01*
X0168362Y0112459D01*
X0168382Y0112459D01*
X0168382Y0114925D01*
X0168382Y0114925D01*
X0168382Y0114925D01*
X0172246Y0114925D01*
X0172246Y0113848D01*
X0172137Y0113441D01*
X0172084Y0113350D01*
X0172137Y0113259D01*
X0172246Y0112852D01*
X0172246Y0111422D01*
X0168402Y0111422D01*
X0168402Y0111381D01*
X0168402Y0108561D01*
X0170856Y0108561D01*
X0171263Y0108670D01*
X0171628Y0108881D01*
X0171926Y0109179D01*
X0172137Y0109544D01*
X0172246Y0109951D01*
X0172246Y0111381D01*
X0168402Y0111381D01*
X0168362Y0111381D01*
X0168362Y0108561D01*
X0165907Y0108561D01*
X0165501Y0108670D01*
X0165136Y0108881D01*
X0164838Y0109179D01*
X0164627Y0109544D01*
X0164568Y0109763D01*
X0164568Y0109499D01*
X0163631Y0108561D01*
X0162905Y0108561D01*
X0162905Y0107688D01*
X0161683Y0106466D01*
X0165462Y0106466D01*
X0165551Y0106377D01*
X0165684Y0106377D01*
X0166132Y0106825D01*
X0178505Y0106825D01*
X0178505Y0108561D01*
X0177778Y0108561D01*
X0176841Y0109499D01*
X0176841Y0113304D01*
X0176887Y0113350D01*
X0176841Y0113396D01*
X0176841Y0116454D01*
X0176887Y0116500D01*
X0176841Y0116546D01*
X0176841Y0119298D01*
X0176841Y0119029D02*
X0172246Y0119029D01*
X0172246Y0117830D02*
X0176841Y0117830D01*
X0176841Y0116632D02*
X0172147Y0116632D01*
X0172246Y0115433D02*
X0176841Y0115433D01*
X0176841Y0114234D02*
X0172246Y0114234D01*
X0172196Y0113036D02*
X0176841Y0113036D01*
X0176841Y0111837D02*
X0172246Y0111837D01*
X0172246Y0110639D02*
X0176841Y0110639D01*
X0176899Y0109440D02*
X0172077Y0109440D01*
X0168402Y0109440D02*
X0168362Y0109440D01*
X0168362Y0110639D02*
X0168402Y0110639D01*
X0168362Y0111837D02*
X0168402Y0111837D01*
X0168382Y0113036D02*
X0168382Y0113036D01*
X0168382Y0114234D02*
X0168382Y0114234D01*
X0168382Y0114925D02*
X0168382Y0117391D01*
X0168382Y0118075D01*
X0168382Y0114925D01*
X0168382Y0114925D01*
X0168382Y0115433D02*
X0168382Y0115433D01*
X0168382Y0116632D02*
X0168382Y0116632D01*
X0168382Y0117830D02*
X0168382Y0117830D01*
X0168382Y0118075D02*
X0168382Y0118075D01*
X0164687Y0109440D02*
X0164510Y0109440D01*
X0162905Y0108242D02*
X0178505Y0108242D01*
X0178505Y0107043D02*
X0162260Y0107043D01*
X0157981Y0102125D02*
X0157981Y0094000D01*
X0160599Y0091382D01*
X0163028Y0091382D01*
X0163028Y0093941D02*
X0169290Y0093941D01*
X0169856Y0093375D01*
X0170708Y0090264D02*
X0178505Y0090264D01*
X0178505Y0089066D02*
X0166399Y0089066D01*
X0166399Y0088823D02*
X0163028Y0088823D01*
X0163028Y0088823D01*
X0163028Y0086534D01*
X0165010Y0086534D01*
X0165417Y0086643D01*
X0165782Y0086854D01*
X0166080Y0087151D01*
X0166290Y0087516D01*
X0166399Y0087923D01*
X0166399Y0088823D01*
X0166384Y0087867D02*
X0179440Y0087867D01*
X0180638Y0086669D02*
X0165462Y0086669D01*
X0163028Y0086669D02*
X0163027Y0086669D01*
X0163027Y0087867D02*
X0163028Y0087867D01*
X0166399Y0090264D02*
X0169004Y0090264D01*
X0167243Y0091463D02*
X0166399Y0091463D01*
X0172469Y0091463D02*
X0178505Y0091463D01*
X0178505Y0092661D02*
X0173024Y0092661D01*
X0173056Y0093860D02*
X0178505Y0093860D01*
X0180705Y0096187D02*
X0180705Y0104625D01*
X0186059Y0101618D02*
X0189113Y0101618D01*
X0190793Y0099937D01*
X0190793Y0095250D01*
X0195409Y0092661D02*
X0196178Y0092661D01*
X0196178Y0091463D02*
X0195409Y0091463D01*
X0195409Y0090264D02*
X0196178Y0090264D01*
X0195793Y0099846D02*
X0195793Y0106500D01*
X0177050Y0080676D02*
X0172037Y0080676D01*
X0172269Y0080580D02*
X0170501Y0081313D01*
X0168586Y0081313D01*
X0166817Y0080580D01*
X0165463Y0079226D01*
X0164731Y0077457D01*
X0164731Y0075543D01*
X0165463Y0073774D01*
X0166817Y0072420D01*
X0168586Y0071687D01*
X0170501Y0071687D01*
X0172269Y0072420D01*
X0173623Y0073774D01*
X0174356Y0075543D01*
X0174356Y0077457D01*
X0173623Y0079226D01*
X0172269Y0080580D01*
X0173372Y0079478D02*
X0175715Y0079478D01*
X0175071Y0078279D02*
X0174015Y0078279D01*
X0174356Y0077081D02*
X0174731Y0077081D01*
X0174731Y0075882D02*
X0174356Y0075882D01*
X0174000Y0074684D02*
X0175087Y0074684D01*
X0175752Y0073485D02*
X0173334Y0073485D01*
X0171947Y0072287D02*
X0177139Y0072287D01*
X0167139Y0072287D02*
X0161947Y0072287D01*
X0162269Y0072420D02*
X0163623Y0073774D01*
X0164356Y0075543D01*
X0164356Y0077457D01*
X0163623Y0079226D01*
X0162269Y0080580D01*
X0160501Y0081313D01*
X0158586Y0081313D01*
X0156817Y0080580D01*
X0155463Y0079226D01*
X0154731Y0077457D01*
X0154731Y0075543D01*
X0155463Y0073774D01*
X0156817Y0072420D01*
X0158586Y0071687D01*
X0160501Y0071687D01*
X0162269Y0072420D01*
X0163334Y0073485D02*
X0165752Y0073485D01*
X0165087Y0074684D02*
X0164000Y0074684D01*
X0164356Y0075882D02*
X0164731Y0075882D01*
X0164731Y0077081D02*
X0164356Y0077081D01*
X0164015Y0078279D02*
X0165071Y0078279D01*
X0165715Y0079478D02*
X0163372Y0079478D01*
X0162037Y0080676D02*
X0167050Y0080676D01*
X0157050Y0080676D02*
X0151948Y0080676D01*
X0152066Y0080616D02*
X0151391Y0080960D01*
X0150670Y0081194D01*
X0149947Y0081309D01*
X0149947Y0076904D01*
X0149139Y0076904D01*
X0149139Y0076096D01*
X0144735Y0076096D01*
X0144849Y0075373D01*
X0145083Y0074653D01*
X0145427Y0073978D01*
X0145872Y0073365D01*
X0146408Y0072829D01*
X0147021Y0072384D01*
X0147696Y0072040D01*
X0148416Y0071806D01*
X0149139Y0071691D01*
X0149139Y0076096D01*
X0149947Y0076096D01*
X0149947Y0071691D01*
X0150670Y0071806D01*
X0151391Y0072040D01*
X0152066Y0072384D01*
X0152678Y0072829D01*
X0153214Y0073365D01*
X0153659Y0073978D01*
X0154003Y0074653D01*
X0154237Y0075373D01*
X0154352Y0076096D01*
X0149947Y0076096D01*
X0149947Y0076904D01*
X0154352Y0076904D01*
X0154237Y0077627D01*
X0154003Y0078347D01*
X0153659Y0079022D01*
X0153214Y0079635D01*
X0152678Y0080171D01*
X0152066Y0080616D01*
X0153329Y0079478D02*
X0155715Y0079478D01*
X0155071Y0078279D02*
X0154025Y0078279D01*
X0154324Y0077081D02*
X0154731Y0077081D01*
X0154731Y0075882D02*
X0154318Y0075882D01*
X0154013Y0074684D02*
X0155087Y0074684D01*
X0155752Y0073485D02*
X0153302Y0073485D01*
X0151875Y0072287D02*
X0157139Y0072287D01*
X0149947Y0072287D02*
X0149139Y0072287D01*
X0149139Y0073485D02*
X0149947Y0073485D01*
X0149947Y0074684D02*
X0149139Y0074684D01*
X0149139Y0075882D02*
X0149947Y0075882D01*
X0149947Y0077081D02*
X0149139Y0077081D01*
X0149139Y0076904D02*
X0149139Y0081309D01*
X0148416Y0081194D01*
X0147696Y0080960D01*
X0147021Y0080616D01*
X0146408Y0080171D01*
X0145872Y0079635D01*
X0145427Y0079022D01*
X0145083Y0078347D01*
X0144849Y0077627D01*
X0144735Y0076904D01*
X0149139Y0076904D01*
X0149139Y0078279D02*
X0149947Y0078279D01*
X0149947Y0079478D02*
X0149139Y0079478D01*
X0149139Y0080676D02*
X0149947Y0080676D01*
X0147139Y0080676D02*
X0142037Y0080676D01*
X0143372Y0079478D02*
X0145758Y0079478D01*
X0145061Y0078279D02*
X0144015Y0078279D01*
X0144356Y0077081D02*
X0144763Y0077081D01*
X0144769Y0075882D02*
X0144356Y0075882D01*
X0144000Y0074684D02*
X0145073Y0074684D01*
X0145785Y0073485D02*
X0143334Y0073485D01*
X0141947Y0072287D02*
X0147212Y0072287D01*
X0137139Y0072287D02*
X0134018Y0072287D01*
X0134356Y0073485D02*
X0135752Y0073485D01*
X0135087Y0074684D02*
X0134356Y0074684D01*
X0134356Y0075882D02*
X0134731Y0075882D01*
D30*
X0156731Y0089937D03*
X0142043Y0096500D03*
X0137043Y0106500D03*
X0146731Y0111812D03*
X0150481Y0112750D03*
X0154543Y0111500D03*
X0149543Y0108062D03*
X0169543Y0099000D03*
X0174543Y0101500D03*
X0169856Y0093375D03*
X0189543Y0091500D03*
X0190793Y0095250D03*
X0201106Y0093062D03*
X0204543Y0101500D03*
X0195793Y0106500D03*
X0196106Y0112437D03*
X0192981Y0118062D03*
X0184231Y0125250D03*
X0174231Y0114937D03*
X0209543Y0111500D03*
X0239543Y0096500D03*
X0219543Y0076500D03*
X0201106Y0082438D03*
X0132981Y0123062D03*
X0129543Y0120875D03*
X0117981Y0127437D03*
X0123293Y0137125D03*
X0136418Y0146188D03*
X0136731Y0150188D03*
X0152043Y0148125D03*
X0165981Y0144625D03*
X0151543Y0160125D03*
X0130168Y0172750D03*
X0110793Y0192125D03*
X0104856Y0192125D03*
X0098981Y0189937D03*
X0099543Y0181500D03*
X0075168Y0183375D03*
X0067043Y0185250D03*
X0080541Y0211085D03*
X0094543Y0220750D03*
X0109543Y0236500D03*
X0124543Y0241500D03*
X0144543Y0236500D03*
X0139418Y0220875D03*
X0127543Y0211500D03*
X0139419Y0207750D03*
X0152543Y0207750D03*
X0177981Y0202125D03*
X0191165Y0204835D03*
X0191165Y0208272D03*
X0193606Y0188687D03*
X0193606Y0181500D03*
X0193918Y0168375D03*
X0193918Y0161188D03*
X0192981Y0146188D03*
X0164856Y0184937D03*
X0117356Y0202125D03*
X0069543Y0226500D03*
X0066106Y0220250D03*
X0089543Y0246500D03*
X0169231Y0230250D03*
X0180481Y0236500D03*
X0216418Y0236500D03*
X0219543Y0246500D03*
X0239543Y0226500D03*
X0102043Y0144000D03*
X0089543Y0144000D03*
X0081731Y0148375D03*
X0082043Y0156500D03*
X0066731Y0137750D03*
X0094543Y0130562D03*
X0119543Y0111500D03*
X0109543Y0106500D03*
X0069543Y0096500D03*
X0089543Y0076500D03*
D31*
X0137303Y0127212D02*
X0136803Y0127712D01*
X0186059Y0104177D02*
X0193470Y0104177D01*
X0195793Y0106500D01*
X0204543Y0101500D02*
X0209543Y0101500D01*
X0221418Y0113375D01*
X0221418Y0186500D01*
X0211106Y0174625D02*
X0209231Y0176500D01*
X0200961Y0176500D01*
X0196059Y0171598D01*
X0188382Y0171598D01*
X0188382Y0164925D02*
X0199386Y0164925D01*
X0200961Y0166500D01*
X0211106Y0174625D02*
X0211106Y0113062D01*
X0209543Y0111500D01*
X0199386Y0184925D02*
X0188382Y0184925D01*
X0188382Y0191598D02*
X0188382Y0193717D01*
X0191165Y0196500D01*
X0200961Y0186500D02*
X0199386Y0184925D01*
D32*
X0200961Y0186500D02*
X0221418Y0186500D01*
X0221418Y0209625D01*
X0214543Y0216500D01*
X0204543Y0216500D01*
X0180112Y0216500D01*
X0178043Y0214431D01*
X0177650Y0214825D02*
X0169394Y0214825D01*
X0191165Y0208272D02*
X0191165Y0204835D01*
X0191165Y0196500D01*
X0200961Y0196500D01*
X0146165Y0214835D02*
X0139291Y0214835D01*
X0135817Y0214825D01*
X0132161Y0214825D01*
X0137303Y0136053D02*
X0137303Y0127212D01*
X0137303Y0106760D01*
X0137043Y0106500D01*
X0136803Y0127712D02*
X0130390Y0127712D01*
D33*
X0089925Y0207344D02*
X0086283Y0207344D01*
X0089925Y0207344D02*
X0090541Y0207960D01*
X0090541Y0214835D01*
X0090531Y0214825D01*
X0076047Y0207344D02*
X0066559Y0207344D01*
X0066165Y0207738D01*
X0145890Y0215000D02*
X0146000Y0215000D01*
X0146165Y0214835D01*
X0177650Y0214825D02*
X0178043Y0214431D01*
D34*
X0146165Y0214431D02*
X0145890Y0215000D01*
X0101015Y0180029D02*
X0099543Y0181500D01*
X0101015Y0180029D02*
X0104856Y0180029D01*
X0136731Y0136313D02*
X0137303Y0136053D01*
D35*
X0136731Y0136313D03*
X0150043Y0169125D03*
X0139291Y0214835D03*
X0071106Y0201062D03*
D36*
X0168382Y0121598D02*
X0180705Y0121598D01*
X0180705Y0118075D01*
X0180705Y0114925D01*
X0180705Y0111402D01*
M02*
