G75*
%MOIN*%
%OFA0B0*%
%FSLAX25Y25*%
%IPPOS*%
%LPD*%
%AMOC8*
5,1,8,0,0,1.08239X$1,22.5*
%
%ADD10R,0.04337X0.04731*%
%ADD11R,0.05124X0.05124*%
%ADD12R,0.04731X0.04337*%
%ADD13R,0.06699X0.05912*%
%ADD14R,0.07408X0.04416*%
%ADD15R,0.05912X0.06699*%
%ADD16R,0.04928X0.02132*%
%ADD17R,0.04928X0.02880*%
%ADD18R,0.05900X0.01770*%
%ADD19R,0.05124X0.02565*%
%ADD20R,0.01660X0.05361*%
%ADD21C,0.12998*%
%ADD22R,0.06837X0.06837*%
%ADD23C,0.06837*%
%ADD24R,0.03937X0.01772*%
%ADD25R,0.04331X0.02244*%
%ADD26R,0.06424X0.06424*%
%ADD27C,0.06424*%
%ADD28R,0.05709X0.01969*%
%ADD29C,0.00600*%
%ADD30R,0.07880X0.07487*%
%ADD31C,0.04900*%
D10*
X0116197Y0106500D03*
X0122890Y0106500D03*
X0089543Y0130654D03*
X0089543Y0137346D03*
X0104856Y0180029D03*
X0110793Y0180029D03*
X0110793Y0186721D03*
X0104856Y0186721D03*
X0066165Y0207738D03*
X0066165Y0214431D03*
X0097902Y0235516D03*
X0104594Y0235516D03*
X0133433Y0235516D03*
X0140126Y0235516D03*
X0146165Y0214431D03*
X0146165Y0207738D03*
X0159543Y0184846D03*
X0159543Y0178154D03*
X0178043Y0207738D03*
X0178043Y0214431D03*
X0175657Y0235516D03*
X0168965Y0235516D03*
X0204492Y0235516D03*
X0211185Y0235516D03*
X0172890Y0099937D03*
X0166197Y0099937D03*
X0166197Y0094312D03*
X0172890Y0094312D03*
X0157668Y0093154D03*
X0157668Y0099846D03*
D11*
X0168177Y0241500D03*
X0176445Y0241500D03*
X0203705Y0241500D03*
X0211972Y0241500D03*
X0140913Y0241500D03*
X0132646Y0241500D03*
X0105382Y0241500D03*
X0097114Y0241500D03*
D12*
X0144543Y0186721D03*
X0144543Y0180029D03*
X0130390Y0127712D03*
X0123697Y0127712D03*
X0181509Y0086500D03*
X0188202Y0086500D03*
D13*
X0185449Y0146500D03*
X0173638Y0146500D03*
D14*
X0096165Y0207581D03*
X0096165Y0214589D03*
D15*
X0111165Y0216990D03*
X0111165Y0205179D03*
D16*
X0180705Y0194637D03*
X0180705Y0191488D03*
X0188382Y0191488D03*
X0188382Y0194637D03*
X0188382Y0177137D03*
X0188382Y0173988D03*
X0180705Y0173988D03*
X0180705Y0177137D03*
X0180705Y0117450D03*
X0180705Y0114300D03*
X0188382Y0114300D03*
X0188382Y0117450D03*
X0200705Y0081825D03*
X0200705Y0078675D03*
X0208382Y0078675D03*
X0208382Y0081825D03*
D17*
X0208382Y0085348D03*
X0200705Y0085348D03*
X0200705Y0075152D03*
X0208382Y0075152D03*
X0188382Y0110777D03*
X0180705Y0110777D03*
X0180705Y0120973D03*
X0188382Y0120973D03*
X0188382Y0170464D03*
X0180705Y0170464D03*
X0180705Y0180661D03*
X0180705Y0187964D03*
X0188382Y0187964D03*
X0188382Y0180661D03*
X0188382Y0198161D03*
X0180705Y0198161D03*
D18*
X0158937Y0168759D03*
X0158937Y0166200D03*
X0158937Y0163641D03*
X0158937Y0161082D03*
X0158937Y0158523D03*
X0158937Y0155964D03*
X0158937Y0153405D03*
X0158937Y0150845D03*
X0158937Y0148286D03*
X0158937Y0145727D03*
X0158937Y0143168D03*
X0158937Y0140609D03*
X0158937Y0138050D03*
X0158937Y0135491D03*
X0130150Y0135491D03*
X0130150Y0138050D03*
X0130150Y0140609D03*
X0130150Y0143168D03*
X0130150Y0145727D03*
X0130150Y0148286D03*
X0130150Y0150845D03*
X0130150Y0153405D03*
X0130150Y0155964D03*
X0130150Y0158523D03*
X0130150Y0161082D03*
X0130150Y0163641D03*
X0130150Y0166200D03*
X0130150Y0168759D03*
D19*
X0132161Y0207344D03*
X0121925Y0207344D03*
X0121925Y0211085D03*
X0121925Y0214825D03*
X0132161Y0214825D03*
X0159157Y0214825D03*
X0159157Y0211085D03*
X0159157Y0207344D03*
X0169394Y0207344D03*
X0169394Y0214825D03*
X0086283Y0214825D03*
X0086283Y0211085D03*
X0086283Y0207344D03*
X0076047Y0207344D03*
X0076047Y0214825D03*
D20*
X0095791Y0172441D03*
X0098291Y0172441D03*
X0100791Y0172441D03*
X0103291Y0172441D03*
X0105791Y0172441D03*
X0108291Y0172441D03*
X0110791Y0172441D03*
X0113291Y0172441D03*
X0113291Y0150559D03*
X0110791Y0150559D03*
X0108291Y0150559D03*
X0105791Y0150559D03*
X0103291Y0150559D03*
X0100791Y0150559D03*
X0098291Y0150559D03*
X0095791Y0150559D03*
D21*
X0071866Y0078823D03*
X0237220Y0078823D03*
X0237220Y0244177D03*
X0071866Y0244177D03*
D22*
X0200961Y0206500D03*
D23*
X0200961Y0196500D03*
X0200961Y0186500D03*
X0200961Y0176500D03*
X0200961Y0166500D03*
X0200961Y0156500D03*
X0200961Y0146500D03*
X0200961Y0136500D03*
X0200961Y0126500D03*
X0200961Y0116500D03*
D24*
X0172934Y0115875D03*
X0172934Y0113316D03*
X0172934Y0110757D03*
X0172934Y0108198D03*
X0172934Y0118434D03*
X0172934Y0120993D03*
X0172934Y0123552D03*
X0149903Y0123552D03*
X0149903Y0120993D03*
X0149903Y0118434D03*
X0149903Y0115875D03*
X0149903Y0113316D03*
X0149903Y0110757D03*
X0149903Y0108198D03*
D25*
X0181312Y0099059D03*
X0181312Y0096500D03*
X0181312Y0093941D03*
X0188399Y0093941D03*
X0188399Y0096500D03*
X0188399Y0099059D03*
X0201000Y0099059D03*
X0201000Y0096500D03*
X0201000Y0093941D03*
X0208087Y0093941D03*
X0208087Y0096500D03*
X0208087Y0099059D03*
D26*
X0134543Y0076500D03*
D27*
X0144543Y0076500D03*
X0154543Y0076500D03*
X0164543Y0076500D03*
X0174543Y0076500D03*
D28*
X0072406Y0156382D03*
X0072406Y0158941D03*
X0072406Y0161500D03*
X0072406Y0164059D03*
X0072406Y0166618D03*
D29*
X0072854Y0168345D02*
X0072439Y0168490D01*
X0072066Y0168724D01*
X0071755Y0169035D01*
X0071521Y0169407D01*
X0071376Y0169823D01*
X0071327Y0170260D01*
X0071376Y0170697D01*
X0071521Y0171112D01*
X0071755Y0171485D01*
X0072066Y0171796D01*
X0072439Y0172030D01*
X0072854Y0172175D01*
X0073291Y0172224D01*
X0074079Y0172224D01*
X0074516Y0172175D01*
X0074931Y0172030D01*
X0075304Y0171796D01*
X0075615Y0171485D01*
X0075849Y0171112D01*
X0075994Y0170697D01*
X0076043Y0170260D01*
X0075994Y0169823D01*
X0075849Y0169407D01*
X0075615Y0169035D01*
X0075304Y0168724D01*
X0074931Y0168490D01*
X0074516Y0168345D01*
X0074079Y0168295D01*
X0073291Y0168295D01*
X0072854Y0168345D01*
X0072210Y0168634D02*
X0075160Y0168634D01*
X0075739Y0169232D02*
X0071632Y0169232D01*
X0071375Y0169831D02*
X0075995Y0169831D01*
X0076024Y0170429D02*
X0071346Y0170429D01*
X0071492Y0171028D02*
X0075878Y0171028D01*
X0075473Y0171626D02*
X0071897Y0171626D01*
X0065709Y0171642D02*
X0065709Y0177543D01*
X0065661Y0178023D01*
X0065522Y0178483D01*
X0065295Y0178908D01*
X0064989Y0179280D01*
X0064617Y0179586D01*
X0064192Y0179813D01*
X0063731Y0179953D01*
X0063252Y0180000D01*
X0060496Y0180000D01*
X0060017Y0179953D01*
X0059556Y0179813D01*
X0059131Y0179586D01*
X0058759Y0179280D01*
X0058453Y0178908D01*
X0058226Y0178483D01*
X0058087Y0178023D01*
X0058039Y0177543D01*
X0058039Y0171642D01*
X0065709Y0171642D01*
X0065709Y0172225D02*
X0058039Y0172225D01*
X0058039Y0172823D02*
X0065709Y0172823D01*
X0065709Y0173422D02*
X0058039Y0173422D01*
X0058039Y0174020D02*
X0065709Y0174020D01*
X0065709Y0174619D02*
X0058039Y0174619D01*
X0058039Y0175217D02*
X0065709Y0175217D01*
X0065709Y0175816D02*
X0058039Y0175816D01*
X0058039Y0176414D02*
X0065709Y0176414D01*
X0065709Y0177013D02*
X0058039Y0177013D01*
X0058046Y0177611D02*
X0065702Y0177611D01*
X0065605Y0178210D02*
X0058143Y0178210D01*
X0058400Y0178808D02*
X0065348Y0178808D01*
X0064835Y0179407D02*
X0058913Y0179407D01*
X0072439Y0154510D02*
X0072854Y0154655D01*
X0073291Y0154705D01*
X0074079Y0154705D01*
X0074516Y0154655D01*
X0074931Y0154510D01*
X0075304Y0154276D01*
X0075615Y0153965D01*
X0075849Y0153593D01*
X0075994Y0153177D01*
X0076043Y0152740D01*
X0075994Y0152303D01*
X0075849Y0151888D01*
X0075615Y0151515D01*
X0075304Y0151204D01*
X0074931Y0150970D01*
X0074516Y0150825D01*
X0074079Y0150776D01*
X0073291Y0150776D01*
X0072854Y0150825D01*
X0072439Y0150970D01*
X0072066Y0151204D01*
X0071755Y0151515D01*
X0071521Y0151888D01*
X0071376Y0152303D01*
X0071327Y0152740D01*
X0071376Y0153177D01*
X0071521Y0153593D01*
X0071755Y0153965D01*
X0072066Y0154276D01*
X0072439Y0154510D01*
X0072060Y0154269D02*
X0075310Y0154269D01*
X0075800Y0153671D02*
X0071570Y0153671D01*
X0071364Y0153072D02*
X0076006Y0153072D01*
X0076013Y0152474D02*
X0071357Y0152474D01*
X0071529Y0151875D02*
X0075841Y0151875D01*
X0075376Y0151277D02*
X0071994Y0151277D01*
X0065709Y0151277D02*
X0058039Y0151277D01*
X0058039Y0151358D02*
X0065709Y0151358D01*
X0065709Y0145457D01*
X0065647Y0144910D01*
X0065465Y0144391D01*
X0065173Y0143925D01*
X0064784Y0143536D01*
X0064318Y0143243D01*
X0063799Y0143062D01*
X0063252Y0143000D01*
X0060496Y0143000D01*
X0060017Y0143047D01*
X0059556Y0143187D01*
X0059131Y0143414D01*
X0058759Y0143720D01*
X0058453Y0144092D01*
X0058226Y0144517D01*
X0058087Y0144977D01*
X0058039Y0145457D01*
X0058039Y0151358D01*
X0058039Y0150678D02*
X0065709Y0150678D01*
X0065709Y0150080D02*
X0058039Y0150080D01*
X0058039Y0149481D02*
X0065709Y0149481D01*
X0065709Y0148883D02*
X0058039Y0148883D01*
X0058039Y0148284D02*
X0065709Y0148284D01*
X0065709Y0147686D02*
X0058039Y0147686D01*
X0058039Y0147087D02*
X0065709Y0147087D01*
X0065709Y0146489D02*
X0058039Y0146489D01*
X0058039Y0145890D02*
X0065709Y0145890D01*
X0065690Y0145292D02*
X0058056Y0145292D01*
X0058173Y0144693D02*
X0065571Y0144693D01*
X0065279Y0144095D02*
X0058452Y0144095D01*
X0059031Y0143496D02*
X0064720Y0143496D01*
D30*
X0061874Y0156972D03*
X0061874Y0166028D03*
D31*
X0071106Y0201062D03*
X0139291Y0214835D03*
X0150043Y0169125D03*
X0136731Y0136313D03*
M02*
