%
M48
M72
T01C0.0200
T02C0.0300
T03C0.0402
T04C0.0429
T05C0.1260
%
T01
X21954Y7650
X21423Y8369
X20454Y9025
X20017Y8900
X19298Y9181
X18486Y9088
X17767Y9181
X17736Y9650
X17298Y10463
X16361Y10463
X15329Y10494
X15829Y11244
X16236Y11338
X16704Y11775
X16298Y12088
X17736Y12463
X18392Y12463
X19298Y11744
X19611Y11181
X18954Y10556
X18361Y10713
X20517Y10244
X21548Y9713
X21954Y9650
X23954Y9650
X8954Y24650
X10954Y23650
X12454Y24150
X14454Y23650
X13942Y22087
X12754Y21150
X13942Y20775
X15254Y20775
X14454Y19650
X15954Y18994
X17798Y20275
X19392Y19463
X19361Y18713
X19361Y17681
X19486Y16275
X19548Y15400
X19298Y14619
X17204Y15713
X16598Y14462
X15204Y14813
X13673Y15019
X13642Y14619
X12392Y15088
X12329Y13713
X11798Y12744
X12954Y12088
X13298Y12306
X11954Y11150
X10954Y10650
X13704Y10650
X14361Y9681
X14361Y9275
X14361Y8869
X16173Y9650
X17298Y8525
X19267Y8181
X19579Y7869
X10204Y14400
X8954Y14400
X7392Y14619
X7892Y15619
X6173Y13900
X9454Y13056
X6954Y9650
X8954Y7650
X6954Y22650
X6611Y22025
X8054Y21108
X9454Y22075
X11736Y20213
X11079Y19213
X10486Y19213
X9898Y18994
X9954Y18150
X7361Y17775
X6204Y18369
X13017Y17275
X15154Y16013
X17329Y16994
X21642Y20056
X21117Y20483
X21117Y20827
X21642Y20744
X23954Y22650
X21642Y23650
X21954Y24650
X18048Y23650
X16923Y23025
T02
X13673Y13631
X15004Y16913
X13929Y21483
X7111Y20106
T03
X13454Y7650
X14454Y7650
X15454Y7650
X16454Y7650
X17454Y7650
T04
X20096Y17650
X20096Y16650
X20096Y15650
X20096Y14650
X20096Y13650
X20096Y12650
X20096Y11650
X20096Y18650
X20096Y19650
X20096Y20650
T05
X7187Y7882
X7187Y24418
X23722Y24418
X23722Y7882
M30
