G75*
%MOIN*%
%OFA0B0*%
%FSLAX25Y25*%
%IPPOS*%
%LPD*%
%AMOC8*
5,1,8,0,0,1.08239X$1,22.5*
%
%ADD10R,0.05124X0.05124*%
%ADD11C,0.12998*%
%ADD12R,0.06837X0.06837*%
%ADD13C,0.06837*%
%ADD14R,0.06424X0.06424*%
%ADD15C,0.06424*%
%ADD16C,0.00600*%
%ADD17C,0.04337*%
%ADD18C,0.04900*%
D10*
X0097114Y0241500D03*
X0105382Y0241500D03*
X0132646Y0241500D03*
X0140913Y0241500D03*
X0168177Y0241500D03*
X0176445Y0241500D03*
X0203705Y0241500D03*
X0211972Y0241500D03*
D11*
X0071866Y0078823D03*
X0237220Y0078823D03*
X0237220Y0244177D03*
X0071866Y0244177D03*
D12*
X0200961Y0206500D03*
D13*
X0200961Y0196500D03*
X0200961Y0186500D03*
X0200961Y0176500D03*
X0200961Y0166500D03*
X0200961Y0156500D03*
X0200961Y0146500D03*
X0200961Y0136500D03*
X0200961Y0126500D03*
X0200961Y0116500D03*
D14*
X0134543Y0076500D03*
D15*
X0144543Y0076500D03*
X0154543Y0076500D03*
X0164543Y0076500D03*
X0174543Y0076500D03*
D16*
X0075615Y0151515D02*
X0075304Y0151204D01*
X0074931Y0150970D01*
X0074516Y0150825D01*
X0074079Y0150776D01*
X0073291Y0150776D01*
X0072854Y0150825D01*
X0072439Y0150970D01*
X0072066Y0151204D01*
X0071755Y0151515D01*
X0071521Y0151888D01*
X0071376Y0152303D01*
X0071327Y0152740D01*
X0071376Y0153177D01*
X0071521Y0153593D01*
X0071755Y0153965D01*
X0072066Y0154276D01*
X0072439Y0154510D01*
X0072854Y0154655D01*
X0073291Y0154705D01*
X0074079Y0154705D01*
X0074516Y0154655D01*
X0074931Y0154510D01*
X0075304Y0154276D01*
X0075615Y0153965D01*
X0075849Y0153593D01*
X0075994Y0153177D01*
X0076043Y0152740D01*
X0075994Y0152303D01*
X0075849Y0151888D01*
X0075615Y0151515D01*
X0075376Y0151277D02*
X0071994Y0151277D01*
X0071529Y0151875D02*
X0075841Y0151875D01*
X0076013Y0152474D02*
X0071357Y0152474D01*
X0071364Y0153072D02*
X0076006Y0153072D01*
X0075800Y0153671D02*
X0071570Y0153671D01*
X0072060Y0154269D02*
X0075310Y0154269D01*
X0074079Y0168295D02*
X0073291Y0168295D01*
X0072854Y0168345D01*
X0072439Y0168490D01*
X0072066Y0168724D01*
X0071755Y0169035D01*
X0071521Y0169407D01*
X0071376Y0169823D01*
X0071327Y0170260D01*
X0071376Y0170697D01*
X0071521Y0171112D01*
X0071755Y0171485D01*
X0072066Y0171796D01*
X0072439Y0172030D01*
X0072854Y0172175D01*
X0073291Y0172224D01*
X0074079Y0172224D01*
X0074516Y0172175D01*
X0074931Y0172030D01*
X0075304Y0171796D01*
X0075615Y0171485D01*
X0075849Y0171112D01*
X0075994Y0170697D01*
X0076043Y0170260D01*
X0075994Y0169823D01*
X0075849Y0169407D01*
X0075615Y0169035D01*
X0075304Y0168724D01*
X0074931Y0168490D01*
X0074516Y0168345D01*
X0074079Y0168295D01*
X0075160Y0168634D02*
X0072210Y0168634D01*
X0071632Y0169232D02*
X0075739Y0169232D01*
X0075995Y0169831D02*
X0071375Y0169831D01*
X0071346Y0170429D02*
X0076024Y0170429D01*
X0075878Y0171028D02*
X0071492Y0171028D01*
X0071897Y0171626D02*
X0075473Y0171626D01*
D17*
X0060496Y0177937D02*
X0060496Y0177937D01*
X0063252Y0177937D01*
X0063252Y0177937D01*
X0060496Y0177937D01*
X0060496Y0145063D02*
X0060496Y0145063D01*
X0063252Y0145063D01*
X0063252Y0145063D01*
X0060496Y0145063D01*
D18*
X0136731Y0136313D03*
X0150043Y0169125D03*
X0139291Y0214835D03*
X0071106Y0201062D03*
M02*
